M48
; DRILL file {KiCad 7.0.7} date Tue Feb 27 23:19:38 2024
; FORMAT={-:-/ absolute / inch / decimal}
; #@! TF.CreationDate,2024-02-27T23:19:38+01:00
; #@! TF.GenerationSoftware,Kicad,Pcbnew,7.0.7
; #@! TF.FileFunction,Plated,1,2,PTH
FMAT,2
INCH
; #@! TA.AperFunction,Plated,PTH,ViaDrill
T1C0.0118
; #@! TA.AperFunction,Plated,PTH,ComponentDrill
T2C0.0197
; #@! TA.AperFunction,Plated,PTH,ComponentDrill
T3C0.0236
; #@! TA.AperFunction,Plated,PTH,ComponentDrill
T4C0.0295
; #@! TA.AperFunction,Plated,PTH,ComponentDrill
T5C0.0315
; #@! TA.AperFunction,Plated,PTH,ComponentDrill
T6C0.0354
; #@! TA.AperFunction,Plated,PTH,ComponentDrill
T7C0.0394
; #@! TA.AperFunction,Plated,PTH,ComponentDrill
T8C0.0433
; #@! TA.AperFunction,Plated,PTH,ComponentDrill
T9C0.0472
; #@! TA.AperFunction,Plated,PTH,ComponentDrill
T10C0.0598
; #@! TA.AperFunction,Plated,PTH,ComponentDrill
T11C0.1260
%
G90
G05
T1
X4.8622Y-4.022
X5.561Y-3.3858
X5.8268Y-3.8878
T2
X4.0394Y-2.5591
X4.0394Y-4.5276
X4.067Y-2.4922
X4.067Y-2.6259
X4.067Y-4.4607
X4.067Y-4.5944
X4.1339Y-2.4646
X4.1339Y-2.6535
X4.1339Y-4.4331
X4.1339Y-4.622
X4.2007Y-2.4922
X4.2007Y-2.6259
X4.2007Y-4.4607
X4.2007Y-4.5944
X4.2283Y-2.5591
X4.2283Y-4.5276
X7.189Y-2.5591
X7.189Y-4.5276
X7.2167Y-2.4922
X7.2167Y-2.6259
X7.2167Y-4.4607
X7.2167Y-4.5944
X7.2835Y-2.4646
X7.2835Y-2.6535
X7.2835Y-4.4331
X7.2835Y-4.622
X7.3503Y-2.4922
X7.3503Y-2.6259
X7.3503Y-4.4607
X7.3503Y-4.5944
X7.378Y-2.5591
X7.378Y-4.5276
T3
X4.5571Y-3.9146
X4.6358Y-3.9146
T4
X6.6764Y-4.152
X6.6764Y-4.202
X6.6764Y-4.252
X6.6831Y-3.5819
X6.6831Y-3.6319
X6.6831Y-3.6819
T5
X4.3055Y-3.839
X4.3055Y-4.239
X4.5736Y-3.3713
X4.5736Y-3.4713
X4.5736Y-3.5713
X4.5736Y-3.6713
X4.8736Y-3.3713
X4.8736Y-3.4713
X4.8736Y-3.5713
X4.8736Y-3.6713
X5.0886Y-3.0874
X5.0886Y-3.4874
X5.0886Y-3.6681
X5.0886Y-4.0681
X5.6661Y-3.2283
X5.7165Y-3.4528
X5.7165Y-3.5528
X5.7165Y-3.6528
X5.7165Y-3.7528
X6.0165Y-3.4528
X6.0165Y-3.5528
X6.0165Y-3.6528
X6.0165Y-3.7528
X6.0661Y-3.2283
X6.3287Y-3.4516
X6.3287Y-3.8516
X6.5224Y-2.7461
X6.5224Y-2.9528
X6.5224Y-3.1693
X6.6634Y-3.9764
X6.6701Y-3.3957
X6.9224Y-2.7461
X6.9224Y-2.9528
X6.9224Y-3.1693
X7.0634Y-3.9764
X7.0701Y-3.3957
X7.3228Y-3.3795
X7.3228Y-3.7795
X7.3228Y-3.8846
X7.3228Y-4.2846
T6
X4.3055Y-3.5697
X4.3055Y-3.6697
X5.8858Y-2.815
X6.185Y-2.815
X6.9313Y-4.2126
X6.9384Y-3.6228
X7.0313Y-4.2126
X7.0384Y-3.6228
T8
X5.3346Y-4.2441
X5.3346Y-4.5
X5.5118Y-4.2441
X5.5118Y-4.5
T9
X5.8858Y-4.4488
X6.0827Y-4.4488
X6.2795Y-4.4488
T10
X5.1181Y-2.5492
X5.3181Y-2.5492
X7.313Y-2.861
X7.313Y-3.061
T11
X4.1339Y-2.5591
X4.1339Y-4.5276
X7.2835Y-2.5591
X7.2835Y-4.5276
T7
G00X4.5Y-2.7854
M15
G01X4.5Y-2.8642
M16
G05
G00X4.7244Y-2.7067
M15
G01X4.6457Y-2.7067
M16
G05
G00X4.7244Y-2.9429
M15
G01X4.6457Y-2.9429
M16
G05
T0
M30
