%TF.GenerationSoftware,KiCad,Pcbnew,7.0.7*%
%TF.CreationDate,2024-02-27T23:19:37+01:00*%
%TF.ProjectId,BuzzWireGame,42757a7a-5769-4726-9547-616d652e6b69,v1.0*%
%TF.SameCoordinates,Original*%
%TF.FileFunction,Copper,L2,Bot*%
%TF.FilePolarity,Positive*%
%FSLAX46Y46*%
G04 Gerber Fmt 4.6, Leading zero omitted, Abs format (unit mm)*
G04 Created by KiCad (PCBNEW 7.0.7) date 2024-02-27 23:19:37*
%MOMM*%
%LPD*%
G01*
G04 APERTURE LIST*
G04 Aperture macros list*
%AMRoundRect*
0 Rectangle with rounded corners*
0 $1 Rounding radius*
0 $2 $3 $4 $5 $6 $7 $8 $9 X,Y pos of 4 corners*
0 Add a 4 corners polygon primitive as box body*
4,1,4,$2,$3,$4,$5,$6,$7,$8,$9,$2,$3,0*
0 Add four circle primitives for the rounded corners*
1,1,$1+$1,$2,$3*
1,1,$1+$1,$4,$5*
1,1,$1+$1,$6,$7*
1,1,$1+$1,$8,$9*
0 Add four rect primitives between the rounded corners*
20,1,$1+$1,$2,$3,$4,$5,0*
20,1,$1+$1,$4,$5,$6,$7,0*
20,1,$1+$1,$6,$7,$8,$9,0*
20,1,$1+$1,$8,$9,$2,$3,0*%
G04 Aperture macros list end*
%TA.AperFunction,ComponentPad*%
%ADD10R,1.200000X1.200000*%
%TD*%
%TA.AperFunction,ComponentPad*%
%ADD11C,1.200000*%
%TD*%
%TA.AperFunction,ComponentPad*%
%ADD12C,0.800000*%
%TD*%
%TA.AperFunction,ComponentPad*%
%ADD13C,6.400000*%
%TD*%
%TA.AperFunction,ComponentPad*%
%ADD14C,1.600000*%
%TD*%
%TA.AperFunction,ComponentPad*%
%ADD15O,1.600000X1.600000*%
%TD*%
%TA.AperFunction,ComponentPad*%
%ADD16R,1.500000X1.050000*%
%TD*%
%TA.AperFunction,ComponentPad*%
%ADD17O,1.500000X1.050000*%
%TD*%
%TA.AperFunction,ComponentPad*%
%ADD18C,2.000000*%
%TD*%
%TA.AperFunction,ComponentPad*%
%ADD19R,1.800000X1.800000*%
%TD*%
%TA.AperFunction,ComponentPad*%
%ADD20C,1.800000*%
%TD*%
%TA.AperFunction,ComponentPad*%
%ADD21R,3.500000X3.500000*%
%TD*%
%TA.AperFunction,ComponentPad*%
%ADD22RoundRect,0.750000X-1.000000X0.750000X-1.000000X-0.750000X1.000000X-0.750000X1.000000X0.750000X0*%
%TD*%
%TA.AperFunction,ComponentPad*%
%ADD23RoundRect,0.875000X-0.875000X0.875000X-0.875000X-0.875000X0.875000X-0.875000X0.875000X0.875000X0*%
%TD*%
%TA.AperFunction,ComponentPad*%
%ADD24R,1.600000X1.600000*%
%TD*%
%TA.AperFunction,ComponentPad*%
%ADD25R,3.000000X3.000000*%
%TD*%
%TA.AperFunction,ComponentPad*%
%ADD26C,3.000000*%
%TD*%
%TA.AperFunction,ComponentPad*%
%ADD27RoundRect,0.249900X-0.600100X-0.600100X0.600100X-0.600100X0.600100X0.600100X-0.600100X0.600100X0*%
%TD*%
%TA.AperFunction,ComponentPad*%
%ADD28C,1.700000*%
%TD*%
%TA.AperFunction,ViaPad*%
%ADD29C,0.500000*%
%TD*%
%TA.AperFunction,Conductor*%
%ADD30C,0.300000*%
%TD*%
G04 APERTURE END LIST*
D10*
%TO.P,C5,1*%
%TO.N,Net-(U2-THR)*%
X117750000Y-99430000D03*
D11*
%TO.P,C5,2*%
%TO.N,GND*%
X115750000Y-99430000D03*
%TD*%
D12*
%TO.P,H1,1,1*%
%TO.N,GND*%
X102600000Y-65000000D03*
X103302944Y-63302944D03*
X103302944Y-66697056D03*
X105000000Y-62600000D03*
D13*
X105000000Y-65000000D03*
D12*
X105000000Y-67400000D03*
X106697056Y-63302944D03*
X106697056Y-66697056D03*
X107400000Y-65000000D03*
%TD*%
D14*
%TO.P,R6,1*%
%TO.N,+9V*%
X186000000Y-98670000D03*
D15*
%TO.P,R6,2*%
%TO.N,Net-(D1-A)*%
X186000000Y-108830000D03*
%TD*%
D16*
%TO.P,Q1,1,C*%
%TO.N,Net-(D3-A)*%
X169750000Y-93520000D03*
D17*
%TO.P,Q1,2,B*%
%TO.N,TIMER_RESET*%
X169750000Y-92250000D03*
%TO.P,Q1,3,E*%
%TO.N,Net-(Q1-E)*%
X169750000Y-90980000D03*
%TD*%
D18*
%TO.P,SW1,1,1*%
%TO.N,Net-(J2-Pin_2)*%
X135500000Y-114300000D03*
X135500000Y-107800000D03*
%TO.P,SW1,2,2*%
%TO.N,TIMER_RESET*%
X140000000Y-114300000D03*
X140000000Y-107800000D03*
%TD*%
D14*
%TO.P,R12,1*%
%TO.N,Net-(D2-K)*%
X109360000Y-97510000D03*
D15*
%TO.P,R12,2*%
%TO.N,GND*%
X109360000Y-107670000D03*
%TD*%
D14*
%TO.P,R3,1*%
%TO.N,GND*%
X175830000Y-69750000D03*
D15*
%TO.P,R3,2*%
%TO.N,Net-(LS1-Pad2)*%
X165670000Y-69750000D03*
%TD*%
D19*
%TO.P,D1,1,K*%
%TO.N,Net-(D1-K)*%
X176055000Y-107000000D03*
D20*
%TO.P,D1,2,A*%
%TO.N,Net-(D1-A)*%
X178595000Y-107000000D03*
%TD*%
D12*
%TO.P,H2,1,1*%
%TO.N,GND*%
X182600000Y-65000000D03*
X183302944Y-63302944D03*
X183302944Y-66697056D03*
X185000000Y-62600000D03*
D13*
X185000000Y-65000000D03*
D12*
X185000000Y-67400000D03*
X186697056Y-63302944D03*
X186697056Y-66697056D03*
X187400000Y-65000000D03*
%TD*%
D14*
%TO.P,R10,1*%
%TO.N,GND*%
X179410000Y-101000000D03*
D15*
%TO.P,R10,2*%
%TO.N,Net-(Q2-E)*%
X169250000Y-101000000D03*
%TD*%
D14*
%TO.P,R8,1*%
%TO.N,+9V*%
X129250000Y-78420000D03*
D15*
%TO.P,R8,2*%
%TO.N,Net-(U2-DIS)*%
X129250000Y-88580000D03*
%TD*%
D12*
%TO.P,H3,1,1*%
%TO.N,GND*%
X102600000Y-115000000D03*
X103302944Y-113302944D03*
X103302944Y-116697056D03*
X105000000Y-112600000D03*
D13*
X105000000Y-115000000D03*
D12*
X105000000Y-117400000D03*
X106697056Y-113302944D03*
X106697056Y-116697056D03*
X107400000Y-115000000D03*
%TD*%
D21*
%TO.P,J1,1*%
%TO.N,+9V*%
X119000000Y-74750000D03*
D22*
%TO.P,J1,2*%
%TO.N,GND*%
X119000000Y-68750000D03*
D23*
%TO.P,J1,3*%
%TO.N,BATT_NEG*%
X114300000Y-71750000D03*
%TD*%
D24*
%TO.P,U2,1,GND*%
%TO.N,GND*%
X116170000Y-85630000D03*
D15*
%TO.P,U2,2,TR*%
%TO.N,Net-(U2-THR)*%
X116170000Y-88170000D03*
%TO.P,U2,3,Q*%
%TO.N,Net-(D2-A)*%
X116170000Y-90710000D03*
%TO.P,U2,4,R*%
%TO.N,+9V*%
X116170000Y-93250000D03*
%TO.P,U2,5,CV*%
%TO.N,Net-(U2-CV)*%
X123790000Y-93250000D03*
%TO.P,U2,6,THR*%
%TO.N,Net-(U2-THR)*%
X123790000Y-90710000D03*
%TO.P,U2,7,DIS*%
%TO.N,Net-(U2-DIS)*%
X123790000Y-88170000D03*
%TO.P,U2,8,VCC*%
%TO.N,+9V*%
X123790000Y-85630000D03*
%TD*%
D14*
%TO.P,R1,1*%
%TO.N,+9V*%
X160750000Y-87670000D03*
D15*
%TO.P,R1,2*%
%TO.N,Net-(R1-Pad2)*%
X160750000Y-97830000D03*
%TD*%
D25*
%TO.P,J2,1,Pin_1*%
%TO.N,TIMER_RESET*%
X185750000Y-77750000D03*
D26*
%TO.P,J2,2,Pin_2*%
%TO.N,Net-(J2-Pin_2)*%
X185750000Y-72670000D03*
%TD*%
D27*
%TO.P,LS1,1,1*%
%TO.N,Net-(C2-Pad2)*%
X149500000Y-71500000D03*
D28*
%TO.P,LS1,2,2*%
%TO.N,Net-(LS1-Pad2)*%
X157100000Y-71500000D03*
%TD*%
D14*
%TO.P,R9,1*%
%TO.N,Net-(Q1-E)*%
X169420000Y-86250000D03*
D15*
%TO.P,R9,2*%
%TO.N,GND*%
X179580000Y-86250000D03*
%TD*%
D14*
%TO.P,R5,1*%
%TO.N,GND*%
X165670000Y-80500000D03*
D15*
%TO.P,R5,2*%
%TO.N,TIMER_RESET*%
X175830000Y-80500000D03*
%TD*%
D14*
%TO.P,R4,1*%
%TO.N,Net-(U1-DIS)*%
X154080000Y-82000000D03*
D15*
%TO.P,R4,2*%
%TO.N,Net-(U1-THR)*%
X143920000Y-82000000D03*
%TD*%
D19*
%TO.P,D3,1,K*%
%TO.N,GND*%
X178775000Y-92020000D03*
D20*
%TO.P,D3,2,A*%
%TO.N,Net-(D3-A)*%
X176235000Y-92020000D03*
%TD*%
D24*
%TO.P,U1,1,GND*%
%TO.N,GND*%
X145200000Y-87700000D03*
D15*
%TO.P,U1,2,TR*%
%TO.N,Net-(U1-THR)*%
X145200000Y-90240000D03*
%TO.P,U1,3,Q*%
%TO.N,Net-(U1-Q)*%
X145200000Y-92780000D03*
%TO.P,U1,4,R*%
%TO.N,TIMER_RESET*%
X145200000Y-95320000D03*
%TO.P,U1,5,CV*%
%TO.N,Net-(U1-CV)*%
X152820000Y-95320000D03*
%TO.P,U1,6,THR*%
%TO.N,Net-(U1-THR)*%
X152820000Y-92780000D03*
%TO.P,U1,7,DIS*%
%TO.N,Net-(U1-DIS)*%
X152820000Y-90240000D03*
%TO.P,U1,8,VCC*%
%TO.N,+9V*%
X152820000Y-87700000D03*
%TD*%
D14*
%TO.P,R2,1*%
%TO.N,Net-(J2-Pin_2)*%
X175830000Y-75000000D03*
D15*
%TO.P,R2,2*%
%TO.N,+9V*%
X165670000Y-75000000D03*
%TD*%
D14*
%TO.P,R7,1*%
%TO.N,+9V*%
X186000000Y-96000000D03*
D15*
%TO.P,R7,2*%
%TO.N,Net-(D3-A)*%
X186000000Y-85840000D03*
%TD*%
D16*
%TO.P,Q2,1,C*%
%TO.N,Net-(D1-K)*%
X169580000Y-108000000D03*
D17*
%TO.P,Q2,2,B*%
%TO.N,TIMER_RESET*%
X169580000Y-106730000D03*
%TO.P,Q2,3,E*%
%TO.N,Net-(Q2-E)*%
X169580000Y-105460000D03*
%TD*%
D19*
%TO.P,D2,1,K*%
%TO.N,Net-(D2-K)*%
X109360000Y-93210000D03*
D20*
%TO.P,D2,2,A*%
%TO.N,Net-(D2-A)*%
X109360000Y-90670000D03*
%TD*%
D25*
%TO.P,BT1,1,+*%
%TO.N,+9V*%
X135080000Y-64750000D03*
D26*
%TO.P,BT1,2,-*%
%TO.N,BATT_NEG*%
X130000000Y-64750000D03*
%TD*%
D12*
%TO.P,H4,1,1*%
%TO.N,GND*%
X182600000Y-115000000D03*
X183302944Y-113302944D03*
X183302944Y-116697056D03*
X185000000Y-112600000D03*
D13*
X185000000Y-115000000D03*
D12*
X185000000Y-117400000D03*
X186697056Y-113302944D03*
X186697056Y-116697056D03*
X187400000Y-115000000D03*
%TD*%
D25*
%TO.P,RV1,1,1*%
%TO.N,Net-(U1-DIS)*%
X149500000Y-113000000D03*
D26*
%TO.P,RV1,2,2*%
X154500000Y-113000000D03*
%TO.P,RV1,3,3*%
%TO.N,Net-(R1-Pad2)*%
X159500000Y-113000000D03*
%TD*%
D14*
%TO.P,R11,1*%
%TO.N,Net-(U2-DIS)*%
X129250000Y-93170000D03*
D15*
%TO.P,R11,2*%
%TO.N,Net-(U2-THR)*%
X129250000Y-103330000D03*
%TD*%
D29*
%TO.N,GND*%
X148000000Y-98750000D03*
X123500000Y-102160000D03*
X141250000Y-86000000D03*
%TD*%
D30*
%TO.N,+9V*%
X165750000Y-96000000D02*
X160750000Y-91000000D01*
X186000000Y-96000000D02*
X165750000Y-96000000D01*
X160750000Y-91000000D02*
X160750000Y-87670000D01*
%TO.N,Net-(J2-Pin_2)*%
X166580000Y-84250000D02*
X160000000Y-84250000D01*
X135500000Y-107800000D02*
X139800000Y-103500000D01*
X175830000Y-75000000D02*
X166580000Y-84250000D01*
X152250000Y-103500000D02*
X139800000Y-103500000D01*
X157250000Y-87000000D02*
X157250000Y-98500000D01*
X160000000Y-84250000D02*
X157250000Y-87000000D01*
X157250000Y-98500000D02*
X152250000Y-103500000D01*
%TD*%
%TA.AperFunction,Conductor*%
%TO.N,GND*%
G36*
X106403118Y-116050215D02*
G01*
X106411710Y-116058157D01*
X106600375Y-116246822D01*
X106638939Y-116313617D01*
X106638939Y-116390745D01*
X106600375Y-116457540D01*
X106577796Y-116476070D01*
X106516816Y-116516815D01*
X106516815Y-116516816D01*
X106476070Y-116577796D01*
X106418082Y-116628650D01*
X106342435Y-116643697D01*
X106269401Y-116618905D01*
X106246822Y-116600375D01*
X106058157Y-116411710D01*
X106019593Y-116344915D01*
X106019593Y-116267787D01*
X106058157Y-116200992D01*
X106066740Y-116193057D01*
X106134870Y-116134870D01*
X106193051Y-116066748D01*
X106256612Y-116023063D01*
X106333503Y-116017011D01*
X106403118Y-116050215D01*
G37*
%TD.AperFunction*%
%TA.AperFunction,Conductor*%
G36*
X103799006Y-116058157D02*
G01*
X103806947Y-116066748D01*
X103865125Y-116134865D01*
X103865127Y-116134867D01*
X103865130Y-116134870D01*
X103933252Y-116193052D01*
X103976936Y-116256611D01*
X103982988Y-116333502D01*
X103949785Y-116403117D01*
X103941842Y-116411709D01*
X103753177Y-116600374D01*
X103686382Y-116638938D01*
X103609254Y-116638938D01*
X103542459Y-116600374D01*
X103523929Y-116577795D01*
X103483184Y-116516816D01*
X103483182Y-116516814D01*
X103422202Y-116476068D01*
X103371349Y-116418080D01*
X103356302Y-116342434D01*
X103381095Y-116269399D01*
X103399624Y-116246821D01*
X103588288Y-116058157D01*
X103655083Y-116019593D01*
X103732211Y-116019593D01*
X103799006Y-116058157D01*
G37*
%TD.AperFunction*%
%TA.AperFunction,Conductor*%
G36*
X103730596Y-113381093D02*
G01*
X103753177Y-113399624D01*
X103941842Y-113588289D01*
X103980406Y-113655084D01*
X103980406Y-113732212D01*
X103941842Y-113799007D01*
X103933252Y-113806947D01*
X103865135Y-113865125D01*
X103865125Y-113865135D01*
X103806947Y-113933252D01*
X103743383Y-113976937D01*
X103666493Y-113982988D01*
X103596879Y-113949782D01*
X103588289Y-113941842D01*
X103399624Y-113753177D01*
X103361060Y-113686382D01*
X103361060Y-113609254D01*
X103399624Y-113542459D01*
X103422199Y-113523932D01*
X103483184Y-113483184D01*
X103523931Y-113422202D01*
X103581915Y-113371350D01*
X103657561Y-113356302D01*
X103730596Y-113381093D01*
G37*
%TD.AperFunction*%
%TA.AperFunction,Conductor*%
G36*
X106457539Y-113399624D02*
G01*
X106476068Y-113422202D01*
X106516814Y-113483182D01*
X106516816Y-113483184D01*
X106577795Y-113523929D01*
X106628649Y-113581917D01*
X106643696Y-113657563D01*
X106618904Y-113730598D01*
X106600374Y-113753177D01*
X106411709Y-113941842D01*
X106344914Y-113980406D01*
X106267786Y-113980406D01*
X106200991Y-113941842D01*
X106193070Y-113933274D01*
X106134870Y-113865130D01*
X106134867Y-113865127D01*
X106134865Y-113865125D01*
X106066748Y-113806947D01*
X106023062Y-113743383D01*
X106017011Y-113666493D01*
X106050216Y-113596879D01*
X106058157Y-113588288D01*
X106246821Y-113399624D01*
X106313616Y-113361060D01*
X106390744Y-113361060D01*
X106457539Y-113399624D01*
G37*
%TD.AperFunction*%
%TA.AperFunction,Conductor*%
G36*
X186403118Y-116050215D02*
G01*
X186411710Y-116058157D01*
X186600375Y-116246822D01*
X186638939Y-116313617D01*
X186638939Y-116390745D01*
X186600375Y-116457540D01*
X186577796Y-116476070D01*
X186516816Y-116516815D01*
X186516815Y-116516816D01*
X186476070Y-116577796D01*
X186418082Y-116628650D01*
X186342435Y-116643697D01*
X186269401Y-116618905D01*
X186246822Y-116600375D01*
X186058157Y-116411710D01*
X186019593Y-116344915D01*
X186019593Y-116267787D01*
X186058157Y-116200992D01*
X186066740Y-116193057D01*
X186134870Y-116134870D01*
X186193051Y-116066748D01*
X186256612Y-116023063D01*
X186333503Y-116017011D01*
X186403118Y-116050215D01*
G37*
%TD.AperFunction*%
%TA.AperFunction,Conductor*%
G36*
X183799006Y-116058157D02*
G01*
X183806947Y-116066748D01*
X183865125Y-116134865D01*
X183865127Y-116134867D01*
X183865130Y-116134870D01*
X183933252Y-116193052D01*
X183976936Y-116256611D01*
X183982988Y-116333502D01*
X183949785Y-116403117D01*
X183941842Y-116411709D01*
X183753177Y-116600374D01*
X183686382Y-116638938D01*
X183609254Y-116638938D01*
X183542459Y-116600374D01*
X183523929Y-116577795D01*
X183483184Y-116516816D01*
X183483182Y-116516814D01*
X183422202Y-116476068D01*
X183371349Y-116418080D01*
X183356302Y-116342434D01*
X183381095Y-116269399D01*
X183399624Y-116246821D01*
X183588288Y-116058157D01*
X183655083Y-116019593D01*
X183732211Y-116019593D01*
X183799006Y-116058157D01*
G37*
%TD.AperFunction*%
%TA.AperFunction,Conductor*%
G36*
X183730596Y-113381093D02*
G01*
X183753177Y-113399624D01*
X183941842Y-113588289D01*
X183980406Y-113655084D01*
X183980406Y-113732212D01*
X183941842Y-113799007D01*
X183933252Y-113806947D01*
X183865135Y-113865125D01*
X183865125Y-113865135D01*
X183806947Y-113933252D01*
X183743383Y-113976937D01*
X183666493Y-113982988D01*
X183596879Y-113949782D01*
X183588289Y-113941842D01*
X183399624Y-113753177D01*
X183361060Y-113686382D01*
X183361060Y-113609254D01*
X183399624Y-113542459D01*
X183422199Y-113523932D01*
X183483184Y-113483184D01*
X183523931Y-113422202D01*
X183581915Y-113371350D01*
X183657561Y-113356302D01*
X183730596Y-113381093D01*
G37*
%TD.AperFunction*%
%TA.AperFunction,Conductor*%
G36*
X186457539Y-113399624D02*
G01*
X186476068Y-113422202D01*
X186516814Y-113483182D01*
X186516816Y-113483184D01*
X186577795Y-113523929D01*
X186628649Y-113581917D01*
X186643696Y-113657563D01*
X186618904Y-113730598D01*
X186600374Y-113753177D01*
X186411709Y-113941842D01*
X186344914Y-113980406D01*
X186267786Y-113980406D01*
X186200991Y-113941842D01*
X186193070Y-113933274D01*
X186134870Y-113865130D01*
X186134867Y-113865127D01*
X186134865Y-113865125D01*
X186066748Y-113806947D01*
X186023062Y-113743383D01*
X186017011Y-113666493D01*
X186050216Y-113596879D01*
X186058157Y-113588288D01*
X186246821Y-113399624D01*
X186313616Y-113361060D01*
X186390744Y-113361060D01*
X186457539Y-113399624D01*
G37*
%TD.AperFunction*%
%TA.AperFunction,Conductor*%
G36*
X106403118Y-66050215D02*
G01*
X106411710Y-66058157D01*
X106600375Y-66246822D01*
X106638939Y-66313617D01*
X106638939Y-66390745D01*
X106600375Y-66457540D01*
X106577796Y-66476070D01*
X106516816Y-66516815D01*
X106516815Y-66516816D01*
X106476070Y-66577796D01*
X106418082Y-66628650D01*
X106342435Y-66643697D01*
X106269401Y-66618905D01*
X106246822Y-66600375D01*
X106058157Y-66411710D01*
X106019593Y-66344915D01*
X106019593Y-66267787D01*
X106058157Y-66200992D01*
X106066740Y-66193057D01*
X106134870Y-66134870D01*
X106193051Y-66066748D01*
X106256612Y-66023063D01*
X106333503Y-66017011D01*
X106403118Y-66050215D01*
G37*
%TD.AperFunction*%
%TA.AperFunction,Conductor*%
G36*
X103799006Y-66058157D02*
G01*
X103806947Y-66066748D01*
X103865125Y-66134865D01*
X103865127Y-66134867D01*
X103865130Y-66134870D01*
X103933252Y-66193052D01*
X103976936Y-66256611D01*
X103982988Y-66333502D01*
X103949785Y-66403117D01*
X103941842Y-66411709D01*
X103753177Y-66600374D01*
X103686382Y-66638938D01*
X103609254Y-66638938D01*
X103542459Y-66600374D01*
X103523929Y-66577795D01*
X103483184Y-66516816D01*
X103483182Y-66516814D01*
X103422202Y-66476068D01*
X103371349Y-66418080D01*
X103356302Y-66342434D01*
X103381095Y-66269399D01*
X103399624Y-66246821D01*
X103588288Y-66058157D01*
X103655083Y-66019593D01*
X103732211Y-66019593D01*
X103799006Y-66058157D01*
G37*
%TD.AperFunction*%
%TA.AperFunction,Conductor*%
G36*
X103730596Y-63381093D02*
G01*
X103753177Y-63399624D01*
X103941842Y-63588289D01*
X103980406Y-63655084D01*
X103980406Y-63732212D01*
X103941842Y-63799007D01*
X103933252Y-63806947D01*
X103865135Y-63865125D01*
X103865125Y-63865135D01*
X103806947Y-63933252D01*
X103743383Y-63976937D01*
X103666493Y-63982988D01*
X103596879Y-63949782D01*
X103588289Y-63941842D01*
X103399624Y-63753177D01*
X103361060Y-63686382D01*
X103361060Y-63609254D01*
X103399624Y-63542459D01*
X103422199Y-63523932D01*
X103483184Y-63483184D01*
X103523931Y-63422202D01*
X103581915Y-63371350D01*
X103657561Y-63356302D01*
X103730596Y-63381093D01*
G37*
%TD.AperFunction*%
%TA.AperFunction,Conductor*%
G36*
X106457539Y-63399624D02*
G01*
X106476068Y-63422202D01*
X106516814Y-63483182D01*
X106516816Y-63483184D01*
X106577795Y-63523929D01*
X106628649Y-63581917D01*
X106643696Y-63657563D01*
X106618904Y-63730598D01*
X106600374Y-63753177D01*
X106411709Y-63941842D01*
X106344914Y-63980406D01*
X106267786Y-63980406D01*
X106200991Y-63941842D01*
X106193070Y-63933274D01*
X106134870Y-63865130D01*
X106134867Y-63865127D01*
X106134865Y-63865125D01*
X106066748Y-63806947D01*
X106023062Y-63743383D01*
X106017011Y-63666493D01*
X106050216Y-63596879D01*
X106058157Y-63588288D01*
X106246821Y-63399624D01*
X106313616Y-63361060D01*
X106390744Y-63361060D01*
X106457539Y-63399624D01*
G37*
%TD.AperFunction*%
%TA.AperFunction,Conductor*%
G36*
X186403118Y-66050215D02*
G01*
X186411710Y-66058157D01*
X186600375Y-66246822D01*
X186638939Y-66313617D01*
X186638939Y-66390745D01*
X186600375Y-66457540D01*
X186577796Y-66476070D01*
X186516816Y-66516815D01*
X186516815Y-66516816D01*
X186476070Y-66577796D01*
X186418082Y-66628650D01*
X186342435Y-66643697D01*
X186269401Y-66618905D01*
X186246822Y-66600375D01*
X186058157Y-66411710D01*
X186019593Y-66344915D01*
X186019593Y-66267787D01*
X186058157Y-66200992D01*
X186066740Y-66193057D01*
X186134870Y-66134870D01*
X186193051Y-66066748D01*
X186256612Y-66023063D01*
X186333503Y-66017011D01*
X186403118Y-66050215D01*
G37*
%TD.AperFunction*%
%TA.AperFunction,Conductor*%
G36*
X183799006Y-66058157D02*
G01*
X183806947Y-66066748D01*
X183865125Y-66134865D01*
X183865127Y-66134867D01*
X183865130Y-66134870D01*
X183933252Y-66193052D01*
X183976936Y-66256611D01*
X183982988Y-66333502D01*
X183949785Y-66403117D01*
X183941842Y-66411709D01*
X183753177Y-66600374D01*
X183686382Y-66638938D01*
X183609254Y-66638938D01*
X183542459Y-66600374D01*
X183523929Y-66577795D01*
X183483184Y-66516816D01*
X183483182Y-66516814D01*
X183422202Y-66476068D01*
X183371349Y-66418080D01*
X183356302Y-66342434D01*
X183381095Y-66269399D01*
X183399624Y-66246821D01*
X183588288Y-66058157D01*
X183655083Y-66019593D01*
X183732211Y-66019593D01*
X183799006Y-66058157D01*
G37*
%TD.AperFunction*%
%TA.AperFunction,Conductor*%
G36*
X183730596Y-63381093D02*
G01*
X183753177Y-63399624D01*
X183941842Y-63588289D01*
X183980406Y-63655084D01*
X183980406Y-63732212D01*
X183941842Y-63799007D01*
X183933252Y-63806947D01*
X183865135Y-63865125D01*
X183865125Y-63865135D01*
X183806947Y-63933252D01*
X183743383Y-63976937D01*
X183666493Y-63982988D01*
X183596879Y-63949782D01*
X183588289Y-63941842D01*
X183399624Y-63753177D01*
X183361060Y-63686382D01*
X183361060Y-63609254D01*
X183399624Y-63542459D01*
X183422199Y-63523932D01*
X183483184Y-63483184D01*
X183523931Y-63422202D01*
X183581915Y-63371350D01*
X183657561Y-63356302D01*
X183730596Y-63381093D01*
G37*
%TD.AperFunction*%
%TA.AperFunction,Conductor*%
G36*
X186457539Y-63399624D02*
G01*
X186476068Y-63422202D01*
X186516814Y-63483182D01*
X186516816Y-63483184D01*
X186577795Y-63523929D01*
X186628649Y-63581917D01*
X186643696Y-63657563D01*
X186618904Y-63730598D01*
X186600374Y-63753177D01*
X186411709Y-63941842D01*
X186344914Y-63980406D01*
X186267786Y-63980406D01*
X186200991Y-63941842D01*
X186193070Y-63933274D01*
X186134870Y-63865130D01*
X186134867Y-63865127D01*
X186134865Y-63865125D01*
X186066748Y-63806947D01*
X186023062Y-63743383D01*
X186017011Y-63666493D01*
X186050216Y-63596879D01*
X186058157Y-63588288D01*
X186246821Y-63399624D01*
X186313616Y-63361060D01*
X186390744Y-63361060D01*
X186457539Y-63399624D01*
G37*
%TD.AperFunction*%
%TA.AperFunction,Conductor*%
G36*
X185415056Y-60218622D02*
G01*
X185421510Y-60219186D01*
X185830211Y-60272992D01*
X185836587Y-60274116D01*
X186239033Y-60363336D01*
X186245297Y-60365014D01*
X186441864Y-60426992D01*
X186638423Y-60488967D01*
X186644533Y-60491191D01*
X186735018Y-60528671D01*
X187025357Y-60648934D01*
X187031235Y-60651674D01*
X187214053Y-60746843D01*
X187396864Y-60842009D01*
X187402489Y-60845256D01*
X187576315Y-60955995D01*
X187750134Y-61066731D01*
X187755460Y-61070460D01*
X188082497Y-61321404D01*
X188087445Y-61325556D01*
X188251916Y-61476266D01*
X188391359Y-61604042D01*
X188395957Y-61608640D01*
X188674441Y-61912552D01*
X188678597Y-61917505D01*
X188846227Y-62135964D01*
X188929539Y-62244539D01*
X188933268Y-62249865D01*
X189154739Y-62597503D01*
X189157990Y-62603135D01*
X189348321Y-62968757D01*
X189351069Y-62974650D01*
X189508808Y-63355466D01*
X189511032Y-63361576D01*
X189634982Y-63754694D01*
X189636665Y-63760975D01*
X189725881Y-64163402D01*
X189727010Y-64169805D01*
X189780811Y-64578467D01*
X189781377Y-64584944D01*
X189799500Y-64999999D01*
X189799500Y-115000000D01*
X189781377Y-115415055D01*
X189780811Y-115421532D01*
X189727010Y-115830194D01*
X189725881Y-115836597D01*
X189636665Y-116239024D01*
X189634982Y-116245305D01*
X189511032Y-116638423D01*
X189508808Y-116644533D01*
X189351069Y-117025349D01*
X189348321Y-117031242D01*
X189157990Y-117396864D01*
X189154739Y-117402496D01*
X188933268Y-117750134D01*
X188929539Y-117755460D01*
X188678610Y-118082479D01*
X188674430Y-118087460D01*
X188395957Y-118391359D01*
X188391359Y-118395957D01*
X188087460Y-118674430D01*
X188082483Y-118678606D01*
X188047986Y-118705077D01*
X187755460Y-118929539D01*
X187750134Y-118933268D01*
X187402496Y-119154739D01*
X187396864Y-119157990D01*
X187031242Y-119348321D01*
X187025349Y-119351069D01*
X186644533Y-119508808D01*
X186638423Y-119511032D01*
X186245305Y-119634982D01*
X186239024Y-119636665D01*
X185836597Y-119725881D01*
X185830194Y-119727010D01*
X185421532Y-119780811D01*
X185415055Y-119781377D01*
X185000000Y-119799500D01*
X105000000Y-119799500D01*
X104584944Y-119781377D01*
X104578469Y-119780811D01*
X104374135Y-119753910D01*
X104169805Y-119727010D01*
X104163402Y-119725881D01*
X103760975Y-119636665D01*
X103754694Y-119634982D01*
X103361576Y-119511032D01*
X103355466Y-119508808D01*
X102974650Y-119351069D01*
X102968757Y-119348321D01*
X102603135Y-119157990D01*
X102597503Y-119154739D01*
X102249865Y-118933268D01*
X102244539Y-118929539D01*
X102135964Y-118846227D01*
X101917505Y-118678597D01*
X101912552Y-118674441D01*
X101608640Y-118395957D01*
X101604042Y-118391359D01*
X101563007Y-118346577D01*
X101325556Y-118087445D01*
X101321404Y-118082497D01*
X101117083Y-117816221D01*
X101070460Y-117755460D01*
X101066731Y-117750134D01*
X100845260Y-117402496D01*
X100842009Y-117396864D01*
X100727964Y-117177785D01*
X100651674Y-117031235D01*
X100648930Y-117025349D01*
X100639824Y-117003366D01*
X100535048Y-116750414D01*
X100491191Y-116644533D01*
X100488967Y-116638423D01*
X100419493Y-116418080D01*
X100365014Y-116245297D01*
X100363334Y-116239024D01*
X100353141Y-116193048D01*
X100274116Y-115836587D01*
X100272992Y-115830211D01*
X100219186Y-115421510D01*
X100218622Y-115415054D01*
X100211415Y-115250000D01*
X100200500Y-115000000D01*
X100200500Y-114999999D01*
X101294922Y-114999999D01*
X101315218Y-115387280D01*
X101375888Y-115770335D01*
X101375889Y-115770338D01*
X101476259Y-116144927D01*
X101476266Y-116144947D01*
X101615237Y-116506977D01*
X101615248Y-116507001D01*
X101791300Y-116852525D01*
X101791311Y-116852545D01*
X102002528Y-117177789D01*
X102211095Y-117435349D01*
X102852709Y-116793736D01*
X102919504Y-116755172D01*
X102996632Y-116755172D01*
X103063427Y-116793736D01*
X103081956Y-116816314D01*
X103122702Y-116877294D01*
X103122704Y-116877296D01*
X103183683Y-116918041D01*
X103234537Y-116976029D01*
X103249584Y-117051675D01*
X103224792Y-117124710D01*
X103206262Y-117147289D01*
X102564648Y-117788902D01*
X102564649Y-117788903D01*
X102822213Y-117997473D01*
X102822215Y-117997475D01*
X103147454Y-118208688D01*
X103147474Y-118208699D01*
X103492998Y-118384751D01*
X103493022Y-118384762D01*
X103855052Y-118523733D01*
X103855072Y-118523740D01*
X104229661Y-118624110D01*
X104229664Y-118624111D01*
X104612719Y-118684781D01*
X104999999Y-118705077D01*
X105387280Y-118684781D01*
X105770335Y-118624111D01*
X105770338Y-118624110D01*
X106144927Y-118523740D01*
X106144947Y-118523733D01*
X106506977Y-118384762D01*
X106507001Y-118384751D01*
X106852525Y-118208699D01*
X106852545Y-118208688D01*
X107177785Y-117997474D01*
X107435350Y-117788902D01*
X106793736Y-117147289D01*
X106755172Y-117080494D01*
X106755172Y-117003366D01*
X106793736Y-116936571D01*
X106816311Y-116918044D01*
X106877296Y-116877296D01*
X106918043Y-116816314D01*
X106976027Y-116765462D01*
X107051673Y-116750414D01*
X107124708Y-116775205D01*
X107147289Y-116793736D01*
X107788902Y-117435349D01*
X107997474Y-117177785D01*
X108208688Y-116852545D01*
X108208699Y-116852525D01*
X108384751Y-116507001D01*
X108384762Y-116506977D01*
X108523733Y-116144947D01*
X108523740Y-116144927D01*
X108624110Y-115770338D01*
X108624111Y-115770335D01*
X108684781Y-115387280D01*
X108705077Y-114999999D01*
X108684781Y-114612719D01*
X108635251Y-114300000D01*
X134194532Y-114300000D01*
X134214365Y-114526693D01*
X134237416Y-114612719D01*
X134273261Y-114746496D01*
X134369432Y-114952734D01*
X134369435Y-114952738D01*
X134369437Y-114952741D01*
X134499951Y-115139137D01*
X134499953Y-115139139D01*
X134660861Y-115300047D01*
X134847266Y-115430568D01*
X135053504Y-115526739D01*
X135273308Y-115585635D01*
X135500000Y-115605468D01*
X135726692Y-115585635D01*
X135946496Y-115526739D01*
X136152734Y-115430568D01*
X136339139Y-115300047D01*
X136500047Y-115139139D01*
X136630568Y-114952734D01*
X136726739Y-114746496D01*
X136785635Y-114526692D01*
X136805468Y-114300000D01*
X138694532Y-114300000D01*
X138714365Y-114526693D01*
X138737416Y-114612719D01*
X138773261Y-114746496D01*
X138869432Y-114952734D01*
X138869435Y-114952738D01*
X138869437Y-114952741D01*
X138999951Y-115139137D01*
X138999952Y-115139138D01*
X138999953Y-115139139D01*
X139160861Y-115300047D01*
X139347266Y-115430568D01*
X139553504Y-115526739D01*
X139773308Y-115585635D01*
X140000000Y-115605468D01*
X140226692Y-115585635D01*
X140446496Y-115526739D01*
X140652734Y-115430568D01*
X140839139Y-115300047D01*
X141000047Y-115139139D01*
X141097473Y-114999999D01*
X181294922Y-114999999D01*
X181315218Y-115387280D01*
X181375888Y-115770335D01*
X181375889Y-115770338D01*
X181476259Y-116144927D01*
X181476266Y-116144947D01*
X181615237Y-116506977D01*
X181615248Y-116507001D01*
X181791300Y-116852525D01*
X181791311Y-116852545D01*
X182002528Y-117177789D01*
X182211095Y-117435349D01*
X182852709Y-116793736D01*
X182919504Y-116755172D01*
X182996632Y-116755172D01*
X183063427Y-116793736D01*
X183081956Y-116816314D01*
X183122702Y-116877294D01*
X183122704Y-116877296D01*
X183183683Y-116918041D01*
X183234537Y-116976029D01*
X183249584Y-117051675D01*
X183224792Y-117124710D01*
X183206262Y-117147289D01*
X182564648Y-117788902D01*
X182564649Y-117788903D01*
X182822213Y-117997473D01*
X182822215Y-117997475D01*
X183147454Y-118208688D01*
X183147474Y-118208699D01*
X183492998Y-118384751D01*
X183493022Y-118384762D01*
X183855052Y-118523733D01*
X183855072Y-118523740D01*
X184229661Y-118624110D01*
X184229664Y-118624111D01*
X184612719Y-118684781D01*
X185000000Y-118705077D01*
X185387280Y-118684781D01*
X185770335Y-118624111D01*
X185770338Y-118624110D01*
X186144927Y-118523740D01*
X186144947Y-118523733D01*
X186506977Y-118384762D01*
X186507001Y-118384751D01*
X186852525Y-118208699D01*
X186852545Y-118208688D01*
X187177785Y-117997474D01*
X187435350Y-117788902D01*
X186793736Y-117147289D01*
X186755172Y-117080494D01*
X186755172Y-117003366D01*
X186793736Y-116936571D01*
X186816311Y-116918044D01*
X186877296Y-116877296D01*
X186918043Y-116816314D01*
X186976027Y-116765462D01*
X187051673Y-116750414D01*
X187124708Y-116775205D01*
X187147289Y-116793736D01*
X187788902Y-117435349D01*
X187997474Y-117177785D01*
X188208688Y-116852545D01*
X188208699Y-116852525D01*
X188384751Y-116507001D01*
X188384762Y-116506977D01*
X188523733Y-116144947D01*
X188523740Y-116144927D01*
X188624110Y-115770338D01*
X188624111Y-115770335D01*
X188684781Y-115387280D01*
X188705077Y-114999999D01*
X188684781Y-114612719D01*
X188624111Y-114229664D01*
X188624110Y-114229661D01*
X188523740Y-113855072D01*
X188523733Y-113855052D01*
X188384762Y-113493022D01*
X188384751Y-113492998D01*
X188208699Y-113147474D01*
X188208688Y-113147454D01*
X187997475Y-112822215D01*
X187997473Y-112822213D01*
X187788903Y-112564649D01*
X187788902Y-112564648D01*
X187147289Y-113206262D01*
X187080494Y-113244826D01*
X187003366Y-113244826D01*
X186936571Y-113206262D01*
X186918041Y-113183683D01*
X186877296Y-113122704D01*
X186877294Y-113122702D01*
X186816314Y-113081956D01*
X186765461Y-113023968D01*
X186750414Y-112948322D01*
X186775207Y-112875287D01*
X186793736Y-112852709D01*
X187435349Y-112211095D01*
X187177789Y-112002528D01*
X186852545Y-111791311D01*
X186852525Y-111791300D01*
X186507001Y-111615248D01*
X186506977Y-111615237D01*
X186144947Y-111476266D01*
X186144927Y-111476259D01*
X185770338Y-111375889D01*
X185770335Y-111375888D01*
X185387280Y-111315218D01*
X185000000Y-111294922D01*
X184612719Y-111315218D01*
X184229664Y-111375888D01*
X184229661Y-111375889D01*
X183855072Y-111476259D01*
X183855052Y-111476266D01*
X183493022Y-111615237D01*
X183492998Y-111615248D01*
X183147474Y-111791300D01*
X183147454Y-111791311D01*
X182822210Y-112002528D01*
X182564649Y-112211095D01*
X182564648Y-112211095D01*
X183206263Y-112852710D01*
X183244827Y-112919505D01*
X183244827Y-112996633D01*
X183206263Y-113063428D01*
X183183684Y-113081958D01*
X183122704Y-113122703D01*
X183122703Y-113122704D01*
X183081958Y-113183684D01*
X183023970Y-113234538D01*
X182948323Y-113249585D01*
X182875289Y-113224793D01*
X182852710Y-113206263D01*
X182211095Y-112564648D01*
X182211095Y-112564649D01*
X182002528Y-112822210D01*
X181791311Y-113147454D01*
X181791300Y-113147474D01*
X181615248Y-113492998D01*
X181615237Y-113493022D01*
X181476266Y-113855052D01*
X181476259Y-113855072D01*
X181375889Y-114229661D01*
X181375888Y-114229664D01*
X181315218Y-114612719D01*
X181294922Y-114999999D01*
X141097473Y-114999999D01*
X141130568Y-114952734D01*
X141226739Y-114746496D01*
X141280765Y-114544866D01*
X147699500Y-114544866D01*
X147702414Y-114569989D01*
X147702415Y-114569992D01*
X147747793Y-114672764D01*
X147747794Y-114672764D01*
X147747794Y-114672765D01*
X147827235Y-114752206D01*
X147930009Y-114797585D01*
X147955135Y-114800500D01*
X151044864Y-114800499D01*
X151044866Y-114800499D01*
X151057427Y-114799042D01*
X151069991Y-114797585D01*
X151172765Y-114752206D01*
X151252206Y-114672765D01*
X151297585Y-114569991D01*
X151300500Y-114544865D01*
X151300500Y-113000005D01*
X152694451Y-113000005D01*
X152714615Y-113269090D01*
X152714618Y-113269113D01*
X152774663Y-113532187D01*
X152774665Y-113532194D01*
X152852534Y-113730598D01*
X152873257Y-113783398D01*
X153008185Y-114017102D01*
X153176439Y-114228085D01*
X153374259Y-114411635D01*
X153597226Y-114563651D01*
X153840359Y-114680738D01*
X154098228Y-114760280D01*
X154365071Y-114800500D01*
X154365074Y-114800500D01*
X154634926Y-114800500D01*
X154634929Y-114800500D01*
X154901772Y-114760280D01*
X155159641Y-114680738D01*
X155402775Y-114563651D01*
X155625741Y-114411635D01*
X155823561Y-114228085D01*
X155991815Y-114017102D01*
X156126743Y-113783398D01*
X156225334Y-113532195D01*
X156234275Y-113493022D01*
X156285381Y-113269113D01*
X156285381Y-113269110D01*
X156285383Y-113269103D01*
X156287973Y-113234538D01*
X156305549Y-113000005D01*
X157694451Y-113000005D01*
X157714615Y-113269090D01*
X157714618Y-113269113D01*
X157774663Y-113532187D01*
X157774665Y-113532194D01*
X157852534Y-113730598D01*
X157873257Y-113783398D01*
X158008185Y-114017102D01*
X158176439Y-114228085D01*
X158374259Y-114411635D01*
X158597226Y-114563651D01*
X158840359Y-114680738D01*
X159098228Y-114760280D01*
X159365071Y-114800500D01*
X159365074Y-114800500D01*
X159634926Y-114800500D01*
X159634929Y-114800500D01*
X159901772Y-114760280D01*
X160159641Y-114680738D01*
X160402775Y-114563651D01*
X160625741Y-114411635D01*
X160823561Y-114228085D01*
X160991815Y-114017102D01*
X161126743Y-113783398D01*
X161225334Y-113532195D01*
X161234275Y-113493022D01*
X161285381Y-113269113D01*
X161285381Y-113269110D01*
X161285383Y-113269103D01*
X161287973Y-113234538D01*
X161305549Y-113000005D01*
X161305549Y-112999994D01*
X161285384Y-112730909D01*
X161285383Y-112730907D01*
X161285383Y-112730897D01*
X161285381Y-112730891D01*
X161285381Y-112730886D01*
X161225336Y-112467812D01*
X161225334Y-112467805D01*
X161225333Y-112467804D01*
X161126743Y-112216602D01*
X160991815Y-111982898D01*
X160823561Y-111771915D01*
X160625741Y-111588365D01*
X160402775Y-111436349D01*
X160402772Y-111436348D01*
X160402770Y-111436346D01*
X160159650Y-111319266D01*
X160159646Y-111319264D01*
X160159641Y-111319262D01*
X160159633Y-111319259D01*
X160159629Y-111319258D01*
X159901777Y-111239721D01*
X159901773Y-111239720D01*
X159634932Y-111199500D01*
X159634929Y-111199500D01*
X159365071Y-111199500D01*
X159365067Y-111199500D01*
X159098226Y-111239720D01*
X159098222Y-111239721D01*
X158840370Y-111319258D01*
X158840349Y-111319266D01*
X158597227Y-111436348D01*
X158374259Y-111588364D01*
X158176438Y-111771915D01*
X158008189Y-111982892D01*
X158008184Y-111982900D01*
X157873257Y-112216601D01*
X157873255Y-112216606D01*
X157774665Y-112467805D01*
X157774663Y-112467812D01*
X157714618Y-112730886D01*
X157714615Y-112730909D01*
X157694451Y-112999994D01*
X157694451Y-113000005D01*
X156305549Y-113000005D01*
X156305549Y-112999994D01*
X156285384Y-112730909D01*
X156285383Y-112730907D01*
X156285383Y-112730897D01*
X156285381Y-112730891D01*
X156285381Y-112730886D01*
X156225336Y-112467812D01*
X156225334Y-112467805D01*
X156126743Y-112216602D01*
X155991815Y-111982898D01*
X155823561Y-111771915D01*
X155625741Y-111588365D01*
X155402775Y-111436349D01*
X155402772Y-111436348D01*
X155402770Y-111436346D01*
X155159650Y-111319266D01*
X155159646Y-111319264D01*
X155159641Y-111319262D01*
X155159633Y-111319259D01*
X155159629Y-111319258D01*
X154901777Y-111239721D01*
X154901773Y-111239720D01*
X154634932Y-111199500D01*
X154634929Y-111199500D01*
X154365071Y-111199500D01*
X154365067Y-111199500D01*
X154098226Y-111239720D01*
X154098222Y-111239721D01*
X153840370Y-111319258D01*
X153840349Y-111319266D01*
X153597227Y-111436348D01*
X153374259Y-111588364D01*
X153176438Y-111771915D01*
X153008189Y-111982892D01*
X153008184Y-111982900D01*
X152873257Y-112216601D01*
X152873255Y-112216606D01*
X152774665Y-112467805D01*
X152774663Y-112467812D01*
X152714618Y-112730886D01*
X152714615Y-112730909D01*
X152694451Y-112999994D01*
X152694451Y-113000005D01*
X151300500Y-113000005D01*
X151300499Y-111455136D01*
X151297585Y-111430009D01*
X151252206Y-111327235D01*
X151172765Y-111247794D01*
X151172764Y-111247793D01*
X151069994Y-111202416D01*
X151069991Y-111202415D01*
X151069982Y-111202414D01*
X151044865Y-111199500D01*
X151044859Y-111199500D01*
X147955133Y-111199500D01*
X147930010Y-111202414D01*
X147930007Y-111202415D01*
X147827235Y-111247793D01*
X147747793Y-111327235D01*
X147702416Y-111430005D01*
X147702415Y-111430008D01*
X147702415Y-111430009D01*
X147699500Y-111455135D01*
X147699500Y-111455136D01*
X147699500Y-111455140D01*
X147699500Y-114544866D01*
X141280765Y-114544866D01*
X141285635Y-114526692D01*
X141305468Y-114300000D01*
X141285635Y-114073308D01*
X141226739Y-113853504D01*
X141130568Y-113647266D01*
X141022566Y-113493022D01*
X141000048Y-113460862D01*
X140839137Y-113299951D01*
X140652741Y-113169437D01*
X140652738Y-113169435D01*
X140652734Y-113169432D01*
X140446496Y-113073261D01*
X140226692Y-113014365D01*
X140226693Y-113014365D01*
X140000000Y-112994532D01*
X139773306Y-113014365D01*
X139553507Y-113073260D01*
X139553506Y-113073260D01*
X139553504Y-113073261D01*
X139347266Y-113169432D01*
X139347263Y-113169434D01*
X139347261Y-113169435D01*
X139347258Y-113169437D01*
X139160862Y-113299951D01*
X138999951Y-113460862D01*
X138869437Y-113647258D01*
X138869435Y-113647261D01*
X138869434Y-113647263D01*
X138869432Y-113647266D01*
X138798674Y-113799007D01*
X138773260Y-113853507D01*
X138714365Y-114073306D01*
X138694532Y-114300000D01*
X136805468Y-114300000D01*
X136785635Y-114073308D01*
X136726739Y-113853504D01*
X136630568Y-113647266D01*
X136522566Y-113493022D01*
X136500048Y-113460862D01*
X136339137Y-113299951D01*
X136152741Y-113169437D01*
X136152738Y-113169435D01*
X136152734Y-113169432D01*
X135946496Y-113073261D01*
X135726692Y-113014365D01*
X135726693Y-113014365D01*
X135500000Y-112994532D01*
X135273306Y-113014365D01*
X135053507Y-113073260D01*
X135053506Y-113073260D01*
X135053504Y-113073261D01*
X134847266Y-113169432D01*
X134847263Y-113169434D01*
X134847261Y-113169435D01*
X134847258Y-113169437D01*
X134660862Y-113299951D01*
X134499951Y-113460862D01*
X134369437Y-113647258D01*
X134369435Y-113647261D01*
X134369434Y-113647263D01*
X134369432Y-113647266D01*
X134298674Y-113799007D01*
X134273260Y-113853507D01*
X134214365Y-114073306D01*
X134194532Y-114300000D01*
X108635251Y-114300000D01*
X108624111Y-114229664D01*
X108624110Y-114229661D01*
X108523740Y-113855072D01*
X108523733Y-113855052D01*
X108384762Y-113493022D01*
X108384751Y-113492998D01*
X108208699Y-113147474D01*
X108208688Y-113147454D01*
X107997475Y-112822215D01*
X107997473Y-112822213D01*
X107788903Y-112564649D01*
X107788902Y-112564648D01*
X107147289Y-113206262D01*
X107080494Y-113244826D01*
X107003366Y-113244826D01*
X106936571Y-113206262D01*
X106918041Y-113183683D01*
X106877296Y-113122704D01*
X106877294Y-113122702D01*
X106816314Y-113081956D01*
X106765461Y-113023968D01*
X106750414Y-112948322D01*
X106775207Y-112875287D01*
X106793736Y-112852709D01*
X107435349Y-112211095D01*
X107177789Y-112002528D01*
X106852545Y-111791311D01*
X106852525Y-111791300D01*
X106507001Y-111615248D01*
X106506977Y-111615237D01*
X106144947Y-111476266D01*
X106144927Y-111476259D01*
X105770338Y-111375889D01*
X105770335Y-111375888D01*
X105387280Y-111315218D01*
X105000000Y-111294922D01*
X104612719Y-111315218D01*
X104229664Y-111375888D01*
X104229661Y-111375889D01*
X103855072Y-111476259D01*
X103855052Y-111476266D01*
X103493022Y-111615237D01*
X103492998Y-111615248D01*
X103147474Y-111791300D01*
X103147454Y-111791311D01*
X102822210Y-112002528D01*
X102564649Y-112211095D01*
X102564648Y-112211095D01*
X103206263Y-112852710D01*
X103244827Y-112919505D01*
X103244827Y-112996633D01*
X103206263Y-113063428D01*
X103183684Y-113081958D01*
X103122704Y-113122703D01*
X103122703Y-113122704D01*
X103081958Y-113183684D01*
X103023970Y-113234538D01*
X102948323Y-113249585D01*
X102875289Y-113224793D01*
X102852710Y-113206263D01*
X102211095Y-112564648D01*
X102211095Y-112564649D01*
X102002528Y-112822210D01*
X101791311Y-113147454D01*
X101791300Y-113147474D01*
X101615248Y-113492998D01*
X101615237Y-113493022D01*
X101476266Y-113855052D01*
X101476259Y-113855072D01*
X101375889Y-114229661D01*
X101375888Y-114229664D01*
X101315218Y-114612719D01*
X101294922Y-114999999D01*
X100200500Y-114999999D01*
X100200500Y-114960118D01*
X100200500Y-107419999D01*
X108081127Y-107419999D01*
X108081128Y-107420000D01*
X108820153Y-107420000D01*
X108894653Y-107439962D01*
X108949191Y-107494500D01*
X108969153Y-107569000D01*
X108967319Y-107592308D01*
X108955014Y-107670000D01*
X108967319Y-107747692D01*
X108959256Y-107824398D01*
X108913921Y-107886795D01*
X108843461Y-107918166D01*
X108820153Y-107920000D01*
X108081128Y-107920000D01*
X108133732Y-108116323D01*
X108133733Y-108116325D01*
X108229862Y-108322477D01*
X108229865Y-108322482D01*
X108360339Y-108508817D01*
X108521182Y-108669660D01*
X108707517Y-108800134D01*
X108707522Y-108800137D01*
X108913674Y-108896266D01*
X108913676Y-108896267D01*
X109109999Y-108948872D01*
X109110000Y-108948871D01*
X109110000Y-108209846D01*
X109129962Y-108135346D01*
X109184500Y-108080808D01*
X109259000Y-108060846D01*
X109282293Y-108062678D01*
X109328519Y-108070000D01*
X109328525Y-108070000D01*
X109391475Y-108070000D01*
X109391481Y-108070000D01*
X109437695Y-108062680D01*
X109514397Y-108070742D01*
X109576795Y-108116077D01*
X109608166Y-108186537D01*
X109610000Y-108209846D01*
X109610000Y-108948872D01*
X109806323Y-108896267D01*
X109806325Y-108896266D01*
X110012477Y-108800137D01*
X110012482Y-108800134D01*
X110198817Y-108669660D01*
X110359660Y-108508817D01*
X110490134Y-108322482D01*
X110490137Y-108322477D01*
X110586266Y-108116325D01*
X110586267Y-108116323D01*
X110638872Y-107920000D01*
X109899847Y-107920000D01*
X109825347Y-107900038D01*
X109770809Y-107845500D01*
X109758617Y-107800000D01*
X134194532Y-107800000D01*
X134214365Y-108026693D01*
X134238381Y-108116323D01*
X134273261Y-108246496D01*
X134369432Y-108452734D01*
X134369435Y-108452738D01*
X134369437Y-108452741D01*
X134499951Y-108639137D01*
X134660862Y-108800048D01*
X134703639Y-108830000D01*
X134847266Y-108930568D01*
X135053504Y-109026739D01*
X135273308Y-109085635D01*
X135500000Y-109105468D01*
X135726692Y-109085635D01*
X135946496Y-109026739D01*
X136152734Y-108930568D01*
X136339139Y-108800047D01*
X136500047Y-108639139D01*
X136630568Y-108452734D01*
X136726739Y-108246496D01*
X136785635Y-108026692D01*
X136805468Y-107800000D01*
X136805468Y-107799999D01*
X138694532Y-107799999D01*
X138714365Y-108026693D01*
X138738381Y-108116323D01*
X138773261Y-108246496D01*
X138869432Y-108452734D01*
X138869435Y-108452738D01*
X138869437Y-108452741D01*
X138999951Y-108639137D01*
X139160862Y-108800048D01*
X139203639Y-108830000D01*
X139347266Y-108930568D01*
X139553504Y-109026739D01*
X139773308Y-109085635D01*
X140000000Y-109105468D01*
X140226692Y-109085635D01*
X140446496Y-109026739D01*
X140652734Y-108930568D01*
X140796356Y-108830004D01*
X184894785Y-108830004D01*
X184913602Y-109033078D01*
X184969416Y-109229245D01*
X185060328Y-109411823D01*
X185141174Y-109518880D01*
X185183236Y-109574579D01*
X185333958Y-109711980D01*
X185333963Y-109711984D01*
X185507356Y-109819344D01*
X185507367Y-109819350D01*
X185623332Y-109864274D01*
X185697544Y-109893024D01*
X185898024Y-109930500D01*
X185898027Y-109930500D01*
X186101973Y-109930500D01*
X186101976Y-109930500D01*
X186302456Y-109893024D01*
X186492637Y-109819348D01*
X186666041Y-109711981D01*
X186816764Y-109574579D01*
X186939673Y-109411821D01*
X187030582Y-109229250D01*
X187086397Y-109033083D01*
X187105215Y-108830000D01*
X187086397Y-108626917D01*
X187030582Y-108430750D01*
X186939673Y-108248179D01*
X186816764Y-108085421D01*
X186666041Y-107948019D01*
X186666036Y-107948015D01*
X186492643Y-107840655D01*
X186492632Y-107840649D01*
X186302462Y-107766978D01*
X186302458Y-107766977D01*
X186302456Y-107766976D01*
X186262360Y-107759480D01*
X186101980Y-107729500D01*
X186101976Y-107729500D01*
X185898024Y-107729500D01*
X185898019Y-107729500D01*
X185697544Y-107766976D01*
X185697537Y-107766978D01*
X185507367Y-107840649D01*
X185507356Y-107840655D01*
X185333963Y-107948015D01*
X185333958Y-107948019D01*
X185216425Y-108055165D01*
X185190007Y-108079249D01*
X185183234Y-108085423D01*
X185060328Y-108248176D01*
X184969416Y-108430754D01*
X184913602Y-108626921D01*
X184894785Y-108829995D01*
X184894785Y-108830004D01*
X140796356Y-108830004D01*
X140839139Y-108800047D01*
X141000047Y-108639139D01*
X141130568Y-108452734D01*
X141226739Y-108246496D01*
X141285635Y-108026692D01*
X141305468Y-107800000D01*
X141285635Y-107573308D01*
X141226739Y-107353504D01*
X141130568Y-107147266D01*
X141000047Y-106960861D01*
X140839139Y-106799953D01*
X140839137Y-106799951D01*
X140675035Y-106685047D01*
X168525849Y-106685047D01*
X168535570Y-106864332D01*
X168535571Y-106864340D01*
X168583605Y-107037348D01*
X168621790Y-107109372D01*
X168639049Y-107184544D01*
X168616410Y-107258274D01*
X168595507Y-107284521D01*
X168577794Y-107302234D01*
X168532416Y-107405005D01*
X168532415Y-107405008D01*
X168532415Y-107405009D01*
X168529500Y-107430135D01*
X168529500Y-107430136D01*
X168529500Y-107430140D01*
X168529500Y-108569866D01*
X168532414Y-108594989D01*
X168532415Y-108594992D01*
X168577793Y-108697764D01*
X168577794Y-108697765D01*
X168657235Y-108777206D01*
X168760009Y-108822585D01*
X168785135Y-108825500D01*
X170374864Y-108825499D01*
X170374866Y-108825499D01*
X170387427Y-108824042D01*
X170399991Y-108822585D01*
X170502765Y-108777206D01*
X170582206Y-108697765D01*
X170627585Y-108594991D01*
X170630500Y-108569865D01*
X170630499Y-107944866D01*
X174854500Y-107944866D01*
X174857414Y-107969989D01*
X174857415Y-107969992D01*
X174902793Y-108072764D01*
X174902794Y-108072765D01*
X174982235Y-108152206D01*
X175085009Y-108197585D01*
X175110135Y-108200500D01*
X176999864Y-108200499D01*
X176999866Y-108200499D01*
X177012427Y-108199042D01*
X177024991Y-108197585D01*
X177127765Y-108152206D01*
X177207206Y-108072765D01*
X177252585Y-107969991D01*
X177255500Y-107944865D01*
X177255499Y-107636710D01*
X177275461Y-107562214D01*
X177329999Y-107507676D01*
X177404499Y-107487714D01*
X177478999Y-107507676D01*
X177533537Y-107562214D01*
X177537878Y-107570298D01*
X177569940Y-107634687D01*
X177641540Y-107729500D01*
X177704019Y-107812236D01*
X177868438Y-107962124D01*
X178057599Y-108079247D01*
X178057601Y-108079247D01*
X178057603Y-108079249D01*
X178057605Y-108079250D01*
X178245927Y-108152206D01*
X178265060Y-108159618D01*
X178483757Y-108200500D01*
X178483759Y-108200500D01*
X178706241Y-108200500D01*
X178706243Y-108200500D01*
X178924940Y-108159618D01*
X179051449Y-108110607D01*
X179132394Y-108079250D01*
X179132396Y-108079249D01*
X179132396Y-108079248D01*
X179132401Y-108079247D01*
X179321562Y-107962124D01*
X179485981Y-107812236D01*
X179620058Y-107634689D01*
X179719229Y-107435528D01*
X179780115Y-107221536D01*
X179797182Y-107037348D01*
X179800643Y-107000004D01*
X179800643Y-106999995D01*
X179780115Y-106778468D01*
X179780115Y-106778465D01*
X179779116Y-106774955D01*
X179728103Y-106595661D01*
X179719229Y-106564471D01*
X179620060Y-106365314D01*
X179543557Y-106264008D01*
X179485981Y-106187764D01*
X179321562Y-106037876D01*
X179132401Y-105920753D01*
X179132400Y-105920752D01*
X179132396Y-105920750D01*
X179132394Y-105920749D01*
X178924944Y-105840383D01*
X178924941Y-105840382D01*
X178924940Y-105840382D01*
X178869775Y-105830069D01*
X178706247Y-105799500D01*
X178706243Y-105799500D01*
X178483757Y-105799500D01*
X178483752Y-105799500D01*
X178265055Y-105840383D01*
X178057605Y-105920749D01*
X178057603Y-105920750D01*
X177868436Y-106037877D01*
X177704019Y-106187763D01*
X177569940Y-106365312D01*
X177537878Y-106429702D01*
X177486800Y-106487493D01*
X177413670Y-106512003D01*
X177338083Y-106496665D01*
X177280292Y-106445587D01*
X177255782Y-106372457D01*
X177255499Y-106363286D01*
X177255499Y-106055133D01*
X177252585Y-106030010D01*
X177252584Y-106030008D01*
X177207206Y-105927235D01*
X177127765Y-105847794D01*
X177127764Y-105847793D01*
X177024994Y-105802416D01*
X177024991Y-105802415D01*
X177024982Y-105802414D01*
X176999865Y-105799500D01*
X176999859Y-105799500D01*
X175110133Y-105799500D01*
X175085010Y-105802414D01*
X175085007Y-105802415D01*
X174982235Y-105847793D01*
X174902793Y-105927235D01*
X174857416Y-106030005D01*
X174857415Y-106030008D01*
X174857415Y-106030009D01*
X174854500Y-106055135D01*
X174854500Y-106055136D01*
X174854500Y-106055140D01*
X174854500Y-107944866D01*
X170630499Y-107944866D01*
X170630499Y-107430136D01*
X170629323Y-107419999D01*
X170627585Y-107405010D01*
X170627584Y-107405008D01*
X170582206Y-107302235D01*
X170568094Y-107288122D01*
X170529530Y-107221328D01*
X170529530Y-107144200D01*
X170536394Y-107126752D01*
X170535650Y-107126456D01*
X170563674Y-107056118D01*
X170605101Y-106952147D01*
X170634150Y-106774955D01*
X170624429Y-106595661D01*
X170576393Y-106422649D01*
X170492286Y-106264008D01*
X170433855Y-106195218D01*
X170400841Y-106125514D01*
X170407101Y-106048641D01*
X170433864Y-106002290D01*
X170437869Y-105997574D01*
X170437875Y-105997569D01*
X170538640Y-105848951D01*
X170605101Y-105682147D01*
X170634150Y-105504955D01*
X170624429Y-105325661D01*
X170576393Y-105152649D01*
X170492286Y-104994008D01*
X170376044Y-104857157D01*
X170299469Y-104798946D01*
X170233101Y-104748494D01*
X170233100Y-104748493D01*
X170070138Y-104673099D01*
X169894779Y-104634500D01*
X169310240Y-104634500D01*
X169310239Y-104634500D01*
X169176491Y-104649046D01*
X169176490Y-104649047D01*
X169006335Y-104706378D01*
X169006333Y-104706379D01*
X168852487Y-104798946D01*
X168722126Y-104922430D01*
X168621360Y-105071049D01*
X168621358Y-105071053D01*
X168554900Y-105237848D01*
X168554898Y-105237852D01*
X168525850Y-105415045D01*
X168525849Y-105415047D01*
X168535570Y-105594332D01*
X168535571Y-105594340D01*
X168583606Y-105767349D01*
X168667711Y-105925988D01*
X168726143Y-105994780D01*
X168759158Y-106064485D01*
X168752898Y-106141358D01*
X168726149Y-106187692D01*
X168722131Y-106192421D01*
X168621360Y-106341049D01*
X168621358Y-106341053D01*
X168554900Y-106507848D01*
X168554898Y-106507852D01*
X168525850Y-106685045D01*
X168525849Y-106685047D01*
X140675035Y-106685047D01*
X140652741Y-106669437D01*
X140652738Y-106669435D01*
X140652734Y-106669432D01*
X140446496Y-106573261D01*
X140226692Y-106514365D01*
X140226693Y-106514365D01*
X140000000Y-106494532D01*
X139773306Y-106514365D01*
X139553507Y-106573260D01*
X139553506Y-106573260D01*
X139553504Y-106573261D01*
X139347266Y-106669432D01*
X139347263Y-106669434D01*
X139347261Y-106669435D01*
X139347258Y-106669437D01*
X139160862Y-106799951D01*
X138999951Y-106960862D01*
X138869437Y-107147258D01*
X138869435Y-107147261D01*
X138869434Y-107147263D01*
X138869432Y-107147266D01*
X138775468Y-107348772D01*
X138773260Y-107353507D01*
X138714365Y-107573306D01*
X138694532Y-107799999D01*
X136805468Y-107799999D01*
X136785635Y-107573308D01*
X136726739Y-107353504D01*
X136725311Y-107350443D01*
X136725017Y-107348772D01*
X136724513Y-107347387D01*
X136724757Y-107347298D01*
X136711917Y-107274489D01*
X136738294Y-107202011D01*
X136754985Y-107182117D01*
X139942962Y-103994140D01*
X140009757Y-103955577D01*
X140048321Y-103950500D01*
X152220514Y-103950500D01*
X152228861Y-103950968D01*
X152267035Y-103955270D01*
X152267040Y-103955269D01*
X152325479Y-103944212D01*
X152354882Y-103939779D01*
X152384287Y-103935348D01*
X152384292Y-103935345D01*
X152392461Y-103932825D01*
X152400466Y-103930025D01*
X152400468Y-103930023D01*
X152400472Y-103930023D01*
X152453072Y-103902222D01*
X152506642Y-103876425D01*
X152506645Y-103876421D01*
X152513695Y-103871616D01*
X152520536Y-103866567D01*
X152520535Y-103866567D01*
X152520538Y-103866566D01*
X152562600Y-103824503D01*
X152606194Y-103784055D01*
X152613157Y-103775324D01*
X152614142Y-103776109D01*
X152624361Y-103762741D01*
X155387097Y-101000004D01*
X168144785Y-101000004D01*
X168163602Y-101203078D01*
X168163602Y-101203080D01*
X168163603Y-101203083D01*
X168171443Y-101230636D01*
X168219416Y-101399245D01*
X168219417Y-101399247D01*
X168219418Y-101399250D01*
X168243975Y-101448567D01*
X168310328Y-101581823D01*
X168363688Y-101652483D01*
X168433236Y-101744579D01*
X168583958Y-101881980D01*
X168583963Y-101881984D01*
X168757356Y-101989344D01*
X168757367Y-101989350D01*
X168873332Y-102034274D01*
X168947544Y-102063024D01*
X169148024Y-102100500D01*
X169148027Y-102100500D01*
X169351973Y-102100500D01*
X169351976Y-102100500D01*
X169552456Y-102063024D01*
X169742637Y-101989348D01*
X169916041Y-101881981D01*
X170066764Y-101744579D01*
X170189673Y-101581821D01*
X170280582Y-101399250D01*
X170336397Y-101203083D01*
X170355215Y-101000000D01*
X178105034Y-101000000D01*
X178124859Y-101226606D01*
X178183732Y-101446323D01*
X178183733Y-101446325D01*
X178279862Y-101652477D01*
X178279865Y-101652482D01*
X178330973Y-101725471D01*
X178848248Y-101208197D01*
X178915043Y-101169633D01*
X178992171Y-101169633D01*
X179058966Y-101208197D01*
X179074351Y-101229370D01*
X179075468Y-101228560D01*
X179082359Y-101238045D01*
X179171954Y-101327640D01*
X179181440Y-101334532D01*
X179179363Y-101337390D01*
X179221390Y-101375218D01*
X179245236Y-101448567D01*
X179229214Y-101524012D01*
X179201801Y-101561750D01*
X178684527Y-102079025D01*
X178757517Y-102130134D01*
X178757522Y-102130137D01*
X178963674Y-102226266D01*
X178963676Y-102226267D01*
X179183394Y-102285140D01*
X179183393Y-102285140D01*
X179409999Y-102304965D01*
X179636606Y-102285140D01*
X179856323Y-102226267D01*
X179856325Y-102226266D01*
X180062483Y-102130133D01*
X180062492Y-102130127D01*
X180135472Y-102079026D01*
X179618197Y-101561751D01*
X179579633Y-101494956D01*
X179579633Y-101417828D01*
X179618197Y-101351033D01*
X179639373Y-101335651D01*
X179638560Y-101334532D01*
X179648040Y-101327643D01*
X179648045Y-101327641D01*
X179737641Y-101238045D01*
X179737643Y-101238040D01*
X179744532Y-101228560D01*
X179747390Y-101230636D01*
X179785218Y-101188609D01*
X179858567Y-101164762D01*
X179934012Y-101180784D01*
X179971751Y-101208197D01*
X180489026Y-101725471D01*
X180540127Y-101652492D01*
X180540133Y-101652483D01*
X180636266Y-101446325D01*
X180636267Y-101446323D01*
X180695140Y-101226606D01*
X180714965Y-100999999D01*
X180695140Y-100773393D01*
X180636267Y-100553676D01*
X180636266Y-100553674D01*
X180540137Y-100347522D01*
X180540134Y-100347517D01*
X180489025Y-100274527D01*
X179971750Y-100791801D01*
X179904955Y-100830365D01*
X179827827Y-100830365D01*
X179761032Y-100791801D01*
X179745651Y-100770626D01*
X179744532Y-100771440D01*
X179737640Y-100761954D01*
X179648045Y-100672359D01*
X179638560Y-100665468D01*
X179640633Y-100662614D01*
X179598584Y-100624743D01*
X179574759Y-100551387D01*
X179590804Y-100475946D01*
X179618197Y-100438248D01*
X180135471Y-99920973D01*
X180135472Y-99920973D01*
X180062482Y-99869865D01*
X180062477Y-99869862D01*
X179856325Y-99773733D01*
X179856323Y-99773732D01*
X179636605Y-99714859D01*
X179636606Y-99714859D01*
X179410000Y-99695034D01*
X179183393Y-99714859D01*
X178963676Y-99773732D01*
X178963674Y-99773733D01*
X178757518Y-99869865D01*
X178757513Y-99869867D01*
X178684527Y-99920972D01*
X178684526Y-99920972D01*
X179201802Y-100438248D01*
X179240366Y-100505043D01*
X179240366Y-100582171D01*
X179201802Y-100648966D01*
X179180629Y-100664352D01*
X179181440Y-100665468D01*
X179171954Y-100672359D01*
X179082359Y-100761954D01*
X179075468Y-100771440D01*
X179072615Y-100769367D01*
X179034723Y-100811428D01*
X178961363Y-100835241D01*
X178885925Y-100819184D01*
X178848248Y-100791802D01*
X178330973Y-100274527D01*
X178330972Y-100274527D01*
X178279867Y-100347513D01*
X178279865Y-100347518D01*
X178183733Y-100553674D01*
X178183732Y-100553676D01*
X178124859Y-100773393D01*
X178105034Y-101000000D01*
X170355215Y-101000000D01*
X170336397Y-100796917D01*
X170280582Y-100600750D01*
X170189673Y-100418179D01*
X170066764Y-100255421D01*
X169916041Y-100118019D01*
X169916036Y-100118015D01*
X169742643Y-100010655D01*
X169742632Y-100010649D01*
X169552462Y-99936978D01*
X169552458Y-99936977D01*
X169552456Y-99936976D01*
X169512359Y-99929480D01*
X169351980Y-99899500D01*
X169351976Y-99899500D01*
X169148024Y-99899500D01*
X169148019Y-99899500D01*
X168947544Y-99936976D01*
X168947537Y-99936978D01*
X168757367Y-100010649D01*
X168757356Y-100010655D01*
X168583963Y-100118015D01*
X168583958Y-100118019D01*
X168433234Y-100255423D01*
X168310328Y-100418176D01*
X168219416Y-100600754D01*
X168163602Y-100796921D01*
X168144785Y-100999995D01*
X168144785Y-101000004D01*
X155387097Y-101000004D01*
X157547711Y-98839390D01*
X157553926Y-98833836D01*
X157583970Y-98809879D01*
X157617480Y-98760728D01*
X157618804Y-98758935D01*
X157652795Y-98712879D01*
X157656774Y-98705350D01*
X157660468Y-98697677D01*
X157660472Y-98697673D01*
X157678007Y-98640822D01*
X157697646Y-98584699D01*
X157697646Y-98584697D01*
X157699228Y-98576334D01*
X157700498Y-98567908D01*
X157700500Y-98567902D01*
X157700499Y-98508441D01*
X157702725Y-98448990D01*
X157702723Y-98448982D01*
X157701474Y-98437892D01*
X157702693Y-98437754D01*
X157700500Y-98421071D01*
X157700500Y-97830004D01*
X159644785Y-97830004D01*
X159663602Y-98033078D01*
X159663602Y-98033080D01*
X159663603Y-98033083D01*
X159679279Y-98088179D01*
X159719416Y-98229245D01*
X159719417Y-98229247D01*
X159719418Y-98229250D01*
X159767682Y-98326178D01*
X159810328Y-98411823D01*
X159873712Y-98495757D01*
X159933236Y-98574579D01*
X160076685Y-98705350D01*
X160083958Y-98711980D01*
X160083963Y-98711984D01*
X160257356Y-98819344D01*
X160257367Y-98819350D01*
X160332466Y-98848443D01*
X160447544Y-98893024D01*
X160648024Y-98930500D01*
X160648027Y-98930500D01*
X160851973Y-98930500D01*
X160851976Y-98930500D01*
X161052456Y-98893024D01*
X161242637Y-98819348D01*
X161416041Y-98711981D01*
X161462088Y-98670004D01*
X184894785Y-98670004D01*
X184913602Y-98873078D01*
X184913602Y-98873080D01*
X184913603Y-98873083D01*
X184937191Y-98955985D01*
X184969416Y-99069245D01*
X184969417Y-99069247D01*
X184969418Y-99069250D01*
X184999668Y-99130000D01*
X185060328Y-99251823D01*
X185131809Y-99346479D01*
X185183236Y-99414579D01*
X185300319Y-99521314D01*
X185333958Y-99551980D01*
X185333963Y-99551984D01*
X185507356Y-99659344D01*
X185507367Y-99659350D01*
X185612719Y-99700163D01*
X185697544Y-99733024D01*
X185898024Y-99770500D01*
X185898027Y-99770500D01*
X186101973Y-99770500D01*
X186101976Y-99770500D01*
X186302456Y-99733024D01*
X186492637Y-99659348D01*
X186666041Y-99551981D01*
X186816764Y-99414579D01*
X186939673Y-99251821D01*
X187030582Y-99069250D01*
X187086397Y-98873083D01*
X187096974Y-98758935D01*
X187105215Y-98670004D01*
X187105215Y-98669995D01*
X187092196Y-98529500D01*
X187086397Y-98466917D01*
X187030582Y-98270750D01*
X186939673Y-98088179D01*
X186816764Y-97925421D01*
X186666041Y-97788019D01*
X186666036Y-97788015D01*
X186492643Y-97680655D01*
X186492632Y-97680649D01*
X186302462Y-97606978D01*
X186302458Y-97606977D01*
X186302456Y-97606976D01*
X186262360Y-97599480D01*
X186101980Y-97569500D01*
X186101976Y-97569500D01*
X185898024Y-97569500D01*
X185898019Y-97569500D01*
X185697544Y-97606976D01*
X185697537Y-97606978D01*
X185507367Y-97680649D01*
X185507356Y-97680655D01*
X185333963Y-97788015D01*
X185333958Y-97788019D01*
X185183234Y-97925423D01*
X185060328Y-98088176D01*
X184969416Y-98270754D01*
X184913602Y-98466921D01*
X184894785Y-98669995D01*
X184894785Y-98670004D01*
X161462088Y-98670004D01*
X161566764Y-98574579D01*
X161689673Y-98411821D01*
X161780582Y-98229250D01*
X161836397Y-98033083D01*
X161855215Y-97830000D01*
X161836397Y-97626917D01*
X161780582Y-97430750D01*
X161689673Y-97248179D01*
X161566764Y-97085421D01*
X161416041Y-96948019D01*
X161416036Y-96948015D01*
X161242643Y-96840655D01*
X161242632Y-96840649D01*
X161052462Y-96766978D01*
X161052458Y-96766977D01*
X161052456Y-96766976D01*
X161012360Y-96759480D01*
X160851980Y-96729500D01*
X160851976Y-96729500D01*
X160648024Y-96729500D01*
X160648019Y-96729500D01*
X160447544Y-96766976D01*
X160447537Y-96766978D01*
X160257367Y-96840649D01*
X160257356Y-96840655D01*
X160083963Y-96948015D01*
X160083958Y-96948019D01*
X159933234Y-97085423D01*
X159810328Y-97248176D01*
X159719416Y-97430754D01*
X159663602Y-97626921D01*
X159644785Y-97829995D01*
X159644785Y-97830004D01*
X157700500Y-97830004D01*
X157700500Y-87670004D01*
X159644785Y-87670004D01*
X159663602Y-87873078D01*
X159663602Y-87873080D01*
X159663603Y-87873083D01*
X159672139Y-87903083D01*
X159719416Y-88069245D01*
X159719417Y-88069247D01*
X159719418Y-88069250D01*
X159734730Y-88100000D01*
X159810328Y-88251823D01*
X159832982Y-88281821D01*
X159933236Y-88414579D01*
X160083959Y-88551981D01*
X160228940Y-88641749D01*
X160281771Y-88697939D01*
X160299500Y-88768430D01*
X160299500Y-90970513D01*
X160299031Y-90978861D01*
X160294730Y-91017031D01*
X160294730Y-91017039D01*
X160305159Y-91072157D01*
X160305788Y-91075479D01*
X160311645Y-91114340D01*
X160314653Y-91134291D01*
X160317169Y-91142448D01*
X160319977Y-91150474D01*
X160347777Y-91203072D01*
X160373572Y-91256638D01*
X160378384Y-91263696D01*
X160383435Y-91270539D01*
X160425495Y-91312600D01*
X160465945Y-91356194D01*
X160474675Y-91363156D01*
X160473907Y-91364118D01*
X160487257Y-91374361D01*
X165410596Y-96297699D01*
X165416167Y-96303933D01*
X165440120Y-96333970D01*
X165440123Y-96333972D01*
X165489270Y-96367480D01*
X165510328Y-96383021D01*
X165537118Y-96402793D01*
X165537120Y-96402794D01*
X165544678Y-96406789D01*
X165552323Y-96410470D01*
X165552324Y-96410470D01*
X165552327Y-96410472D01*
X165609177Y-96428007D01*
X165665301Y-96447646D01*
X165665305Y-96447646D01*
X165673660Y-96449227D01*
X165682095Y-96450499D01*
X165682098Y-96450500D01*
X165682101Y-96450500D01*
X165741559Y-96450500D01*
X165801010Y-96452725D01*
X165801014Y-96452724D01*
X165812108Y-96451475D01*
X165812245Y-96452693D01*
X165828930Y-96450500D01*
X184902680Y-96450500D01*
X184977180Y-96470462D01*
X185031718Y-96525000D01*
X185036059Y-96533085D01*
X185060325Y-96581819D01*
X185095211Y-96628015D01*
X185183236Y-96744579D01*
X185333958Y-96881980D01*
X185333963Y-96881984D01*
X185507356Y-96989344D01*
X185507367Y-96989350D01*
X185623332Y-97034274D01*
X185697544Y-97063024D01*
X185898024Y-97100500D01*
X185898027Y-97100500D01*
X186101973Y-97100500D01*
X186101976Y-97100500D01*
X186302456Y-97063024D01*
X186492637Y-96989348D01*
X186666041Y-96881981D01*
X186816764Y-96744579D01*
X186939673Y-96581821D01*
X187030582Y-96399250D01*
X187086397Y-96203083D01*
X187105215Y-96000000D01*
X187086397Y-95796917D01*
X187030582Y-95600750D01*
X186939673Y-95418179D01*
X186816764Y-95255421D01*
X186666041Y-95118019D01*
X186666036Y-95118015D01*
X186492643Y-95010655D01*
X186492632Y-95010649D01*
X186302462Y-94936978D01*
X186302458Y-94936977D01*
X186302456Y-94936976D01*
X186262360Y-94929480D01*
X186101980Y-94899500D01*
X186101976Y-94899500D01*
X185898024Y-94899500D01*
X185898019Y-94899500D01*
X185697544Y-94936976D01*
X185697537Y-94936978D01*
X185507367Y-95010649D01*
X185507356Y-95010655D01*
X185333963Y-95118015D01*
X185333958Y-95118019D01*
X185183234Y-95255423D01*
X185060325Y-95418180D01*
X185036059Y-95466915D01*
X184984982Y-95524707D01*
X184911852Y-95549217D01*
X184902680Y-95549500D01*
X165998322Y-95549500D01*
X165923822Y-95529538D01*
X165892963Y-95505859D01*
X162592151Y-92205047D01*
X168695849Y-92205047D01*
X168705570Y-92384332D01*
X168705571Y-92384340D01*
X168753605Y-92557348D01*
X168791790Y-92629372D01*
X168809049Y-92704544D01*
X168786410Y-92778274D01*
X168765507Y-92804521D01*
X168747794Y-92822234D01*
X168702416Y-92925005D01*
X168702415Y-92925008D01*
X168702415Y-92925009D01*
X168699500Y-92950135D01*
X168699500Y-92950136D01*
X168699500Y-92950140D01*
X168699500Y-94089866D01*
X168702414Y-94114989D01*
X168702415Y-94114992D01*
X168747793Y-94217764D01*
X168747794Y-94217765D01*
X168827235Y-94297206D01*
X168930009Y-94342585D01*
X168955135Y-94345500D01*
X170544864Y-94345499D01*
X170544866Y-94345499D01*
X170557427Y-94344042D01*
X170569991Y-94342585D01*
X170672765Y-94297206D01*
X170752206Y-94217765D01*
X170797585Y-94114991D01*
X170800500Y-94089865D01*
X170800499Y-92950136D01*
X170797585Y-92925009D01*
X170752206Y-92822235D01*
X170738094Y-92808123D01*
X170699530Y-92741328D01*
X170699530Y-92664200D01*
X170706394Y-92646752D01*
X170705650Y-92646456D01*
X170733674Y-92576118D01*
X170775101Y-92472147D01*
X170804150Y-92294955D01*
X170802533Y-92265140D01*
X170798296Y-92186978D01*
X170794429Y-92115661D01*
X170767870Y-92020004D01*
X175029357Y-92020004D01*
X175049884Y-92241531D01*
X175049884Y-92241534D01*
X175110770Y-92455528D01*
X175209939Y-92654685D01*
X175209941Y-92654688D01*
X175209942Y-92654689D01*
X175344019Y-92832236D01*
X175508438Y-92982124D01*
X175697599Y-93099247D01*
X175697601Y-93099247D01*
X175697603Y-93099249D01*
X175697605Y-93099250D01*
X175859825Y-93162094D01*
X175905060Y-93179618D01*
X176123757Y-93220500D01*
X176123759Y-93220500D01*
X176346241Y-93220500D01*
X176346243Y-93220500D01*
X176564940Y-93179618D01*
X176691449Y-93130607D01*
X176772394Y-93099250D01*
X176772396Y-93099249D01*
X176772396Y-93099248D01*
X176772401Y-93099247D01*
X176961562Y-92982124D01*
X177125619Y-92832565D01*
X177194124Y-92797128D01*
X177271170Y-92800690D01*
X177336112Y-92842297D01*
X177371550Y-92910802D01*
X177375000Y-92942678D01*
X177375000Y-92967822D01*
X177375001Y-92967842D01*
X177381401Y-93027377D01*
X177431645Y-93162084D01*
X177431650Y-93162094D01*
X177517809Y-93277187D01*
X177517812Y-93277190D01*
X177632905Y-93363349D01*
X177632915Y-93363354D01*
X177767623Y-93413598D01*
X177767621Y-93413598D01*
X177827157Y-93419998D01*
X177827177Y-93420000D01*
X178525000Y-93420000D01*
X178525000Y-92615683D01*
X178544962Y-92541183D01*
X178599500Y-92486645D01*
X178674000Y-92466683D01*
X178696207Y-92468347D01*
X178707172Y-92469999D01*
X178707173Y-92470000D01*
X178707174Y-92470000D01*
X178808721Y-92470000D01*
X178808724Y-92470000D01*
X178853793Y-92463207D01*
X178930436Y-92471843D01*
X178992493Y-92517643D01*
X179023336Y-92588336D01*
X179025000Y-92610543D01*
X179025000Y-93420000D01*
X179722823Y-93420000D01*
X179722842Y-93419998D01*
X179782377Y-93413598D01*
X179917084Y-93363354D01*
X179917094Y-93363349D01*
X180032187Y-93277190D01*
X180032190Y-93277187D01*
X180118349Y-93162094D01*
X180118354Y-93162084D01*
X180168598Y-93027377D01*
X180174998Y-92967842D01*
X180175000Y-92967822D01*
X180175000Y-92270000D01*
X179366352Y-92270000D01*
X179291852Y-92250038D01*
X179237314Y-92195500D01*
X179217352Y-92121000D01*
X179221087Y-92087847D01*
X179225274Y-92069500D01*
X179228810Y-92054008D01*
X179228810Y-92054005D01*
X179219528Y-91930134D01*
X179233867Y-91854351D01*
X179284177Y-91795890D01*
X179356977Y-91770417D01*
X179368111Y-91770000D01*
X180175000Y-91770000D01*
X180175000Y-91072177D01*
X180174998Y-91072157D01*
X180168598Y-91012622D01*
X180118354Y-90877915D01*
X180118349Y-90877905D01*
X180032190Y-90762812D01*
X180032187Y-90762809D01*
X179917094Y-90676650D01*
X179917084Y-90676645D01*
X179782376Y-90626401D01*
X179782378Y-90626401D01*
X179722842Y-90620001D01*
X179722823Y-90620000D01*
X179025000Y-90620000D01*
X179025000Y-91424316D01*
X179005038Y-91498816D01*
X178950500Y-91553354D01*
X178876000Y-91573316D01*
X178853799Y-91571653D01*
X178842829Y-91570000D01*
X178842827Y-91570000D01*
X178741276Y-91570000D01*
X178741273Y-91570000D01*
X178741264Y-91570001D01*
X178696204Y-91576792D01*
X178619561Y-91568155D01*
X178557505Y-91522354D01*
X178526664Y-91451660D01*
X178525000Y-91429456D01*
X178525000Y-90620000D01*
X177827177Y-90620000D01*
X177827157Y-90620001D01*
X177767622Y-90626401D01*
X177632915Y-90676645D01*
X177632905Y-90676650D01*
X177517812Y-90762809D01*
X177517809Y-90762812D01*
X177431650Y-90877905D01*
X177431645Y-90877915D01*
X177381401Y-91012622D01*
X177375001Y-91072157D01*
X177375000Y-91072177D01*
X177375000Y-91097321D01*
X177355038Y-91171821D01*
X177300500Y-91226359D01*
X177226000Y-91246321D01*
X177151500Y-91226359D01*
X177125620Y-91207434D01*
X176961563Y-91057877D01*
X176961562Y-91057876D01*
X176772401Y-90940753D01*
X176772400Y-90940752D01*
X176772396Y-90940750D01*
X176772394Y-90940749D01*
X176564944Y-90860383D01*
X176564941Y-90860382D01*
X176564940Y-90860382D01*
X176486223Y-90845667D01*
X176346247Y-90819500D01*
X176346243Y-90819500D01*
X176123757Y-90819500D01*
X176123752Y-90819500D01*
X175905055Y-90860383D01*
X175697605Y-90940749D01*
X175697603Y-90940750D01*
X175508436Y-91057877D01*
X175344019Y-91207763D01*
X175209939Y-91385314D01*
X175110770Y-91584471D01*
X175049884Y-91798465D01*
X175049884Y-91798468D01*
X175029357Y-92019995D01*
X175029357Y-92020004D01*
X170767870Y-92020004D01*
X170746393Y-91942649D01*
X170686467Y-91829618D01*
X170662288Y-91784011D01*
X170662286Y-91784009D01*
X170662286Y-91784008D01*
X170603855Y-91715218D01*
X170570841Y-91645514D01*
X170577101Y-91568641D01*
X170603864Y-91522290D01*
X170607869Y-91517574D01*
X170607875Y-91517569D01*
X170708640Y-91368951D01*
X170775101Y-91202147D01*
X170804150Y-91024955D01*
X170803720Y-91017031D01*
X170799585Y-90940753D01*
X170794429Y-90845661D01*
X170746393Y-90672649D01*
X170662286Y-90514008D01*
X170606616Y-90448468D01*
X170546046Y-90377159D01*
X170546045Y-90377158D01*
X170546044Y-90377157D01*
X170469469Y-90318946D01*
X170403101Y-90268494D01*
X170403100Y-90268493D01*
X170240138Y-90193099D01*
X170064779Y-90154500D01*
X169480240Y-90154500D01*
X169480239Y-90154500D01*
X169346491Y-90169046D01*
X169346490Y-90169047D01*
X169176335Y-90226378D01*
X169176333Y-90226379D01*
X169022487Y-90318946D01*
X169022482Y-90318950D01*
X169022483Y-90318950D01*
X168892125Y-90442431D01*
X168891683Y-90443083D01*
X168791360Y-90591049D01*
X168791358Y-90591053D01*
X168724900Y-90757848D01*
X168724898Y-90757852D01*
X168695850Y-90935045D01*
X168695849Y-90935047D01*
X168705570Y-91114332D01*
X168705571Y-91114340D01*
X168753606Y-91287349D01*
X168837711Y-91445988D01*
X168837713Y-91445990D01*
X168837714Y-91445992D01*
X168845008Y-91454579D01*
X168896143Y-91514780D01*
X168929158Y-91584485D01*
X168922898Y-91661358D01*
X168896149Y-91707692D01*
X168892131Y-91712421D01*
X168791360Y-91861049D01*
X168791358Y-91861053D01*
X168724900Y-92027848D01*
X168724898Y-92027852D01*
X168695850Y-92205045D01*
X168695849Y-92205047D01*
X162592151Y-92205047D01*
X161244141Y-90857037D01*
X161205577Y-90790242D01*
X161200500Y-90751678D01*
X161200500Y-88768430D01*
X161220462Y-88693930D01*
X161271059Y-88641749D01*
X161416041Y-88551981D01*
X161566764Y-88414579D01*
X161689673Y-88251821D01*
X161780582Y-88069250D01*
X161836397Y-87873083D01*
X161855215Y-87670000D01*
X161847862Y-87590652D01*
X161841036Y-87516978D01*
X161836397Y-87466917D01*
X161780582Y-87270750D01*
X161689673Y-87088179D01*
X161682741Y-87079000D01*
X161647611Y-87032480D01*
X161566764Y-86925421D01*
X161416041Y-86788019D01*
X161416036Y-86788015D01*
X161242643Y-86680655D01*
X161242632Y-86680649D01*
X161052462Y-86606978D01*
X161052458Y-86606977D01*
X161052456Y-86606976D01*
X161012360Y-86599480D01*
X160851980Y-86569500D01*
X160851976Y-86569500D01*
X160648024Y-86569500D01*
X160648019Y-86569500D01*
X160447544Y-86606976D01*
X160447537Y-86606978D01*
X160257367Y-86680649D01*
X160257356Y-86680655D01*
X160083963Y-86788015D01*
X160083958Y-86788019D01*
X159933234Y-86925423D01*
X159810328Y-87088176D01*
X159719416Y-87270754D01*
X159663602Y-87466921D01*
X159644785Y-87669995D01*
X159644785Y-87670004D01*
X157700500Y-87670004D01*
X157700500Y-87248321D01*
X157720462Y-87173821D01*
X157744141Y-87142962D01*
X158637099Y-86250004D01*
X168314785Y-86250004D01*
X168333602Y-86453078D01*
X168333602Y-86453080D01*
X168333603Y-86453083D01*
X168346952Y-86500000D01*
X168389416Y-86649245D01*
X168389417Y-86649247D01*
X168389418Y-86649250D01*
X168479094Y-86829344D01*
X168480328Y-86831823D01*
X168543368Y-86915301D01*
X168603236Y-86994579D01*
X168726530Y-87106976D01*
X168753958Y-87131980D01*
X168753963Y-87131984D01*
X168927356Y-87239344D01*
X168927367Y-87239350D01*
X169043332Y-87284274D01*
X169117544Y-87313024D01*
X169318024Y-87350500D01*
X169318027Y-87350500D01*
X169521973Y-87350500D01*
X169521976Y-87350500D01*
X169722456Y-87313024D01*
X169912637Y-87239348D01*
X170086041Y-87131981D01*
X170236764Y-86994579D01*
X170359673Y-86831821D01*
X170450582Y-86649250D01*
X170506397Y-86453083D01*
X170525215Y-86250000D01*
X170524218Y-86239245D01*
X170506397Y-86046921D01*
X170506397Y-86046917D01*
X170493048Y-85999999D01*
X178301127Y-85999999D01*
X178301128Y-86000000D01*
X179040153Y-86000000D01*
X179114653Y-86019962D01*
X179169191Y-86074500D01*
X179189153Y-86149000D01*
X179187319Y-86172306D01*
X179176717Y-86239245D01*
X179175014Y-86250000D01*
X179187319Y-86327692D01*
X179179256Y-86404398D01*
X179133921Y-86466795D01*
X179063461Y-86498166D01*
X179040153Y-86500000D01*
X178301128Y-86500000D01*
X178353732Y-86696323D01*
X178353733Y-86696325D01*
X178449862Y-86902477D01*
X178449865Y-86902482D01*
X178580339Y-87088817D01*
X178741182Y-87249660D01*
X178927517Y-87380134D01*
X178927522Y-87380137D01*
X179133674Y-87476266D01*
X179133676Y-87476267D01*
X179329999Y-87528872D01*
X179330000Y-87528871D01*
X179330000Y-86789846D01*
X179349962Y-86715346D01*
X179404500Y-86660808D01*
X179479000Y-86640846D01*
X179502293Y-86642678D01*
X179548519Y-86650000D01*
X179548525Y-86650000D01*
X179611475Y-86650000D01*
X179611481Y-86650000D01*
X179657695Y-86642680D01*
X179734397Y-86650742D01*
X179796795Y-86696077D01*
X179828166Y-86766537D01*
X179830000Y-86789846D01*
X179830000Y-87528872D01*
X180026323Y-87476267D01*
X180026325Y-87476266D01*
X180232477Y-87380137D01*
X180232482Y-87380134D01*
X180418817Y-87249660D01*
X180579660Y-87088817D01*
X180710134Y-86902482D01*
X180710137Y-86902477D01*
X180806266Y-86696325D01*
X180806267Y-86696323D01*
X180858872Y-86500000D01*
X180119847Y-86500000D01*
X180045347Y-86480038D01*
X179990809Y-86425500D01*
X179970847Y-86351000D01*
X179972681Y-86327692D01*
X179984986Y-86250000D01*
X179972681Y-86172307D01*
X179980744Y-86095602D01*
X180026079Y-86033205D01*
X180096539Y-86001834D01*
X180119847Y-86000000D01*
X180858872Y-86000000D01*
X180858872Y-85999999D01*
X180816001Y-85840004D01*
X184894785Y-85840004D01*
X184913602Y-86043078D01*
X184969416Y-86239245D01*
X184969417Y-86239247D01*
X184969418Y-86239250D01*
X185049462Y-86400001D01*
X185060328Y-86421823D01*
X185102617Y-86477822D01*
X185183236Y-86584579D01*
X185321532Y-86710652D01*
X185333958Y-86721980D01*
X185333963Y-86721984D01*
X185507356Y-86829344D01*
X185507367Y-86829350D01*
X185584361Y-86859177D01*
X185697544Y-86903024D01*
X185898024Y-86940500D01*
X185898027Y-86940500D01*
X186101973Y-86940500D01*
X186101976Y-86940500D01*
X186302456Y-86903024D01*
X186486248Y-86831823D01*
X186492632Y-86829350D01*
X186492632Y-86829349D01*
X186492637Y-86829348D01*
X186666041Y-86721981D01*
X186816764Y-86584579D01*
X186939673Y-86421821D01*
X187030582Y-86239250D01*
X187086397Y-86043083D01*
X187096851Y-85930259D01*
X187105215Y-85840004D01*
X187105215Y-85839995D01*
X187089294Y-85668179D01*
X187086397Y-85636917D01*
X187030582Y-85440750D01*
X186939673Y-85258179D01*
X186816764Y-85095421D01*
X186666041Y-84958019D01*
X186666036Y-84958015D01*
X186492643Y-84850655D01*
X186492632Y-84850649D01*
X186302462Y-84776978D01*
X186302458Y-84776977D01*
X186302456Y-84776976D01*
X186262360Y-84769480D01*
X186101980Y-84739500D01*
X186101976Y-84739500D01*
X185898024Y-84739500D01*
X185898019Y-84739500D01*
X185697544Y-84776976D01*
X185697537Y-84776978D01*
X185507367Y-84850649D01*
X185507356Y-84850655D01*
X185333963Y-84958015D01*
X185333958Y-84958019D01*
X185183234Y-85095423D01*
X185060328Y-85258176D01*
X184969416Y-85440754D01*
X184913602Y-85636921D01*
X184894785Y-85839995D01*
X184894785Y-85840004D01*
X180816001Y-85840004D01*
X180806267Y-85803676D01*
X180806266Y-85803674D01*
X180710137Y-85597522D01*
X180710134Y-85597517D01*
X180579660Y-85411182D01*
X180418817Y-85250339D01*
X180232482Y-85119865D01*
X180232477Y-85119862D01*
X180026325Y-85023733D01*
X179830000Y-84971127D01*
X179830000Y-85710153D01*
X179810038Y-85784653D01*
X179755500Y-85839191D01*
X179681000Y-85859153D01*
X179657694Y-85857319D01*
X179638496Y-85854278D01*
X179611481Y-85850000D01*
X179548519Y-85850000D01*
X179521503Y-85854278D01*
X179502306Y-85857319D01*
X179425601Y-85849256D01*
X179363204Y-85803920D01*
X179331834Y-85733459D01*
X179330000Y-85710153D01*
X179330000Y-84971127D01*
X179133674Y-85023733D01*
X178927522Y-85119862D01*
X178927517Y-85119865D01*
X178741182Y-85250339D01*
X178580339Y-85411182D01*
X178449865Y-85597517D01*
X178449862Y-85597522D01*
X178353733Y-85803674D01*
X178353732Y-85803676D01*
X178301127Y-85999999D01*
X170493048Y-85999999D01*
X170450582Y-85850750D01*
X170359673Y-85668179D01*
X170236764Y-85505421D01*
X170086041Y-85368019D01*
X170086036Y-85368015D01*
X169912643Y-85260655D01*
X169912632Y-85260649D01*
X169722462Y-85186978D01*
X169722458Y-85186977D01*
X169722456Y-85186976D01*
X169682360Y-85179480D01*
X169521980Y-85149500D01*
X169521976Y-85149500D01*
X169318024Y-85149500D01*
X169318019Y-85149500D01*
X169117544Y-85186976D01*
X169117537Y-85186978D01*
X168927367Y-85260649D01*
X168927356Y-85260655D01*
X168753963Y-85368015D01*
X168753958Y-85368019D01*
X168603234Y-85505423D01*
X168480328Y-85668176D01*
X168389416Y-85850754D01*
X168346952Y-85999999D01*
X168337505Y-86033205D01*
X168333602Y-86046921D01*
X168314785Y-86249995D01*
X168314785Y-86250004D01*
X158637099Y-86250004D01*
X160142962Y-84744141D01*
X160209757Y-84705577D01*
X160248321Y-84700500D01*
X166550514Y-84700500D01*
X166558861Y-84700968D01*
X166597035Y-84705270D01*
X166597040Y-84705269D01*
X166655479Y-84694212D01*
X166684882Y-84689779D01*
X166714287Y-84685348D01*
X166714292Y-84685345D01*
X166722461Y-84682825D01*
X166730466Y-84680025D01*
X166730468Y-84680023D01*
X166730472Y-84680023D01*
X166783072Y-84652222D01*
X166836642Y-84626425D01*
X166836645Y-84626421D01*
X166843695Y-84621616D01*
X166850536Y-84616567D01*
X166850535Y-84616567D01*
X166850538Y-84616566D01*
X166892600Y-84574503D01*
X166936194Y-84534055D01*
X166943157Y-84525324D01*
X166944142Y-84526109D01*
X166954361Y-84512741D01*
X170967098Y-80500004D01*
X174724785Y-80500004D01*
X174743602Y-80703078D01*
X174743602Y-80703080D01*
X174743603Y-80703083D01*
X174751443Y-80730636D01*
X174799416Y-80899245D01*
X174799417Y-80899247D01*
X174799418Y-80899250D01*
X174823975Y-80948567D01*
X174890328Y-81081823D01*
X174943688Y-81152483D01*
X175013236Y-81244579D01*
X175163958Y-81381980D01*
X175163963Y-81381984D01*
X175337356Y-81489344D01*
X175337367Y-81489350D01*
X175453332Y-81534274D01*
X175527544Y-81563024D01*
X175728024Y-81600500D01*
X175728027Y-81600500D01*
X175931973Y-81600500D01*
X175931976Y-81600500D01*
X176132456Y-81563024D01*
X176322637Y-81489348D01*
X176496041Y-81381981D01*
X176646764Y-81244579D01*
X176769673Y-81081821D01*
X176860582Y-80899250D01*
X176916397Y-80703083D01*
X176935215Y-80500000D01*
X176916397Y-80296917D01*
X176860582Y-80100750D01*
X176769673Y-79918179D01*
X176646764Y-79755421D01*
X176496041Y-79618019D01*
X176496036Y-79618015D01*
X176322643Y-79510655D01*
X176322632Y-79510649D01*
X176132462Y-79436978D01*
X176132458Y-79436977D01*
X176132456Y-79436976D01*
X176092360Y-79429480D01*
X175931980Y-79399500D01*
X175931976Y-79399500D01*
X175728024Y-79399500D01*
X175728019Y-79399500D01*
X175527544Y-79436976D01*
X175527537Y-79436978D01*
X175337367Y-79510649D01*
X175337356Y-79510655D01*
X175163963Y-79618015D01*
X175163958Y-79618019D01*
X175013234Y-79755423D01*
X174890328Y-79918176D01*
X174799416Y-80100754D01*
X174743602Y-80296921D01*
X174724785Y-80499995D01*
X174724785Y-80500004D01*
X170967098Y-80500004D01*
X172172236Y-79294866D01*
X183949500Y-79294866D01*
X183952414Y-79319989D01*
X183952415Y-79319992D01*
X183997793Y-79422764D01*
X183997793Y-79422765D01*
X183997794Y-79422765D01*
X184077235Y-79502206D01*
X184180009Y-79547585D01*
X184205135Y-79550500D01*
X187294864Y-79550499D01*
X187294866Y-79550499D01*
X187307427Y-79549042D01*
X187319991Y-79547585D01*
X187422765Y-79502206D01*
X187502206Y-79422765D01*
X187547585Y-79319991D01*
X187550500Y-79294865D01*
X187550499Y-76205136D01*
X187547585Y-76180009D01*
X187502206Y-76077235D01*
X187422765Y-75997794D01*
X187422765Y-75997793D01*
X187422764Y-75997793D01*
X187319994Y-75952416D01*
X187319991Y-75952415D01*
X187319982Y-75952414D01*
X187294865Y-75949500D01*
X187294859Y-75949500D01*
X184205133Y-75949500D01*
X184180010Y-75952414D01*
X184180007Y-75952415D01*
X184077235Y-75997793D01*
X183997793Y-76077235D01*
X183952416Y-76180005D01*
X183952415Y-76180008D01*
X183952415Y-76180009D01*
X183949500Y-76205135D01*
X183949500Y-76205136D01*
X183949500Y-76205140D01*
X183949500Y-79294866D01*
X172172236Y-79294866D01*
X175369903Y-76097199D01*
X175436696Y-76058637D01*
X175513824Y-76058637D01*
X175525322Y-76062392D01*
X175527536Y-76063022D01*
X175527541Y-76063023D01*
X175527544Y-76063024D01*
X175728024Y-76100500D01*
X175728027Y-76100500D01*
X175931973Y-76100500D01*
X175931976Y-76100500D01*
X176132456Y-76063024D01*
X176322637Y-75989348D01*
X176496041Y-75881981D01*
X176646764Y-75744579D01*
X176769673Y-75581821D01*
X176860582Y-75399250D01*
X176916397Y-75203083D01*
X176935215Y-75000000D01*
X176916397Y-74796917D01*
X176860582Y-74600750D01*
X176769673Y-74418179D01*
X176646764Y-74255421D01*
X176496041Y-74118019D01*
X176496036Y-74118015D01*
X176322643Y-74010655D01*
X176322632Y-74010649D01*
X176132462Y-73936978D01*
X176132458Y-73936977D01*
X176132456Y-73936976D01*
X176092360Y-73929480D01*
X175931980Y-73899500D01*
X175931976Y-73899500D01*
X175728024Y-73899500D01*
X175728019Y-73899500D01*
X175527544Y-73936976D01*
X175527537Y-73936978D01*
X175337367Y-74010649D01*
X175337356Y-74010655D01*
X175163963Y-74118015D01*
X175163958Y-74118019D01*
X175013234Y-74255423D01*
X174890328Y-74418176D01*
X174799416Y-74600754D01*
X174743602Y-74796921D01*
X174724785Y-74999995D01*
X174724785Y-75000004D01*
X174743602Y-75203078D01*
X174743602Y-75203081D01*
X174774176Y-75310538D01*
X174775364Y-75387657D01*
X174737832Y-75455037D01*
X174736223Y-75456672D01*
X166437038Y-83755859D01*
X166370243Y-83794423D01*
X166331679Y-83799500D01*
X160029487Y-83799500D01*
X160021139Y-83799031D01*
X159982968Y-83794730D01*
X159982966Y-83794730D01*
X159982965Y-83794730D01*
X159924520Y-83805788D01*
X159899547Y-83809552D01*
X159865712Y-83814651D01*
X159857561Y-83817165D01*
X159849526Y-83819977D01*
X159796936Y-83847773D01*
X159743361Y-83873573D01*
X159736318Y-83878374D01*
X159729463Y-83883434D01*
X159687413Y-83925482D01*
X159643806Y-83965945D01*
X159636843Y-83974676D01*
X159635907Y-83973929D01*
X159625641Y-83987254D01*
X156952298Y-86660597D01*
X156946065Y-86666167D01*
X156916030Y-86690119D01*
X156882518Y-86739272D01*
X156847204Y-86787120D01*
X156843221Y-86794657D01*
X156839526Y-86802329D01*
X156821992Y-86859177D01*
X156802354Y-86915299D01*
X156800768Y-86923680D01*
X156799500Y-86932099D01*
X156799500Y-86991572D01*
X156797276Y-87051015D01*
X156798526Y-87062109D01*
X156797302Y-87062246D01*
X156799500Y-87078927D01*
X156799500Y-98251678D01*
X156779538Y-98326178D01*
X156755859Y-98357037D01*
X152107038Y-103005859D01*
X152040243Y-103044423D01*
X152001679Y-103049500D01*
X139829487Y-103049500D01*
X139821139Y-103049031D01*
X139782968Y-103044730D01*
X139782966Y-103044730D01*
X139782965Y-103044730D01*
X139724520Y-103055788D01*
X139699547Y-103059552D01*
X139665712Y-103064651D01*
X139657561Y-103067165D01*
X139649526Y-103069977D01*
X139596936Y-103097773D01*
X139543361Y-103123573D01*
X139536318Y-103128374D01*
X139529463Y-103133434D01*
X139487413Y-103175482D01*
X139443806Y-103215945D01*
X139436843Y-103224676D01*
X139435907Y-103223929D01*
X139425641Y-103237254D01*
X136117887Y-106545008D01*
X136051092Y-106583572D01*
X135973964Y-106583572D01*
X135949562Y-106574690D01*
X135946496Y-106573261D01*
X135946494Y-106573260D01*
X135726692Y-106514365D01*
X135726693Y-106514365D01*
X135500000Y-106494532D01*
X135273306Y-106514365D01*
X135053507Y-106573260D01*
X135053506Y-106573260D01*
X135053504Y-106573261D01*
X134847266Y-106669432D01*
X134847263Y-106669434D01*
X134847261Y-106669435D01*
X134847258Y-106669437D01*
X134660862Y-106799951D01*
X134499951Y-106960862D01*
X134369437Y-107147258D01*
X134369435Y-107147261D01*
X134369434Y-107147263D01*
X134369432Y-107147266D01*
X134275468Y-107348772D01*
X134273260Y-107353507D01*
X134214365Y-107573306D01*
X134194532Y-107800000D01*
X109758617Y-107800000D01*
X109750847Y-107771000D01*
X109752681Y-107747692D01*
X109755562Y-107729500D01*
X109764986Y-107670000D01*
X109752681Y-107592307D01*
X109760744Y-107515602D01*
X109806079Y-107453205D01*
X109876539Y-107421834D01*
X109899847Y-107420000D01*
X110638872Y-107420000D01*
X110638872Y-107419999D01*
X110586267Y-107223676D01*
X110586266Y-107223674D01*
X110490137Y-107017522D01*
X110490134Y-107017517D01*
X110359660Y-106831182D01*
X110198817Y-106670339D01*
X110012482Y-106539865D01*
X110012477Y-106539862D01*
X109806325Y-106443733D01*
X109609999Y-106391127D01*
X109610000Y-107130153D01*
X109590038Y-107204653D01*
X109535500Y-107259191D01*
X109461000Y-107279153D01*
X109437694Y-107277319D01*
X109418496Y-107274278D01*
X109391481Y-107270000D01*
X109328519Y-107270000D01*
X109301503Y-107274278D01*
X109282306Y-107277319D01*
X109205601Y-107269256D01*
X109143204Y-107223920D01*
X109111834Y-107153459D01*
X109110000Y-107130153D01*
X109110000Y-106391127D01*
X108913674Y-106443733D01*
X108707522Y-106539862D01*
X108707517Y-106539865D01*
X108521182Y-106670339D01*
X108360339Y-106831182D01*
X108229865Y-107017517D01*
X108229862Y-107017522D01*
X108133733Y-107223674D01*
X108133732Y-107223676D01*
X108081127Y-107419999D01*
X100200500Y-107419999D01*
X100200500Y-103330004D01*
X128144785Y-103330004D01*
X128163602Y-103533078D01*
X128219416Y-103729245D01*
X128219417Y-103729247D01*
X128219418Y-103729250D01*
X128292701Y-103876422D01*
X128310328Y-103911823D01*
X128339536Y-103950500D01*
X128433236Y-104074579D01*
X128583958Y-104211980D01*
X128583963Y-104211984D01*
X128757356Y-104319344D01*
X128757367Y-104319350D01*
X128873332Y-104364274D01*
X128947544Y-104393024D01*
X129148024Y-104430500D01*
X129148027Y-104430500D01*
X129351973Y-104430500D01*
X129351976Y-104430500D01*
X129552456Y-104393024D01*
X129742637Y-104319348D01*
X129916041Y-104211981D01*
X130066764Y-104074579D01*
X130189673Y-103911821D01*
X130280582Y-103729250D01*
X130336397Y-103533083D01*
X130355215Y-103330000D01*
X130336397Y-103126917D01*
X130280582Y-102930750D01*
X130189673Y-102748179D01*
X130066764Y-102585421D01*
X129916041Y-102448019D01*
X129916036Y-102448015D01*
X129742643Y-102340655D01*
X129742632Y-102340649D01*
X129552462Y-102266978D01*
X129552458Y-102266977D01*
X129552456Y-102266976D01*
X129512359Y-102259480D01*
X129351980Y-102229500D01*
X129351976Y-102229500D01*
X129148024Y-102229500D01*
X129148019Y-102229500D01*
X128947544Y-102266976D01*
X128947537Y-102266978D01*
X128757367Y-102340649D01*
X128757356Y-102340655D01*
X128583963Y-102448015D01*
X128583958Y-102448019D01*
X128433234Y-102585423D01*
X128310328Y-102748176D01*
X128219416Y-102930754D01*
X128185630Y-103049500D01*
X128164555Y-103123573D01*
X128163602Y-103126921D01*
X128144785Y-103329995D01*
X128144785Y-103330004D01*
X100200500Y-103330004D01*
X100200500Y-99430004D01*
X114645287Y-99430004D01*
X114664096Y-99632985D01*
X114719886Y-99829069D01*
X114810750Y-100011548D01*
X114810758Y-100011562D01*
X114812532Y-100013912D01*
X114812533Y-100013913D01*
X115262311Y-99564135D01*
X115329106Y-99525571D01*
X115406234Y-99525571D01*
X115473029Y-99564135D01*
X115501047Y-99603076D01*
X115506448Y-99613921D01*
X115506448Y-99613922D01*
X115506450Y-99613924D01*
X115599538Y-99698787D01*
X115598283Y-99700163D01*
X115639556Y-99744061D01*
X115657213Y-99819141D01*
X115634965Y-99892990D01*
X115613643Y-99919909D01*
X115169311Y-100364241D01*
X115257580Y-100418895D01*
X115257582Y-100418896D01*
X115447682Y-100492541D01*
X115648065Y-100529999D01*
X115648073Y-100530000D01*
X115851927Y-100530000D01*
X115851934Y-100529999D01*
X116052317Y-100492541D01*
X116242418Y-100418896D01*
X116330687Y-100364240D01*
X115882581Y-99916134D01*
X115844017Y-99849339D01*
X115844017Y-99772211D01*
X115882581Y-99705416D01*
X115909502Y-99684093D01*
X115955608Y-99655545D01*
X115955608Y-99655544D01*
X115955607Y-99655544D01*
X115955610Y-99655543D01*
X116013116Y-99579391D01*
X116073941Y-99531970D01*
X116150329Y-99521314D01*
X116221812Y-99550280D01*
X116237379Y-99563826D01*
X116687466Y-100013912D01*
X116706269Y-100012608D01*
X116781972Y-100027364D01*
X116840155Y-100077995D01*
X116852889Y-100101065D01*
X116897794Y-100202765D01*
X116977235Y-100282206D01*
X117080009Y-100327585D01*
X117105135Y-100330500D01*
X118394864Y-100330499D01*
X118394866Y-100330499D01*
X118407427Y-100329042D01*
X118419991Y-100327585D01*
X118522765Y-100282206D01*
X118602206Y-100202765D01*
X118647585Y-100099991D01*
X118650500Y-100074865D01*
X118650499Y-98785136D01*
X118647585Y-98760009D01*
X118602206Y-98657235D01*
X118522765Y-98577794D01*
X118522765Y-98577793D01*
X118522764Y-98577793D01*
X118419994Y-98532416D01*
X118419991Y-98532415D01*
X118419982Y-98532414D01*
X118394865Y-98529500D01*
X118394859Y-98529500D01*
X117105133Y-98529500D01*
X117080010Y-98532414D01*
X117080007Y-98532415D01*
X116977235Y-98577793D01*
X116897794Y-98657234D01*
X116852889Y-98758935D01*
X116804536Y-98819023D01*
X116732616Y-98846885D01*
X116706255Y-98847391D01*
X116687466Y-98846085D01*
X116237688Y-99295863D01*
X116170893Y-99334427D01*
X116093765Y-99334427D01*
X116026970Y-99295863D01*
X115998951Y-99256921D01*
X115993552Y-99246078D01*
X115993549Y-99246075D01*
X115900462Y-99161213D01*
X115901716Y-99159837D01*
X115860443Y-99115941D01*
X115842785Y-99040861D01*
X115865031Y-98967011D01*
X115886355Y-98940090D01*
X116330687Y-98495758D01*
X116242414Y-98441102D01*
X116052317Y-98367458D01*
X115851934Y-98330000D01*
X115648065Y-98330000D01*
X115447682Y-98367458D01*
X115257585Y-98441102D01*
X115169310Y-98495757D01*
X115617418Y-98943865D01*
X115655982Y-99010660D01*
X115655982Y-99087788D01*
X115617418Y-99154583D01*
X115590500Y-99175905D01*
X115544389Y-99204456D01*
X115486883Y-99280607D01*
X115426056Y-99328029D01*
X115349668Y-99338685D01*
X115278186Y-99309718D01*
X115262620Y-99296173D01*
X114812533Y-98846086D01*
X114810754Y-98848443D01*
X114810753Y-98848444D01*
X114719886Y-99030930D01*
X114664096Y-99227014D01*
X114645287Y-99429995D01*
X114645287Y-99430004D01*
X100200500Y-99430004D01*
X100200500Y-97510004D01*
X108254785Y-97510004D01*
X108273602Y-97713078D01*
X108329416Y-97909245D01*
X108329417Y-97909247D01*
X108329418Y-97909250D01*
X108391077Y-98033078D01*
X108420328Y-98091823D01*
X108501174Y-98198880D01*
X108543236Y-98254579D01*
X108667059Y-98367458D01*
X108693958Y-98391980D01*
X108693963Y-98391984D01*
X108867356Y-98499344D01*
X108867367Y-98499350D01*
X108952719Y-98532415D01*
X109057544Y-98573024D01*
X109258024Y-98610500D01*
X109258027Y-98610500D01*
X109461973Y-98610500D01*
X109461976Y-98610500D01*
X109662456Y-98573024D01*
X109852637Y-98499348D01*
X110026041Y-98391981D01*
X110176764Y-98254579D01*
X110299673Y-98091821D01*
X110390582Y-97909250D01*
X110446397Y-97713083D01*
X110465215Y-97510000D01*
X110446397Y-97306917D01*
X110390582Y-97110750D01*
X110299673Y-96928179D01*
X110176764Y-96765421D01*
X110026041Y-96628019D01*
X110026036Y-96628015D01*
X109852643Y-96520655D01*
X109852632Y-96520649D01*
X109662462Y-96446978D01*
X109662458Y-96446977D01*
X109662456Y-96446976D01*
X109622360Y-96439480D01*
X109461980Y-96409500D01*
X109461976Y-96409500D01*
X109258024Y-96409500D01*
X109258019Y-96409500D01*
X109057544Y-96446976D01*
X109057537Y-96446978D01*
X108867367Y-96520649D01*
X108867356Y-96520655D01*
X108693963Y-96628015D01*
X108693958Y-96628019D01*
X108543234Y-96765423D01*
X108420328Y-96928176D01*
X108329416Y-97110754D01*
X108273602Y-97306921D01*
X108254785Y-97509995D01*
X108254785Y-97510004D01*
X100200500Y-97510004D01*
X100200500Y-95320004D01*
X144094785Y-95320004D01*
X144113602Y-95523078D01*
X144113602Y-95523080D01*
X144113603Y-95523083D01*
X144135701Y-95600750D01*
X144169416Y-95719245D01*
X144169417Y-95719247D01*
X144169418Y-95719250D01*
X144260327Y-95901821D01*
X144260328Y-95901823D01*
X144334464Y-95999995D01*
X144383236Y-96064579D01*
X144533958Y-96201980D01*
X144533963Y-96201984D01*
X144707356Y-96309344D01*
X144707367Y-96309350D01*
X144770920Y-96333970D01*
X144897544Y-96383024D01*
X145098024Y-96420500D01*
X145098027Y-96420500D01*
X145301973Y-96420500D01*
X145301976Y-96420500D01*
X145502456Y-96383024D01*
X145692637Y-96309348D01*
X145866041Y-96201981D01*
X146016764Y-96064579D01*
X146139673Y-95901821D01*
X146230582Y-95719250D01*
X146286397Y-95523083D01*
X146305215Y-95320004D01*
X151714785Y-95320004D01*
X151733602Y-95523078D01*
X151733602Y-95523080D01*
X151733603Y-95523083D01*
X151755701Y-95600750D01*
X151789416Y-95719245D01*
X151789417Y-95719247D01*
X151789418Y-95719250D01*
X151880327Y-95901821D01*
X151880328Y-95901823D01*
X151954464Y-95999995D01*
X152003236Y-96064579D01*
X152153958Y-96201980D01*
X152153963Y-96201984D01*
X152327356Y-96309344D01*
X152327367Y-96309350D01*
X152390920Y-96333970D01*
X152517544Y-96383024D01*
X152718024Y-96420500D01*
X152718027Y-96420500D01*
X152921973Y-96420500D01*
X152921976Y-96420500D01*
X153122456Y-96383024D01*
X153312637Y-96309348D01*
X153486041Y-96201981D01*
X153636764Y-96064579D01*
X153759673Y-95901821D01*
X153850582Y-95719250D01*
X153906397Y-95523083D01*
X153925215Y-95320000D01*
X153906397Y-95116917D01*
X153850582Y-94920750D01*
X153759673Y-94738179D01*
X153636764Y-94575421D01*
X153486041Y-94438019D01*
X153486036Y-94438015D01*
X153312643Y-94330655D01*
X153312632Y-94330649D01*
X153122462Y-94256978D01*
X153122458Y-94256977D01*
X153122456Y-94256976D01*
X153082359Y-94249480D01*
X152921980Y-94219500D01*
X152921976Y-94219500D01*
X152718024Y-94219500D01*
X152718019Y-94219500D01*
X152517544Y-94256976D01*
X152517537Y-94256978D01*
X152327367Y-94330649D01*
X152327356Y-94330655D01*
X152153963Y-94438015D01*
X152153958Y-94438019D01*
X152003234Y-94575423D01*
X151880328Y-94738176D01*
X151789416Y-94920754D01*
X151733602Y-95116921D01*
X151714785Y-95319995D01*
X151714785Y-95320004D01*
X146305215Y-95320004D01*
X146305215Y-95320000D01*
X146286397Y-95116917D01*
X146230582Y-94920750D01*
X146139673Y-94738179D01*
X146016764Y-94575421D01*
X145866041Y-94438019D01*
X145866036Y-94438015D01*
X145692643Y-94330655D01*
X145692632Y-94330649D01*
X145502462Y-94256978D01*
X145502458Y-94256977D01*
X145502456Y-94256976D01*
X145462360Y-94249480D01*
X145301980Y-94219500D01*
X145301976Y-94219500D01*
X145098024Y-94219500D01*
X145098019Y-94219500D01*
X144897544Y-94256976D01*
X144897537Y-94256978D01*
X144707367Y-94330649D01*
X144707356Y-94330655D01*
X144533963Y-94438015D01*
X144533958Y-94438019D01*
X144383234Y-94575423D01*
X144260328Y-94738176D01*
X144169416Y-94920754D01*
X144113602Y-95116921D01*
X144094785Y-95319995D01*
X144094785Y-95320004D01*
X100200500Y-95320004D01*
X100200500Y-90670004D01*
X108154357Y-90670004D01*
X108174884Y-90891531D01*
X108174884Y-90891534D01*
X108235770Y-91105528D01*
X108334939Y-91304685D01*
X108334941Y-91304688D01*
X108334942Y-91304689D01*
X108469019Y-91482236D01*
X108633438Y-91632124D01*
X108797681Y-91733819D01*
X108850513Y-91790009D01*
X108868171Y-91865088D01*
X108845925Y-91938938D01*
X108789733Y-91991771D01*
X108719242Y-92009500D01*
X108415133Y-92009500D01*
X108390010Y-92012414D01*
X108390007Y-92012415D01*
X108287235Y-92057793D01*
X108207793Y-92137235D01*
X108162416Y-92240005D01*
X108162415Y-92240008D01*
X108162415Y-92240009D01*
X108159500Y-92265135D01*
X108159500Y-92265136D01*
X108159500Y-92265140D01*
X108159500Y-94154866D01*
X108162414Y-94179989D01*
X108162415Y-94179992D01*
X108207793Y-94282764D01*
X108207794Y-94282765D01*
X108287235Y-94362206D01*
X108390009Y-94407585D01*
X108415135Y-94410500D01*
X110304864Y-94410499D01*
X110304866Y-94410499D01*
X110317427Y-94409042D01*
X110329991Y-94407585D01*
X110432765Y-94362206D01*
X110512206Y-94282765D01*
X110557585Y-94179991D01*
X110560500Y-94154865D01*
X110560500Y-93250004D01*
X115064785Y-93250004D01*
X115083602Y-93453078D01*
X115139416Y-93649245D01*
X115139417Y-93649247D01*
X115139418Y-93649250D01*
X115199220Y-93769350D01*
X115230328Y-93831823D01*
X115292823Y-93914579D01*
X115353236Y-93994579D01*
X115457759Y-94089864D01*
X115503958Y-94131980D01*
X115503963Y-94131984D01*
X115677356Y-94239344D01*
X115677367Y-94239350D01*
X115757776Y-94270500D01*
X115867544Y-94313024D01*
X116068024Y-94350500D01*
X116068027Y-94350500D01*
X116271973Y-94350500D01*
X116271976Y-94350500D01*
X116472456Y-94313024D01*
X116662637Y-94239348D01*
X116836041Y-94131981D01*
X116986764Y-93994579D01*
X117109673Y-93831821D01*
X117200582Y-93649250D01*
X117256397Y-93453083D01*
X117275215Y-93250004D01*
X122684785Y-93250004D01*
X122703602Y-93453078D01*
X122759416Y-93649245D01*
X122759417Y-93649247D01*
X122759418Y-93649250D01*
X122819220Y-93769350D01*
X122850328Y-93831823D01*
X122912823Y-93914579D01*
X122973236Y-93994579D01*
X123077759Y-94089864D01*
X123123958Y-94131980D01*
X123123963Y-94131984D01*
X123297356Y-94239344D01*
X123297367Y-94239350D01*
X123377776Y-94270500D01*
X123487544Y-94313024D01*
X123688024Y-94350500D01*
X123688027Y-94350500D01*
X123891973Y-94350500D01*
X123891976Y-94350500D01*
X124092456Y-94313024D01*
X124282637Y-94239348D01*
X124456041Y-94131981D01*
X124606764Y-93994579D01*
X124729673Y-93831821D01*
X124820582Y-93649250D01*
X124876397Y-93453083D01*
X124895215Y-93250000D01*
X124892481Y-93220500D01*
X124887802Y-93170004D01*
X128144785Y-93170004D01*
X128163602Y-93373078D01*
X128219416Y-93569245D01*
X128219417Y-93569247D01*
X128219418Y-93569250D01*
X128265594Y-93661984D01*
X128310328Y-93751823D01*
X128323564Y-93769350D01*
X128433236Y-93914579D01*
X128583958Y-94051980D01*
X128583963Y-94051984D01*
X128757356Y-94159344D01*
X128757367Y-94159350D01*
X128873332Y-94204274D01*
X128947544Y-94233024D01*
X129148024Y-94270500D01*
X129148027Y-94270500D01*
X129351973Y-94270500D01*
X129351976Y-94270500D01*
X129552456Y-94233024D01*
X129742637Y-94159348D01*
X129916041Y-94051981D01*
X130066764Y-93914579D01*
X130189673Y-93751821D01*
X130280582Y-93569250D01*
X130336397Y-93373083D01*
X130354358Y-93179250D01*
X130355215Y-93170004D01*
X130355215Y-93169995D01*
X130337895Y-92983083D01*
X130336397Y-92966917D01*
X130283215Y-92780004D01*
X144094785Y-92780004D01*
X144113602Y-92983078D01*
X144169416Y-93179245D01*
X144169417Y-93179247D01*
X144169418Y-93179250D01*
X144189958Y-93220500D01*
X144260328Y-93361823D01*
X144329241Y-93453078D01*
X144383236Y-93524579D01*
X144519988Y-93649245D01*
X144533958Y-93661980D01*
X144533963Y-93661984D01*
X144707356Y-93769344D01*
X144707367Y-93769350D01*
X144823332Y-93814274D01*
X144897544Y-93843024D01*
X145098024Y-93880500D01*
X145098027Y-93880500D01*
X145301973Y-93880500D01*
X145301976Y-93880500D01*
X145502456Y-93843024D01*
X145692637Y-93769348D01*
X145866041Y-93661981D01*
X146016764Y-93524579D01*
X146139673Y-93361821D01*
X146230582Y-93179250D01*
X146286397Y-92983083D01*
X146298659Y-92850750D01*
X146305215Y-92780004D01*
X151714785Y-92780004D01*
X151733602Y-92983078D01*
X151789416Y-93179245D01*
X151789417Y-93179247D01*
X151789418Y-93179250D01*
X151809958Y-93220500D01*
X151880328Y-93361823D01*
X151949241Y-93453078D01*
X152003236Y-93524579D01*
X152139988Y-93649245D01*
X152153958Y-93661980D01*
X152153963Y-93661984D01*
X152327356Y-93769344D01*
X152327367Y-93769350D01*
X152443332Y-93814274D01*
X152517544Y-93843024D01*
X152718024Y-93880500D01*
X152718027Y-93880500D01*
X152921973Y-93880500D01*
X152921976Y-93880500D01*
X153122456Y-93843024D01*
X153312637Y-93769348D01*
X153486041Y-93661981D01*
X153636764Y-93524579D01*
X153759673Y-93361821D01*
X153850582Y-93179250D01*
X153906397Y-92983083D01*
X153918659Y-92850750D01*
X153925215Y-92780004D01*
X153925215Y-92779995D01*
X153912145Y-92638951D01*
X153906397Y-92576917D01*
X153850582Y-92380750D01*
X153759673Y-92198179D01*
X153751214Y-92186978D01*
X153653659Y-92057794D01*
X153636764Y-92035421D01*
X153486041Y-91898019D01*
X153486036Y-91898015D01*
X153312643Y-91790655D01*
X153312632Y-91790649D01*
X153122462Y-91716978D01*
X153122458Y-91716977D01*
X153122456Y-91716976D01*
X153072791Y-91707692D01*
X152921980Y-91679500D01*
X152921976Y-91679500D01*
X152718024Y-91679500D01*
X152718019Y-91679500D01*
X152517544Y-91716976D01*
X152517537Y-91716978D01*
X152327367Y-91790649D01*
X152327356Y-91790655D01*
X152153963Y-91898015D01*
X152153958Y-91898019D01*
X152003234Y-92035423D01*
X151880328Y-92198176D01*
X151789416Y-92380754D01*
X151733602Y-92576921D01*
X151714785Y-92779995D01*
X151714785Y-92780004D01*
X146305215Y-92780004D01*
X146305215Y-92779995D01*
X146292145Y-92638951D01*
X146286397Y-92576917D01*
X146230582Y-92380750D01*
X146139673Y-92198179D01*
X146131214Y-92186978D01*
X146033659Y-92057794D01*
X146016764Y-92035421D01*
X145866041Y-91898019D01*
X145866036Y-91898015D01*
X145692643Y-91790655D01*
X145692632Y-91790649D01*
X145502462Y-91716978D01*
X145502458Y-91716977D01*
X145502456Y-91716976D01*
X145452791Y-91707692D01*
X145301980Y-91679500D01*
X145301976Y-91679500D01*
X145098024Y-91679500D01*
X145098019Y-91679500D01*
X144897544Y-91716976D01*
X144897537Y-91716978D01*
X144707367Y-91790649D01*
X144707356Y-91790655D01*
X144533963Y-91898015D01*
X144533958Y-91898019D01*
X144383234Y-92035423D01*
X144260328Y-92198176D01*
X144169416Y-92380754D01*
X144113602Y-92576921D01*
X144094785Y-92779995D01*
X144094785Y-92780004D01*
X130283215Y-92780004D01*
X130280582Y-92770750D01*
X130189673Y-92588179D01*
X130181171Y-92576921D01*
X130100428Y-92470000D01*
X130066764Y-92425421D01*
X129916041Y-92288019D01*
X129916036Y-92288015D01*
X129742643Y-92180655D01*
X129742632Y-92180649D01*
X129552462Y-92106978D01*
X129552458Y-92106977D01*
X129552456Y-92106976D01*
X129512359Y-92099480D01*
X129351980Y-92069500D01*
X129351976Y-92069500D01*
X129148024Y-92069500D01*
X129148019Y-92069500D01*
X128947544Y-92106976D01*
X128947537Y-92106978D01*
X128757367Y-92180649D01*
X128757356Y-92180655D01*
X128583963Y-92288015D01*
X128583958Y-92288019D01*
X128433234Y-92425423D01*
X128310328Y-92588176D01*
X128219416Y-92770754D01*
X128163602Y-92966921D01*
X128144785Y-93169995D01*
X128144785Y-93170004D01*
X124887802Y-93170004D01*
X124876397Y-93046921D01*
X124876397Y-93046917D01*
X124820582Y-92850750D01*
X124729673Y-92668179D01*
X124606764Y-92505421D01*
X124456041Y-92368019D01*
X124456036Y-92368015D01*
X124282643Y-92260655D01*
X124282632Y-92260649D01*
X124092462Y-92186978D01*
X124092458Y-92186977D01*
X124092456Y-92186976D01*
X124052360Y-92179480D01*
X123891980Y-92149500D01*
X123891976Y-92149500D01*
X123688024Y-92149500D01*
X123688019Y-92149500D01*
X123487544Y-92186976D01*
X123487537Y-92186978D01*
X123297367Y-92260649D01*
X123297356Y-92260655D01*
X123123963Y-92368015D01*
X123123958Y-92368019D01*
X122973234Y-92505423D01*
X122850328Y-92668176D01*
X122759416Y-92850754D01*
X122703602Y-93046921D01*
X122684785Y-93249995D01*
X122684785Y-93250004D01*
X117275215Y-93250004D01*
X117275215Y-93250000D01*
X117272481Y-93220500D01*
X117256397Y-93046921D01*
X117256397Y-93046917D01*
X117200582Y-92850750D01*
X117109673Y-92668179D01*
X116986764Y-92505421D01*
X116836041Y-92368019D01*
X116836036Y-92368015D01*
X116662643Y-92260655D01*
X116662632Y-92260649D01*
X116472462Y-92186978D01*
X116472458Y-92186977D01*
X116472456Y-92186976D01*
X116432360Y-92179480D01*
X116271980Y-92149500D01*
X116271976Y-92149500D01*
X116068024Y-92149500D01*
X116068019Y-92149500D01*
X115867544Y-92186976D01*
X115867537Y-92186978D01*
X115677367Y-92260649D01*
X115677356Y-92260655D01*
X115503963Y-92368015D01*
X115503958Y-92368019D01*
X115353234Y-92505423D01*
X115230328Y-92668176D01*
X115139416Y-92850754D01*
X115083602Y-93046921D01*
X115064785Y-93249995D01*
X115064785Y-93250004D01*
X110560500Y-93250004D01*
X110560499Y-92265136D01*
X110559979Y-92260655D01*
X110557762Y-92241534D01*
X110557585Y-92240009D01*
X110512206Y-92137235D01*
X110432765Y-92057794D01*
X110432764Y-92057793D01*
X110329994Y-92012416D01*
X110329991Y-92012415D01*
X110329982Y-92012414D01*
X110304865Y-92009500D01*
X110304859Y-92009500D01*
X110000758Y-92009500D01*
X109926258Y-91989538D01*
X109871720Y-91935000D01*
X109851758Y-91860500D01*
X109871720Y-91786000D01*
X109922317Y-91733819D01*
X110086562Y-91632124D01*
X110250981Y-91482236D01*
X110385058Y-91304689D01*
X110484229Y-91105528D01*
X110545115Y-90891536D01*
X110561936Y-90710004D01*
X115064785Y-90710004D01*
X115083602Y-90913078D01*
X115083602Y-90913080D01*
X115083603Y-90913083D01*
X115102319Y-90978861D01*
X115139416Y-91109245D01*
X115139417Y-91109247D01*
X115139418Y-91109250D01*
X115219729Y-91270538D01*
X115230328Y-91291823D01*
X115311174Y-91398880D01*
X115353236Y-91454579D01*
X115493935Y-91582843D01*
X115503958Y-91591980D01*
X115503963Y-91591984D01*
X115677356Y-91699344D01*
X115677367Y-91699350D01*
X115793332Y-91744274D01*
X115867544Y-91773024D01*
X116068024Y-91810500D01*
X116068027Y-91810500D01*
X116271973Y-91810500D01*
X116271976Y-91810500D01*
X116472456Y-91773024D01*
X116662637Y-91699348D01*
X116836041Y-91591981D01*
X116986764Y-91454579D01*
X117109673Y-91291821D01*
X117200582Y-91109250D01*
X117256397Y-90913083D01*
X117267780Y-90790242D01*
X117275215Y-90710004D01*
X122684785Y-90710004D01*
X122703602Y-90913078D01*
X122703602Y-90913080D01*
X122703603Y-90913083D01*
X122722319Y-90978861D01*
X122759416Y-91109245D01*
X122759417Y-91109247D01*
X122759418Y-91109250D01*
X122839729Y-91270538D01*
X122850328Y-91291823D01*
X122931174Y-91398880D01*
X122973236Y-91454579D01*
X123113935Y-91582843D01*
X123123958Y-91591980D01*
X123123963Y-91591984D01*
X123297356Y-91699344D01*
X123297367Y-91699350D01*
X123413332Y-91744274D01*
X123487544Y-91773024D01*
X123688024Y-91810500D01*
X123688027Y-91810500D01*
X123891973Y-91810500D01*
X123891976Y-91810500D01*
X124092456Y-91773024D01*
X124282637Y-91699348D01*
X124456041Y-91591981D01*
X124606764Y-91454579D01*
X124729673Y-91291821D01*
X124820582Y-91109250D01*
X124876397Y-90913083D01*
X124887780Y-90790242D01*
X124895215Y-90710004D01*
X124895215Y-90709995D01*
X124876397Y-90506921D01*
X124876397Y-90506917D01*
X124820582Y-90310750D01*
X124729673Y-90128179D01*
X124606764Y-89965421D01*
X124456041Y-89828019D01*
X124456036Y-89828015D01*
X124282643Y-89720655D01*
X124282632Y-89720649D01*
X124092462Y-89646978D01*
X124092458Y-89646977D01*
X124092456Y-89646976D01*
X124052360Y-89639480D01*
X123891980Y-89609500D01*
X123891976Y-89609500D01*
X123688024Y-89609500D01*
X123688019Y-89609500D01*
X123487544Y-89646976D01*
X123487537Y-89646978D01*
X123297367Y-89720649D01*
X123297356Y-89720655D01*
X123123963Y-89828015D01*
X123123958Y-89828019D01*
X122973234Y-89965423D01*
X122850328Y-90128176D01*
X122759416Y-90310754D01*
X122703602Y-90506921D01*
X122684785Y-90709995D01*
X122684785Y-90710004D01*
X117275215Y-90710004D01*
X117275215Y-90709995D01*
X117256397Y-90506921D01*
X117256397Y-90506917D01*
X117200582Y-90310750D01*
X117109673Y-90128179D01*
X116986764Y-89965421D01*
X116836041Y-89828019D01*
X116836036Y-89828015D01*
X116662643Y-89720655D01*
X116662632Y-89720649D01*
X116472462Y-89646978D01*
X116472458Y-89646977D01*
X116472456Y-89646976D01*
X116432360Y-89639480D01*
X116271980Y-89609500D01*
X116271976Y-89609500D01*
X116068024Y-89609500D01*
X116068019Y-89609500D01*
X115867544Y-89646976D01*
X115867537Y-89646978D01*
X115677367Y-89720649D01*
X115677356Y-89720655D01*
X115503963Y-89828015D01*
X115503958Y-89828019D01*
X115353234Y-89965423D01*
X115230328Y-90128176D01*
X115139416Y-90310754D01*
X115083602Y-90506921D01*
X115064785Y-90709995D01*
X115064785Y-90710004D01*
X110561936Y-90710004D01*
X110565027Y-90676650D01*
X110565643Y-90670004D01*
X110565643Y-90669995D01*
X110545115Y-90448468D01*
X110545115Y-90448465D01*
X110543582Y-90443078D01*
X110485802Y-90240000D01*
X110484229Y-90234471D01*
X110385060Y-90035314D01*
X110332279Y-89965421D01*
X110250981Y-89857764D01*
X110086562Y-89707876D01*
X109897401Y-89590753D01*
X109897400Y-89590752D01*
X109897396Y-89590750D01*
X109897394Y-89590749D01*
X109689944Y-89510383D01*
X109689941Y-89510382D01*
X109689940Y-89510382D01*
X109634775Y-89500069D01*
X109471247Y-89469500D01*
X109471243Y-89469500D01*
X109248757Y-89469500D01*
X109248752Y-89469500D01*
X109030055Y-89510383D01*
X108822605Y-89590749D01*
X108822603Y-89590750D01*
X108633436Y-89707877D01*
X108469019Y-89857763D01*
X108334939Y-90035314D01*
X108235770Y-90234471D01*
X108174884Y-90448465D01*
X108174884Y-90448468D01*
X108154357Y-90669995D01*
X108154357Y-90670004D01*
X100200500Y-90670004D01*
X100200500Y-85379999D01*
X114869999Y-85379999D01*
X114870000Y-85380000D01*
X115630153Y-85380000D01*
X115704653Y-85399962D01*
X115759191Y-85454500D01*
X115779153Y-85529000D01*
X115777319Y-85552308D01*
X115765014Y-85629999D01*
X115777319Y-85707692D01*
X115769256Y-85784398D01*
X115723921Y-85846795D01*
X115653461Y-85878166D01*
X115630153Y-85880000D01*
X114870000Y-85880000D01*
X114870000Y-86477822D01*
X114870001Y-86477842D01*
X114876401Y-86537377D01*
X114926645Y-86672084D01*
X114926650Y-86672094D01*
X115012809Y-86787187D01*
X115012812Y-86787190D01*
X115127905Y-86873349D01*
X115127915Y-86873354D01*
X115262623Y-86923598D01*
X115262621Y-86923598D01*
X115322157Y-86929998D01*
X115322177Y-86930000D01*
X115558499Y-86930000D01*
X115632999Y-86949962D01*
X115687537Y-87004500D01*
X115707499Y-87079000D01*
X115687537Y-87153500D01*
X115636937Y-87205682D01*
X115503963Y-87288015D01*
X115503958Y-87288019D01*
X115353234Y-87425423D01*
X115230328Y-87588176D01*
X115139416Y-87770754D01*
X115083602Y-87966921D01*
X115064785Y-88169995D01*
X115064785Y-88170004D01*
X115083602Y-88373078D01*
X115139416Y-88569245D01*
X115139417Y-88569247D01*
X115139418Y-88569250D01*
X115199220Y-88689350D01*
X115230328Y-88751823D01*
X115309896Y-88857187D01*
X115353236Y-88914579D01*
X115468836Y-89019962D01*
X115503958Y-89051980D01*
X115503963Y-89051984D01*
X115677356Y-89159344D01*
X115677367Y-89159350D01*
X115793332Y-89204274D01*
X115867544Y-89233024D01*
X116068024Y-89270500D01*
X116068027Y-89270500D01*
X116271973Y-89270500D01*
X116271976Y-89270500D01*
X116472456Y-89233024D01*
X116656248Y-89161823D01*
X116662632Y-89159350D01*
X116662632Y-89159349D01*
X116662637Y-89159348D01*
X116836041Y-89051981D01*
X116986764Y-88914579D01*
X117109673Y-88751821D01*
X117200582Y-88569250D01*
X117256397Y-88373083D01*
X117275215Y-88170004D01*
X122684785Y-88170004D01*
X122703602Y-88373078D01*
X122759416Y-88569245D01*
X122759417Y-88569247D01*
X122759418Y-88569250D01*
X122819220Y-88689350D01*
X122850328Y-88751823D01*
X122929896Y-88857187D01*
X122973236Y-88914579D01*
X123088836Y-89019962D01*
X123123958Y-89051980D01*
X123123963Y-89051984D01*
X123297356Y-89159344D01*
X123297367Y-89159350D01*
X123413332Y-89204274D01*
X123487544Y-89233024D01*
X123688024Y-89270500D01*
X123688027Y-89270500D01*
X123891973Y-89270500D01*
X123891976Y-89270500D01*
X124092456Y-89233024D01*
X124276248Y-89161823D01*
X124282632Y-89159350D01*
X124282632Y-89159349D01*
X124282637Y-89159348D01*
X124456041Y-89051981D01*
X124606764Y-88914579D01*
X124729673Y-88751821D01*
X124815227Y-88580004D01*
X128144785Y-88580004D01*
X128163602Y-88783078D01*
X128163602Y-88783080D01*
X128163603Y-88783083D01*
X128168559Y-88800500D01*
X128219416Y-88979245D01*
X128219417Y-88979247D01*
X128219418Y-88979250D01*
X128239690Y-89019962D01*
X128310328Y-89161823D01*
X128321773Y-89176978D01*
X128433236Y-89324579D01*
X128583958Y-89461980D01*
X128583963Y-89461984D01*
X128757356Y-89569344D01*
X128757367Y-89569350D01*
X128861008Y-89609500D01*
X128947544Y-89643024D01*
X129148024Y-89680500D01*
X129148027Y-89680500D01*
X129351973Y-89680500D01*
X129351976Y-89680500D01*
X129552456Y-89643024D01*
X129742637Y-89569348D01*
X129916041Y-89461981D01*
X130066764Y-89324579D01*
X130189673Y-89161821D01*
X130280582Y-88979250D01*
X130336397Y-88783083D01*
X130346851Y-88670259D01*
X130355215Y-88580004D01*
X130355215Y-88579995D01*
X130352234Y-88547829D01*
X143900000Y-88547829D01*
X143906401Y-88607377D01*
X143956645Y-88742084D01*
X143956650Y-88742094D01*
X144042809Y-88857187D01*
X144042812Y-88857190D01*
X144157905Y-88943349D01*
X144157915Y-88943354D01*
X144292623Y-88993598D01*
X144292621Y-88993598D01*
X144352157Y-88999998D01*
X144352177Y-89000000D01*
X144588499Y-89000000D01*
X144662999Y-89019962D01*
X144717537Y-89074500D01*
X144737499Y-89149000D01*
X144717537Y-89223500D01*
X144666937Y-89275682D01*
X144533963Y-89358015D01*
X144533958Y-89358019D01*
X144383234Y-89495423D01*
X144260328Y-89658176D01*
X144169416Y-89840754D01*
X144113602Y-90036921D01*
X144094785Y-90239995D01*
X144094785Y-90240004D01*
X144113602Y-90443078D01*
X144113602Y-90443080D01*
X144113603Y-90443083D01*
X144131766Y-90506917D01*
X144169416Y-90639245D01*
X144169417Y-90639247D01*
X144169418Y-90639250D01*
X144228475Y-90757853D01*
X144260328Y-90821823D01*
X144302687Y-90877915D01*
X144383236Y-90984579D01*
X144525576Y-91114339D01*
X144533958Y-91121980D01*
X144533963Y-91121984D01*
X144707356Y-91229344D01*
X144707367Y-91229350D01*
X144777807Y-91256638D01*
X144897544Y-91303024D01*
X145098024Y-91340500D01*
X145098027Y-91340500D01*
X145301973Y-91340500D01*
X145301976Y-91340500D01*
X145502456Y-91303024D01*
X145692637Y-91229348D01*
X145866041Y-91121981D01*
X146016764Y-90984579D01*
X146139673Y-90821821D01*
X146230582Y-90639250D01*
X146286397Y-90443083D01*
X146305215Y-90240004D01*
X151714785Y-90240004D01*
X151733602Y-90443078D01*
X151733602Y-90443080D01*
X151733603Y-90443083D01*
X151751766Y-90506917D01*
X151789416Y-90639245D01*
X151789417Y-90639247D01*
X151789418Y-90639250D01*
X151848475Y-90757853D01*
X151880328Y-90821823D01*
X151922687Y-90877915D01*
X152003236Y-90984579D01*
X152145576Y-91114339D01*
X152153958Y-91121980D01*
X152153963Y-91121984D01*
X152327356Y-91229344D01*
X152327367Y-91229350D01*
X152397807Y-91256638D01*
X152517544Y-91303024D01*
X152718024Y-91340500D01*
X152718027Y-91340500D01*
X152921973Y-91340500D01*
X152921976Y-91340500D01*
X153122456Y-91303024D01*
X153312637Y-91229348D01*
X153486041Y-91121981D01*
X153636764Y-90984579D01*
X153759673Y-90821821D01*
X153850582Y-90639250D01*
X153906397Y-90443083D01*
X153925215Y-90240000D01*
X153918640Y-90169047D01*
X153906397Y-90036921D01*
X153906397Y-90036917D01*
X153850582Y-89840750D01*
X153759673Y-89658179D01*
X153751214Y-89646978D01*
X153708752Y-89590749D01*
X153636764Y-89495421D01*
X153486041Y-89358019D01*
X153486036Y-89358015D01*
X153312643Y-89250655D01*
X153312632Y-89250649D01*
X153122462Y-89176978D01*
X153122458Y-89176977D01*
X153122456Y-89176976D01*
X153082359Y-89169480D01*
X152921980Y-89139500D01*
X152921976Y-89139500D01*
X152718024Y-89139500D01*
X152718019Y-89139500D01*
X152517544Y-89176976D01*
X152517537Y-89176978D01*
X152327367Y-89250649D01*
X152327356Y-89250655D01*
X152153963Y-89358015D01*
X152153958Y-89358019D01*
X152003234Y-89495423D01*
X151880328Y-89658176D01*
X151789416Y-89840754D01*
X151733602Y-90036921D01*
X151714785Y-90239995D01*
X151714785Y-90240004D01*
X146305215Y-90240004D01*
X146305215Y-90240000D01*
X146298640Y-90169047D01*
X146286397Y-90036921D01*
X146286397Y-90036917D01*
X146230582Y-89840750D01*
X146139673Y-89658179D01*
X146131214Y-89646978D01*
X146088752Y-89590749D01*
X146016764Y-89495421D01*
X145866041Y-89358019D01*
X145866036Y-89358015D01*
X145733063Y-89275682D01*
X145680230Y-89219491D01*
X145662572Y-89144412D01*
X145684819Y-89070562D01*
X145741010Y-89017729D01*
X145811501Y-89000000D01*
X146047823Y-89000000D01*
X146047842Y-88999998D01*
X146107377Y-88993598D01*
X146242084Y-88943354D01*
X146242094Y-88943349D01*
X146357187Y-88857190D01*
X146357190Y-88857187D01*
X146443349Y-88742094D01*
X146443354Y-88742084D01*
X146493598Y-88607377D01*
X146500000Y-88547829D01*
X146500000Y-87950000D01*
X145739847Y-87950000D01*
X145665347Y-87930038D01*
X145610809Y-87875500D01*
X145590847Y-87801000D01*
X145592681Y-87777692D01*
X145593780Y-87770754D01*
X145604985Y-87700004D01*
X151714785Y-87700004D01*
X151733602Y-87903078D01*
X151733602Y-87903080D01*
X151733603Y-87903083D01*
X151746952Y-87950000D01*
X151789416Y-88099245D01*
X151789417Y-88099247D01*
X151789418Y-88099250D01*
X151824645Y-88169995D01*
X151880328Y-88281823D01*
X151949241Y-88373078D01*
X152003236Y-88444579D01*
X152151786Y-88580000D01*
X152153958Y-88581980D01*
X152153963Y-88581984D01*
X152327356Y-88689344D01*
X152327367Y-88689350D01*
X152443332Y-88734274D01*
X152517544Y-88763024D01*
X152718024Y-88800500D01*
X152718027Y-88800500D01*
X152921973Y-88800500D01*
X152921976Y-88800500D01*
X153122456Y-88763024D01*
X153312637Y-88689348D01*
X153486041Y-88581981D01*
X153636764Y-88444579D01*
X153759673Y-88281821D01*
X153850582Y-88099250D01*
X153906397Y-87903083D01*
X153925215Y-87700000D01*
X153925031Y-87698019D01*
X153908256Y-87516978D01*
X153906397Y-87496917D01*
X153850582Y-87300750D01*
X153759673Y-87118179D01*
X153751214Y-87106978D01*
X153708949Y-87051010D01*
X153636764Y-86955421D01*
X153486041Y-86818019D01*
X153486036Y-86818015D01*
X153312643Y-86710655D01*
X153312632Y-86710649D01*
X153122462Y-86636978D01*
X153122458Y-86636977D01*
X153122456Y-86636976D01*
X153082359Y-86629480D01*
X152921980Y-86599500D01*
X152921976Y-86599500D01*
X152718024Y-86599500D01*
X152718019Y-86599500D01*
X152517544Y-86636976D01*
X152517537Y-86636978D01*
X152327367Y-86710649D01*
X152327356Y-86710655D01*
X152153963Y-86818015D01*
X152153958Y-86818019D01*
X152003234Y-86955423D01*
X151880328Y-87118176D01*
X151789416Y-87300754D01*
X151753945Y-87425423D01*
X151737505Y-87483205D01*
X151733602Y-87496921D01*
X151714785Y-87699995D01*
X151714785Y-87700004D01*
X145604985Y-87700004D01*
X145604986Y-87700000D01*
X145592681Y-87622307D01*
X145600744Y-87545602D01*
X145646079Y-87483205D01*
X145716539Y-87451834D01*
X145739847Y-87450000D01*
X146500000Y-87450000D01*
X146500000Y-86852177D01*
X146499998Y-86852157D01*
X146493598Y-86792622D01*
X146443354Y-86657915D01*
X146443349Y-86657905D01*
X146357190Y-86542812D01*
X146357187Y-86542809D01*
X146242094Y-86456650D01*
X146242084Y-86456645D01*
X146107376Y-86406401D01*
X146107378Y-86406401D01*
X146047842Y-86400001D01*
X146047823Y-86400000D01*
X145450000Y-86400000D01*
X145450000Y-87160153D01*
X145430038Y-87234653D01*
X145375500Y-87289191D01*
X145301000Y-87309153D01*
X145277694Y-87307319D01*
X145258496Y-87304278D01*
X145231481Y-87300000D01*
X145168519Y-87300000D01*
X145141503Y-87304278D01*
X145122306Y-87307319D01*
X145045601Y-87299256D01*
X144983204Y-87253920D01*
X144951834Y-87183459D01*
X144950000Y-87160153D01*
X144950000Y-86400000D01*
X144352177Y-86400000D01*
X144352157Y-86400001D01*
X144292622Y-86406401D01*
X144157915Y-86456645D01*
X144157905Y-86456650D01*
X144042812Y-86542809D01*
X144042809Y-86542812D01*
X143956650Y-86657905D01*
X143956645Y-86657915D01*
X143906401Y-86792622D01*
X143900001Y-86852157D01*
X143900000Y-86852177D01*
X143900000Y-87450000D01*
X144660153Y-87450000D01*
X144734653Y-87469962D01*
X144789191Y-87524500D01*
X144809153Y-87599000D01*
X144807319Y-87622306D01*
X144795014Y-87700000D01*
X144806220Y-87770754D01*
X144807319Y-87777692D01*
X144799256Y-87854398D01*
X144753921Y-87916795D01*
X144683461Y-87948166D01*
X144660153Y-87950000D01*
X143900000Y-87950000D01*
X143900000Y-88547829D01*
X130352234Y-88547829D01*
X130339887Y-88414579D01*
X130336397Y-88376917D01*
X130280582Y-88180750D01*
X130189673Y-87998179D01*
X130066764Y-87835421D01*
X129916041Y-87698019D01*
X129916036Y-87698015D01*
X129742643Y-87590655D01*
X129742632Y-87590649D01*
X129552462Y-87516978D01*
X129552458Y-87516977D01*
X129552456Y-87516976D01*
X129512359Y-87509480D01*
X129351980Y-87479500D01*
X129351976Y-87479500D01*
X129148024Y-87479500D01*
X129148019Y-87479500D01*
X128947544Y-87516976D01*
X128947537Y-87516978D01*
X128757367Y-87590649D01*
X128757356Y-87590655D01*
X128583963Y-87698015D01*
X128583958Y-87698019D01*
X128433234Y-87835423D01*
X128310328Y-87998176D01*
X128219416Y-88180754D01*
X128163602Y-88376921D01*
X128144785Y-88579995D01*
X128144785Y-88580004D01*
X124815227Y-88580004D01*
X124820582Y-88569250D01*
X124876397Y-88373083D01*
X124895215Y-88170000D01*
X124876397Y-87966917D01*
X124820582Y-87770750D01*
X124729673Y-87588179D01*
X124606764Y-87425421D01*
X124456041Y-87288019D01*
X124456036Y-87288015D01*
X124282643Y-87180655D01*
X124282632Y-87180649D01*
X124092462Y-87106978D01*
X124092458Y-87106977D01*
X124092456Y-87106976D01*
X124052360Y-87099480D01*
X123891980Y-87069500D01*
X123891976Y-87069500D01*
X123688024Y-87069500D01*
X123688019Y-87069500D01*
X123487544Y-87106976D01*
X123487537Y-87106978D01*
X123297367Y-87180649D01*
X123297356Y-87180655D01*
X123123963Y-87288015D01*
X123123958Y-87288019D01*
X122973234Y-87425423D01*
X122850328Y-87588176D01*
X122759416Y-87770754D01*
X122703602Y-87966921D01*
X122684785Y-88169995D01*
X122684785Y-88170004D01*
X117275215Y-88170004D01*
X117275215Y-88170000D01*
X117256397Y-87966917D01*
X117200582Y-87770750D01*
X117109673Y-87588179D01*
X116986764Y-87425421D01*
X116836041Y-87288019D01*
X116836036Y-87288015D01*
X116703063Y-87205682D01*
X116650230Y-87149491D01*
X116632572Y-87074412D01*
X116654819Y-87000562D01*
X116711010Y-86947729D01*
X116781501Y-86930000D01*
X117017823Y-86930000D01*
X117017842Y-86929998D01*
X117077377Y-86923598D01*
X117212084Y-86873354D01*
X117212094Y-86873349D01*
X117327187Y-86787190D01*
X117327190Y-86787187D01*
X117413349Y-86672094D01*
X117413354Y-86672084D01*
X117463598Y-86537377D01*
X117469998Y-86477842D01*
X117470000Y-86477822D01*
X117470000Y-85880000D01*
X116709847Y-85880000D01*
X116635347Y-85860038D01*
X116580809Y-85805500D01*
X116560847Y-85731000D01*
X116562681Y-85707692D01*
X116568939Y-85668179D01*
X116574985Y-85630004D01*
X122684785Y-85630004D01*
X122703602Y-85833078D01*
X122703602Y-85833080D01*
X122703603Y-85833083D01*
X122716952Y-85880000D01*
X122759416Y-86029245D01*
X122759417Y-86029247D01*
X122759418Y-86029250D01*
X122781950Y-86074500D01*
X122850328Y-86211823D01*
X122879158Y-86250000D01*
X122973236Y-86374579D01*
X123123958Y-86511980D01*
X123123963Y-86511984D01*
X123297356Y-86619344D01*
X123297367Y-86619350D01*
X123403840Y-86660597D01*
X123487544Y-86693024D01*
X123688024Y-86730500D01*
X123688027Y-86730500D01*
X123891973Y-86730500D01*
X123891976Y-86730500D01*
X124092456Y-86693024D01*
X124282637Y-86619348D01*
X124456041Y-86511981D01*
X124606764Y-86374579D01*
X124729673Y-86211821D01*
X124820582Y-86029250D01*
X124876397Y-85833083D01*
X124895215Y-85630000D01*
X124876397Y-85426917D01*
X124820582Y-85230750D01*
X124729673Y-85048179D01*
X124606764Y-84885421D01*
X124456041Y-84748019D01*
X124456036Y-84748015D01*
X124282643Y-84640655D01*
X124282632Y-84640649D01*
X124092462Y-84566978D01*
X124092458Y-84566977D01*
X124092456Y-84566976D01*
X124052360Y-84559480D01*
X123891980Y-84529500D01*
X123891976Y-84529500D01*
X123688024Y-84529500D01*
X123688019Y-84529500D01*
X123487544Y-84566976D01*
X123487537Y-84566978D01*
X123297367Y-84640649D01*
X123297356Y-84640655D01*
X123123963Y-84748015D01*
X123123958Y-84748019D01*
X122973234Y-84885423D01*
X122850328Y-85048176D01*
X122759416Y-85230754D01*
X122739043Y-85302359D01*
X122707505Y-85413205D01*
X122703602Y-85426921D01*
X122684785Y-85629995D01*
X122684785Y-85630004D01*
X116574985Y-85630004D01*
X116574986Y-85630000D01*
X116562681Y-85552307D01*
X116570744Y-85475602D01*
X116616079Y-85413205D01*
X116686539Y-85381834D01*
X116709847Y-85380000D01*
X117469999Y-85380000D01*
X117470000Y-84782177D01*
X117469998Y-84782157D01*
X117463598Y-84722622D01*
X117413354Y-84587915D01*
X117413349Y-84587905D01*
X117327190Y-84472812D01*
X117327187Y-84472809D01*
X117212094Y-84386650D01*
X117212084Y-84386645D01*
X117077376Y-84336401D01*
X117077378Y-84336401D01*
X117017842Y-84330001D01*
X117017823Y-84330000D01*
X116420000Y-84330000D01*
X116420000Y-85090153D01*
X116400038Y-85164653D01*
X116345500Y-85219191D01*
X116271000Y-85239153D01*
X116247694Y-85237319D01*
X116228496Y-85234278D01*
X116201481Y-85230000D01*
X116138519Y-85230000D01*
X116117613Y-85233310D01*
X116092305Y-85237319D01*
X116015599Y-85229255D01*
X115953202Y-85183919D01*
X115921833Y-85113459D01*
X115919999Y-85090153D01*
X115920000Y-84330000D01*
X115322177Y-84330000D01*
X115322157Y-84330001D01*
X115262622Y-84336401D01*
X115127915Y-84386645D01*
X115127905Y-84386650D01*
X115012812Y-84472809D01*
X115012809Y-84472812D01*
X114926650Y-84587905D01*
X114926645Y-84587915D01*
X114876401Y-84722622D01*
X114870001Y-84782157D01*
X114870000Y-84782177D01*
X114869999Y-85379999D01*
X100200500Y-85379999D01*
X100200500Y-82000004D01*
X142814785Y-82000004D01*
X142833602Y-82203078D01*
X142889416Y-82399245D01*
X142980328Y-82581823D01*
X143061174Y-82688880D01*
X143103236Y-82744579D01*
X143253958Y-82881980D01*
X143253963Y-82881984D01*
X143427356Y-82989344D01*
X143427367Y-82989350D01*
X143543332Y-83034274D01*
X143617544Y-83063024D01*
X143818024Y-83100500D01*
X143818027Y-83100500D01*
X144021973Y-83100500D01*
X144021976Y-83100500D01*
X144222456Y-83063024D01*
X144412637Y-82989348D01*
X144586041Y-82881981D01*
X144736764Y-82744579D01*
X144859673Y-82581821D01*
X144950582Y-82399250D01*
X145006397Y-82203083D01*
X145025215Y-82000004D01*
X152974785Y-82000004D01*
X152993602Y-82203078D01*
X153049416Y-82399245D01*
X153140328Y-82581823D01*
X153221174Y-82688880D01*
X153263236Y-82744579D01*
X153413958Y-82881980D01*
X153413963Y-82881984D01*
X153587356Y-82989344D01*
X153587367Y-82989350D01*
X153703332Y-83034274D01*
X153777544Y-83063024D01*
X153978024Y-83100500D01*
X153978027Y-83100500D01*
X154181973Y-83100500D01*
X154181976Y-83100500D01*
X154382456Y-83063024D01*
X154572637Y-82989348D01*
X154746041Y-82881981D01*
X154896764Y-82744579D01*
X155019673Y-82581821D01*
X155110582Y-82399250D01*
X155166397Y-82203083D01*
X155185215Y-82000000D01*
X155166397Y-81796917D01*
X155110582Y-81600750D01*
X155019673Y-81418179D01*
X154896764Y-81255421D01*
X154746041Y-81118019D01*
X154746036Y-81118015D01*
X154572643Y-81010655D01*
X154572632Y-81010649D01*
X154382462Y-80936978D01*
X154382458Y-80936977D01*
X154382456Y-80936976D01*
X154342360Y-80929480D01*
X154181980Y-80899500D01*
X154181976Y-80899500D01*
X153978024Y-80899500D01*
X153978019Y-80899500D01*
X153777544Y-80936976D01*
X153777537Y-80936978D01*
X153587367Y-81010649D01*
X153587356Y-81010655D01*
X153413963Y-81118015D01*
X153413958Y-81118019D01*
X153296090Y-81225471D01*
X153275133Y-81244576D01*
X153263234Y-81255423D01*
X153140328Y-81418176D01*
X153049416Y-81600754D01*
X152993602Y-81796921D01*
X152974785Y-81999995D01*
X152974785Y-82000004D01*
X145025215Y-82000004D01*
X145025215Y-82000000D01*
X145006397Y-81796917D01*
X144950582Y-81600750D01*
X144859673Y-81418179D01*
X144736764Y-81255421D01*
X144586041Y-81118019D01*
X144586036Y-81118015D01*
X144412643Y-81010655D01*
X144412632Y-81010649D01*
X144222462Y-80936978D01*
X144222458Y-80936977D01*
X144222456Y-80936976D01*
X144182360Y-80929480D01*
X144021980Y-80899500D01*
X144021976Y-80899500D01*
X143818024Y-80899500D01*
X143818019Y-80899500D01*
X143617544Y-80936976D01*
X143617537Y-80936978D01*
X143427367Y-81010649D01*
X143427356Y-81010655D01*
X143253963Y-81118015D01*
X143253958Y-81118019D01*
X143136090Y-81225471D01*
X143115133Y-81244576D01*
X143103234Y-81255423D01*
X142980328Y-81418176D01*
X142889416Y-81600754D01*
X142833602Y-81796921D01*
X142814785Y-81999995D01*
X142814785Y-82000004D01*
X100200500Y-82000004D01*
X100200500Y-80500000D01*
X164365034Y-80500000D01*
X164384859Y-80726606D01*
X164443732Y-80946323D01*
X164443733Y-80946325D01*
X164539862Y-81152477D01*
X164539865Y-81152482D01*
X164590973Y-81225471D01*
X165108248Y-80708197D01*
X165175043Y-80669633D01*
X165252171Y-80669633D01*
X165318966Y-80708197D01*
X165334351Y-80729370D01*
X165335468Y-80728560D01*
X165342359Y-80738045D01*
X165431954Y-80827640D01*
X165441440Y-80834532D01*
X165439363Y-80837390D01*
X165481390Y-80875218D01*
X165505236Y-80948567D01*
X165489214Y-81024012D01*
X165461801Y-81061750D01*
X164944527Y-81579025D01*
X165017517Y-81630134D01*
X165017522Y-81630137D01*
X165223674Y-81726266D01*
X165223676Y-81726267D01*
X165443394Y-81785140D01*
X165443393Y-81785140D01*
X165669999Y-81804965D01*
X165896606Y-81785140D01*
X166116323Y-81726267D01*
X166116325Y-81726266D01*
X166322483Y-81630133D01*
X166322492Y-81630127D01*
X166395472Y-81579026D01*
X165878197Y-81061751D01*
X165839633Y-80994956D01*
X165839633Y-80917828D01*
X165878197Y-80851033D01*
X165899373Y-80835651D01*
X165898560Y-80834532D01*
X165908040Y-80827643D01*
X165908045Y-80827641D01*
X165997641Y-80738045D01*
X165997643Y-80738040D01*
X166004532Y-80728560D01*
X166007390Y-80730636D01*
X166045218Y-80688609D01*
X166118567Y-80664762D01*
X166194012Y-80680784D01*
X166231751Y-80708197D01*
X166749026Y-81225471D01*
X166800127Y-81152492D01*
X166800133Y-81152483D01*
X166896266Y-80946325D01*
X166896267Y-80946323D01*
X166955140Y-80726606D01*
X166974965Y-80500000D01*
X166955140Y-80273393D01*
X166896267Y-80053676D01*
X166896266Y-80053674D01*
X166800137Y-79847522D01*
X166800134Y-79847517D01*
X166749025Y-79774527D01*
X166231750Y-80291801D01*
X166164955Y-80330365D01*
X166087827Y-80330365D01*
X166021032Y-80291801D01*
X166005651Y-80270626D01*
X166004532Y-80271440D01*
X165997640Y-80261954D01*
X165908045Y-80172359D01*
X165898560Y-80165468D01*
X165900633Y-80162614D01*
X165858584Y-80124743D01*
X165834759Y-80051387D01*
X165850804Y-79975946D01*
X165878197Y-79938248D01*
X166395471Y-79420973D01*
X166395472Y-79420973D01*
X166322482Y-79369865D01*
X166322477Y-79369862D01*
X166116325Y-79273733D01*
X166116323Y-79273732D01*
X165896605Y-79214859D01*
X165896606Y-79214859D01*
X165670000Y-79195034D01*
X165443393Y-79214859D01*
X165223676Y-79273732D01*
X165223674Y-79273733D01*
X165017518Y-79369865D01*
X165017513Y-79369867D01*
X164944527Y-79420972D01*
X164944527Y-79420973D01*
X165461802Y-79938248D01*
X165500366Y-80005043D01*
X165500366Y-80082171D01*
X165461802Y-80148966D01*
X165440629Y-80164352D01*
X165441440Y-80165468D01*
X165431954Y-80172359D01*
X165342359Y-80261954D01*
X165335468Y-80271440D01*
X165332615Y-80269367D01*
X165294723Y-80311428D01*
X165221363Y-80335241D01*
X165145925Y-80319184D01*
X165108248Y-80291802D01*
X164590973Y-79774527D01*
X164590972Y-79774527D01*
X164539867Y-79847513D01*
X164539865Y-79847518D01*
X164443733Y-80053674D01*
X164443732Y-80053676D01*
X164384859Y-80273393D01*
X164365034Y-80500000D01*
X100200500Y-80500000D01*
X100200500Y-78420004D01*
X128144785Y-78420004D01*
X128163602Y-78623078D01*
X128219416Y-78819245D01*
X128310328Y-79001823D01*
X128391174Y-79108880D01*
X128433236Y-79164579D01*
X128576147Y-79294859D01*
X128583958Y-79301980D01*
X128583963Y-79301984D01*
X128757356Y-79409344D01*
X128757367Y-79409350D01*
X128873332Y-79454274D01*
X128947544Y-79483024D01*
X129148024Y-79520500D01*
X129148027Y-79520500D01*
X129351973Y-79520500D01*
X129351976Y-79520500D01*
X129552456Y-79483024D01*
X129742637Y-79409348D01*
X129916041Y-79301981D01*
X130066764Y-79164579D01*
X130189673Y-79001821D01*
X130280582Y-78819250D01*
X130336397Y-78623083D01*
X130355215Y-78420000D01*
X130336397Y-78216917D01*
X130280582Y-78020750D01*
X130189673Y-77838179D01*
X130066764Y-77675421D01*
X129916041Y-77538019D01*
X129916036Y-77538015D01*
X129742643Y-77430655D01*
X129742632Y-77430649D01*
X129552462Y-77356978D01*
X129552458Y-77356977D01*
X129552456Y-77356976D01*
X129512360Y-77349480D01*
X129351980Y-77319500D01*
X129351976Y-77319500D01*
X129148024Y-77319500D01*
X129148019Y-77319500D01*
X128947544Y-77356976D01*
X128947537Y-77356978D01*
X128757367Y-77430649D01*
X128757356Y-77430655D01*
X128583963Y-77538015D01*
X128583958Y-77538019D01*
X128433234Y-77675423D01*
X128310328Y-77838176D01*
X128219416Y-78020754D01*
X128163602Y-78216921D01*
X128144785Y-78419995D01*
X128144785Y-78420004D01*
X100200500Y-78420004D01*
X100200500Y-76544866D01*
X116949500Y-76544866D01*
X116952414Y-76569989D01*
X116952415Y-76569992D01*
X116997793Y-76672764D01*
X116997794Y-76672765D01*
X117077235Y-76752206D01*
X117180009Y-76797585D01*
X117205135Y-76800500D01*
X120794864Y-76800499D01*
X120794866Y-76800499D01*
X120807427Y-76799042D01*
X120819991Y-76797585D01*
X120922765Y-76752206D01*
X121002206Y-76672765D01*
X121047585Y-76569991D01*
X121050500Y-76544865D01*
X121050500Y-75000004D01*
X164564785Y-75000004D01*
X164583602Y-75203078D01*
X164639416Y-75399245D01*
X164639417Y-75399247D01*
X164639418Y-75399250D01*
X164668011Y-75456672D01*
X164730328Y-75581823D01*
X164811174Y-75688880D01*
X164853236Y-75744579D01*
X165003958Y-75881980D01*
X165003963Y-75881984D01*
X165177356Y-75989344D01*
X165177367Y-75989350D01*
X165278553Y-76028549D01*
X165367544Y-76063024D01*
X165568024Y-76100500D01*
X165568027Y-76100500D01*
X165771973Y-76100500D01*
X165771976Y-76100500D01*
X165972456Y-76063024D01*
X166162637Y-75989348D01*
X166336041Y-75881981D01*
X166486764Y-75744579D01*
X166609673Y-75581821D01*
X166700582Y-75399250D01*
X166756397Y-75203083D01*
X166775215Y-75000000D01*
X166756397Y-74796917D01*
X166700582Y-74600750D01*
X166609673Y-74418179D01*
X166486764Y-74255421D01*
X166336041Y-74118019D01*
X166336036Y-74118015D01*
X166162643Y-74010655D01*
X166162632Y-74010649D01*
X165972462Y-73936978D01*
X165972458Y-73936977D01*
X165972456Y-73936976D01*
X165932360Y-73929480D01*
X165771980Y-73899500D01*
X165771976Y-73899500D01*
X165568024Y-73899500D01*
X165568019Y-73899500D01*
X165367544Y-73936976D01*
X165367537Y-73936978D01*
X165177367Y-74010649D01*
X165177356Y-74010655D01*
X165003963Y-74118015D01*
X165003958Y-74118019D01*
X164853234Y-74255423D01*
X164730328Y-74418176D01*
X164639416Y-74600754D01*
X164583602Y-74796921D01*
X164564785Y-74999995D01*
X164564785Y-75000004D01*
X121050500Y-75000004D01*
X121050499Y-72955136D01*
X121047585Y-72930009D01*
X121002206Y-72827235D01*
X120922765Y-72747794D01*
X120922764Y-72747793D01*
X120819994Y-72702416D01*
X120819991Y-72702415D01*
X120819982Y-72702414D01*
X120794865Y-72699500D01*
X120794859Y-72699500D01*
X117205133Y-72699500D01*
X117180010Y-72702414D01*
X117180007Y-72702415D01*
X117077235Y-72747793D01*
X116997793Y-72827235D01*
X116952416Y-72930005D01*
X116952415Y-72930008D01*
X116952415Y-72930009D01*
X116949500Y-72955135D01*
X116949500Y-72955136D01*
X116949500Y-72955140D01*
X116949500Y-76544866D01*
X100200500Y-76544866D01*
X100200500Y-72697552D01*
X112249500Y-72697552D01*
X112249838Y-72702415D01*
X112255784Y-72788097D01*
X112305661Y-73000162D01*
X112305663Y-73000169D01*
X112393654Y-73199448D01*
X112393658Y-73199456D01*
X112516774Y-73379182D01*
X112670818Y-73533226D01*
X112850546Y-73656343D01*
X112850551Y-73656345D01*
X113049830Y-73744336D01*
X113049834Y-73744337D01*
X113049836Y-73744338D01*
X113261901Y-73794215D01*
X113352448Y-73800500D01*
X113352450Y-73800500D01*
X115247550Y-73800500D01*
X115247552Y-73800500D01*
X115338099Y-73794215D01*
X115550164Y-73744338D01*
X115749454Y-73656343D01*
X115929182Y-73533226D01*
X116083226Y-73379182D01*
X116206343Y-73199454D01*
X116294338Y-73000164D01*
X116344215Y-72788099D01*
X116350500Y-72697552D01*
X116350500Y-72670005D01*
X183944451Y-72670005D01*
X183964615Y-72939090D01*
X183964618Y-72939113D01*
X184024663Y-73202187D01*
X184024665Y-73202194D01*
X184094129Y-73379182D01*
X184123257Y-73453398D01*
X184258185Y-73687102D01*
X184426439Y-73898085D01*
X184624259Y-74081635D01*
X184847226Y-74233651D01*
X185090359Y-74350738D01*
X185348228Y-74430280D01*
X185615071Y-74470500D01*
X185615074Y-74470500D01*
X185884926Y-74470500D01*
X185884929Y-74470500D01*
X186151772Y-74430280D01*
X186409641Y-74350738D01*
X186652775Y-74233651D01*
X186875741Y-74081635D01*
X187073561Y-73898085D01*
X187241815Y-73687102D01*
X187376743Y-73453398D01*
X187475334Y-73202195D01*
X187531724Y-72955135D01*
X187535381Y-72939113D01*
X187535381Y-72939110D01*
X187535383Y-72939103D01*
X187536064Y-72930010D01*
X187555549Y-72670005D01*
X187555549Y-72669994D01*
X187535384Y-72400909D01*
X187535383Y-72400907D01*
X187535383Y-72400897D01*
X187535381Y-72400891D01*
X187535381Y-72400886D01*
X187475336Y-72137812D01*
X187475334Y-72137805D01*
X187388825Y-71917387D01*
X187376743Y-71886602D01*
X187241815Y-71652898D01*
X187073561Y-71441915D01*
X186875741Y-71258365D01*
X186652775Y-71106349D01*
X186652772Y-71106348D01*
X186652770Y-71106346D01*
X186409650Y-70989266D01*
X186409646Y-70989264D01*
X186409641Y-70989262D01*
X186409633Y-70989259D01*
X186409629Y-70989258D01*
X186151777Y-70909721D01*
X186151773Y-70909720D01*
X185884932Y-70869500D01*
X185884929Y-70869500D01*
X185615071Y-70869500D01*
X185615067Y-70869500D01*
X185348226Y-70909720D01*
X185348222Y-70909721D01*
X185090370Y-70989258D01*
X185090349Y-70989266D01*
X184847227Y-71106348D01*
X184624259Y-71258364D01*
X184426438Y-71441915D01*
X184258189Y-71652892D01*
X184258184Y-71652900D01*
X184123257Y-71886601D01*
X184123255Y-71886606D01*
X184024665Y-72137805D01*
X184024663Y-72137812D01*
X183964618Y-72400886D01*
X183964615Y-72400909D01*
X183944451Y-72669994D01*
X183944451Y-72670005D01*
X116350500Y-72670005D01*
X116350500Y-72143193D01*
X148349500Y-72143193D01*
X148360121Y-72231636D01*
X148360122Y-72231641D01*
X148415626Y-72372391D01*
X148415626Y-72372392D01*
X148453284Y-72422052D01*
X148507049Y-72492951D01*
X148627607Y-72584373D01*
X148768360Y-72639878D01*
X148856808Y-72650500D01*
X150143192Y-72650500D01*
X150231640Y-72639878D01*
X150372393Y-72584373D01*
X150492951Y-72492951D01*
X150584373Y-72372393D01*
X150639878Y-72231640D01*
X150650500Y-72143192D01*
X150650500Y-71500004D01*
X155944571Y-71500004D01*
X155964243Y-71712305D01*
X156022593Y-71917385D01*
X156022594Y-71917387D01*
X156117636Y-72108259D01*
X156246127Y-72278406D01*
X156403697Y-72422051D01*
X156403698Y-72422052D01*
X156584977Y-72534296D01*
X156584983Y-72534299D01*
X156672189Y-72568082D01*
X156783802Y-72611321D01*
X156993390Y-72650500D01*
X156993393Y-72650500D01*
X157206607Y-72650500D01*
X157206610Y-72650500D01*
X157416198Y-72611321D01*
X157615019Y-72534298D01*
X157796302Y-72422052D01*
X157953872Y-72278407D01*
X158082366Y-72108255D01*
X158177405Y-71917389D01*
X158235756Y-71712310D01*
X158255429Y-71500000D01*
X158235756Y-71287690D01*
X158177405Y-71082611D01*
X158082366Y-70891745D01*
X158082364Y-70891743D01*
X158082363Y-70891740D01*
X157953872Y-70721593D01*
X157796302Y-70577948D01*
X157796301Y-70577947D01*
X157615022Y-70465703D01*
X157615016Y-70465700D01*
X157416204Y-70388681D01*
X157416200Y-70388680D01*
X157416198Y-70388679D01*
X157374280Y-70380843D01*
X157206614Y-70349500D01*
X157206610Y-70349500D01*
X156993390Y-70349500D01*
X156993385Y-70349500D01*
X156783802Y-70388679D01*
X156783795Y-70388681D01*
X156584983Y-70465700D01*
X156584977Y-70465703D01*
X156403698Y-70577947D01*
X156403697Y-70577948D01*
X156246127Y-70721593D01*
X156117636Y-70891740D01*
X156022594Y-71082612D01*
X156022593Y-71082614D01*
X155964243Y-71287694D01*
X155944571Y-71499995D01*
X155944571Y-71500004D01*
X150650500Y-71500004D01*
X150650500Y-70856808D01*
X150639878Y-70768360D01*
X150584373Y-70627607D01*
X150492951Y-70507049D01*
X150492949Y-70507047D01*
X150434676Y-70462858D01*
X150372393Y-70415627D01*
X150372391Y-70415626D01*
X150231641Y-70360122D01*
X150231636Y-70360121D01*
X150143193Y-70349500D01*
X150143192Y-70349500D01*
X148856808Y-70349500D01*
X148856806Y-70349500D01*
X148768363Y-70360121D01*
X148768358Y-70360122D01*
X148627608Y-70415626D01*
X148627607Y-70415626D01*
X148507050Y-70507047D01*
X148507047Y-70507050D01*
X148415626Y-70627607D01*
X148415626Y-70627608D01*
X148360122Y-70768358D01*
X148360121Y-70768363D01*
X148349500Y-70856806D01*
X148349500Y-72143193D01*
X116350500Y-72143193D01*
X116350500Y-70802448D01*
X116344215Y-70711901D01*
X116294338Y-70499836D01*
X116294337Y-70499834D01*
X116294336Y-70499830D01*
X116206345Y-70300551D01*
X116206341Y-70300543D01*
X116168263Y-70244956D01*
X116083226Y-70120818D01*
X115929182Y-69966774D01*
X115853254Y-69914762D01*
X115749456Y-69843658D01*
X115749448Y-69843654D01*
X115550169Y-69755663D01*
X115550162Y-69755661D01*
X115338096Y-69705784D01*
X115338098Y-69705784D01*
X115259304Y-69700315D01*
X115247552Y-69699500D01*
X113352448Y-69699500D01*
X113340695Y-69700315D01*
X113261902Y-69705784D01*
X113049837Y-69755661D01*
X113049830Y-69755663D01*
X112850551Y-69843654D01*
X112850543Y-69843658D01*
X112670817Y-69966774D01*
X112516774Y-70120817D01*
X112393658Y-70300543D01*
X112393654Y-70300551D01*
X112305663Y-70499830D01*
X112305661Y-70499837D01*
X112255784Y-70711902D01*
X112253140Y-70750000D01*
X112249500Y-70802448D01*
X112249500Y-72697552D01*
X100200500Y-72697552D01*
X100200500Y-65000000D01*
X100200500Y-64999999D01*
X101294922Y-64999999D01*
X101315218Y-65387280D01*
X101375888Y-65770335D01*
X101375889Y-65770338D01*
X101476259Y-66144927D01*
X101476266Y-66144947D01*
X101615237Y-66506977D01*
X101615248Y-66507001D01*
X101791300Y-66852525D01*
X101791311Y-66852545D01*
X102002528Y-67177789D01*
X102211095Y-67435349D01*
X102852709Y-66793736D01*
X102919504Y-66755172D01*
X102996632Y-66755172D01*
X103063427Y-66793736D01*
X103081956Y-66816314D01*
X103122702Y-66877294D01*
X103122704Y-66877296D01*
X103183683Y-66918041D01*
X103234537Y-66976029D01*
X103249584Y-67051675D01*
X103224792Y-67124710D01*
X103206262Y-67147289D01*
X102564648Y-67788902D01*
X102564649Y-67788903D01*
X102822213Y-67997473D01*
X102822215Y-67997475D01*
X103147454Y-68208688D01*
X103147474Y-68208699D01*
X103492998Y-68384751D01*
X103493022Y-68384762D01*
X103855052Y-68523733D01*
X103855072Y-68523740D01*
X104229661Y-68624110D01*
X104229664Y-68624111D01*
X104612719Y-68684781D01*
X104999999Y-68705077D01*
X105387280Y-68684781D01*
X105770335Y-68624111D01*
X105770338Y-68624110D01*
X106144927Y-68523740D01*
X106144947Y-68523733D01*
X106206773Y-68500000D01*
X116750000Y-68500000D01*
X117353653Y-68500000D01*
X117428153Y-68519962D01*
X117482691Y-68574500D01*
X117502653Y-68649000D01*
X117501137Y-68670203D01*
X117500000Y-68678111D01*
X117500000Y-68821888D01*
X117501137Y-68829797D01*
X117491979Y-68906380D01*
X117445757Y-68968123D01*
X117374856Y-68998484D01*
X117353653Y-69000000D01*
X116750001Y-69000000D01*
X116750001Y-69564187D01*
X116760399Y-69696331D01*
X116760400Y-69696335D01*
X116815375Y-69914511D01*
X116815378Y-69914519D01*
X116908427Y-70119373D01*
X117036565Y-70304331D01*
X117195668Y-70463434D01*
X117380626Y-70591572D01*
X117585480Y-70684621D01*
X117585487Y-70684624D01*
X117803670Y-70739600D01*
X117935811Y-70750000D01*
X117935812Y-70750000D01*
X118749999Y-70749999D01*
X118750000Y-70749999D01*
X118750000Y-69399000D01*
X118769962Y-69324500D01*
X118824500Y-69269962D01*
X118899000Y-69250000D01*
X119101000Y-69250000D01*
X119175500Y-69269962D01*
X119230038Y-69324500D01*
X119250000Y-69399000D01*
X119250000Y-70749999D01*
X120064187Y-70749999D01*
X120196331Y-70739600D01*
X120196335Y-70739599D01*
X120414511Y-70684624D01*
X120414519Y-70684621D01*
X120619373Y-70591572D01*
X120804331Y-70463434D01*
X120963434Y-70304331D01*
X121091572Y-70119373D01*
X121184621Y-69914519D01*
X121184624Y-69914512D01*
X121226076Y-69750004D01*
X164564785Y-69750004D01*
X164583602Y-69953078D01*
X164583602Y-69953080D01*
X164583603Y-69953083D01*
X164591443Y-69980636D01*
X164639416Y-70149245D01*
X164639417Y-70149247D01*
X164639418Y-70149250D01*
X164716639Y-70304331D01*
X164730328Y-70331823D01*
X164793614Y-70415627D01*
X164853236Y-70494579D01*
X164999161Y-70627607D01*
X165003958Y-70631980D01*
X165003963Y-70631984D01*
X165177356Y-70739344D01*
X165177367Y-70739350D01*
X165293332Y-70784274D01*
X165367544Y-70813024D01*
X165568024Y-70850500D01*
X165568027Y-70850500D01*
X165771973Y-70850500D01*
X165771976Y-70850500D01*
X165972456Y-70813024D01*
X166162637Y-70739348D01*
X166336041Y-70631981D01*
X166486764Y-70494579D01*
X166609673Y-70331821D01*
X166700582Y-70149250D01*
X166756397Y-69953083D01*
X166766851Y-69840259D01*
X166775215Y-69750004D01*
X166775215Y-69750000D01*
X174525034Y-69750000D01*
X174544859Y-69976606D01*
X174603732Y-70196323D01*
X174603733Y-70196325D01*
X174699862Y-70402477D01*
X174699865Y-70402482D01*
X174750973Y-70475471D01*
X175268248Y-69958197D01*
X175335043Y-69919633D01*
X175412171Y-69919633D01*
X175478966Y-69958197D01*
X175494351Y-69979370D01*
X175495468Y-69978560D01*
X175502359Y-69988045D01*
X175591954Y-70077640D01*
X175601440Y-70084532D01*
X175599363Y-70087390D01*
X175641390Y-70125218D01*
X175665236Y-70198567D01*
X175649214Y-70274012D01*
X175621801Y-70311750D01*
X175104527Y-70829025D01*
X175177517Y-70880134D01*
X175177522Y-70880137D01*
X175383674Y-70976266D01*
X175383676Y-70976267D01*
X175603394Y-71035140D01*
X175603393Y-71035140D01*
X175830000Y-71054965D01*
X176056606Y-71035140D01*
X176276323Y-70976267D01*
X176276325Y-70976266D01*
X176482483Y-70880133D01*
X176482492Y-70880127D01*
X176555472Y-70829026D01*
X176038197Y-70311751D01*
X175999633Y-70244956D01*
X175999633Y-70167828D01*
X176038197Y-70101033D01*
X176059373Y-70085651D01*
X176058560Y-70084532D01*
X176068040Y-70077643D01*
X176068045Y-70077641D01*
X176157641Y-69988045D01*
X176157643Y-69988040D01*
X176164532Y-69978560D01*
X176167390Y-69980636D01*
X176205218Y-69938609D01*
X176278567Y-69914762D01*
X176354012Y-69930784D01*
X176391751Y-69958197D01*
X176909026Y-70475471D01*
X176960127Y-70402492D01*
X176960133Y-70402483D01*
X177056266Y-70196325D01*
X177056267Y-70196323D01*
X177115140Y-69976606D01*
X177134965Y-69750000D01*
X177115140Y-69523393D01*
X177056267Y-69303676D01*
X177056266Y-69303674D01*
X176960137Y-69097522D01*
X176960134Y-69097517D01*
X176909025Y-69024527D01*
X176391750Y-69541801D01*
X176324955Y-69580365D01*
X176247827Y-69580365D01*
X176181032Y-69541801D01*
X176165651Y-69520626D01*
X176164532Y-69521440D01*
X176157640Y-69511954D01*
X176068045Y-69422359D01*
X176058560Y-69415468D01*
X176060633Y-69412614D01*
X176018584Y-69374743D01*
X175994759Y-69301387D01*
X176010804Y-69225946D01*
X176038197Y-69188248D01*
X176555471Y-68670973D01*
X176555472Y-68670973D01*
X176482482Y-68619865D01*
X176482477Y-68619862D01*
X176276325Y-68523733D01*
X176276323Y-68523732D01*
X176056605Y-68464859D01*
X176056606Y-68464859D01*
X175830000Y-68445034D01*
X175603393Y-68464859D01*
X175383676Y-68523732D01*
X175383674Y-68523733D01*
X175177518Y-68619865D01*
X175177513Y-68619867D01*
X175104527Y-68670972D01*
X175104527Y-68670973D01*
X175621802Y-69188248D01*
X175660366Y-69255043D01*
X175660366Y-69332171D01*
X175621802Y-69398966D01*
X175600629Y-69414352D01*
X175601440Y-69415468D01*
X175591954Y-69422359D01*
X175502359Y-69511954D01*
X175495468Y-69521440D01*
X175492615Y-69519367D01*
X175454723Y-69561428D01*
X175381363Y-69585241D01*
X175305925Y-69569184D01*
X175268248Y-69541802D01*
X174750973Y-69024527D01*
X174750972Y-69024527D01*
X174699867Y-69097513D01*
X174699865Y-69097518D01*
X174603733Y-69303674D01*
X174603732Y-69303676D01*
X174544859Y-69523393D01*
X174525034Y-69750000D01*
X166775215Y-69750000D01*
X166775215Y-69749995D01*
X166757997Y-69564187D01*
X166756397Y-69546917D01*
X166700582Y-69350750D01*
X166609673Y-69168179D01*
X166486764Y-69005421D01*
X166336041Y-68868019D01*
X166336036Y-68868015D01*
X166162643Y-68760655D01*
X166162632Y-68760649D01*
X165972462Y-68686978D01*
X165972458Y-68686977D01*
X165972456Y-68686976D01*
X165925032Y-68678111D01*
X165771980Y-68649500D01*
X165771976Y-68649500D01*
X165568024Y-68649500D01*
X165568019Y-68649500D01*
X165367544Y-68686976D01*
X165367537Y-68686978D01*
X165177367Y-68760649D01*
X165177356Y-68760655D01*
X165003963Y-68868015D01*
X165003958Y-68868019D01*
X164853234Y-69005423D01*
X164730328Y-69168176D01*
X164639416Y-69350754D01*
X164583602Y-69546921D01*
X164564785Y-69749995D01*
X164564785Y-69750004D01*
X121226076Y-69750004D01*
X121239600Y-69696330D01*
X121239600Y-69696327D01*
X121250000Y-69564189D01*
X121250000Y-69000000D01*
X120646347Y-69000000D01*
X120571847Y-68980038D01*
X120517309Y-68925500D01*
X120497347Y-68851000D01*
X120498863Y-68829797D01*
X120500000Y-68821888D01*
X120500000Y-68678111D01*
X120498863Y-68670203D01*
X120508021Y-68593620D01*
X120554243Y-68531877D01*
X120625144Y-68501516D01*
X120646347Y-68500000D01*
X121249999Y-68500000D01*
X121249999Y-67935813D01*
X121239600Y-67803668D01*
X121239599Y-67803664D01*
X121184624Y-67585488D01*
X121184621Y-67585480D01*
X121091572Y-67380626D01*
X120963434Y-67195668D01*
X120804331Y-67036565D01*
X120619373Y-66908427D01*
X120414519Y-66815378D01*
X120414512Y-66815375D01*
X120196329Y-66760399D01*
X120064189Y-66750000D01*
X119250000Y-66750000D01*
X119250000Y-68101000D01*
X119230038Y-68175500D01*
X119175500Y-68230038D01*
X119101000Y-68250000D01*
X118899000Y-68250000D01*
X118824500Y-68230038D01*
X118769962Y-68175500D01*
X118750000Y-68101000D01*
X118750000Y-66750000D01*
X117935814Y-66750001D01*
X117935813Y-66750001D01*
X117803668Y-66760399D01*
X117803664Y-66760400D01*
X117585488Y-66815375D01*
X117585480Y-66815378D01*
X117380626Y-66908427D01*
X117195668Y-67036565D01*
X117036565Y-67195668D01*
X116908427Y-67380626D01*
X116815378Y-67585480D01*
X116815375Y-67585487D01*
X116760399Y-67803669D01*
X116760399Y-67803672D01*
X116750000Y-67935811D01*
X116750000Y-68500000D01*
X106206773Y-68500000D01*
X106506977Y-68384762D01*
X106507001Y-68384751D01*
X106852525Y-68208699D01*
X106852545Y-68208688D01*
X107177785Y-67997474D01*
X107435350Y-67788902D01*
X106793736Y-67147289D01*
X106755172Y-67080494D01*
X106755172Y-67003366D01*
X106793736Y-66936571D01*
X106816311Y-66918044D01*
X106877296Y-66877296D01*
X106918043Y-66816314D01*
X106976027Y-66765462D01*
X107051673Y-66750414D01*
X107124708Y-66775205D01*
X107147289Y-66793736D01*
X107788902Y-67435349D01*
X107997474Y-67177785D01*
X108208688Y-66852545D01*
X108208699Y-66852525D01*
X108384751Y-66507001D01*
X108384762Y-66506977D01*
X108523733Y-66144947D01*
X108523740Y-66144927D01*
X108624110Y-65770338D01*
X108624111Y-65770335D01*
X108684781Y-65387280D01*
X108705078Y-64999999D01*
X108691976Y-64750005D01*
X128194451Y-64750005D01*
X128214615Y-65019090D01*
X128214618Y-65019113D01*
X128274663Y-65282187D01*
X128274665Y-65282194D01*
X128315909Y-65387280D01*
X128373257Y-65533398D01*
X128508185Y-65767102D01*
X128508189Y-65767107D01*
X128648750Y-65943365D01*
X128676439Y-65978085D01*
X128874259Y-66161635D01*
X129097226Y-66313651D01*
X129340359Y-66430738D01*
X129598228Y-66510280D01*
X129865071Y-66550500D01*
X129865074Y-66550500D01*
X130134926Y-66550500D01*
X130134929Y-66550500D01*
X130401772Y-66510280D01*
X130659641Y-66430738D01*
X130902775Y-66313651D01*
X130930327Y-66294866D01*
X133279500Y-66294866D01*
X133282414Y-66319989D01*
X133282415Y-66319992D01*
X133327793Y-66422764D01*
X133327794Y-66422764D01*
X133327794Y-66422765D01*
X133407235Y-66502206D01*
X133510009Y-66547585D01*
X133535135Y-66550500D01*
X136624864Y-66550499D01*
X136624866Y-66550499D01*
X136637427Y-66549042D01*
X136649991Y-66547585D01*
X136752765Y-66502206D01*
X136832206Y-66422765D01*
X136877585Y-66319991D01*
X136880500Y-66294865D01*
X136880500Y-64999999D01*
X181294922Y-64999999D01*
X181315218Y-65387280D01*
X181375888Y-65770335D01*
X181375889Y-65770338D01*
X181476259Y-66144927D01*
X181476266Y-66144947D01*
X181615237Y-66506977D01*
X181615248Y-66507001D01*
X181791300Y-66852525D01*
X181791311Y-66852545D01*
X182002528Y-67177789D01*
X182211095Y-67435349D01*
X182852709Y-66793736D01*
X182919504Y-66755172D01*
X182996632Y-66755172D01*
X183063427Y-66793736D01*
X183081956Y-66816314D01*
X183122702Y-66877294D01*
X183122704Y-66877296D01*
X183183683Y-66918041D01*
X183234537Y-66976029D01*
X183249584Y-67051675D01*
X183224792Y-67124710D01*
X183206262Y-67147289D01*
X182564648Y-67788902D01*
X182564649Y-67788903D01*
X182822213Y-67997473D01*
X182822215Y-67997475D01*
X183147454Y-68208688D01*
X183147474Y-68208699D01*
X183492998Y-68384751D01*
X183493022Y-68384762D01*
X183855052Y-68523733D01*
X183855072Y-68523740D01*
X184229661Y-68624110D01*
X184229664Y-68624111D01*
X184612719Y-68684781D01*
X185000000Y-68705077D01*
X185387280Y-68684781D01*
X185770335Y-68624111D01*
X185770338Y-68624110D01*
X186144927Y-68523740D01*
X186144947Y-68523733D01*
X186506977Y-68384762D01*
X186507001Y-68384751D01*
X186852525Y-68208699D01*
X186852545Y-68208688D01*
X187177785Y-67997474D01*
X187435350Y-67788902D01*
X186793736Y-67147289D01*
X186755172Y-67080494D01*
X186755172Y-67003366D01*
X186793736Y-66936571D01*
X186816311Y-66918044D01*
X186877296Y-66877296D01*
X186918043Y-66816314D01*
X186976027Y-66765462D01*
X187051673Y-66750414D01*
X187124708Y-66775205D01*
X187147289Y-66793736D01*
X187788902Y-67435349D01*
X187997474Y-67177785D01*
X188208688Y-66852545D01*
X188208699Y-66852525D01*
X188384751Y-66507001D01*
X188384762Y-66506977D01*
X188523733Y-66144947D01*
X188523740Y-66144927D01*
X188624110Y-65770338D01*
X188624111Y-65770335D01*
X188684781Y-65387280D01*
X188705078Y-64999999D01*
X188684781Y-64612719D01*
X188624111Y-64229664D01*
X188624110Y-64229661D01*
X188523740Y-63855072D01*
X188523733Y-63855052D01*
X188384762Y-63493022D01*
X188384751Y-63492998D01*
X188208699Y-63147474D01*
X188208688Y-63147454D01*
X187997475Y-62822215D01*
X187997473Y-62822213D01*
X187788903Y-62564649D01*
X187788902Y-62564648D01*
X187147289Y-63206262D01*
X187080494Y-63244826D01*
X187003366Y-63244826D01*
X186936571Y-63206262D01*
X186918041Y-63183683D01*
X186877296Y-63122704D01*
X186877294Y-63122702D01*
X186816314Y-63081956D01*
X186765461Y-63023968D01*
X186750414Y-62948322D01*
X186775207Y-62875287D01*
X186793736Y-62852709D01*
X187435349Y-62211095D01*
X187177789Y-62002528D01*
X186852545Y-61791311D01*
X186852525Y-61791300D01*
X186507001Y-61615248D01*
X186506977Y-61615237D01*
X186144947Y-61476266D01*
X186144927Y-61476259D01*
X185770338Y-61375889D01*
X185770335Y-61375888D01*
X185387280Y-61315218D01*
X185000000Y-61294922D01*
X184612719Y-61315218D01*
X184229664Y-61375888D01*
X184229661Y-61375889D01*
X183855072Y-61476259D01*
X183855052Y-61476266D01*
X183493022Y-61615237D01*
X183492998Y-61615248D01*
X183147474Y-61791300D01*
X183147454Y-61791311D01*
X182822210Y-62002528D01*
X182564649Y-62211095D01*
X182564648Y-62211095D01*
X183206263Y-62852710D01*
X183244827Y-62919505D01*
X183244827Y-62996633D01*
X183206263Y-63063428D01*
X183183684Y-63081958D01*
X183122704Y-63122703D01*
X183122703Y-63122704D01*
X183081958Y-63183684D01*
X183023970Y-63234538D01*
X182948323Y-63249585D01*
X182875289Y-63224793D01*
X182852710Y-63206263D01*
X182211095Y-62564648D01*
X182211095Y-62564649D01*
X182002528Y-62822210D01*
X181791311Y-63147454D01*
X181791300Y-63147474D01*
X181615248Y-63492998D01*
X181615237Y-63493022D01*
X181476266Y-63855052D01*
X181476259Y-63855072D01*
X181375889Y-64229661D01*
X181375888Y-64229664D01*
X181315218Y-64612719D01*
X181294922Y-64999999D01*
X136880500Y-64999999D01*
X136880499Y-63205136D01*
X136877585Y-63180009D01*
X136832206Y-63077235D01*
X136752765Y-62997794D01*
X136752764Y-62997793D01*
X136649994Y-62952416D01*
X136649991Y-62952415D01*
X136649982Y-62952414D01*
X136624865Y-62949500D01*
X136624859Y-62949500D01*
X133535133Y-62949500D01*
X133510010Y-62952414D01*
X133510007Y-62952415D01*
X133407235Y-62997793D01*
X133327793Y-63077235D01*
X133282416Y-63180005D01*
X133282415Y-63180008D01*
X133282415Y-63180009D01*
X133279500Y-63205135D01*
X133279500Y-63205136D01*
X133279500Y-63205140D01*
X133279500Y-66294866D01*
X130930327Y-66294866D01*
X131125741Y-66161635D01*
X131323561Y-65978085D01*
X131491815Y-65767102D01*
X131626743Y-65533398D01*
X131725334Y-65282195D01*
X131785383Y-65019103D01*
X131805549Y-64750000D01*
X131785383Y-64480897D01*
X131785381Y-64480891D01*
X131785381Y-64480886D01*
X131725336Y-64217812D01*
X131725334Y-64217805D01*
X131703982Y-64163402D01*
X131626743Y-63966602D01*
X131491815Y-63732898D01*
X131323561Y-63521915D01*
X131125741Y-63338365D01*
X130902775Y-63186349D01*
X130902772Y-63186348D01*
X130902770Y-63186346D01*
X130659650Y-63069266D01*
X130659646Y-63069264D01*
X130659641Y-63069262D01*
X130659633Y-63069259D01*
X130659629Y-63069258D01*
X130401777Y-62989721D01*
X130401773Y-62989720D01*
X130134932Y-62949500D01*
X130134929Y-62949500D01*
X129865071Y-62949500D01*
X129865067Y-62949500D01*
X129598226Y-62989720D01*
X129598222Y-62989721D01*
X129340370Y-63069258D01*
X129340349Y-63069266D01*
X129097227Y-63186348D01*
X128874259Y-63338364D01*
X128676438Y-63521915D01*
X128508189Y-63732892D01*
X128508184Y-63732900D01*
X128373257Y-63966601D01*
X128373255Y-63966606D01*
X128274665Y-64217805D01*
X128274663Y-64217812D01*
X128214618Y-64480886D01*
X128214615Y-64480909D01*
X128194451Y-64749994D01*
X128194451Y-64750005D01*
X108691976Y-64750005D01*
X108684781Y-64612719D01*
X108624111Y-64229664D01*
X108624110Y-64229661D01*
X108523740Y-63855072D01*
X108523733Y-63855052D01*
X108384762Y-63493022D01*
X108384751Y-63492998D01*
X108208699Y-63147474D01*
X108208688Y-63147454D01*
X107997475Y-62822215D01*
X107997473Y-62822213D01*
X107788903Y-62564649D01*
X107788902Y-62564648D01*
X107147289Y-63206262D01*
X107080494Y-63244826D01*
X107003366Y-63244826D01*
X106936571Y-63206262D01*
X106918041Y-63183683D01*
X106877296Y-63122704D01*
X106877294Y-63122702D01*
X106816314Y-63081956D01*
X106765461Y-63023968D01*
X106750414Y-62948322D01*
X106775207Y-62875287D01*
X106793736Y-62852709D01*
X107435349Y-62211095D01*
X107177789Y-62002528D01*
X106852545Y-61791311D01*
X106852525Y-61791300D01*
X106507001Y-61615248D01*
X106506977Y-61615237D01*
X106144947Y-61476266D01*
X106144927Y-61476259D01*
X105770338Y-61375889D01*
X105770335Y-61375888D01*
X105387280Y-61315218D01*
X105000000Y-61294922D01*
X104612719Y-61315218D01*
X104229664Y-61375888D01*
X104229661Y-61375889D01*
X103855072Y-61476259D01*
X103855052Y-61476266D01*
X103493022Y-61615237D01*
X103492998Y-61615248D01*
X103147474Y-61791300D01*
X103147454Y-61791311D01*
X102822210Y-62002528D01*
X102564649Y-62211095D01*
X102564648Y-62211095D01*
X103206263Y-62852710D01*
X103244827Y-62919505D01*
X103244827Y-62996633D01*
X103206263Y-63063428D01*
X103183684Y-63081958D01*
X103122704Y-63122703D01*
X103122703Y-63122704D01*
X103081958Y-63183684D01*
X103023970Y-63234538D01*
X102948323Y-63249585D01*
X102875289Y-63224793D01*
X102852710Y-63206263D01*
X102211095Y-62564648D01*
X102211095Y-62564649D01*
X102002528Y-62822210D01*
X101791311Y-63147454D01*
X101791300Y-63147474D01*
X101615248Y-63492998D01*
X101615237Y-63493022D01*
X101476266Y-63855052D01*
X101476259Y-63855072D01*
X101375889Y-64229661D01*
X101375888Y-64229664D01*
X101315218Y-64612719D01*
X101294922Y-64999999D01*
X100200500Y-64999999D01*
X100218622Y-64584941D01*
X100219185Y-64578491D01*
X100272992Y-64169784D01*
X100274115Y-64163416D01*
X100363337Y-63760960D01*
X100365013Y-63754708D01*
X100488967Y-63361576D01*
X100491191Y-63355466D01*
X100512946Y-63302944D01*
X100648937Y-62974633D01*
X100651670Y-62968773D01*
X100842010Y-62603132D01*
X100845250Y-62597520D01*
X101066733Y-62249861D01*
X101070460Y-62244539D01*
X101321413Y-61917491D01*
X101325546Y-61912565D01*
X101604050Y-61608631D01*
X101608631Y-61604050D01*
X101912565Y-61325546D01*
X101917491Y-61321413D01*
X102244546Y-61070455D01*
X102249865Y-61066731D01*
X102310364Y-61028189D01*
X102597520Y-60845250D01*
X102603135Y-60842009D01*
X102968773Y-60651670D01*
X102974633Y-60648937D01*
X103355465Y-60491191D01*
X103361576Y-60488967D01*
X103390290Y-60479913D01*
X103754708Y-60365013D01*
X103760960Y-60363337D01*
X104163416Y-60274115D01*
X104169784Y-60272992D01*
X104578491Y-60219185D01*
X104584941Y-60218622D01*
X105000000Y-60200500D01*
X105039882Y-60200500D01*
X184960118Y-60200500D01*
X185000000Y-60200500D01*
X185415056Y-60218622D01*
G37*
%TD.AperFunction*%
%TD*%
M02*
