%TF.GenerationSoftware,KiCad,Pcbnew,7.0.7*%
%TF.CreationDate,2024-02-27T23:19:37+01:00*%
%TF.ProjectId,BuzzWireGame,42757a7a-5769-4726-9547-616d652e6b69,v1.0*%
%TF.SameCoordinates,Original*%
%TF.FileFunction,Soldermask,Top*%
%TF.FilePolarity,Negative*%
%FSLAX46Y46*%
G04 Gerber Fmt 4.6, Leading zero omitted, Abs format (unit mm)*
G04 Created by KiCad (PCBNEW 7.0.7) date 2024-02-27 23:19:37*
%MOMM*%
%LPD*%
G01*
G04 APERTURE LIST*
G04 Aperture macros list*
%AMRoundRect*
0 Rectangle with rounded corners*
0 $1 Rounding radius*
0 $2 $3 $4 $5 $6 $7 $8 $9 X,Y pos of 4 corners*
0 Add a 4 corners polygon primitive as box body*
4,1,4,$2,$3,$4,$5,$6,$7,$8,$9,$2,$3,0*
0 Add four circle primitives for the rounded corners*
1,1,$1+$1,$2,$3*
1,1,$1+$1,$4,$5*
1,1,$1+$1,$6,$7*
1,1,$1+$1,$8,$9*
0 Add four rect primitives between the rounded corners*
20,1,$1+$1,$2,$3,$4,$5,0*
20,1,$1+$1,$4,$5,$6,$7,0*
20,1,$1+$1,$6,$7,$8,$9,0*
20,1,$1+$1,$8,$9,$2,$3,0*%
G04 Aperture macros list end*
%ADD10R,1.200000X1.200000*%
%ADD11C,1.200000*%
%ADD12C,0.800000*%
%ADD13C,6.400000*%
%ADD14C,1.600000*%
%ADD15O,1.600000X1.600000*%
%ADD16RoundRect,0.250000X0.650000X-0.325000X0.650000X0.325000X-0.650000X0.325000X-0.650000X-0.325000X0*%
%ADD17R,1.500000X1.050000*%
%ADD18O,1.500000X1.050000*%
%ADD19C,2.000000*%
%ADD20R,1.800000X1.800000*%
%ADD21C,1.800000*%
%ADD22R,3.500000X3.500000*%
%ADD23RoundRect,0.750000X-1.000000X0.750000X-1.000000X-0.750000X1.000000X-0.750000X1.000000X0.750000X0*%
%ADD24RoundRect,0.875000X-0.875000X0.875000X-0.875000X-0.875000X0.875000X-0.875000X0.875000X0.875000X0*%
%ADD25RoundRect,0.250000X-0.650000X0.325000X-0.650000X-0.325000X0.650000X-0.325000X0.650000X0.325000X0*%
%ADD26RoundRect,0.250000X0.325000X0.650000X-0.325000X0.650000X-0.325000X-0.650000X0.325000X-0.650000X0*%
%ADD27R,1.600000X1.600000*%
%ADD28R,3.000000X3.000000*%
%ADD29C,3.000000*%
%ADD30RoundRect,0.249900X-0.600100X-0.600100X0.600100X-0.600100X0.600100X0.600100X-0.600100X0.600100X0*%
%ADD31C,1.700000*%
G04 APERTURE END LIST*
D10*
%TO.C,C5*%
X117750000Y-99430000D03*
D11*
X115750000Y-99430000D03*
%TD*%
D12*
%TO.C,H1*%
X102600000Y-65000000D03*
X103302944Y-63302944D03*
X103302944Y-66697056D03*
X105000000Y-62600000D03*
D13*
X105000000Y-65000000D03*
D12*
X105000000Y-67400000D03*
X106697056Y-63302944D03*
X106697056Y-66697056D03*
X107400000Y-65000000D03*
%TD*%
D14*
%TO.C,R6*%
X186000000Y-98670000D03*
D15*
X186000000Y-108830000D03*
%TD*%
D16*
%TO.C,C3*%
X141000000Y-90225000D03*
X141000000Y-87275000D03*
%TD*%
D17*
%TO.C,Q1*%
X169750000Y-93520000D03*
D18*
X169750000Y-92250000D03*
X169750000Y-90980000D03*
%TD*%
D19*
%TO.C,SW1*%
X135500000Y-114300000D03*
X135500000Y-107800000D03*
X140000000Y-114300000D03*
X140000000Y-107800000D03*
%TD*%
D14*
%TO.C,R12*%
X109360000Y-97510000D03*
D15*
X109360000Y-107670000D03*
%TD*%
D14*
%TO.C,R3*%
X175830000Y-69750000D03*
D15*
X165670000Y-69750000D03*
%TD*%
D20*
%TO.C,D1*%
X176055000Y-107000000D03*
D21*
X178595000Y-107000000D03*
%TD*%
D12*
%TO.C,H2*%
X182600000Y-65000000D03*
X183302944Y-63302944D03*
X183302944Y-66697056D03*
X185000000Y-62600000D03*
D13*
X185000000Y-65000000D03*
D12*
X185000000Y-67400000D03*
X186697056Y-63302944D03*
X186697056Y-66697056D03*
X187400000Y-65000000D03*
%TD*%
D14*
%TO.C,R10*%
X179410000Y-101000000D03*
D15*
X169250000Y-101000000D03*
%TD*%
D14*
%TO.C,R8*%
X129250000Y-78420000D03*
D15*
X129250000Y-88580000D03*
%TD*%
D12*
%TO.C,H3*%
X102600000Y-115000000D03*
X103302944Y-113302944D03*
X103302944Y-116697056D03*
X105000000Y-112600000D03*
D13*
X105000000Y-115000000D03*
D12*
X105000000Y-117400000D03*
X106697056Y-113302944D03*
X106697056Y-116697056D03*
X107400000Y-115000000D03*
%TD*%
D22*
%TO.C,J1*%
X119000000Y-74750000D03*
D23*
X119000000Y-68750000D03*
D24*
X114300000Y-71750000D03*
%TD*%
D25*
%TO.C,C4*%
X123497400Y-97955000D03*
X123497400Y-100905000D03*
%TD*%
D16*
%TO.C,C2*%
X142800000Y-74475000D03*
X142800000Y-71525000D03*
%TD*%
D26*
%TO.C,C1*%
X152160000Y-98760000D03*
X149210000Y-98760000D03*
%TD*%
D27*
%TO.C,U2*%
X116170000Y-85630000D03*
D15*
X116170000Y-88170000D03*
X116170000Y-90710000D03*
X116170000Y-93250000D03*
X123790000Y-93250000D03*
X123790000Y-90710000D03*
X123790000Y-88170000D03*
X123790000Y-85630000D03*
%TD*%
D14*
%TO.C,R1*%
X160750000Y-87670000D03*
D15*
X160750000Y-97830000D03*
%TD*%
D28*
%TO.C,J2*%
X185750000Y-77750000D03*
D29*
X185750000Y-72670000D03*
%TD*%
D30*
%TO.C,LS1*%
X149500000Y-71500000D03*
D31*
X157100000Y-71500000D03*
%TD*%
D14*
%TO.C,R9*%
X169420000Y-86250000D03*
D15*
X179580000Y-86250000D03*
%TD*%
D14*
%TO.C,R5*%
X165670000Y-80500000D03*
D15*
X175830000Y-80500000D03*
%TD*%
D14*
%TO.C,R4*%
X154080000Y-82000000D03*
D15*
X143920000Y-82000000D03*
%TD*%
D20*
%TO.C,D3*%
X178775000Y-92020000D03*
D21*
X176235000Y-92020000D03*
%TD*%
D27*
%TO.C,U1*%
X145200000Y-87700000D03*
D15*
X145200000Y-90240000D03*
X145200000Y-92780000D03*
X145200000Y-95320000D03*
X152820000Y-95320000D03*
X152820000Y-92780000D03*
X152820000Y-90240000D03*
X152820000Y-87700000D03*
%TD*%
D14*
%TO.C,R2*%
X175830000Y-75000000D03*
D15*
X165670000Y-75000000D03*
%TD*%
D14*
%TO.C,R7*%
X186000000Y-96000000D03*
D15*
X186000000Y-85840000D03*
%TD*%
D17*
%TO.C,Q2*%
X169580000Y-108000000D03*
D18*
X169580000Y-106730000D03*
X169580000Y-105460000D03*
%TD*%
D20*
%TO.C,D2*%
X109360000Y-93210000D03*
D21*
X109360000Y-90670000D03*
%TD*%
D28*
%TO.C,BT1*%
X135080000Y-64750000D03*
D29*
X130000000Y-64750000D03*
%TD*%
D12*
%TO.C,H4*%
X182600000Y-115000000D03*
X183302944Y-113302944D03*
X183302944Y-116697056D03*
X185000000Y-112600000D03*
D13*
X185000000Y-115000000D03*
D12*
X185000000Y-117400000D03*
X186697056Y-113302944D03*
X186697056Y-116697056D03*
X187400000Y-115000000D03*
%TD*%
D28*
%TO.C,RV1*%
X149500000Y-113000000D03*
D29*
X154500000Y-113000000D03*
X159500000Y-113000000D03*
%TD*%
D14*
%TO.C,R11*%
X129250000Y-93170000D03*
D15*
X129250000Y-103330000D03*
%TD*%
M02*
