%TF.GenerationSoftware,KiCad,Pcbnew,7.0.7*%
%TF.CreationDate,2024-02-27T23:19:37+01:00*%
%TF.ProjectId,BuzzWireGame,42757a7a-5769-4726-9547-616d652e6b69,v1.0*%
%TF.SameCoordinates,Original*%
%TF.FileFunction,Copper,L1,Top*%
%TF.FilePolarity,Positive*%
%FSLAX46Y46*%
G04 Gerber Fmt 4.6, Leading zero omitted, Abs format (unit mm)*
G04 Created by KiCad (PCBNEW 7.0.7) date 2024-02-27 23:19:37*
%MOMM*%
%LPD*%
G01*
G04 APERTURE LIST*
G04 Aperture macros list*
%AMRoundRect*
0 Rectangle with rounded corners*
0 $1 Rounding radius*
0 $2 $3 $4 $5 $6 $7 $8 $9 X,Y pos of 4 corners*
0 Add a 4 corners polygon primitive as box body*
4,1,4,$2,$3,$4,$5,$6,$7,$8,$9,$2,$3,0*
0 Add four circle primitives for the rounded corners*
1,1,$1+$1,$2,$3*
1,1,$1+$1,$4,$5*
1,1,$1+$1,$6,$7*
1,1,$1+$1,$8,$9*
0 Add four rect primitives between the rounded corners*
20,1,$1+$1,$2,$3,$4,$5,0*
20,1,$1+$1,$4,$5,$6,$7,0*
20,1,$1+$1,$6,$7,$8,$9,0*
20,1,$1+$1,$8,$9,$2,$3,0*%
G04 Aperture macros list end*
%TA.AperFunction,ComponentPad*%
%ADD10R,1.200000X1.200000*%
%TD*%
%TA.AperFunction,ComponentPad*%
%ADD11C,1.200000*%
%TD*%
%TA.AperFunction,ComponentPad*%
%ADD12C,0.800000*%
%TD*%
%TA.AperFunction,ComponentPad*%
%ADD13C,6.400000*%
%TD*%
%TA.AperFunction,ComponentPad*%
%ADD14C,1.600000*%
%TD*%
%TA.AperFunction,ComponentPad*%
%ADD15O,1.600000X1.600000*%
%TD*%
%TA.AperFunction,SMDPad,CuDef*%
%ADD16RoundRect,0.250000X0.650000X-0.325000X0.650000X0.325000X-0.650000X0.325000X-0.650000X-0.325000X0*%
%TD*%
%TA.AperFunction,ComponentPad*%
%ADD17R,1.500000X1.050000*%
%TD*%
%TA.AperFunction,ComponentPad*%
%ADD18O,1.500000X1.050000*%
%TD*%
%TA.AperFunction,ComponentPad*%
%ADD19C,2.000000*%
%TD*%
%TA.AperFunction,ComponentPad*%
%ADD20R,1.800000X1.800000*%
%TD*%
%TA.AperFunction,ComponentPad*%
%ADD21C,1.800000*%
%TD*%
%TA.AperFunction,ComponentPad*%
%ADD22R,3.500000X3.500000*%
%TD*%
%TA.AperFunction,ComponentPad*%
%ADD23RoundRect,0.750000X-1.000000X0.750000X-1.000000X-0.750000X1.000000X-0.750000X1.000000X0.750000X0*%
%TD*%
%TA.AperFunction,ComponentPad*%
%ADD24RoundRect,0.875000X-0.875000X0.875000X-0.875000X-0.875000X0.875000X-0.875000X0.875000X0.875000X0*%
%TD*%
%TA.AperFunction,SMDPad,CuDef*%
%ADD25RoundRect,0.250000X-0.650000X0.325000X-0.650000X-0.325000X0.650000X-0.325000X0.650000X0.325000X0*%
%TD*%
%TA.AperFunction,SMDPad,CuDef*%
%ADD26RoundRect,0.250000X0.325000X0.650000X-0.325000X0.650000X-0.325000X-0.650000X0.325000X-0.650000X0*%
%TD*%
%TA.AperFunction,ComponentPad*%
%ADD27R,1.600000X1.600000*%
%TD*%
%TA.AperFunction,ComponentPad*%
%ADD28R,3.000000X3.000000*%
%TD*%
%TA.AperFunction,ComponentPad*%
%ADD29C,3.000000*%
%TD*%
%TA.AperFunction,ComponentPad*%
%ADD30RoundRect,0.249900X-0.600100X-0.600100X0.600100X-0.600100X0.600100X0.600100X-0.600100X0.600100X0*%
%TD*%
%TA.AperFunction,ComponentPad*%
%ADD31C,1.700000*%
%TD*%
%TA.AperFunction,ViaPad*%
%ADD32C,0.500000*%
%TD*%
%TA.AperFunction,Conductor*%
%ADD33C,0.300000*%
%TD*%
G04 APERTURE END LIST*
D10*
%TO.P,C5,1*%
%TO.N,Net-(U2-THR)*%
X117750000Y-99430000D03*
D11*
%TO.P,C5,2*%
%TO.N,GND*%
X115750000Y-99430000D03*
%TD*%
D12*
%TO.P,H1,1,1*%
%TO.N,GND*%
X102600000Y-65000000D03*
X103302944Y-63302944D03*
X103302944Y-66697056D03*
X105000000Y-62600000D03*
D13*
X105000000Y-65000000D03*
D12*
X105000000Y-67400000D03*
X106697056Y-63302944D03*
X106697056Y-66697056D03*
X107400000Y-65000000D03*
%TD*%
D14*
%TO.P,R6,1*%
%TO.N,+9V*%
X186000000Y-98670000D03*
D15*
%TO.P,R6,2*%
%TO.N,Net-(D1-A)*%
X186000000Y-108830000D03*
%TD*%
D16*
%TO.P,C3,1*%
%TO.N,Net-(U1-THR)*%
X141000000Y-90225000D03*
%TO.P,C3,2*%
%TO.N,GND*%
X141000000Y-87275000D03*
%TD*%
D17*
%TO.P,Q1,1,C*%
%TO.N,Net-(D3-A)*%
X169750000Y-93520000D03*
D18*
%TO.P,Q1,2,B*%
%TO.N,TIMER_RESET*%
X169750000Y-92250000D03*
%TO.P,Q1,3,E*%
%TO.N,Net-(Q1-E)*%
X169750000Y-90980000D03*
%TD*%
D19*
%TO.P,SW1,1,1*%
%TO.N,Net-(J2-Pin_2)*%
X135500000Y-114300000D03*
X135500000Y-107800000D03*
%TO.P,SW1,2,2*%
%TO.N,TIMER_RESET*%
X140000000Y-114300000D03*
X140000000Y-107800000D03*
%TD*%
D14*
%TO.P,R12,1*%
%TO.N,Net-(D2-K)*%
X109360000Y-97510000D03*
D15*
%TO.P,R12,2*%
%TO.N,GND*%
X109360000Y-107670000D03*
%TD*%
D14*
%TO.P,R3,1*%
%TO.N,GND*%
X175830000Y-69750000D03*
D15*
%TO.P,R3,2*%
%TO.N,Net-(LS1-Pad2)*%
X165670000Y-69750000D03*
%TD*%
D20*
%TO.P,D1,1,K*%
%TO.N,Net-(D1-K)*%
X176055000Y-107000000D03*
D21*
%TO.P,D1,2,A*%
%TO.N,Net-(D1-A)*%
X178595000Y-107000000D03*
%TD*%
D12*
%TO.P,H2,1,1*%
%TO.N,GND*%
X182600000Y-65000000D03*
X183302944Y-63302944D03*
X183302944Y-66697056D03*
X185000000Y-62600000D03*
D13*
X185000000Y-65000000D03*
D12*
X185000000Y-67400000D03*
X186697056Y-63302944D03*
X186697056Y-66697056D03*
X187400000Y-65000000D03*
%TD*%
D14*
%TO.P,R10,1*%
%TO.N,GND*%
X179410000Y-101000000D03*
D15*
%TO.P,R10,2*%
%TO.N,Net-(Q2-E)*%
X169250000Y-101000000D03*
%TD*%
D14*
%TO.P,R8,1*%
%TO.N,+9V*%
X129250000Y-78420000D03*
D15*
%TO.P,R8,2*%
%TO.N,Net-(U2-DIS)*%
X129250000Y-88580000D03*
%TD*%
D12*
%TO.P,H3,1,1*%
%TO.N,GND*%
X102600000Y-115000000D03*
X103302944Y-113302944D03*
X103302944Y-116697056D03*
X105000000Y-112600000D03*
D13*
X105000000Y-115000000D03*
D12*
X105000000Y-117400000D03*
X106697056Y-113302944D03*
X106697056Y-116697056D03*
X107400000Y-115000000D03*
%TD*%
D22*
%TO.P,J1,1*%
%TO.N,+9V*%
X119000000Y-74750000D03*
D23*
%TO.P,J1,2*%
%TO.N,GND*%
X119000000Y-68750000D03*
D24*
%TO.P,J1,3*%
%TO.N,BATT_NEG*%
X114300000Y-71750000D03*
%TD*%
D25*
%TO.P,C4,1*%
%TO.N,Net-(U2-CV)*%
X123497400Y-97955000D03*
%TO.P,C4,2*%
%TO.N,GND*%
X123497400Y-100905000D03*
%TD*%
D16*
%TO.P,C2,1*%
%TO.N,Net-(U1-Q)*%
X142800000Y-74475000D03*
%TO.P,C2,2*%
%TO.N,Net-(C2-Pad2)*%
X142800000Y-71525000D03*
%TD*%
D26*
%TO.P,C1,1*%
%TO.N,Net-(U1-CV)*%
X152160000Y-98760000D03*
%TO.P,C1,2*%
%TO.N,GND*%
X149210000Y-98760000D03*
%TD*%
D27*
%TO.P,U2,1,GND*%
%TO.N,GND*%
X116170000Y-85630000D03*
D15*
%TO.P,U2,2,TR*%
%TO.N,Net-(U2-THR)*%
X116170000Y-88170000D03*
%TO.P,U2,3,Q*%
%TO.N,Net-(D2-A)*%
X116170000Y-90710000D03*
%TO.P,U2,4,R*%
%TO.N,+9V*%
X116170000Y-93250000D03*
%TO.P,U2,5,CV*%
%TO.N,Net-(U2-CV)*%
X123790000Y-93250000D03*
%TO.P,U2,6,THR*%
%TO.N,Net-(U2-THR)*%
X123790000Y-90710000D03*
%TO.P,U2,7,DIS*%
%TO.N,Net-(U2-DIS)*%
X123790000Y-88170000D03*
%TO.P,U2,8,VCC*%
%TO.N,+9V*%
X123790000Y-85630000D03*
%TD*%
D14*
%TO.P,R1,1*%
%TO.N,+9V*%
X160750000Y-87670000D03*
D15*
%TO.P,R1,2*%
%TO.N,Net-(R1-Pad2)*%
X160750000Y-97830000D03*
%TD*%
D28*
%TO.P,J2,1,Pin_1*%
%TO.N,TIMER_RESET*%
X185750000Y-77750000D03*
D29*
%TO.P,J2,2,Pin_2*%
%TO.N,Net-(J2-Pin_2)*%
X185750000Y-72670000D03*
%TD*%
D30*
%TO.P,LS1,1,1*%
%TO.N,Net-(C2-Pad2)*%
X149500000Y-71500000D03*
D31*
%TO.P,LS1,2,2*%
%TO.N,Net-(LS1-Pad2)*%
X157100000Y-71500000D03*
%TD*%
D14*
%TO.P,R9,1*%
%TO.N,Net-(Q1-E)*%
X169420000Y-86250000D03*
D15*
%TO.P,R9,2*%
%TO.N,GND*%
X179580000Y-86250000D03*
%TD*%
D14*
%TO.P,R5,1*%
%TO.N,GND*%
X165670000Y-80500000D03*
D15*
%TO.P,R5,2*%
%TO.N,TIMER_RESET*%
X175830000Y-80500000D03*
%TD*%
D14*
%TO.P,R4,1*%
%TO.N,Net-(U1-DIS)*%
X154080000Y-82000000D03*
D15*
%TO.P,R4,2*%
%TO.N,Net-(U1-THR)*%
X143920000Y-82000000D03*
%TD*%
D20*
%TO.P,D3,1,K*%
%TO.N,GND*%
X178775000Y-92020000D03*
D21*
%TO.P,D3,2,A*%
%TO.N,Net-(D3-A)*%
X176235000Y-92020000D03*
%TD*%
D27*
%TO.P,U1,1,GND*%
%TO.N,GND*%
X145200000Y-87700000D03*
D15*
%TO.P,U1,2,TR*%
%TO.N,Net-(U1-THR)*%
X145200000Y-90240000D03*
%TO.P,U1,3,Q*%
%TO.N,Net-(U1-Q)*%
X145200000Y-92780000D03*
%TO.P,U1,4,R*%
%TO.N,TIMER_RESET*%
X145200000Y-95320000D03*
%TO.P,U1,5,CV*%
%TO.N,Net-(U1-CV)*%
X152820000Y-95320000D03*
%TO.P,U1,6,THR*%
%TO.N,Net-(U1-THR)*%
X152820000Y-92780000D03*
%TO.P,U1,7,DIS*%
%TO.N,Net-(U1-DIS)*%
X152820000Y-90240000D03*
%TO.P,U1,8,VCC*%
%TO.N,+9V*%
X152820000Y-87700000D03*
%TD*%
D14*
%TO.P,R2,1*%
%TO.N,Net-(J2-Pin_2)*%
X175830000Y-75000000D03*
D15*
%TO.P,R2,2*%
%TO.N,+9V*%
X165670000Y-75000000D03*
%TD*%
D14*
%TO.P,R7,1*%
%TO.N,+9V*%
X186000000Y-96000000D03*
D15*
%TO.P,R7,2*%
%TO.N,Net-(D3-A)*%
X186000000Y-85840000D03*
%TD*%
D17*
%TO.P,Q2,1,C*%
%TO.N,Net-(D1-K)*%
X169580000Y-108000000D03*
D18*
%TO.P,Q2,2,B*%
%TO.N,TIMER_RESET*%
X169580000Y-106730000D03*
%TO.P,Q2,3,E*%
%TO.N,Net-(Q2-E)*%
X169580000Y-105460000D03*
%TD*%
D20*
%TO.P,D2,1,K*%
%TO.N,Net-(D2-K)*%
X109360000Y-93210000D03*
D21*
%TO.P,D2,2,A*%
%TO.N,Net-(D2-A)*%
X109360000Y-90670000D03*
%TD*%
D28*
%TO.P,BT1,1,+*%
%TO.N,+9V*%
X135080000Y-64750000D03*
D29*
%TO.P,BT1,2,-*%
%TO.N,BATT_NEG*%
X130000000Y-64750000D03*
%TD*%
D12*
%TO.P,H4,1,1*%
%TO.N,GND*%
X182600000Y-115000000D03*
X183302944Y-113302944D03*
X183302944Y-116697056D03*
X185000000Y-112600000D03*
D13*
X185000000Y-115000000D03*
D12*
X185000000Y-117400000D03*
X186697056Y-113302944D03*
X186697056Y-116697056D03*
X187400000Y-115000000D03*
%TD*%
D28*
%TO.P,RV1,1,1*%
%TO.N,Net-(U1-DIS)*%
X149500000Y-113000000D03*
D29*
%TO.P,RV1,2,2*%
X154500000Y-113000000D03*
%TO.P,RV1,3,3*%
%TO.N,Net-(R1-Pad2)*%
X159500000Y-113000000D03*
%TD*%
D14*
%TO.P,R11,1*%
%TO.N,Net-(U2-DIS)*%
X129250000Y-93170000D03*
D15*
%TO.P,R11,2*%
%TO.N,Net-(U2-THR)*%
X129250000Y-103330000D03*
%TD*%
D32*
%TO.N,GND*%
X148000000Y-98750000D03*
X123500000Y-102160000D03*
X141250000Y-86000000D03*
%TD*%
D33*
%TO.N,+9V*%
X118750000Y-82660000D02*
X121720000Y-85630000D01*
X186000000Y-96000000D02*
X186000000Y-98670000D01*
X110000000Y-82660000D02*
X118750000Y-82660000D01*
X146500000Y-64750000D02*
X135080000Y-64750000D01*
X159625000Y-77875000D02*
X146500000Y-64750000D01*
X160750000Y-87670000D02*
X160750000Y-79000000D01*
X135080000Y-65250000D02*
X135080000Y-64750000D01*
X123790000Y-83880000D02*
X129250000Y-78420000D01*
X116170000Y-93250000D02*
X116170000Y-95240000D01*
X106500000Y-99910000D02*
X104750000Y-98160000D01*
X125580000Y-74750000D02*
X135080000Y-65250000D01*
X123790000Y-85630000D02*
X123790000Y-83880000D01*
X160750000Y-79000000D02*
X159625000Y-77875000D01*
X129250000Y-78420000D02*
X125580000Y-74750000D01*
X104750000Y-87910000D02*
X110000000Y-82660000D01*
X165670000Y-75000000D02*
X162500000Y-75000000D01*
X121720000Y-85630000D02*
X123790000Y-85630000D01*
X111500000Y-99910000D02*
X106500000Y-99910000D01*
X162500000Y-75000000D02*
X159625000Y-77875000D01*
X125580000Y-74750000D02*
X119000000Y-74750000D01*
X116170000Y-95240000D02*
X111500000Y-99910000D01*
X152820000Y-87700000D02*
X160720000Y-87700000D01*
X160720000Y-87700000D02*
X160750000Y-87670000D01*
X104750000Y-98160000D02*
X104750000Y-87910000D01*
%TO.N,BATT_NEG*%
X130000000Y-64750000D02*
X123000000Y-71750000D01*
X123000000Y-71750000D02*
X114300000Y-71750000D01*
%TO.N,Net-(U1-CV)*%
X152820000Y-98100000D02*
X152160000Y-98760000D01*
X152820000Y-95320000D02*
X152820000Y-98100000D01*
%TO.N,GND*%
X149210000Y-98760000D02*
X148010000Y-98760000D01*
X123497400Y-102157400D02*
X123500000Y-102160000D01*
X141250000Y-87275000D02*
X141250000Y-86000000D01*
X123497400Y-100905000D02*
X123497400Y-102157400D01*
X148010000Y-98760000D02*
X148000000Y-98750000D01*
%TO.N,Net-(U1-Q)*%
X140780000Y-92780000D02*
X145200000Y-92780000D01*
X138750000Y-78525000D02*
X138750000Y-90750000D01*
X142800000Y-74475000D02*
X138750000Y-78525000D01*
X138750000Y-90750000D02*
X140780000Y-92780000D01*
%TO.N,Net-(C2-Pad2)*%
X142825000Y-71500000D02*
X142800000Y-71525000D01*
X149500000Y-71500000D02*
X142825000Y-71500000D01*
%TO.N,Net-(U1-THR)*%
X141000000Y-90225000D02*
X141015000Y-90240000D01*
X141250000Y-90225000D02*
X141265000Y-90240000D01*
X142750000Y-82420000D02*
X142750000Y-90240000D01*
X145200000Y-90240000D02*
X147490000Y-90240000D01*
X142750000Y-90240000D02*
X145200000Y-90240000D01*
X147490000Y-90240000D02*
X150030000Y-92780000D01*
X143920000Y-82000000D02*
X143170000Y-82000000D01*
X141265000Y-90240000D02*
X145200000Y-90240000D01*
X150030000Y-92780000D02*
X152820000Y-92780000D01*
X143170000Y-82000000D02*
X142750000Y-82420000D01*
%TO.N,Net-(U2-CV)*%
X123790000Y-97662400D02*
X123497400Y-97955000D01*
X123790000Y-93250000D02*
X123790000Y-97662400D01*
%TO.N,Net-(U2-THR)*%
X119670000Y-103330000D02*
X117750000Y-101410000D01*
X121300000Y-90710000D02*
X118760000Y-88170000D01*
X117750000Y-99430000D02*
X117750000Y-94260000D01*
X117750000Y-101410000D02*
X117750000Y-99430000D01*
X129250000Y-103330000D02*
X119670000Y-103330000D01*
X117750000Y-94260000D02*
X121300000Y-90710000D01*
X123790000Y-90710000D02*
X121300000Y-90710000D01*
X118760000Y-88170000D02*
X116170000Y-88170000D01*
%TO.N,Net-(D1-K)*%
X175055000Y-108000000D02*
X169580000Y-108000000D01*
X176055000Y-107000000D02*
X175055000Y-108000000D01*
%TO.N,Net-(D1-A)*%
X183330000Y-108830000D02*
X186000000Y-108830000D01*
X181500000Y-107000000D02*
X183330000Y-108830000D01*
X178595000Y-107000000D02*
X181500000Y-107000000D01*
%TO.N,Net-(D2-K)*%
X109360000Y-93210000D02*
X109360000Y-97510000D01*
%TO.N,Net-(D2-A)*%
X116170000Y-90710000D02*
X109400000Y-90710000D01*
X109400000Y-90710000D02*
X109360000Y-90670000D01*
%TO.N,Net-(D3-A)*%
X176235000Y-92020000D02*
X179005000Y-89250000D01*
X183910000Y-85840000D02*
X186000000Y-85840000D01*
X179005000Y-89250000D02*
X180500000Y-89250000D01*
X169750000Y-93520000D02*
X174735000Y-93520000D01*
X180500000Y-89250000D02*
X183910000Y-85840000D01*
X174735000Y-93520000D02*
X176235000Y-92020000D01*
%TO.N,TIMER_RESET*%
X167520000Y-104730000D02*
X167500000Y-104710000D01*
X178750000Y-80500000D02*
X181500000Y-77750000D01*
X169580000Y-106730000D02*
X167520000Y-106730000D01*
X172250000Y-80500000D02*
X167500000Y-85250000D01*
X169750000Y-92250000D02*
X167500000Y-92250000D01*
X147750000Y-117000000D02*
X142450000Y-111700000D01*
X142450000Y-111700000D02*
X142450000Y-108000000D01*
X167500000Y-85250000D02*
X167500000Y-92250000D01*
X167500000Y-113750000D02*
X164250000Y-117000000D01*
X142250000Y-107800000D02*
X142450000Y-108000000D01*
X167500000Y-104710000D02*
X167500000Y-92250000D01*
X140000000Y-107800000D02*
X142250000Y-107800000D01*
X140000000Y-114300000D02*
X140000000Y-107800000D01*
X175830000Y-80500000D02*
X178750000Y-80500000D01*
X167500000Y-106750000D02*
X167500000Y-113750000D01*
X167520000Y-104730000D02*
X167500000Y-104750000D01*
X167520000Y-106730000D02*
X167500000Y-106750000D01*
X164250000Y-117000000D02*
X147750000Y-117000000D01*
X142450000Y-108000000D02*
X142450000Y-97300000D01*
X144430000Y-95320000D02*
X145200000Y-95320000D01*
X142450000Y-97300000D02*
X144430000Y-95320000D01*
X167500000Y-106750000D02*
X167500000Y-104750000D01*
X175830000Y-80500000D02*
X172250000Y-80500000D01*
X181500000Y-77750000D02*
X185750000Y-77750000D01*
%TO.N,Net-(J2-Pin_2)*%
X180080000Y-72670000D02*
X185750000Y-72670000D01*
X177750000Y-75000000D02*
X180080000Y-72670000D01*
X175830000Y-75000000D02*
X177750000Y-75000000D01*
X135500000Y-107800000D02*
X135500000Y-114300000D01*
%TO.N,Net-(LS1-Pad2)*%
X157100000Y-71500000D02*
X163920000Y-71500000D01*
X163920000Y-71500000D02*
X165670000Y-69750000D01*
%TO.N,Net-(Q1-E)*%
X169750000Y-90980000D02*
X169750000Y-86580000D01*
X169750000Y-86580000D02*
X169420000Y-86250000D01*
%TO.N,Net-(Q2-E)*%
X169250000Y-101000000D02*
X169250000Y-105130000D01*
X169250000Y-105130000D02*
X169580000Y-105460000D01*
%TO.N,Net-(R1-Pad2)*%
X159500000Y-99080000D02*
X159500000Y-113000000D01*
X160750000Y-97830000D02*
X159500000Y-99080000D01*
%TO.N,Net-(U1-DIS)*%
X154750000Y-100500000D02*
X152250000Y-103000000D01*
X154750000Y-112750000D02*
X154500000Y-113000000D01*
X154080000Y-82000000D02*
X154080000Y-83420000D01*
X154750000Y-92170000D02*
X154750000Y-100500000D01*
X152820000Y-90240000D02*
X154750000Y-92170000D01*
X154080000Y-83420000D02*
X150750000Y-86750000D01*
X150750000Y-86750000D02*
X150750000Y-88750000D01*
X149500000Y-105750000D02*
X149500000Y-113000000D01*
X152250000Y-103000000D02*
X149500000Y-105750000D01*
X152240000Y-90240000D02*
X152820000Y-90240000D01*
X154500000Y-113000000D02*
X149500000Y-113000000D01*
X150750000Y-88750000D02*
X152240000Y-90240000D01*
%TO.N,Net-(U2-DIS)*%
X129250000Y-93170000D02*
X129250000Y-88580000D01*
X128840000Y-88170000D02*
X129250000Y-88580000D01*
X123790000Y-88170000D02*
X128840000Y-88170000D01*
%TD*%
%TA.AperFunction,Conductor*%
%TO.N,GND*%
G36*
X106403118Y-116050215D02*
G01*
X106411710Y-116058157D01*
X106600375Y-116246822D01*
X106638939Y-116313617D01*
X106638939Y-116390745D01*
X106600375Y-116457540D01*
X106577796Y-116476070D01*
X106516816Y-116516815D01*
X106516815Y-116516816D01*
X106476070Y-116577796D01*
X106418082Y-116628650D01*
X106342435Y-116643697D01*
X106269401Y-116618905D01*
X106246822Y-116600375D01*
X106058157Y-116411710D01*
X106019593Y-116344915D01*
X106019593Y-116267787D01*
X106058157Y-116200992D01*
X106066740Y-116193057D01*
X106134870Y-116134870D01*
X106193051Y-116066748D01*
X106256612Y-116023063D01*
X106333503Y-116017011D01*
X106403118Y-116050215D01*
G37*
%TD.AperFunction*%
%TA.AperFunction,Conductor*%
G36*
X103799006Y-116058157D02*
G01*
X103806947Y-116066748D01*
X103865125Y-116134865D01*
X103865127Y-116134867D01*
X103865130Y-116134870D01*
X103933252Y-116193052D01*
X103976936Y-116256611D01*
X103982988Y-116333502D01*
X103949785Y-116403117D01*
X103941842Y-116411709D01*
X103753177Y-116600374D01*
X103686382Y-116638938D01*
X103609254Y-116638938D01*
X103542459Y-116600374D01*
X103523929Y-116577795D01*
X103483184Y-116516816D01*
X103483182Y-116516814D01*
X103422202Y-116476068D01*
X103371349Y-116418080D01*
X103356302Y-116342434D01*
X103381095Y-116269399D01*
X103399624Y-116246821D01*
X103588288Y-116058157D01*
X103655083Y-116019593D01*
X103732211Y-116019593D01*
X103799006Y-116058157D01*
G37*
%TD.AperFunction*%
%TA.AperFunction,Conductor*%
G36*
X103730596Y-113381093D02*
G01*
X103753177Y-113399624D01*
X103941842Y-113588289D01*
X103980406Y-113655084D01*
X103980406Y-113732212D01*
X103941842Y-113799007D01*
X103933252Y-113806947D01*
X103865135Y-113865125D01*
X103865125Y-113865135D01*
X103806947Y-113933252D01*
X103743383Y-113976937D01*
X103666493Y-113982988D01*
X103596879Y-113949782D01*
X103588289Y-113941842D01*
X103399624Y-113753177D01*
X103361060Y-113686382D01*
X103361060Y-113609254D01*
X103399624Y-113542459D01*
X103422199Y-113523932D01*
X103483184Y-113483184D01*
X103523931Y-113422202D01*
X103581915Y-113371350D01*
X103657561Y-113356302D01*
X103730596Y-113381093D01*
G37*
%TD.AperFunction*%
%TA.AperFunction,Conductor*%
G36*
X106457539Y-113399624D02*
G01*
X106476068Y-113422202D01*
X106516814Y-113483182D01*
X106516816Y-113483184D01*
X106577795Y-113523929D01*
X106628649Y-113581917D01*
X106643696Y-113657563D01*
X106618904Y-113730598D01*
X106600374Y-113753177D01*
X106411709Y-113941842D01*
X106344914Y-113980406D01*
X106267786Y-113980406D01*
X106200991Y-113941842D01*
X106193070Y-113933274D01*
X106134870Y-113865130D01*
X106134867Y-113865127D01*
X106134865Y-113865125D01*
X106066748Y-113806947D01*
X106023062Y-113743383D01*
X106017011Y-113666493D01*
X106050216Y-113596879D01*
X106058157Y-113588288D01*
X106246821Y-113399624D01*
X106313616Y-113361060D01*
X106390744Y-113361060D01*
X106457539Y-113399624D01*
G37*
%TD.AperFunction*%
%TA.AperFunction,Conductor*%
G36*
X186403118Y-116050215D02*
G01*
X186411710Y-116058157D01*
X186600375Y-116246822D01*
X186638939Y-116313617D01*
X186638939Y-116390745D01*
X186600375Y-116457540D01*
X186577796Y-116476070D01*
X186516816Y-116516815D01*
X186516815Y-116516816D01*
X186476070Y-116577796D01*
X186418082Y-116628650D01*
X186342435Y-116643697D01*
X186269401Y-116618905D01*
X186246822Y-116600375D01*
X186058157Y-116411710D01*
X186019593Y-116344915D01*
X186019593Y-116267787D01*
X186058157Y-116200992D01*
X186066740Y-116193057D01*
X186134870Y-116134870D01*
X186193051Y-116066748D01*
X186256612Y-116023063D01*
X186333503Y-116017011D01*
X186403118Y-116050215D01*
G37*
%TD.AperFunction*%
%TA.AperFunction,Conductor*%
G36*
X183799006Y-116058157D02*
G01*
X183806947Y-116066748D01*
X183865125Y-116134865D01*
X183865127Y-116134867D01*
X183865130Y-116134870D01*
X183933252Y-116193052D01*
X183976936Y-116256611D01*
X183982988Y-116333502D01*
X183949785Y-116403117D01*
X183941842Y-116411709D01*
X183753177Y-116600374D01*
X183686382Y-116638938D01*
X183609254Y-116638938D01*
X183542459Y-116600374D01*
X183523929Y-116577795D01*
X183483184Y-116516816D01*
X183483182Y-116516814D01*
X183422202Y-116476068D01*
X183371349Y-116418080D01*
X183356302Y-116342434D01*
X183381095Y-116269399D01*
X183399624Y-116246821D01*
X183588288Y-116058157D01*
X183655083Y-116019593D01*
X183732211Y-116019593D01*
X183799006Y-116058157D01*
G37*
%TD.AperFunction*%
%TA.AperFunction,Conductor*%
G36*
X183730596Y-113381093D02*
G01*
X183753177Y-113399624D01*
X183941842Y-113588289D01*
X183980406Y-113655084D01*
X183980406Y-113732212D01*
X183941842Y-113799007D01*
X183933252Y-113806947D01*
X183865135Y-113865125D01*
X183865125Y-113865135D01*
X183806947Y-113933252D01*
X183743383Y-113976937D01*
X183666493Y-113982988D01*
X183596879Y-113949782D01*
X183588289Y-113941842D01*
X183399624Y-113753177D01*
X183361060Y-113686382D01*
X183361060Y-113609254D01*
X183399624Y-113542459D01*
X183422199Y-113523932D01*
X183483184Y-113483184D01*
X183523931Y-113422202D01*
X183581915Y-113371350D01*
X183657561Y-113356302D01*
X183730596Y-113381093D01*
G37*
%TD.AperFunction*%
%TA.AperFunction,Conductor*%
G36*
X186457539Y-113399624D02*
G01*
X186476068Y-113422202D01*
X186516814Y-113483182D01*
X186516816Y-113483184D01*
X186577795Y-113523929D01*
X186628649Y-113581917D01*
X186643696Y-113657563D01*
X186618904Y-113730598D01*
X186600374Y-113753177D01*
X186411709Y-113941842D01*
X186344914Y-113980406D01*
X186267786Y-113980406D01*
X186200991Y-113941842D01*
X186193070Y-113933274D01*
X186134870Y-113865130D01*
X186134867Y-113865127D01*
X186134865Y-113865125D01*
X186066748Y-113806947D01*
X186023062Y-113743383D01*
X186017011Y-113666493D01*
X186050216Y-113596879D01*
X186058157Y-113588288D01*
X186246821Y-113399624D01*
X186313616Y-113361060D01*
X186390744Y-113361060D01*
X186457539Y-113399624D01*
G37*
%TD.AperFunction*%
%TA.AperFunction,Conductor*%
G36*
X106403118Y-66050215D02*
G01*
X106411710Y-66058157D01*
X106600375Y-66246822D01*
X106638939Y-66313617D01*
X106638939Y-66390745D01*
X106600375Y-66457540D01*
X106577796Y-66476070D01*
X106516816Y-66516815D01*
X106516815Y-66516816D01*
X106476070Y-66577796D01*
X106418082Y-66628650D01*
X106342435Y-66643697D01*
X106269401Y-66618905D01*
X106246822Y-66600375D01*
X106058157Y-66411710D01*
X106019593Y-66344915D01*
X106019593Y-66267787D01*
X106058157Y-66200992D01*
X106066740Y-66193057D01*
X106134870Y-66134870D01*
X106193051Y-66066748D01*
X106256612Y-66023063D01*
X106333503Y-66017011D01*
X106403118Y-66050215D01*
G37*
%TD.AperFunction*%
%TA.AperFunction,Conductor*%
G36*
X103799006Y-66058157D02*
G01*
X103806947Y-66066748D01*
X103865125Y-66134865D01*
X103865127Y-66134867D01*
X103865130Y-66134870D01*
X103933252Y-66193052D01*
X103976936Y-66256611D01*
X103982988Y-66333502D01*
X103949785Y-66403117D01*
X103941842Y-66411709D01*
X103753177Y-66600374D01*
X103686382Y-66638938D01*
X103609254Y-66638938D01*
X103542459Y-66600374D01*
X103523929Y-66577795D01*
X103483184Y-66516816D01*
X103483182Y-66516814D01*
X103422202Y-66476068D01*
X103371349Y-66418080D01*
X103356302Y-66342434D01*
X103381095Y-66269399D01*
X103399624Y-66246821D01*
X103588288Y-66058157D01*
X103655083Y-66019593D01*
X103732211Y-66019593D01*
X103799006Y-66058157D01*
G37*
%TD.AperFunction*%
%TA.AperFunction,Conductor*%
G36*
X103730596Y-63381093D02*
G01*
X103753177Y-63399624D01*
X103941842Y-63588289D01*
X103980406Y-63655084D01*
X103980406Y-63732212D01*
X103941842Y-63799007D01*
X103933252Y-63806947D01*
X103865135Y-63865125D01*
X103865125Y-63865135D01*
X103806947Y-63933252D01*
X103743383Y-63976937D01*
X103666493Y-63982988D01*
X103596879Y-63949782D01*
X103588289Y-63941842D01*
X103399624Y-63753177D01*
X103361060Y-63686382D01*
X103361060Y-63609254D01*
X103399624Y-63542459D01*
X103422199Y-63523932D01*
X103483184Y-63483184D01*
X103523931Y-63422202D01*
X103581915Y-63371350D01*
X103657561Y-63356302D01*
X103730596Y-63381093D01*
G37*
%TD.AperFunction*%
%TA.AperFunction,Conductor*%
G36*
X106457539Y-63399624D02*
G01*
X106476068Y-63422202D01*
X106516814Y-63483182D01*
X106516816Y-63483184D01*
X106577795Y-63523929D01*
X106628649Y-63581917D01*
X106643696Y-63657563D01*
X106618904Y-63730598D01*
X106600374Y-63753177D01*
X106411709Y-63941842D01*
X106344914Y-63980406D01*
X106267786Y-63980406D01*
X106200991Y-63941842D01*
X106193070Y-63933274D01*
X106134870Y-63865130D01*
X106134867Y-63865127D01*
X106134865Y-63865125D01*
X106066748Y-63806947D01*
X106023062Y-63743383D01*
X106017011Y-63666493D01*
X106050216Y-63596879D01*
X106058157Y-63588288D01*
X106246821Y-63399624D01*
X106313616Y-63361060D01*
X106390744Y-63361060D01*
X106457539Y-63399624D01*
G37*
%TD.AperFunction*%
%TA.AperFunction,Conductor*%
G36*
X186403118Y-66050215D02*
G01*
X186411710Y-66058157D01*
X186600375Y-66246822D01*
X186638939Y-66313617D01*
X186638939Y-66390745D01*
X186600375Y-66457540D01*
X186577796Y-66476070D01*
X186516816Y-66516815D01*
X186516815Y-66516816D01*
X186476070Y-66577796D01*
X186418082Y-66628650D01*
X186342435Y-66643697D01*
X186269401Y-66618905D01*
X186246822Y-66600375D01*
X186058157Y-66411710D01*
X186019593Y-66344915D01*
X186019593Y-66267787D01*
X186058157Y-66200992D01*
X186066740Y-66193057D01*
X186134870Y-66134870D01*
X186193051Y-66066748D01*
X186256612Y-66023063D01*
X186333503Y-66017011D01*
X186403118Y-66050215D01*
G37*
%TD.AperFunction*%
%TA.AperFunction,Conductor*%
G36*
X183799006Y-66058157D02*
G01*
X183806947Y-66066748D01*
X183865125Y-66134865D01*
X183865127Y-66134867D01*
X183865130Y-66134870D01*
X183933252Y-66193052D01*
X183976936Y-66256611D01*
X183982988Y-66333502D01*
X183949785Y-66403117D01*
X183941842Y-66411709D01*
X183753177Y-66600374D01*
X183686382Y-66638938D01*
X183609254Y-66638938D01*
X183542459Y-66600374D01*
X183523929Y-66577795D01*
X183483184Y-66516816D01*
X183483182Y-66516814D01*
X183422202Y-66476068D01*
X183371349Y-66418080D01*
X183356302Y-66342434D01*
X183381095Y-66269399D01*
X183399624Y-66246821D01*
X183588288Y-66058157D01*
X183655083Y-66019593D01*
X183732211Y-66019593D01*
X183799006Y-66058157D01*
G37*
%TD.AperFunction*%
%TA.AperFunction,Conductor*%
G36*
X183730596Y-63381093D02*
G01*
X183753177Y-63399624D01*
X183941842Y-63588289D01*
X183980406Y-63655084D01*
X183980406Y-63732212D01*
X183941842Y-63799007D01*
X183933252Y-63806947D01*
X183865135Y-63865125D01*
X183865125Y-63865135D01*
X183806947Y-63933252D01*
X183743383Y-63976937D01*
X183666493Y-63982988D01*
X183596879Y-63949782D01*
X183588289Y-63941842D01*
X183399624Y-63753177D01*
X183361060Y-63686382D01*
X183361060Y-63609254D01*
X183399624Y-63542459D01*
X183422199Y-63523932D01*
X183483184Y-63483184D01*
X183523931Y-63422202D01*
X183581915Y-63371350D01*
X183657561Y-63356302D01*
X183730596Y-63381093D01*
G37*
%TD.AperFunction*%
%TA.AperFunction,Conductor*%
G36*
X186457539Y-63399624D02*
G01*
X186476068Y-63422202D01*
X186516814Y-63483182D01*
X186516816Y-63483184D01*
X186577795Y-63523929D01*
X186628649Y-63581917D01*
X186643696Y-63657563D01*
X186618904Y-63730598D01*
X186600374Y-63753177D01*
X186411709Y-63941842D01*
X186344914Y-63980406D01*
X186267786Y-63980406D01*
X186200991Y-63941842D01*
X186193070Y-63933274D01*
X186134870Y-63865130D01*
X186134867Y-63865127D01*
X186134865Y-63865125D01*
X186066748Y-63806947D01*
X186023062Y-63743383D01*
X186017011Y-63666493D01*
X186050216Y-63596879D01*
X186058157Y-63588288D01*
X186246821Y-63399624D01*
X186313616Y-63361060D01*
X186390744Y-63361060D01*
X186457539Y-63399624D01*
G37*
%TD.AperFunction*%
%TA.AperFunction,Conductor*%
G36*
X185415056Y-60218622D02*
G01*
X185421510Y-60219186D01*
X185830211Y-60272992D01*
X185836587Y-60274116D01*
X186239033Y-60363336D01*
X186245297Y-60365014D01*
X186441864Y-60426992D01*
X186638423Y-60488967D01*
X186644533Y-60491191D01*
X186735018Y-60528671D01*
X187025357Y-60648934D01*
X187031235Y-60651674D01*
X187214053Y-60746843D01*
X187396864Y-60842009D01*
X187402489Y-60845256D01*
X187576315Y-60955995D01*
X187750134Y-61066731D01*
X187755460Y-61070460D01*
X188082497Y-61321404D01*
X188087445Y-61325556D01*
X188251916Y-61476266D01*
X188391359Y-61604042D01*
X188395957Y-61608640D01*
X188674441Y-61912552D01*
X188678597Y-61917505D01*
X188846227Y-62135964D01*
X188929539Y-62244539D01*
X188933268Y-62249865D01*
X189154739Y-62597503D01*
X189157990Y-62603135D01*
X189348321Y-62968757D01*
X189351069Y-62974650D01*
X189508808Y-63355466D01*
X189511032Y-63361576D01*
X189634982Y-63754694D01*
X189636665Y-63760975D01*
X189725881Y-64163402D01*
X189727010Y-64169805D01*
X189780811Y-64578467D01*
X189781377Y-64584944D01*
X189799500Y-64999999D01*
X189799500Y-115000000D01*
X189781377Y-115415055D01*
X189780811Y-115421532D01*
X189727010Y-115830194D01*
X189725881Y-115836597D01*
X189636665Y-116239024D01*
X189634982Y-116245305D01*
X189511032Y-116638423D01*
X189508808Y-116644533D01*
X189351069Y-117025349D01*
X189348321Y-117031242D01*
X189157990Y-117396864D01*
X189154739Y-117402496D01*
X188933268Y-117750134D01*
X188929539Y-117755460D01*
X188678610Y-118082479D01*
X188674430Y-118087460D01*
X188395957Y-118391359D01*
X188391359Y-118395957D01*
X188087460Y-118674430D01*
X188082483Y-118678606D01*
X188047986Y-118705077D01*
X187755460Y-118929539D01*
X187750134Y-118933268D01*
X187402496Y-119154739D01*
X187396864Y-119157990D01*
X187031242Y-119348321D01*
X187025349Y-119351069D01*
X186644533Y-119508808D01*
X186638423Y-119511032D01*
X186245305Y-119634982D01*
X186239024Y-119636665D01*
X185836597Y-119725881D01*
X185830194Y-119727010D01*
X185421532Y-119780811D01*
X185415055Y-119781377D01*
X185000000Y-119799500D01*
X105000000Y-119799500D01*
X104584944Y-119781377D01*
X104578469Y-119780811D01*
X104374135Y-119753910D01*
X104169805Y-119727010D01*
X104163402Y-119725881D01*
X103760975Y-119636665D01*
X103754694Y-119634982D01*
X103361576Y-119511032D01*
X103355466Y-119508808D01*
X102974650Y-119351069D01*
X102968757Y-119348321D01*
X102603135Y-119157990D01*
X102597503Y-119154739D01*
X102249865Y-118933268D01*
X102244539Y-118929539D01*
X102135964Y-118846227D01*
X101917505Y-118678597D01*
X101912552Y-118674441D01*
X101608640Y-118395957D01*
X101604042Y-118391359D01*
X101563007Y-118346577D01*
X101325556Y-118087445D01*
X101321404Y-118082497D01*
X101117083Y-117816221D01*
X101070460Y-117755460D01*
X101066731Y-117750134D01*
X100878881Y-117455270D01*
X100845256Y-117402489D01*
X100842009Y-117396864D01*
X100727964Y-117177785D01*
X100651674Y-117031235D01*
X100648930Y-117025349D01*
X100639824Y-117003366D01*
X100535048Y-116750414D01*
X100491191Y-116644533D01*
X100488967Y-116638423D01*
X100419493Y-116418080D01*
X100365014Y-116245297D01*
X100363334Y-116239024D01*
X100353141Y-116193048D01*
X100274116Y-115836587D01*
X100272992Y-115830211D01*
X100219186Y-115421510D01*
X100218622Y-115415054D01*
X100211415Y-115250000D01*
X100200500Y-115000000D01*
X100200500Y-114999999D01*
X101294922Y-114999999D01*
X101315218Y-115387280D01*
X101375888Y-115770335D01*
X101375889Y-115770338D01*
X101476259Y-116144927D01*
X101476266Y-116144947D01*
X101615237Y-116506977D01*
X101615248Y-116507001D01*
X101791300Y-116852525D01*
X101791311Y-116852545D01*
X102002528Y-117177789D01*
X102211095Y-117435349D01*
X102852709Y-116793736D01*
X102919504Y-116755172D01*
X102996632Y-116755172D01*
X103063427Y-116793736D01*
X103081956Y-116816314D01*
X103122702Y-116877294D01*
X103122704Y-116877296D01*
X103183683Y-116918041D01*
X103234537Y-116976029D01*
X103249584Y-117051675D01*
X103224792Y-117124710D01*
X103206262Y-117147289D01*
X102564648Y-117788902D01*
X102564649Y-117788903D01*
X102822213Y-117997473D01*
X102822215Y-117997475D01*
X103147454Y-118208688D01*
X103147474Y-118208699D01*
X103492998Y-118384751D01*
X103493022Y-118384762D01*
X103855052Y-118523733D01*
X103855072Y-118523740D01*
X104229661Y-118624110D01*
X104229664Y-118624111D01*
X104612719Y-118684781D01*
X104999999Y-118705077D01*
X105387280Y-118684781D01*
X105770335Y-118624111D01*
X105770338Y-118624110D01*
X106144927Y-118523740D01*
X106144947Y-118523733D01*
X106506977Y-118384762D01*
X106507001Y-118384751D01*
X106852525Y-118208699D01*
X106852545Y-118208688D01*
X107177785Y-117997474D01*
X107435350Y-117788902D01*
X106793736Y-117147289D01*
X106755172Y-117080494D01*
X106755172Y-117003366D01*
X106793736Y-116936571D01*
X106816311Y-116918044D01*
X106877296Y-116877296D01*
X106918043Y-116816314D01*
X106976027Y-116765462D01*
X107051673Y-116750414D01*
X107124708Y-116775205D01*
X107147289Y-116793736D01*
X107788902Y-117435349D01*
X107997474Y-117177785D01*
X108208688Y-116852545D01*
X108208699Y-116852525D01*
X108384751Y-116507001D01*
X108384762Y-116506977D01*
X108523733Y-116144947D01*
X108523740Y-116144927D01*
X108624110Y-115770338D01*
X108624111Y-115770335D01*
X108684781Y-115387280D01*
X108705077Y-114999999D01*
X108684781Y-114612719D01*
X108635251Y-114300000D01*
X134194532Y-114300000D01*
X134214365Y-114526693D01*
X134237416Y-114612719D01*
X134273261Y-114746496D01*
X134369432Y-114952734D01*
X134369435Y-114952738D01*
X134369437Y-114952741D01*
X134499951Y-115139137D01*
X134499953Y-115139139D01*
X134660861Y-115300047D01*
X134847266Y-115430568D01*
X135053504Y-115526739D01*
X135273308Y-115585635D01*
X135500000Y-115605468D01*
X135726692Y-115585635D01*
X135946496Y-115526739D01*
X136152734Y-115430568D01*
X136339139Y-115300047D01*
X136500047Y-115139139D01*
X136630568Y-114952734D01*
X136726739Y-114746496D01*
X136785635Y-114526692D01*
X136805468Y-114300000D01*
X138694532Y-114300000D01*
X138714365Y-114526693D01*
X138737416Y-114612719D01*
X138773261Y-114746496D01*
X138869432Y-114952734D01*
X138869435Y-114952738D01*
X138869437Y-114952741D01*
X138999951Y-115139137D01*
X138999952Y-115139138D01*
X138999953Y-115139139D01*
X139160861Y-115300047D01*
X139347266Y-115430568D01*
X139553504Y-115526739D01*
X139773308Y-115585635D01*
X140000000Y-115605468D01*
X140226692Y-115585635D01*
X140446496Y-115526739D01*
X140652734Y-115430568D01*
X140839139Y-115300047D01*
X141000047Y-115139139D01*
X141130568Y-114952734D01*
X141226739Y-114746496D01*
X141285635Y-114526692D01*
X141305468Y-114300000D01*
X141285635Y-114073308D01*
X141226739Y-113853504D01*
X141130568Y-113647266D01*
X141022566Y-113493022D01*
X141000048Y-113460862D01*
X140839137Y-113299951D01*
X140652741Y-113169437D01*
X140652734Y-113169432D01*
X140652732Y-113169431D01*
X140536528Y-113115243D01*
X140477445Y-113065665D01*
X140451067Y-112993188D01*
X140450500Y-112980204D01*
X140450500Y-109119794D01*
X140470462Y-109045294D01*
X140525000Y-108990756D01*
X140536531Y-108984754D01*
X140652734Y-108930568D01*
X140839139Y-108800047D01*
X141000047Y-108639139D01*
X141130568Y-108452734D01*
X141184756Y-108336527D01*
X141234333Y-108277446D01*
X141306810Y-108251067D01*
X141319795Y-108250500D01*
X141850500Y-108250500D01*
X141925000Y-108270462D01*
X141979538Y-108325000D01*
X141999500Y-108399500D01*
X141999500Y-111670513D01*
X141999031Y-111678861D01*
X141994730Y-111717031D01*
X141994730Y-111717039D01*
X142005788Y-111775479D01*
X142014653Y-111834291D01*
X142017169Y-111842448D01*
X142019977Y-111850474D01*
X142047777Y-111903072D01*
X142073572Y-111956638D01*
X142078384Y-111963696D01*
X142083435Y-111970539D01*
X142125495Y-112012600D01*
X142165945Y-112056194D01*
X142174675Y-112063156D01*
X142173907Y-112064118D01*
X142187257Y-112074361D01*
X147410596Y-117297699D01*
X147416167Y-117303933D01*
X147440120Y-117333970D01*
X147440123Y-117333972D01*
X147489270Y-117367480D01*
X147513194Y-117385136D01*
X147537118Y-117402793D01*
X147537120Y-117402794D01*
X147544678Y-117406789D01*
X147552323Y-117410470D01*
X147552324Y-117410470D01*
X147552327Y-117410472D01*
X147609177Y-117428007D01*
X147665301Y-117447646D01*
X147665305Y-117447646D01*
X147673685Y-117449232D01*
X147682096Y-117450500D01*
X147682098Y-117450500D01*
X147741573Y-117450500D01*
X147743389Y-117450567D01*
X147801010Y-117452724D01*
X147801013Y-117452722D01*
X147801015Y-117452723D01*
X147812109Y-117451474D01*
X147812246Y-117452697D01*
X147828927Y-117450500D01*
X164220514Y-117450500D01*
X164228861Y-117450968D01*
X164267035Y-117455270D01*
X164267040Y-117455269D01*
X164325479Y-117444212D01*
X164354882Y-117439779D01*
X164384287Y-117435348D01*
X164384292Y-117435345D01*
X164392461Y-117432825D01*
X164400466Y-117430025D01*
X164400468Y-117430023D01*
X164400472Y-117430023D01*
X164453072Y-117402222D01*
X164506642Y-117376425D01*
X164506645Y-117376421D01*
X164513695Y-117371616D01*
X164520536Y-117366567D01*
X164520535Y-117366567D01*
X164520538Y-117366566D01*
X164562599Y-117324504D01*
X164606194Y-117284055D01*
X164606196Y-117284050D01*
X164613157Y-117275324D01*
X164614142Y-117276109D01*
X164624361Y-117262741D01*
X166887102Y-114999999D01*
X181294922Y-114999999D01*
X181315218Y-115387280D01*
X181375888Y-115770335D01*
X181375889Y-115770338D01*
X181476259Y-116144927D01*
X181476266Y-116144947D01*
X181615237Y-116506977D01*
X181615248Y-116507001D01*
X181791300Y-116852525D01*
X181791311Y-116852545D01*
X182002528Y-117177789D01*
X182211095Y-117435349D01*
X182852709Y-116793736D01*
X182919504Y-116755172D01*
X182996632Y-116755172D01*
X183063427Y-116793736D01*
X183081956Y-116816314D01*
X183122702Y-116877294D01*
X183122704Y-116877296D01*
X183183683Y-116918041D01*
X183234537Y-116976029D01*
X183249584Y-117051675D01*
X183224792Y-117124710D01*
X183206262Y-117147289D01*
X182564648Y-117788902D01*
X182564649Y-117788903D01*
X182822213Y-117997473D01*
X182822215Y-117997475D01*
X183147454Y-118208688D01*
X183147474Y-118208699D01*
X183492998Y-118384751D01*
X183493022Y-118384762D01*
X183855052Y-118523733D01*
X183855072Y-118523740D01*
X184229661Y-118624110D01*
X184229664Y-118624111D01*
X184612719Y-118684781D01*
X185000000Y-118705077D01*
X185387280Y-118684781D01*
X185770335Y-118624111D01*
X185770338Y-118624110D01*
X186144927Y-118523740D01*
X186144947Y-118523733D01*
X186506977Y-118384762D01*
X186507001Y-118384751D01*
X186852525Y-118208699D01*
X186852545Y-118208688D01*
X187177785Y-117997474D01*
X187435350Y-117788902D01*
X186793736Y-117147289D01*
X186755172Y-117080494D01*
X186755172Y-117003366D01*
X186793736Y-116936571D01*
X186816311Y-116918044D01*
X186877296Y-116877296D01*
X186918043Y-116816314D01*
X186976027Y-116765462D01*
X187051673Y-116750414D01*
X187124708Y-116775205D01*
X187147289Y-116793736D01*
X187788902Y-117435349D01*
X187997474Y-117177785D01*
X188208688Y-116852545D01*
X188208699Y-116852525D01*
X188384751Y-116507001D01*
X188384762Y-116506977D01*
X188523733Y-116144947D01*
X188523740Y-116144927D01*
X188624110Y-115770338D01*
X188624111Y-115770335D01*
X188684781Y-115387280D01*
X188705077Y-114999999D01*
X188684781Y-114612719D01*
X188624111Y-114229664D01*
X188624110Y-114229661D01*
X188523740Y-113855072D01*
X188523733Y-113855052D01*
X188384762Y-113493022D01*
X188384751Y-113492998D01*
X188208699Y-113147474D01*
X188208688Y-113147454D01*
X187997475Y-112822215D01*
X187997473Y-112822213D01*
X187788903Y-112564649D01*
X187788902Y-112564648D01*
X187147289Y-113206262D01*
X187080494Y-113244826D01*
X187003366Y-113244826D01*
X186936571Y-113206262D01*
X186918041Y-113183683D01*
X186877296Y-113122704D01*
X186877294Y-113122702D01*
X186816314Y-113081956D01*
X186765461Y-113023968D01*
X186750414Y-112948322D01*
X186775207Y-112875287D01*
X186793736Y-112852709D01*
X187435349Y-112211095D01*
X187177789Y-112002528D01*
X186852545Y-111791311D01*
X186852525Y-111791300D01*
X186507001Y-111615248D01*
X186506977Y-111615237D01*
X186144947Y-111476266D01*
X186144927Y-111476259D01*
X185770338Y-111375889D01*
X185770335Y-111375888D01*
X185387280Y-111315218D01*
X185000000Y-111294922D01*
X184612719Y-111315218D01*
X184229664Y-111375888D01*
X184229661Y-111375889D01*
X183855072Y-111476259D01*
X183855052Y-111476266D01*
X183493022Y-111615237D01*
X183492998Y-111615248D01*
X183147474Y-111791300D01*
X183147454Y-111791311D01*
X182822210Y-112002528D01*
X182564649Y-112211095D01*
X182564648Y-112211095D01*
X183206263Y-112852710D01*
X183244827Y-112919505D01*
X183244827Y-112996633D01*
X183206263Y-113063428D01*
X183183684Y-113081958D01*
X183122704Y-113122703D01*
X183122703Y-113122704D01*
X183081958Y-113183684D01*
X183023970Y-113234538D01*
X182948323Y-113249585D01*
X182875289Y-113224793D01*
X182852710Y-113206263D01*
X182211095Y-112564648D01*
X182211095Y-112564649D01*
X182002528Y-112822210D01*
X181791311Y-113147454D01*
X181791300Y-113147474D01*
X181615248Y-113492998D01*
X181615237Y-113493022D01*
X181476266Y-113855052D01*
X181476259Y-113855072D01*
X181375889Y-114229661D01*
X181375888Y-114229664D01*
X181315218Y-114612719D01*
X181294922Y-114999999D01*
X166887102Y-114999999D01*
X167797711Y-114089390D01*
X167803926Y-114083836D01*
X167833970Y-114059879D01*
X167863134Y-114017102D01*
X167867481Y-114010727D01*
X167902795Y-113962879D01*
X167906774Y-113955350D01*
X167910468Y-113947677D01*
X167910472Y-113947673D01*
X167928007Y-113890822D01*
X167947646Y-113834699D01*
X167947646Y-113834697D01*
X167949227Y-113826339D01*
X167950500Y-113817899D01*
X167950500Y-113758427D01*
X167951063Y-113743383D01*
X167952724Y-113698990D01*
X167952722Y-113698985D01*
X167951474Y-113687897D01*
X167952682Y-113687760D01*
X167950500Y-113671076D01*
X167950500Y-107329500D01*
X167970462Y-107255000D01*
X168025000Y-107200462D01*
X168099500Y-107180500D01*
X168402877Y-107180500D01*
X168477377Y-107200462D01*
X168531915Y-107255000D01*
X168551877Y-107329500D01*
X168539182Y-107389683D01*
X168532415Y-107405007D01*
X168532415Y-107405008D01*
X168532415Y-107405009D01*
X168529500Y-107430135D01*
X168529500Y-107430136D01*
X168529500Y-107430140D01*
X168529500Y-108569866D01*
X168532414Y-108594989D01*
X168532415Y-108594992D01*
X168577793Y-108697764D01*
X168577794Y-108697765D01*
X168657235Y-108777206D01*
X168760009Y-108822585D01*
X168785135Y-108825500D01*
X170374864Y-108825499D01*
X170374866Y-108825499D01*
X170387427Y-108824042D01*
X170399991Y-108822585D01*
X170502765Y-108777206D01*
X170582206Y-108697765D01*
X170627585Y-108594991D01*
X170629053Y-108582329D01*
X170657466Y-108510629D01*
X170717925Y-108462738D01*
X170777061Y-108450500D01*
X175025514Y-108450500D01*
X175033861Y-108450968D01*
X175072035Y-108455270D01*
X175072040Y-108455269D01*
X175130479Y-108444212D01*
X175159882Y-108439779D01*
X175189287Y-108435348D01*
X175189292Y-108435345D01*
X175197461Y-108432825D01*
X175205466Y-108430025D01*
X175205468Y-108430023D01*
X175205472Y-108430023D01*
X175258072Y-108402222D01*
X175311642Y-108376425D01*
X175311645Y-108376421D01*
X175318695Y-108371616D01*
X175325536Y-108366567D01*
X175325535Y-108366567D01*
X175325538Y-108366566D01*
X175367599Y-108324504D01*
X175411194Y-108284055D01*
X175411196Y-108284050D01*
X175418157Y-108275324D01*
X175419142Y-108276109D01*
X175429364Y-108262738D01*
X175447966Y-108244137D01*
X175514762Y-108205575D01*
X175553322Y-108200499D01*
X176999867Y-108200499D01*
X177014940Y-108198750D01*
X177024991Y-108197585D01*
X177127765Y-108152206D01*
X177207206Y-108072765D01*
X177252585Y-107969991D01*
X177255500Y-107944865D01*
X177255499Y-107636710D01*
X177275461Y-107562214D01*
X177329999Y-107507676D01*
X177404499Y-107487714D01*
X177478999Y-107507676D01*
X177533537Y-107562214D01*
X177537878Y-107570298D01*
X177569940Y-107634687D01*
X177641540Y-107729500D01*
X177704019Y-107812236D01*
X177868438Y-107962124D01*
X178057599Y-108079247D01*
X178057601Y-108079247D01*
X178057603Y-108079249D01*
X178057605Y-108079250D01*
X178245927Y-108152206D01*
X178265060Y-108159618D01*
X178483757Y-108200500D01*
X178483759Y-108200500D01*
X178706241Y-108200500D01*
X178706243Y-108200500D01*
X178924940Y-108159618D01*
X179051449Y-108110607D01*
X179132394Y-108079250D01*
X179132396Y-108079249D01*
X179132396Y-108079248D01*
X179132401Y-108079247D01*
X179321562Y-107962124D01*
X179485981Y-107812236D01*
X179620058Y-107634689D01*
X179620060Y-107634685D01*
X179670652Y-107533085D01*
X179721729Y-107475293D01*
X179794859Y-107450783D01*
X179804031Y-107450500D01*
X181251678Y-107450500D01*
X181326178Y-107470462D01*
X181357037Y-107494141D01*
X182990596Y-109127699D01*
X182996167Y-109133933D01*
X183020120Y-109163970D01*
X183020123Y-109163972D01*
X183069270Y-109197480D01*
X183093194Y-109215136D01*
X183117118Y-109232793D01*
X183117120Y-109232794D01*
X183124678Y-109236789D01*
X183132323Y-109240470D01*
X183132324Y-109240470D01*
X183132327Y-109240472D01*
X183189177Y-109258007D01*
X183245301Y-109277646D01*
X183245305Y-109277646D01*
X183253660Y-109279227D01*
X183262095Y-109280499D01*
X183262098Y-109280500D01*
X183262101Y-109280500D01*
X183321559Y-109280500D01*
X183381010Y-109282725D01*
X183381014Y-109282724D01*
X183392108Y-109281475D01*
X183392245Y-109282693D01*
X183408930Y-109280500D01*
X184902680Y-109280500D01*
X184977180Y-109300462D01*
X185031718Y-109355000D01*
X185036059Y-109363085D01*
X185060325Y-109411819D01*
X185140023Y-109517355D01*
X185183236Y-109574579D01*
X185333958Y-109711980D01*
X185333963Y-109711984D01*
X185507356Y-109819344D01*
X185507367Y-109819350D01*
X185623332Y-109864274D01*
X185697544Y-109893024D01*
X185898024Y-109930500D01*
X185898027Y-109930500D01*
X186101973Y-109930500D01*
X186101976Y-109930500D01*
X186302456Y-109893024D01*
X186492637Y-109819348D01*
X186666041Y-109711981D01*
X186816764Y-109574579D01*
X186939673Y-109411821D01*
X187030582Y-109229250D01*
X187086397Y-109033083D01*
X187105215Y-108830000D01*
X187086397Y-108626917D01*
X187030582Y-108430750D01*
X186939673Y-108248179D01*
X186816764Y-108085421D01*
X186666041Y-107948019D01*
X186666036Y-107948015D01*
X186492643Y-107840655D01*
X186492632Y-107840649D01*
X186302462Y-107766978D01*
X186302458Y-107766977D01*
X186302456Y-107766976D01*
X186262360Y-107759480D01*
X186101980Y-107729500D01*
X186101976Y-107729500D01*
X185898024Y-107729500D01*
X185898019Y-107729500D01*
X185697544Y-107766976D01*
X185697537Y-107766978D01*
X185507367Y-107840649D01*
X185507356Y-107840655D01*
X185333963Y-107948015D01*
X185333958Y-107948019D01*
X185244594Y-108029486D01*
X185190007Y-108079249D01*
X185183234Y-108085423D01*
X185060325Y-108248180D01*
X185036059Y-108296915D01*
X184984982Y-108354707D01*
X184911852Y-108379217D01*
X184902680Y-108379500D01*
X183578322Y-108379500D01*
X183503822Y-108359538D01*
X183472963Y-108335859D01*
X181839402Y-106702299D01*
X181833830Y-106696064D01*
X181809879Y-106666030D01*
X181760727Y-106632518D01*
X181712882Y-106597207D01*
X181705324Y-106593212D01*
X181697672Y-106589527D01*
X181658356Y-106577400D01*
X181640822Y-106571992D01*
X181629597Y-106568064D01*
X181584703Y-106552354D01*
X181576330Y-106550770D01*
X181567902Y-106549500D01*
X181567901Y-106549500D01*
X181508427Y-106549500D01*
X181499935Y-106549182D01*
X181448990Y-106547276D01*
X181448989Y-106547276D01*
X181448984Y-106547276D01*
X181437891Y-106548526D01*
X181437753Y-106547302D01*
X181421073Y-106549500D01*
X179804031Y-106549500D01*
X179729531Y-106529538D01*
X179674993Y-106475000D01*
X179670652Y-106466915D01*
X179620060Y-106365314D01*
X179555256Y-106279500D01*
X179485981Y-106187764D01*
X179321562Y-106037876D01*
X179132401Y-105920753D01*
X179132400Y-105920752D01*
X179132396Y-105920750D01*
X179132394Y-105920749D01*
X178924944Y-105840383D01*
X178924941Y-105840382D01*
X178924940Y-105840382D01*
X178863662Y-105828927D01*
X178706247Y-105799500D01*
X178706243Y-105799500D01*
X178483757Y-105799500D01*
X178483752Y-105799500D01*
X178265055Y-105840383D01*
X178057605Y-105920749D01*
X178057603Y-105920750D01*
X177868436Y-106037877D01*
X177704019Y-106187763D01*
X177569940Y-106365312D01*
X177537878Y-106429702D01*
X177486800Y-106487493D01*
X177413670Y-106512003D01*
X177338083Y-106496665D01*
X177280292Y-106445587D01*
X177255782Y-106372457D01*
X177255499Y-106363286D01*
X177255499Y-106055133D01*
X177252585Y-106030010D01*
X177252584Y-106030008D01*
X177207206Y-105927235D01*
X177127765Y-105847794D01*
X177127764Y-105847793D01*
X177024994Y-105802416D01*
X177024991Y-105802415D01*
X177024982Y-105802414D01*
X176999865Y-105799500D01*
X176999859Y-105799500D01*
X175110133Y-105799500D01*
X175085010Y-105802414D01*
X175085007Y-105802415D01*
X174982235Y-105847793D01*
X174902793Y-105927235D01*
X174857416Y-106030005D01*
X174857415Y-106030008D01*
X174857415Y-106030009D01*
X174854500Y-106055135D01*
X174854500Y-106801015D01*
X174854501Y-107400500D01*
X174834539Y-107475000D01*
X174780001Y-107529538D01*
X174705501Y-107549500D01*
X170777061Y-107549500D01*
X170702561Y-107529538D01*
X170648023Y-107475000D01*
X170629053Y-107417665D01*
X170627585Y-107405009D01*
X170627584Y-107405007D01*
X170582206Y-107302235D01*
X170568094Y-107288123D01*
X170529530Y-107221328D01*
X170529530Y-107144200D01*
X170536394Y-107126752D01*
X170535650Y-107126456D01*
X170579055Y-107017517D01*
X170605101Y-106952147D01*
X170634150Y-106774955D01*
X170624429Y-106595661D01*
X170576393Y-106422649D01*
X170528939Y-106333142D01*
X170492288Y-106264011D01*
X170492286Y-106264009D01*
X170492286Y-106264008D01*
X170433855Y-106195218D01*
X170400841Y-106125514D01*
X170407101Y-106048641D01*
X170433864Y-106002290D01*
X170437869Y-105997574D01*
X170437875Y-105997569D01*
X170538640Y-105848951D01*
X170605101Y-105682147D01*
X170634150Y-105504955D01*
X170624429Y-105325661D01*
X170576393Y-105152649D01*
X170492286Y-104994008D01*
X170431484Y-104922426D01*
X170376046Y-104857159D01*
X170376045Y-104857158D01*
X170376044Y-104857157D01*
X170281177Y-104785041D01*
X170233101Y-104748494D01*
X170233100Y-104748493D01*
X170070138Y-104673099D01*
X169894779Y-104634500D01*
X169849500Y-104634500D01*
X169775000Y-104614538D01*
X169720462Y-104560000D01*
X169700500Y-104485500D01*
X169700500Y-102098430D01*
X169720462Y-102023930D01*
X169771059Y-101971749D01*
X169916041Y-101881981D01*
X170066764Y-101744579D01*
X170189673Y-101581821D01*
X170280582Y-101399250D01*
X170336397Y-101203083D01*
X170355215Y-101000000D01*
X178105034Y-101000000D01*
X178124859Y-101226606D01*
X178183732Y-101446323D01*
X178183733Y-101446325D01*
X178279862Y-101652477D01*
X178279865Y-101652482D01*
X178330973Y-101725471D01*
X178848248Y-101208197D01*
X178915043Y-101169633D01*
X178992171Y-101169633D01*
X179058966Y-101208197D01*
X179074351Y-101229370D01*
X179075468Y-101228560D01*
X179082359Y-101238045D01*
X179171954Y-101327640D01*
X179181440Y-101334532D01*
X179179363Y-101337390D01*
X179221390Y-101375218D01*
X179245236Y-101448567D01*
X179229214Y-101524012D01*
X179201801Y-101561750D01*
X178684527Y-102079025D01*
X178757517Y-102130134D01*
X178757522Y-102130137D01*
X178963674Y-102226266D01*
X178963676Y-102226267D01*
X179183394Y-102285140D01*
X179183393Y-102285140D01*
X179409999Y-102304965D01*
X179636606Y-102285140D01*
X179856323Y-102226267D01*
X179856325Y-102226266D01*
X180062483Y-102130133D01*
X180062492Y-102130127D01*
X180135472Y-102079026D01*
X179618197Y-101561751D01*
X179579633Y-101494956D01*
X179579633Y-101417828D01*
X179618197Y-101351033D01*
X179639373Y-101335651D01*
X179638560Y-101334532D01*
X179648040Y-101327643D01*
X179648045Y-101327641D01*
X179737641Y-101238045D01*
X179737643Y-101238040D01*
X179744532Y-101228560D01*
X179747390Y-101230636D01*
X179785218Y-101188609D01*
X179858567Y-101164762D01*
X179934012Y-101180784D01*
X179971751Y-101208197D01*
X180489026Y-101725471D01*
X180540127Y-101652492D01*
X180540133Y-101652483D01*
X180636266Y-101446325D01*
X180636267Y-101446323D01*
X180695140Y-101226606D01*
X180714965Y-100999999D01*
X180695140Y-100773393D01*
X180636267Y-100553676D01*
X180636266Y-100553674D01*
X180540137Y-100347522D01*
X180540134Y-100347517D01*
X180489025Y-100274527D01*
X179971750Y-100791801D01*
X179904955Y-100830365D01*
X179827827Y-100830365D01*
X179761032Y-100791801D01*
X179745651Y-100770626D01*
X179744532Y-100771440D01*
X179737640Y-100761954D01*
X179648045Y-100672359D01*
X179638560Y-100665468D01*
X179640633Y-100662614D01*
X179598584Y-100624743D01*
X179574759Y-100551387D01*
X179590804Y-100475946D01*
X179618197Y-100438248D01*
X180135471Y-99920973D01*
X180135472Y-99920973D01*
X180062482Y-99869865D01*
X180062477Y-99869862D01*
X179856325Y-99773733D01*
X179856323Y-99773732D01*
X179636605Y-99714859D01*
X179636606Y-99714859D01*
X179410000Y-99695034D01*
X179183393Y-99714859D01*
X178963676Y-99773732D01*
X178963674Y-99773733D01*
X178757518Y-99869865D01*
X178757513Y-99869867D01*
X178684527Y-99920972D01*
X178684526Y-99920972D01*
X179201802Y-100438248D01*
X179240366Y-100505043D01*
X179240366Y-100582171D01*
X179201802Y-100648966D01*
X179180629Y-100664352D01*
X179181440Y-100665468D01*
X179171954Y-100672359D01*
X179082359Y-100761954D01*
X179075468Y-100771440D01*
X179072615Y-100769367D01*
X179034723Y-100811428D01*
X178961363Y-100835241D01*
X178885925Y-100819184D01*
X178848248Y-100791802D01*
X178330973Y-100274527D01*
X178330972Y-100274527D01*
X178279867Y-100347513D01*
X178279865Y-100347518D01*
X178183733Y-100553674D01*
X178183732Y-100553676D01*
X178124859Y-100773393D01*
X178105034Y-101000000D01*
X170355215Y-101000000D01*
X170336397Y-100796917D01*
X170280582Y-100600750D01*
X170189673Y-100418179D01*
X170066764Y-100255421D01*
X169916041Y-100118019D01*
X169916036Y-100118015D01*
X169742643Y-100010655D01*
X169742632Y-100010649D01*
X169552462Y-99936978D01*
X169552458Y-99936977D01*
X169552456Y-99936976D01*
X169512359Y-99929480D01*
X169351980Y-99899500D01*
X169351976Y-99899500D01*
X169148024Y-99899500D01*
X169148019Y-99899500D01*
X168947544Y-99936976D01*
X168947537Y-99936978D01*
X168757367Y-100010649D01*
X168757356Y-100010655D01*
X168583963Y-100118015D01*
X168583958Y-100118019D01*
X168433234Y-100255423D01*
X168310328Y-100418176D01*
X168300334Y-100438248D01*
X168232878Y-100573717D01*
X168181803Y-100631508D01*
X168108673Y-100656018D01*
X168033085Y-100640681D01*
X167975293Y-100589604D01*
X167950783Y-100516474D01*
X167950500Y-100507301D01*
X167950500Y-98670004D01*
X184894785Y-98670004D01*
X184913602Y-98873078D01*
X184913602Y-98873080D01*
X184913603Y-98873083D01*
X184937191Y-98955985D01*
X184969416Y-99069245D01*
X184969417Y-99069247D01*
X184969418Y-99069250D01*
X185007342Y-99145412D01*
X185060328Y-99251823D01*
X185131809Y-99346479D01*
X185183236Y-99414579D01*
X185300319Y-99521314D01*
X185333958Y-99551980D01*
X185333963Y-99551984D01*
X185507356Y-99659344D01*
X185507367Y-99659350D01*
X185612719Y-99700163D01*
X185697544Y-99733024D01*
X185898024Y-99770500D01*
X185898027Y-99770500D01*
X186101973Y-99770500D01*
X186101976Y-99770500D01*
X186302456Y-99733024D01*
X186492637Y-99659348D01*
X186666041Y-99551981D01*
X186816764Y-99414579D01*
X186939673Y-99251821D01*
X187030582Y-99069250D01*
X187086397Y-98873083D01*
X187101325Y-98711980D01*
X187105215Y-98670004D01*
X187105215Y-98669995D01*
X187089069Y-98495757D01*
X187086397Y-98466917D01*
X187030582Y-98270750D01*
X186939673Y-98088179D01*
X186923602Y-98066898D01*
X186835508Y-97950242D01*
X186816764Y-97925421D01*
X186666041Y-97788019D01*
X186666036Y-97788015D01*
X186521061Y-97698251D01*
X186468228Y-97642060D01*
X186450500Y-97571572D01*
X186450500Y-97098426D01*
X186470461Y-97023930D01*
X186521057Y-96971751D01*
X186666041Y-96881981D01*
X186816764Y-96744579D01*
X186939673Y-96581821D01*
X187030582Y-96399250D01*
X187086397Y-96203083D01*
X187099231Y-96064576D01*
X187105215Y-96000004D01*
X187105215Y-95999995D01*
X187086397Y-95796921D01*
X187086397Y-95796917D01*
X187030582Y-95600750D01*
X186939673Y-95418179D01*
X186816764Y-95255421D01*
X186666041Y-95118019D01*
X186666036Y-95118015D01*
X186492643Y-95010655D01*
X186492632Y-95010649D01*
X186302462Y-94936978D01*
X186302458Y-94936977D01*
X186302456Y-94936976D01*
X186249993Y-94927169D01*
X186101980Y-94899500D01*
X186101976Y-94899500D01*
X185898024Y-94899500D01*
X185898019Y-94899500D01*
X185697544Y-94936976D01*
X185697537Y-94936978D01*
X185507367Y-95010649D01*
X185507356Y-95010655D01*
X185333963Y-95118015D01*
X185333958Y-95118019D01*
X185183234Y-95255423D01*
X185060328Y-95418176D01*
X184969416Y-95600754D01*
X184913602Y-95796921D01*
X184894785Y-95999995D01*
X184894785Y-96000004D01*
X184913602Y-96203078D01*
X184969416Y-96399245D01*
X184969417Y-96399247D01*
X184969418Y-96399250D01*
X185029869Y-96520652D01*
X185060328Y-96581823D01*
X185095214Y-96628019D01*
X185183236Y-96744579D01*
X185333959Y-96881981D01*
X185478940Y-96971749D01*
X185531771Y-97027939D01*
X185549500Y-97098430D01*
X185549500Y-97571569D01*
X185529538Y-97646069D01*
X185478939Y-97698251D01*
X185333959Y-97788019D01*
X185333958Y-97788019D01*
X185183234Y-97925423D01*
X185060328Y-98088176D01*
X184969416Y-98270754D01*
X184913602Y-98466921D01*
X184894785Y-98669995D01*
X184894785Y-98670004D01*
X167950500Y-98670004D01*
X167950500Y-92849500D01*
X167970462Y-92775000D01*
X168025000Y-92720462D01*
X168099500Y-92700500D01*
X168572877Y-92700500D01*
X168647377Y-92720462D01*
X168701915Y-92775000D01*
X168721877Y-92849500D01*
X168709182Y-92909683D01*
X168702415Y-92925007D01*
X168702415Y-92925008D01*
X168702415Y-92925009D01*
X168699500Y-92950135D01*
X168699500Y-92950136D01*
X168699500Y-92950140D01*
X168699500Y-94089866D01*
X168702414Y-94114989D01*
X168702415Y-94114992D01*
X168747793Y-94217764D01*
X168747794Y-94217765D01*
X168827235Y-94297206D01*
X168930009Y-94342585D01*
X168955135Y-94345500D01*
X170544864Y-94345499D01*
X170544866Y-94345499D01*
X170557427Y-94344042D01*
X170569991Y-94342585D01*
X170672765Y-94297206D01*
X170752206Y-94217765D01*
X170797585Y-94114991D01*
X170799053Y-94102329D01*
X170827466Y-94030629D01*
X170887925Y-93982738D01*
X170947061Y-93970500D01*
X174705514Y-93970500D01*
X174713861Y-93970968D01*
X174752035Y-93975270D01*
X174752040Y-93975269D01*
X174810479Y-93964212D01*
X174839882Y-93959779D01*
X174869287Y-93955348D01*
X174869292Y-93955345D01*
X174877461Y-93952825D01*
X174885466Y-93950025D01*
X174885468Y-93950023D01*
X174885472Y-93950023D01*
X174938072Y-93922222D01*
X174991642Y-93896425D01*
X174991645Y-93896421D01*
X174998695Y-93891616D01*
X175005536Y-93886567D01*
X175005535Y-93886567D01*
X175005538Y-93886566D01*
X175047600Y-93844503D01*
X175091194Y-93804055D01*
X175098157Y-93795324D01*
X175099142Y-93796109D01*
X175109361Y-93782741D01*
X175697607Y-93194495D01*
X175764400Y-93155933D01*
X175841528Y-93155933D01*
X175856790Y-93160918D01*
X175905057Y-93179617D01*
X175905060Y-93179618D01*
X176123757Y-93220500D01*
X176123759Y-93220500D01*
X176346241Y-93220500D01*
X176346243Y-93220500D01*
X176564940Y-93179618D01*
X176703744Y-93125845D01*
X176772394Y-93099250D01*
X176772396Y-93099249D01*
X176772396Y-93099248D01*
X176772401Y-93099247D01*
X176961562Y-92982124D01*
X177125619Y-92832565D01*
X177194124Y-92797128D01*
X177271170Y-92800690D01*
X177336112Y-92842297D01*
X177371550Y-92910802D01*
X177375000Y-92942678D01*
X177375000Y-92967822D01*
X177375001Y-92967842D01*
X177381401Y-93027377D01*
X177431645Y-93162084D01*
X177431650Y-93162094D01*
X177517809Y-93277187D01*
X177517812Y-93277190D01*
X177632905Y-93363349D01*
X177632915Y-93363354D01*
X177767623Y-93413598D01*
X177767621Y-93413598D01*
X177827157Y-93419998D01*
X177827177Y-93420000D01*
X178525000Y-93420000D01*
X178525000Y-92615683D01*
X178544962Y-92541183D01*
X178599500Y-92486645D01*
X178674000Y-92466683D01*
X178696207Y-92468347D01*
X178707172Y-92469999D01*
X178707173Y-92470000D01*
X178707174Y-92470000D01*
X178808721Y-92470000D01*
X178808724Y-92470000D01*
X178853793Y-92463207D01*
X178930436Y-92471843D01*
X178992493Y-92517643D01*
X179023336Y-92588336D01*
X179025000Y-92610543D01*
X179025000Y-93420000D01*
X179722823Y-93420000D01*
X179722842Y-93419998D01*
X179782377Y-93413598D01*
X179917084Y-93363354D01*
X179917094Y-93363349D01*
X180032187Y-93277190D01*
X180032190Y-93277187D01*
X180118349Y-93162094D01*
X180118354Y-93162084D01*
X180168598Y-93027377D01*
X180174998Y-92967842D01*
X180175000Y-92967822D01*
X180175000Y-92270000D01*
X179366352Y-92270000D01*
X179291852Y-92250038D01*
X179237314Y-92195500D01*
X179217352Y-92121000D01*
X179221087Y-92087847D01*
X179226179Y-92065536D01*
X179228810Y-92054008D01*
X179227439Y-92035713D01*
X179219528Y-91930134D01*
X179233867Y-91854351D01*
X179284177Y-91795890D01*
X179356977Y-91770417D01*
X179368111Y-91770000D01*
X180175000Y-91770000D01*
X180175000Y-91072177D01*
X180174998Y-91072157D01*
X180168598Y-91012622D01*
X180118354Y-90877915D01*
X180118349Y-90877905D01*
X180032190Y-90762812D01*
X180032187Y-90762809D01*
X179917094Y-90676650D01*
X179917084Y-90676645D01*
X179782376Y-90626401D01*
X179782378Y-90626401D01*
X179722842Y-90620001D01*
X179722823Y-90620000D01*
X179025000Y-90620000D01*
X179025000Y-91424316D01*
X179005038Y-91498816D01*
X178950500Y-91553354D01*
X178876000Y-91573316D01*
X178853799Y-91571653D01*
X178842829Y-91570000D01*
X178842827Y-91570000D01*
X178741276Y-91570000D01*
X178741273Y-91570000D01*
X178741264Y-91570001D01*
X178696204Y-91576792D01*
X178619561Y-91568155D01*
X178557505Y-91522354D01*
X178526664Y-91451660D01*
X178525000Y-91429456D01*
X178525000Y-90620000D01*
X178503910Y-90598910D01*
X178465346Y-90532115D01*
X178465346Y-90454987D01*
X178503908Y-90388194D01*
X179147962Y-89744141D01*
X179214757Y-89705577D01*
X179253321Y-89700500D01*
X180470514Y-89700500D01*
X180478861Y-89700968D01*
X180517035Y-89705270D01*
X180517040Y-89705269D01*
X180575479Y-89694212D01*
X180604882Y-89689779D01*
X180634287Y-89685348D01*
X180634292Y-89685345D01*
X180642461Y-89682825D01*
X180650466Y-89680025D01*
X180650468Y-89680023D01*
X180650472Y-89680023D01*
X180703072Y-89652222D01*
X180756642Y-89626425D01*
X180756645Y-89626421D01*
X180763695Y-89621616D01*
X180770536Y-89616567D01*
X180770535Y-89616567D01*
X180770538Y-89616566D01*
X180812599Y-89574504D01*
X180856194Y-89534055D01*
X180856196Y-89534050D01*
X180863157Y-89525324D01*
X180864142Y-89526109D01*
X180874361Y-89512741D01*
X184052961Y-86334141D01*
X184119757Y-86295577D01*
X184158321Y-86290500D01*
X184902680Y-86290500D01*
X184977180Y-86310462D01*
X185031718Y-86365000D01*
X185036059Y-86373085D01*
X185060325Y-86421819D01*
X185117980Y-86498166D01*
X185183236Y-86584579D01*
X185321532Y-86710652D01*
X185333958Y-86721980D01*
X185333963Y-86721984D01*
X185507356Y-86829344D01*
X185507367Y-86829350D01*
X185620943Y-86873349D01*
X185697544Y-86903024D01*
X185898024Y-86940500D01*
X185898027Y-86940500D01*
X186101973Y-86940500D01*
X186101976Y-86940500D01*
X186302456Y-86903024D01*
X186486248Y-86831823D01*
X186492632Y-86829350D01*
X186492632Y-86829349D01*
X186492637Y-86829348D01*
X186666041Y-86721981D01*
X186816764Y-86584579D01*
X186939673Y-86421821D01*
X187030582Y-86239250D01*
X187086397Y-86043083D01*
X187097089Y-85927699D01*
X187105215Y-85840004D01*
X187105215Y-85839995D01*
X187089294Y-85668179D01*
X187086397Y-85636917D01*
X187030582Y-85440750D01*
X186939673Y-85258179D01*
X186816764Y-85095421D01*
X186666041Y-84958019D01*
X186666036Y-84958015D01*
X186492643Y-84850655D01*
X186492632Y-84850649D01*
X186302462Y-84776978D01*
X186302458Y-84776977D01*
X186302456Y-84776976D01*
X186262360Y-84769480D01*
X186101980Y-84739500D01*
X186101976Y-84739500D01*
X185898024Y-84739500D01*
X185898019Y-84739500D01*
X185697544Y-84776976D01*
X185697537Y-84776978D01*
X185507367Y-84850649D01*
X185507356Y-84850655D01*
X185333963Y-84958015D01*
X185333958Y-84958019D01*
X185183234Y-85095423D01*
X185060325Y-85258180D01*
X185036059Y-85306915D01*
X184984982Y-85364707D01*
X184911852Y-85389217D01*
X184902680Y-85389500D01*
X183939487Y-85389500D01*
X183931139Y-85389031D01*
X183892968Y-85384730D01*
X183892966Y-85384730D01*
X183892965Y-85384730D01*
X183834520Y-85395788D01*
X183809547Y-85399552D01*
X183775712Y-85404651D01*
X183767561Y-85407165D01*
X183759526Y-85409977D01*
X183706936Y-85437773D01*
X183653361Y-85463573D01*
X183646318Y-85468374D01*
X183639463Y-85473434D01*
X183597413Y-85515482D01*
X183553806Y-85555945D01*
X183546843Y-85564676D01*
X183545907Y-85563929D01*
X183535641Y-85577254D01*
X180357038Y-88755859D01*
X180290243Y-88794423D01*
X180251679Y-88799500D01*
X179034487Y-88799500D01*
X179026139Y-88799031D01*
X178987968Y-88794730D01*
X178987961Y-88794730D01*
X178929511Y-88805789D01*
X178870713Y-88814651D01*
X178862534Y-88817173D01*
X178854529Y-88819974D01*
X178801926Y-88847777D01*
X178748357Y-88873574D01*
X178741325Y-88878368D01*
X178734462Y-88883434D01*
X178692414Y-88925482D01*
X178648806Y-88965945D01*
X178641843Y-88974676D01*
X178640907Y-88973929D01*
X178630641Y-88987254D01*
X176772393Y-90845502D01*
X176705598Y-90884066D01*
X176628470Y-90884066D01*
X176613218Y-90879084D01*
X176564943Y-90860383D01*
X176564938Y-90860381D01*
X176346247Y-90819500D01*
X176346243Y-90819500D01*
X176123757Y-90819500D01*
X176123752Y-90819500D01*
X175919342Y-90857712D01*
X175905066Y-90860381D01*
X175905055Y-90860383D01*
X175697605Y-90940749D01*
X175697603Y-90940750D01*
X175508436Y-91057877D01*
X175344019Y-91207763D01*
X175209939Y-91385314D01*
X175110770Y-91584471D01*
X175049884Y-91798465D01*
X175049884Y-91798468D01*
X175029357Y-92019995D01*
X175029357Y-92020004D01*
X175049884Y-92241531D01*
X175049884Y-92241533D01*
X175049885Y-92241536D01*
X175074913Y-92329500D01*
X175098237Y-92411476D01*
X175099425Y-92488595D01*
X175061894Y-92555976D01*
X175060284Y-92557611D01*
X174592038Y-93025859D01*
X174525243Y-93064423D01*
X174486679Y-93069500D01*
X170947061Y-93069500D01*
X170872561Y-93049538D01*
X170818023Y-92995000D01*
X170799053Y-92937665D01*
X170797585Y-92925009D01*
X170797584Y-92925007D01*
X170752206Y-92822235D01*
X170738094Y-92808123D01*
X170699530Y-92741328D01*
X170699530Y-92664200D01*
X170706394Y-92646752D01*
X170705650Y-92646456D01*
X170747594Y-92541183D01*
X170775101Y-92472147D01*
X170804150Y-92294955D01*
X170802533Y-92265140D01*
X170798296Y-92186978D01*
X170794429Y-92115661D01*
X170746393Y-91942649D01*
X170686467Y-91829618D01*
X170662288Y-91784011D01*
X170662286Y-91784009D01*
X170662286Y-91784008D01*
X170603855Y-91715218D01*
X170570841Y-91645514D01*
X170577101Y-91568641D01*
X170603864Y-91522290D01*
X170607869Y-91517574D01*
X170607875Y-91517569D01*
X170708640Y-91368951D01*
X170775101Y-91202147D01*
X170804150Y-91024955D01*
X170794429Y-90845661D01*
X170746393Y-90672649D01*
X170662286Y-90514008D01*
X170606616Y-90448468D01*
X170546046Y-90377159D01*
X170546045Y-90377158D01*
X170546044Y-90377157D01*
X170469469Y-90318946D01*
X170403101Y-90268494D01*
X170403093Y-90268489D01*
X170286936Y-90214749D01*
X170227704Y-90165350D01*
X170201107Y-90092953D01*
X170200500Y-90079521D01*
X170200500Y-87092081D01*
X170220462Y-87017581D01*
X170233031Y-87000394D01*
X170232612Y-87000077D01*
X170272143Y-86947729D01*
X170359673Y-86831821D01*
X170450582Y-86649250D01*
X170506397Y-86453083D01*
X170518016Y-86327692D01*
X170525215Y-86250004D01*
X170525215Y-86249995D01*
X170513619Y-86124852D01*
X170506397Y-86046917D01*
X170493048Y-85999999D01*
X178301127Y-85999999D01*
X178301128Y-86000000D01*
X179040153Y-86000000D01*
X179114653Y-86019962D01*
X179169191Y-86074500D01*
X179189153Y-86149000D01*
X179187319Y-86172306D01*
X179176717Y-86239245D01*
X179175014Y-86250000D01*
X179187319Y-86327692D01*
X179179256Y-86404398D01*
X179133921Y-86466795D01*
X179063461Y-86498166D01*
X179040153Y-86500000D01*
X178301128Y-86500000D01*
X178353732Y-86696323D01*
X178353733Y-86696325D01*
X178449862Y-86902477D01*
X178449865Y-86902482D01*
X178580339Y-87088817D01*
X178741182Y-87249660D01*
X178927517Y-87380134D01*
X178927522Y-87380137D01*
X179133674Y-87476266D01*
X179133676Y-87476267D01*
X179329999Y-87528872D01*
X179330000Y-87528871D01*
X179330000Y-86789846D01*
X179349962Y-86715346D01*
X179404500Y-86660808D01*
X179479000Y-86640846D01*
X179502293Y-86642678D01*
X179548519Y-86650000D01*
X179548525Y-86650000D01*
X179611475Y-86650000D01*
X179611481Y-86650000D01*
X179657695Y-86642680D01*
X179734397Y-86650742D01*
X179796795Y-86696077D01*
X179828166Y-86766537D01*
X179830000Y-86789846D01*
X179830000Y-87528872D01*
X180026323Y-87476267D01*
X180026325Y-87476266D01*
X180232477Y-87380137D01*
X180232482Y-87380134D01*
X180418817Y-87249660D01*
X180579660Y-87088817D01*
X180710134Y-86902482D01*
X180710137Y-86902477D01*
X180806266Y-86696325D01*
X180806267Y-86696323D01*
X180858872Y-86500000D01*
X180119847Y-86500000D01*
X180045347Y-86480038D01*
X179990809Y-86425500D01*
X179970847Y-86351000D01*
X179972681Y-86327692D01*
X179977767Y-86295577D01*
X179984986Y-86250000D01*
X179972681Y-86172307D01*
X179980744Y-86095602D01*
X180026079Y-86033205D01*
X180096539Y-86001834D01*
X180119847Y-86000000D01*
X180858872Y-86000000D01*
X180858872Y-85999999D01*
X180806267Y-85803676D01*
X180806266Y-85803674D01*
X180710137Y-85597522D01*
X180710134Y-85597517D01*
X180579660Y-85411182D01*
X180418817Y-85250339D01*
X180232482Y-85119865D01*
X180232477Y-85119862D01*
X180026325Y-85023733D01*
X179830000Y-84971127D01*
X179830000Y-85710153D01*
X179810038Y-85784653D01*
X179755500Y-85839191D01*
X179681000Y-85859153D01*
X179657694Y-85857319D01*
X179638496Y-85854278D01*
X179611481Y-85850000D01*
X179548519Y-85850000D01*
X179521503Y-85854278D01*
X179502306Y-85857319D01*
X179425601Y-85849256D01*
X179363204Y-85803920D01*
X179331834Y-85733459D01*
X179330000Y-85710153D01*
X179330000Y-84971127D01*
X179133674Y-85023733D01*
X178927522Y-85119862D01*
X178927517Y-85119865D01*
X178741182Y-85250339D01*
X178580339Y-85411182D01*
X178449865Y-85597517D01*
X178449862Y-85597522D01*
X178353733Y-85803674D01*
X178353732Y-85803676D01*
X178301127Y-85999999D01*
X170493048Y-85999999D01*
X170450582Y-85850750D01*
X170359673Y-85668179D01*
X170236764Y-85505421D01*
X170086041Y-85368019D01*
X170086036Y-85368015D01*
X169912643Y-85260655D01*
X169912632Y-85260649D01*
X169722462Y-85186978D01*
X169722458Y-85186977D01*
X169722456Y-85186976D01*
X169680949Y-85179217D01*
X169521980Y-85149500D01*
X169521976Y-85149500D01*
X169318024Y-85149500D01*
X169318019Y-85149500D01*
X169117544Y-85186976D01*
X169117537Y-85186978D01*
X168927367Y-85260649D01*
X168927356Y-85260655D01*
X168753963Y-85368015D01*
X168753958Y-85368019D01*
X168603234Y-85505423D01*
X168480328Y-85668176D01*
X168389416Y-85850754D01*
X168357203Y-85963972D01*
X168337505Y-86033205D01*
X168333602Y-86046921D01*
X168314785Y-86249995D01*
X168314785Y-86250004D01*
X168333602Y-86453078D01*
X168333602Y-86453080D01*
X168333603Y-86453083D01*
X168346952Y-86500000D01*
X168389416Y-86649245D01*
X168389417Y-86649247D01*
X168389418Y-86649250D01*
X168478886Y-86828927D01*
X168480328Y-86831823D01*
X168534095Y-86903021D01*
X168603236Y-86994579D01*
X168710191Y-87092081D01*
X168753958Y-87131980D01*
X168753963Y-87131984D01*
X168927356Y-87239344D01*
X168927367Y-87239350D01*
X169043332Y-87284274D01*
X169117544Y-87313024D01*
X169177878Y-87324302D01*
X169247442Y-87357613D01*
X169291030Y-87421244D01*
X169299500Y-87470765D01*
X169299500Y-90077853D01*
X169279538Y-90152353D01*
X169225000Y-90206891D01*
X169198076Y-90219053D01*
X169176339Y-90226376D01*
X169176332Y-90226380D01*
X169022487Y-90318946D01*
X169022482Y-90318950D01*
X169022483Y-90318950D01*
X168892125Y-90442431D01*
X168888035Y-90448464D01*
X168791360Y-90591049D01*
X168791358Y-90591053D01*
X168724900Y-90757848D01*
X168724898Y-90757852D01*
X168695850Y-90935045D01*
X168695849Y-90935047D01*
X168705570Y-91114332D01*
X168705571Y-91114340D01*
X168753606Y-91287349D01*
X168837711Y-91445988D01*
X168837713Y-91445990D01*
X168837714Y-91445992D01*
X168845008Y-91454579D01*
X168896143Y-91514780D01*
X168929158Y-91584485D01*
X168922898Y-91661358D01*
X168896149Y-91707692D01*
X168892129Y-91712424D01*
X168877421Y-91734118D01*
X168819090Y-91784578D01*
X168754096Y-91799500D01*
X168099500Y-91799500D01*
X168025000Y-91779538D01*
X167970462Y-91725000D01*
X167950500Y-91650500D01*
X167950500Y-85498321D01*
X167970462Y-85423821D01*
X167994141Y-85392962D01*
X172392963Y-80994141D01*
X172459758Y-80955577D01*
X172498322Y-80950500D01*
X174732680Y-80950500D01*
X174807180Y-80970462D01*
X174861718Y-81025000D01*
X174866059Y-81033085D01*
X174890325Y-81081819D01*
X174943688Y-81152483D01*
X175013236Y-81244579D01*
X175163958Y-81381980D01*
X175163963Y-81381984D01*
X175337356Y-81489344D01*
X175337367Y-81489350D01*
X175453332Y-81534274D01*
X175527544Y-81563024D01*
X175728024Y-81600500D01*
X175728027Y-81600500D01*
X175931973Y-81600500D01*
X175931976Y-81600500D01*
X176132456Y-81563024D01*
X176322637Y-81489348D01*
X176496041Y-81381981D01*
X176646764Y-81244579D01*
X176769673Y-81081821D01*
X176793941Y-81033085D01*
X176845018Y-80975293D01*
X176918148Y-80950783D01*
X176927320Y-80950500D01*
X178720514Y-80950500D01*
X178728861Y-80950968D01*
X178767035Y-80955270D01*
X178767040Y-80955269D01*
X178825479Y-80944212D01*
X178854882Y-80939779D01*
X178884287Y-80935348D01*
X178884292Y-80935345D01*
X178892461Y-80932825D01*
X178900466Y-80930025D01*
X178900468Y-80930023D01*
X178900472Y-80930023D01*
X178953072Y-80902222D01*
X179006642Y-80876425D01*
X179006645Y-80876421D01*
X179013695Y-80871616D01*
X179020536Y-80866567D01*
X179020535Y-80866567D01*
X179020538Y-80866566D01*
X179062599Y-80824504D01*
X179106194Y-80784055D01*
X179106196Y-80784050D01*
X179113157Y-80775324D01*
X179114142Y-80776109D01*
X179124361Y-80762741D01*
X181642962Y-78244141D01*
X181709757Y-78205577D01*
X181748321Y-78200500D01*
X183800501Y-78200500D01*
X183875001Y-78220462D01*
X183929539Y-78275000D01*
X183949501Y-78349500D01*
X183949501Y-79294866D01*
X183952414Y-79319989D01*
X183952415Y-79319992D01*
X183997793Y-79422764D01*
X183997793Y-79422765D01*
X183997794Y-79422765D01*
X184077235Y-79502206D01*
X184180009Y-79547585D01*
X184205135Y-79550500D01*
X187294864Y-79550499D01*
X187294866Y-79550499D01*
X187307427Y-79549042D01*
X187319991Y-79547585D01*
X187422765Y-79502206D01*
X187502206Y-79422765D01*
X187547585Y-79319991D01*
X187550500Y-79294865D01*
X187550499Y-76205136D01*
X187547585Y-76180009D01*
X187502206Y-76077235D01*
X187422765Y-75997794D01*
X187422765Y-75997793D01*
X187422764Y-75997793D01*
X187319994Y-75952416D01*
X187319991Y-75952415D01*
X187319982Y-75952414D01*
X187294865Y-75949500D01*
X187294859Y-75949500D01*
X184205133Y-75949500D01*
X184180010Y-75952414D01*
X184180007Y-75952415D01*
X184077235Y-75997793D01*
X183997793Y-76077235D01*
X183952416Y-76180005D01*
X183952415Y-76180008D01*
X183952415Y-76180009D01*
X183949500Y-76205135D01*
X183949500Y-76205136D01*
X183949500Y-76205140D01*
X183949500Y-77150500D01*
X183929538Y-77225000D01*
X183875000Y-77279538D01*
X183800500Y-77299500D01*
X181529487Y-77299500D01*
X181521139Y-77299031D01*
X181482968Y-77294730D01*
X181482966Y-77294730D01*
X181482965Y-77294730D01*
X181424520Y-77305788D01*
X181399547Y-77309552D01*
X181365712Y-77314651D01*
X181357561Y-77317165D01*
X181349526Y-77319977D01*
X181296936Y-77347773D01*
X181243361Y-77373573D01*
X181236318Y-77378374D01*
X181229463Y-77383434D01*
X181187413Y-77425482D01*
X181143806Y-77465945D01*
X181136843Y-77474676D01*
X181135907Y-77473929D01*
X181125641Y-77487254D01*
X178607038Y-80005859D01*
X178540243Y-80044423D01*
X178501679Y-80049500D01*
X176927320Y-80049500D01*
X176852820Y-80029538D01*
X176798282Y-79975000D01*
X176793941Y-79966915D01*
X176769674Y-79918180D01*
X176716312Y-79847517D01*
X176646764Y-79755421D01*
X176496041Y-79618019D01*
X176496036Y-79618015D01*
X176322643Y-79510655D01*
X176322632Y-79510649D01*
X176132462Y-79436978D01*
X176132458Y-79436977D01*
X176132456Y-79436976D01*
X176092360Y-79429480D01*
X175931980Y-79399500D01*
X175931976Y-79399500D01*
X175728024Y-79399500D01*
X175728019Y-79399500D01*
X175527544Y-79436976D01*
X175527537Y-79436978D01*
X175337367Y-79510649D01*
X175337356Y-79510655D01*
X175163963Y-79618015D01*
X175163958Y-79618019D01*
X175013234Y-79755423D01*
X174890325Y-79918180D01*
X174866059Y-79966915D01*
X174814982Y-80024707D01*
X174741852Y-80049217D01*
X174732680Y-80049500D01*
X172279487Y-80049500D01*
X172271139Y-80049031D01*
X172232968Y-80044730D01*
X172232966Y-80044730D01*
X172232965Y-80044730D01*
X172174520Y-80055788D01*
X172149547Y-80059552D01*
X172115712Y-80064651D01*
X172107561Y-80067165D01*
X172099526Y-80069977D01*
X172046936Y-80097773D01*
X171993361Y-80123573D01*
X171986318Y-80128374D01*
X171979463Y-80133434D01*
X171937413Y-80175482D01*
X171893806Y-80215945D01*
X171886843Y-80224676D01*
X171885907Y-80223929D01*
X171875641Y-80237254D01*
X167202298Y-84910597D01*
X167196065Y-84916167D01*
X167166030Y-84940119D01*
X167132518Y-84989272D01*
X167097204Y-85037120D01*
X167093221Y-85044657D01*
X167089526Y-85052329D01*
X167071992Y-85109177D01*
X167052354Y-85165299D01*
X167050768Y-85173680D01*
X167049500Y-85182099D01*
X167049500Y-85241572D01*
X167047276Y-85301015D01*
X167048526Y-85312109D01*
X167047302Y-85312246D01*
X167049500Y-85328927D01*
X167049500Y-92182451D01*
X167045765Y-92215601D01*
X167045685Y-92215954D01*
X167049292Y-92264094D01*
X167049500Y-92269643D01*
X167049500Y-104680513D01*
X167049031Y-104688861D01*
X167044729Y-104727035D01*
X167044730Y-104727039D01*
X167046045Y-104733991D01*
X167048538Y-104767253D01*
X167047275Y-104801011D01*
X167048526Y-104812108D01*
X167047302Y-104812245D01*
X167049500Y-104828927D01*
X167049500Y-106741572D01*
X167047276Y-106801015D01*
X167048526Y-106812109D01*
X167047302Y-106812246D01*
X167049500Y-106828927D01*
X167049500Y-113501678D01*
X167029538Y-113576178D01*
X167005859Y-113607037D01*
X164107038Y-116505859D01*
X164040243Y-116544423D01*
X164001679Y-116549500D01*
X147998322Y-116549500D01*
X147923822Y-116529538D01*
X147892963Y-116505859D01*
X142944141Y-111557037D01*
X142905577Y-111490242D01*
X142900500Y-111451678D01*
X142900500Y-108029486D01*
X142900969Y-108021138D01*
X142903616Y-107997641D01*
X142905270Y-107982965D01*
X142905269Y-107982959D01*
X142903097Y-107971476D01*
X142900500Y-107943781D01*
X142900500Y-99010000D01*
X148135001Y-99010000D01*
X148135001Y-99459973D01*
X148145494Y-99562696D01*
X148200642Y-99729121D01*
X148292680Y-99878340D01*
X148416659Y-100002319D01*
X148565878Y-100094357D01*
X148732302Y-100149505D01*
X148732311Y-100149507D01*
X148835015Y-100159999D01*
X148959999Y-100159999D01*
X148960000Y-100159998D01*
X148960000Y-99010000D01*
X149460000Y-99010000D01*
X149460000Y-100159999D01*
X149584974Y-100159999D01*
X149687696Y-100149505D01*
X149854121Y-100094357D01*
X150003340Y-100002319D01*
X150127319Y-99878340D01*
X150219357Y-99729121D01*
X150274505Y-99562697D01*
X150274507Y-99562688D01*
X150284999Y-99459989D01*
X150285000Y-99459979D01*
X150285000Y-99453105D01*
X151284500Y-99453105D01*
X151295122Y-99541563D01*
X151350638Y-99682341D01*
X151417491Y-99770500D01*
X151442078Y-99802922D01*
X151562658Y-99894361D01*
X151703436Y-99949877D01*
X151791898Y-99960500D01*
X151791899Y-99960500D01*
X152528101Y-99960500D01*
X152528102Y-99960500D01*
X152616564Y-99949877D01*
X152757342Y-99894361D01*
X152877922Y-99802922D01*
X152969361Y-99682342D01*
X153024877Y-99541564D01*
X153035500Y-99453102D01*
X153035500Y-98583320D01*
X153055462Y-98508820D01*
X153079140Y-98477963D01*
X153102102Y-98455000D01*
X153117710Y-98439391D01*
X153123926Y-98433836D01*
X153153970Y-98409879D01*
X153187480Y-98360728D01*
X153222793Y-98312882D01*
X153222793Y-98312881D01*
X153222795Y-98312879D01*
X153226774Y-98305350D01*
X153230468Y-98297677D01*
X153230472Y-98297673D01*
X153248007Y-98240822D01*
X153267646Y-98184699D01*
X153267646Y-98184697D01*
X153269227Y-98176339D01*
X153270500Y-98167899D01*
X153270500Y-98108427D01*
X153271121Y-98091821D01*
X153272724Y-98048990D01*
X153272722Y-98048985D01*
X153271474Y-98037897D01*
X153272682Y-98037760D01*
X153270500Y-98021076D01*
X153270500Y-96418430D01*
X153290462Y-96343930D01*
X153341059Y-96291749D01*
X153486041Y-96201981D01*
X153636764Y-96064579D01*
X153759673Y-95901821D01*
X153850582Y-95719250D01*
X153906397Y-95523083D01*
X153919578Y-95380831D01*
X153925215Y-95320004D01*
X153925215Y-95319995D01*
X153912306Y-95180689D01*
X153906397Y-95116917D01*
X153850582Y-94920750D01*
X153759673Y-94738179D01*
X153636764Y-94575421D01*
X153486041Y-94438019D01*
X153486036Y-94438015D01*
X153312643Y-94330655D01*
X153312632Y-94330649D01*
X153122462Y-94256978D01*
X153122458Y-94256977D01*
X153122456Y-94256976D01*
X153082359Y-94249480D01*
X152921980Y-94219500D01*
X152921976Y-94219500D01*
X152718024Y-94219500D01*
X152718019Y-94219500D01*
X152517544Y-94256976D01*
X152517537Y-94256978D01*
X152327367Y-94330649D01*
X152327356Y-94330655D01*
X152153963Y-94438015D01*
X152153958Y-94438019D01*
X152003234Y-94575423D01*
X151880328Y-94738176D01*
X151789416Y-94920754D01*
X151733602Y-95116921D01*
X151714785Y-95319995D01*
X151714785Y-95320004D01*
X151733602Y-95523078D01*
X151789416Y-95719245D01*
X151789417Y-95719247D01*
X151789418Y-95719250D01*
X151880327Y-95901821D01*
X151880328Y-95901823D01*
X151954464Y-95999995D01*
X152003236Y-96064579D01*
X152153959Y-96201981D01*
X152298940Y-96291749D01*
X152351771Y-96347939D01*
X152369500Y-96418430D01*
X152369500Y-97410500D01*
X152349538Y-97485000D01*
X152295000Y-97539538D01*
X152220500Y-97559500D01*
X151791894Y-97559500D01*
X151703436Y-97570122D01*
X151562658Y-97625638D01*
X151562658Y-97625639D01*
X151442079Y-97717076D01*
X151442076Y-97717079D01*
X151350639Y-97837658D01*
X151350638Y-97837658D01*
X151295122Y-97978436D01*
X151284500Y-98066894D01*
X151284500Y-99453105D01*
X150285000Y-99453105D01*
X150285000Y-99010000D01*
X149460000Y-99010000D01*
X148960000Y-99010000D01*
X148135001Y-99010000D01*
X142900500Y-99010000D01*
X142900500Y-98510000D01*
X148135000Y-98510000D01*
X148960000Y-98510000D01*
X148960000Y-97360000D01*
X149460000Y-97360000D01*
X149460000Y-98510000D01*
X150284999Y-98510000D01*
X150284999Y-98060026D01*
X150274505Y-97957303D01*
X150219357Y-97790878D01*
X150127319Y-97641659D01*
X150003340Y-97517680D01*
X149854121Y-97425642D01*
X149687697Y-97370494D01*
X149687688Y-97370492D01*
X149584989Y-97360000D01*
X149460000Y-97360000D01*
X148960000Y-97360000D01*
X148835026Y-97360000D01*
X148732303Y-97370494D01*
X148565878Y-97425642D01*
X148416659Y-97517680D01*
X148292680Y-97641659D01*
X148200642Y-97790878D01*
X148145494Y-97957302D01*
X148145492Y-97957311D01*
X148135000Y-98060010D01*
X148135000Y-98510000D01*
X142900500Y-98510000D01*
X142900500Y-97548320D01*
X142920462Y-97473820D01*
X142944137Y-97442965D01*
X144250877Y-96136224D01*
X144317670Y-96097662D01*
X144394798Y-96097662D01*
X144456614Y-96131472D01*
X144533958Y-96201980D01*
X144533963Y-96201984D01*
X144707356Y-96309344D01*
X144707367Y-96309350D01*
X144823332Y-96354274D01*
X144897544Y-96383024D01*
X145098024Y-96420500D01*
X145098027Y-96420500D01*
X145301973Y-96420500D01*
X145301976Y-96420500D01*
X145502456Y-96383024D01*
X145692637Y-96309348D01*
X145866041Y-96201981D01*
X146016764Y-96064579D01*
X146139673Y-95901821D01*
X146230582Y-95719250D01*
X146286397Y-95523083D01*
X146299578Y-95380831D01*
X146305215Y-95320004D01*
X146305215Y-95319995D01*
X146292306Y-95180689D01*
X146286397Y-95116917D01*
X146230582Y-94920750D01*
X146139673Y-94738179D01*
X146016764Y-94575421D01*
X145866041Y-94438019D01*
X145866036Y-94438015D01*
X145692643Y-94330655D01*
X145692632Y-94330649D01*
X145502462Y-94256978D01*
X145502458Y-94256977D01*
X145502456Y-94256976D01*
X145462360Y-94249480D01*
X145301980Y-94219500D01*
X145301976Y-94219500D01*
X145098024Y-94219500D01*
X145098019Y-94219500D01*
X144897544Y-94256976D01*
X144897537Y-94256978D01*
X144707367Y-94330649D01*
X144707356Y-94330655D01*
X144533963Y-94438015D01*
X144533958Y-94438019D01*
X144383234Y-94575423D01*
X144260325Y-94738180D01*
X144169418Y-94920746D01*
X144166931Y-94927169D01*
X144164542Y-94926243D01*
X144133017Y-94979878D01*
X144117401Y-94995494D01*
X144073806Y-95035944D01*
X144066847Y-95044671D01*
X144065917Y-95043929D01*
X144055643Y-95057251D01*
X142152298Y-96960597D01*
X142146065Y-96966167D01*
X142116030Y-96990119D01*
X142082518Y-97039272D01*
X142047204Y-97087120D01*
X142043221Y-97094657D01*
X142039526Y-97102329D01*
X142021992Y-97159177D01*
X142002354Y-97215299D01*
X142000768Y-97223680D01*
X141999500Y-97232099D01*
X141999500Y-97291572D01*
X141997276Y-97351015D01*
X141998526Y-97362109D01*
X141997302Y-97362246D01*
X141999500Y-97378927D01*
X141999500Y-107200500D01*
X141979538Y-107275000D01*
X141925000Y-107329538D01*
X141850500Y-107349500D01*
X141319795Y-107349500D01*
X141245295Y-107329538D01*
X141190757Y-107275000D01*
X141184761Y-107263483D01*
X141130568Y-107147266D01*
X141000047Y-106960861D01*
X140839139Y-106799953D01*
X140839137Y-106799951D01*
X140652741Y-106669437D01*
X140652738Y-106669435D01*
X140652734Y-106669432D01*
X140446496Y-106573261D01*
X140226692Y-106514365D01*
X140226693Y-106514365D01*
X140000000Y-106494532D01*
X139773306Y-106514365D01*
X139553507Y-106573260D01*
X139553506Y-106573260D01*
X139553504Y-106573261D01*
X139347266Y-106669432D01*
X139347263Y-106669434D01*
X139347261Y-106669435D01*
X139347258Y-106669437D01*
X139160862Y-106799951D01*
X138999951Y-106960862D01*
X138869437Y-107147258D01*
X138869435Y-107147261D01*
X138869434Y-107147263D01*
X138869432Y-107147266D01*
X138773261Y-107353504D01*
X138773260Y-107353507D01*
X138714365Y-107573306D01*
X138694532Y-107799999D01*
X138714365Y-108026693D01*
X138738381Y-108116323D01*
X138773261Y-108246496D01*
X138869432Y-108452734D01*
X138869435Y-108452738D01*
X138869437Y-108452741D01*
X138999951Y-108639137D01*
X139160862Y-108800048D01*
X139203639Y-108830000D01*
X139347266Y-108930568D01*
X139347278Y-108930573D01*
X139347277Y-108930573D01*
X139463469Y-108984754D01*
X139522553Y-109034330D01*
X139548933Y-109106807D01*
X139549500Y-109119794D01*
X139549500Y-112980204D01*
X139529538Y-113054704D01*
X139475000Y-113109242D01*
X139463472Y-113115243D01*
X139347267Y-113169431D01*
X139347258Y-113169437D01*
X139160862Y-113299951D01*
X138999951Y-113460862D01*
X138869437Y-113647258D01*
X138869435Y-113647261D01*
X138869434Y-113647263D01*
X138869432Y-113647266D01*
X138782030Y-113834699D01*
X138773260Y-113853507D01*
X138714365Y-114073306D01*
X138694532Y-114300000D01*
X136805468Y-114300000D01*
X136785635Y-114073308D01*
X136726739Y-113853504D01*
X136630568Y-113647266D01*
X136522566Y-113493022D01*
X136500048Y-113460862D01*
X136339137Y-113299951D01*
X136152741Y-113169437D01*
X136152734Y-113169432D01*
X136152732Y-113169431D01*
X136036528Y-113115243D01*
X135977445Y-113065665D01*
X135951067Y-112993188D01*
X135950500Y-112980204D01*
X135950500Y-109119794D01*
X135970462Y-109045294D01*
X136025000Y-108990756D01*
X136036531Y-108984754D01*
X136152734Y-108930568D01*
X136339139Y-108800047D01*
X136500047Y-108639139D01*
X136630568Y-108452734D01*
X136726739Y-108246496D01*
X136785635Y-108026692D01*
X136805468Y-107800000D01*
X136785635Y-107573308D01*
X136726739Y-107353504D01*
X136630568Y-107147266D01*
X136500047Y-106960861D01*
X136339139Y-106799953D01*
X136339137Y-106799951D01*
X136152741Y-106669437D01*
X136152738Y-106669435D01*
X136152734Y-106669432D01*
X135946496Y-106573261D01*
X135726692Y-106514365D01*
X135726693Y-106514365D01*
X135500000Y-106494532D01*
X135273306Y-106514365D01*
X135053507Y-106573260D01*
X135053506Y-106573260D01*
X135053504Y-106573261D01*
X134847266Y-106669432D01*
X134847263Y-106669434D01*
X134847261Y-106669435D01*
X134847258Y-106669437D01*
X134660862Y-106799951D01*
X134499951Y-106960862D01*
X134369437Y-107147258D01*
X134369435Y-107147261D01*
X134369434Y-107147263D01*
X134369432Y-107147266D01*
X134273261Y-107353504D01*
X134273260Y-107353507D01*
X134214365Y-107573306D01*
X134194532Y-107800000D01*
X134214365Y-108026693D01*
X134238381Y-108116323D01*
X134273261Y-108246496D01*
X134369432Y-108452734D01*
X134369435Y-108452738D01*
X134369437Y-108452741D01*
X134499951Y-108639137D01*
X134660862Y-108800048D01*
X134703639Y-108830000D01*
X134847266Y-108930568D01*
X134847278Y-108930573D01*
X134847277Y-108930573D01*
X134963469Y-108984754D01*
X135022553Y-109034330D01*
X135048933Y-109106807D01*
X135049500Y-109119794D01*
X135049500Y-112980204D01*
X135029538Y-113054704D01*
X134975000Y-113109242D01*
X134963472Y-113115243D01*
X134847267Y-113169431D01*
X134847258Y-113169437D01*
X134660862Y-113299951D01*
X134499951Y-113460862D01*
X134369437Y-113647258D01*
X134369435Y-113647261D01*
X134369434Y-113647263D01*
X134369432Y-113647266D01*
X134282030Y-113834699D01*
X134273260Y-113853507D01*
X134214365Y-114073306D01*
X134194532Y-114300000D01*
X108635251Y-114300000D01*
X108624111Y-114229664D01*
X108624110Y-114229661D01*
X108523740Y-113855072D01*
X108523733Y-113855052D01*
X108384762Y-113493022D01*
X108384751Y-113492998D01*
X108208699Y-113147474D01*
X108208688Y-113147454D01*
X107997475Y-112822215D01*
X107997473Y-112822213D01*
X107788903Y-112564649D01*
X107788902Y-112564648D01*
X107147289Y-113206262D01*
X107080494Y-113244826D01*
X107003366Y-113244826D01*
X106936571Y-113206262D01*
X106918041Y-113183683D01*
X106877296Y-113122704D01*
X106877294Y-113122702D01*
X106816314Y-113081956D01*
X106765461Y-113023968D01*
X106750414Y-112948322D01*
X106775207Y-112875287D01*
X106793736Y-112852709D01*
X107435349Y-112211095D01*
X107177789Y-112002528D01*
X106852545Y-111791311D01*
X106852525Y-111791300D01*
X106507001Y-111615248D01*
X106506977Y-111615237D01*
X106144947Y-111476266D01*
X106144927Y-111476259D01*
X105770338Y-111375889D01*
X105770335Y-111375888D01*
X105387280Y-111315218D01*
X105000000Y-111294922D01*
X104612719Y-111315218D01*
X104229664Y-111375888D01*
X104229661Y-111375889D01*
X103855072Y-111476259D01*
X103855052Y-111476266D01*
X103493022Y-111615237D01*
X103492998Y-111615248D01*
X103147474Y-111791300D01*
X103147454Y-111791311D01*
X102822210Y-112002528D01*
X102564649Y-112211095D01*
X102564648Y-112211095D01*
X103206263Y-112852710D01*
X103244827Y-112919505D01*
X103244827Y-112996633D01*
X103206263Y-113063428D01*
X103183684Y-113081958D01*
X103122704Y-113122703D01*
X103122703Y-113122704D01*
X103081958Y-113183684D01*
X103023970Y-113234538D01*
X102948323Y-113249585D01*
X102875289Y-113224793D01*
X102852710Y-113206263D01*
X102211095Y-112564648D01*
X102211095Y-112564649D01*
X102002528Y-112822210D01*
X101791311Y-113147454D01*
X101791300Y-113147474D01*
X101615248Y-113492998D01*
X101615237Y-113493022D01*
X101476266Y-113855052D01*
X101476259Y-113855072D01*
X101375889Y-114229661D01*
X101375888Y-114229664D01*
X101315218Y-114612719D01*
X101294922Y-114999999D01*
X100200500Y-114999999D01*
X100200500Y-114960118D01*
X100200500Y-107419999D01*
X108081127Y-107419999D01*
X108081128Y-107420000D01*
X108820153Y-107420000D01*
X108894653Y-107439962D01*
X108949191Y-107494500D01*
X108969153Y-107569000D01*
X108967319Y-107592308D01*
X108955014Y-107670000D01*
X108967319Y-107747692D01*
X108959256Y-107824398D01*
X108913921Y-107886795D01*
X108843461Y-107918166D01*
X108820153Y-107920000D01*
X108081128Y-107920000D01*
X108133732Y-108116323D01*
X108133733Y-108116325D01*
X108229862Y-108322477D01*
X108229865Y-108322482D01*
X108360339Y-108508817D01*
X108521182Y-108669660D01*
X108707517Y-108800134D01*
X108707522Y-108800137D01*
X108913674Y-108896266D01*
X108913676Y-108896267D01*
X109109999Y-108948872D01*
X109110000Y-108948871D01*
X109110000Y-108209846D01*
X109129962Y-108135346D01*
X109184500Y-108080808D01*
X109259000Y-108060846D01*
X109282293Y-108062678D01*
X109328519Y-108070000D01*
X109328525Y-108070000D01*
X109391475Y-108070000D01*
X109391481Y-108070000D01*
X109437695Y-108062680D01*
X109514397Y-108070742D01*
X109576795Y-108116077D01*
X109608166Y-108186537D01*
X109610000Y-108209846D01*
X109610000Y-108948872D01*
X109806323Y-108896267D01*
X109806325Y-108896266D01*
X110012477Y-108800137D01*
X110012482Y-108800134D01*
X110198817Y-108669660D01*
X110359660Y-108508817D01*
X110490134Y-108322482D01*
X110490137Y-108322477D01*
X110586266Y-108116325D01*
X110586267Y-108116323D01*
X110638872Y-107920000D01*
X109899847Y-107920000D01*
X109825347Y-107900038D01*
X109770809Y-107845500D01*
X109750847Y-107771000D01*
X109752681Y-107747692D01*
X109755562Y-107729500D01*
X109764986Y-107670000D01*
X109752681Y-107592307D01*
X109760744Y-107515602D01*
X109806079Y-107453205D01*
X109876539Y-107421834D01*
X109899847Y-107420000D01*
X110638872Y-107420000D01*
X110638872Y-107419999D01*
X110586267Y-107223676D01*
X110586266Y-107223674D01*
X110490137Y-107017522D01*
X110490134Y-107017517D01*
X110359660Y-106831182D01*
X110198817Y-106670339D01*
X110012482Y-106539865D01*
X110012477Y-106539862D01*
X109806325Y-106443733D01*
X109609999Y-106391127D01*
X109610000Y-107130153D01*
X109590038Y-107204653D01*
X109535500Y-107259191D01*
X109461000Y-107279153D01*
X109437694Y-107277319D01*
X109418496Y-107274278D01*
X109391481Y-107270000D01*
X109328519Y-107270000D01*
X109301503Y-107274278D01*
X109282306Y-107277319D01*
X109205601Y-107269256D01*
X109143204Y-107223920D01*
X109111834Y-107153459D01*
X109110000Y-107130153D01*
X109110000Y-106391127D01*
X108913674Y-106443733D01*
X108707522Y-106539862D01*
X108707517Y-106539865D01*
X108521182Y-106670339D01*
X108360339Y-106831182D01*
X108229865Y-107017517D01*
X108229862Y-107017522D01*
X108133733Y-107223674D01*
X108133732Y-107223676D01*
X108081127Y-107419999D01*
X100200500Y-107419999D01*
X100200500Y-98177039D01*
X104294730Y-98177039D01*
X104303759Y-98224756D01*
X104305788Y-98235479D01*
X104311104Y-98270750D01*
X104314653Y-98294291D01*
X104317169Y-98302448D01*
X104319977Y-98310474D01*
X104347777Y-98363072D01*
X104373572Y-98416638D01*
X104378384Y-98423696D01*
X104383435Y-98430539D01*
X104425494Y-98472599D01*
X104465945Y-98516194D01*
X104474675Y-98523156D01*
X104473907Y-98524118D01*
X104487257Y-98534361D01*
X106160596Y-100207699D01*
X106166167Y-100213933D01*
X106190120Y-100243970D01*
X106190123Y-100243972D01*
X106239270Y-100277480D01*
X106263194Y-100295136D01*
X106287118Y-100312793D01*
X106287120Y-100312794D01*
X106294678Y-100316789D01*
X106302323Y-100320470D01*
X106302324Y-100320470D01*
X106302327Y-100320472D01*
X106359177Y-100338007D01*
X106415301Y-100357646D01*
X106415305Y-100357646D01*
X106423660Y-100359227D01*
X106432095Y-100360499D01*
X106432098Y-100360500D01*
X106432101Y-100360500D01*
X106491559Y-100360500D01*
X106551010Y-100362725D01*
X106551014Y-100362724D01*
X106562108Y-100361475D01*
X106562245Y-100362693D01*
X106578930Y-100360500D01*
X111470514Y-100360500D01*
X111478861Y-100360968D01*
X111517035Y-100365270D01*
X111517040Y-100365269D01*
X111575479Y-100354212D01*
X111604882Y-100349779D01*
X111634287Y-100345348D01*
X111634292Y-100345345D01*
X111642461Y-100342825D01*
X111650466Y-100340025D01*
X111650468Y-100340023D01*
X111650472Y-100340023D01*
X111703072Y-100312222D01*
X111756642Y-100286425D01*
X111756645Y-100286421D01*
X111763695Y-100281616D01*
X111770536Y-100276567D01*
X111770535Y-100276567D01*
X111770538Y-100276566D01*
X111812600Y-100234503D01*
X111856194Y-100194055D01*
X111863157Y-100185324D01*
X111864142Y-100186109D01*
X111874361Y-100172741D01*
X112617098Y-99430004D01*
X114645287Y-99430004D01*
X114664096Y-99632985D01*
X114719886Y-99829069D01*
X114810750Y-100011548D01*
X114810758Y-100011562D01*
X114812532Y-100013912D01*
X114812533Y-100013913D01*
X115262311Y-99564135D01*
X115329106Y-99525571D01*
X115406234Y-99525571D01*
X115473029Y-99564135D01*
X115501047Y-99603076D01*
X115506448Y-99613921D01*
X115506448Y-99613922D01*
X115506450Y-99613924D01*
X115599538Y-99698787D01*
X115598283Y-99700163D01*
X115639556Y-99744061D01*
X115657213Y-99819141D01*
X115634965Y-99892990D01*
X115613643Y-99919909D01*
X115169311Y-100364241D01*
X115257580Y-100418895D01*
X115257582Y-100418896D01*
X115447682Y-100492541D01*
X115648065Y-100529999D01*
X115648073Y-100530000D01*
X115851927Y-100530000D01*
X115851934Y-100529999D01*
X116052317Y-100492541D01*
X116242418Y-100418896D01*
X116330687Y-100364240D01*
X115882581Y-99916134D01*
X115844017Y-99849339D01*
X115844017Y-99772211D01*
X115882581Y-99705416D01*
X115909502Y-99684093D01*
X115955608Y-99655545D01*
X115955608Y-99655544D01*
X115955607Y-99655544D01*
X115955610Y-99655543D01*
X116013116Y-99579391D01*
X116073941Y-99531970D01*
X116150329Y-99521314D01*
X116221812Y-99550280D01*
X116237379Y-99563826D01*
X116687466Y-100013912D01*
X116706269Y-100012608D01*
X116781972Y-100027364D01*
X116840155Y-100077995D01*
X116852889Y-100101065D01*
X116878911Y-100159999D01*
X116897794Y-100202765D01*
X116977235Y-100282206D01*
X117080009Y-100327585D01*
X117105135Y-100330500D01*
X117150499Y-100330499D01*
X117224997Y-100350460D01*
X117279536Y-100404996D01*
X117299500Y-100479496D01*
X117299500Y-101380513D01*
X117299031Y-101388861D01*
X117294730Y-101427031D01*
X117294730Y-101427039D01*
X117298804Y-101448567D01*
X117305788Y-101485479D01*
X117307216Y-101494956D01*
X117314653Y-101544291D01*
X117317169Y-101552448D01*
X117319977Y-101560474D01*
X117347777Y-101613072D01*
X117373572Y-101666638D01*
X117378384Y-101673696D01*
X117383435Y-101680539D01*
X117425494Y-101722599D01*
X117465945Y-101766194D01*
X117474675Y-101773156D01*
X117473907Y-101774118D01*
X117487257Y-101784361D01*
X119330596Y-103627699D01*
X119336167Y-103633933D01*
X119360120Y-103663970D01*
X119360123Y-103663972D01*
X119409270Y-103697480D01*
X119433194Y-103715136D01*
X119457118Y-103732793D01*
X119457120Y-103732794D01*
X119464678Y-103736789D01*
X119472323Y-103740470D01*
X119472324Y-103740470D01*
X119472327Y-103740472D01*
X119529177Y-103758007D01*
X119585301Y-103777646D01*
X119585305Y-103777646D01*
X119593685Y-103779232D01*
X119602096Y-103780500D01*
X119602098Y-103780500D01*
X119661573Y-103780500D01*
X119663389Y-103780567D01*
X119721010Y-103782724D01*
X119721013Y-103782722D01*
X119721015Y-103782723D01*
X119732109Y-103781474D01*
X119732246Y-103782697D01*
X119748927Y-103780500D01*
X128152680Y-103780500D01*
X128227180Y-103800462D01*
X128281718Y-103855000D01*
X128286059Y-103863085D01*
X128310325Y-103911819D01*
X128390023Y-104017355D01*
X128433236Y-104074579D01*
X128583958Y-104211980D01*
X128583963Y-104211984D01*
X128757356Y-104319344D01*
X128757367Y-104319350D01*
X128873332Y-104364274D01*
X128947544Y-104393024D01*
X129148024Y-104430500D01*
X129148027Y-104430500D01*
X129351973Y-104430500D01*
X129351976Y-104430500D01*
X129552456Y-104393024D01*
X129742637Y-104319348D01*
X129916041Y-104211981D01*
X130066764Y-104074579D01*
X130189673Y-103911821D01*
X130280582Y-103729250D01*
X130336397Y-103533083D01*
X130355215Y-103330000D01*
X130336397Y-103126917D01*
X130280582Y-102930750D01*
X130189673Y-102748179D01*
X130066764Y-102585421D01*
X129916041Y-102448019D01*
X129916036Y-102448015D01*
X129742643Y-102340655D01*
X129742632Y-102340649D01*
X129552462Y-102266978D01*
X129552458Y-102266977D01*
X129552456Y-102266976D01*
X129512359Y-102259480D01*
X129351980Y-102229500D01*
X129351976Y-102229500D01*
X129148024Y-102229500D01*
X129148019Y-102229500D01*
X128947544Y-102266976D01*
X128947537Y-102266978D01*
X128757367Y-102340649D01*
X128757356Y-102340655D01*
X128583963Y-102448015D01*
X128583958Y-102448019D01*
X128433234Y-102585423D01*
X128310325Y-102748180D01*
X128286059Y-102796915D01*
X128234982Y-102854707D01*
X128161852Y-102879217D01*
X128152680Y-102879500D01*
X119918322Y-102879500D01*
X119843822Y-102859538D01*
X119812963Y-102835859D01*
X118244140Y-101267036D01*
X118205576Y-101200241D01*
X118200499Y-101161684D01*
X118200499Y-101155000D01*
X122097401Y-101155000D01*
X122097401Y-101279973D01*
X122107894Y-101382696D01*
X122163042Y-101549121D01*
X122255080Y-101698340D01*
X122379059Y-101822319D01*
X122528278Y-101914357D01*
X122694702Y-101969505D01*
X122694711Y-101969507D01*
X122797415Y-101979999D01*
X123247399Y-101979999D01*
X123247400Y-101979998D01*
X123247400Y-101155000D01*
X123747400Y-101155000D01*
X123747400Y-101979999D01*
X124197374Y-101979999D01*
X124300096Y-101969505D01*
X124466521Y-101914357D01*
X124615740Y-101822319D01*
X124739719Y-101698340D01*
X124831757Y-101549121D01*
X124886905Y-101382697D01*
X124886907Y-101382688D01*
X124897399Y-101279989D01*
X124897400Y-101279979D01*
X124897400Y-101155000D01*
X123747400Y-101155000D01*
X123247400Y-101155000D01*
X122097401Y-101155000D01*
X118200499Y-101155000D01*
X118200499Y-100655000D01*
X122097400Y-100655000D01*
X123247400Y-100655000D01*
X123247400Y-99830000D01*
X123747400Y-99830000D01*
X123747400Y-100655000D01*
X124897399Y-100655000D01*
X124897399Y-100530026D01*
X124886905Y-100427303D01*
X124831757Y-100260878D01*
X124739719Y-100111659D01*
X124615740Y-99987680D01*
X124466521Y-99895642D01*
X124300097Y-99840494D01*
X124300088Y-99840492D01*
X124197389Y-99830000D01*
X123747400Y-99830000D01*
X123247400Y-99830000D01*
X122797426Y-99830000D01*
X122694703Y-99840494D01*
X122528278Y-99895642D01*
X122379059Y-99987680D01*
X122255080Y-100111659D01*
X122163042Y-100260878D01*
X122107894Y-100427302D01*
X122107892Y-100427311D01*
X122097400Y-100530010D01*
X122097400Y-100655000D01*
X118200499Y-100655000D01*
X118200499Y-100479498D01*
X118220461Y-100404999D01*
X118274999Y-100350461D01*
X118349499Y-100330499D01*
X118394867Y-100330499D01*
X118409940Y-100328750D01*
X118419991Y-100327585D01*
X118522765Y-100282206D01*
X118602206Y-100202765D01*
X118647585Y-100099991D01*
X118650500Y-100074865D01*
X118650499Y-98785136D01*
X118647585Y-98760009D01*
X118602206Y-98657235D01*
X118522765Y-98577794D01*
X118522765Y-98577793D01*
X118522764Y-98577793D01*
X118419994Y-98532416D01*
X118419991Y-98532415D01*
X118419982Y-98532414D01*
X118394865Y-98529500D01*
X118394859Y-98529500D01*
X118349500Y-98529500D01*
X118275000Y-98509538D01*
X118220462Y-98455000D01*
X118200500Y-98380500D01*
X118200500Y-98323105D01*
X122296900Y-98323105D01*
X122307522Y-98411563D01*
X122363038Y-98552341D01*
X122407141Y-98610500D01*
X122454478Y-98672922D01*
X122575058Y-98764361D01*
X122715836Y-98819877D01*
X122804298Y-98830500D01*
X122804299Y-98830500D01*
X124190501Y-98830500D01*
X124190502Y-98830500D01*
X124278964Y-98819877D01*
X124419742Y-98764361D01*
X124540322Y-98672922D01*
X124631761Y-98552342D01*
X124687277Y-98411564D01*
X124697900Y-98323102D01*
X124697900Y-97586898D01*
X124687277Y-97498436D01*
X124631761Y-97357658D01*
X124540322Y-97237078D01*
X124540320Y-97237076D01*
X124437594Y-97159177D01*
X124419742Y-97145639D01*
X124419741Y-97145638D01*
X124334838Y-97112157D01*
X124272856Y-97066256D01*
X124242128Y-96995513D01*
X124240500Y-96973546D01*
X124240500Y-94348430D01*
X124260462Y-94273930D01*
X124311059Y-94221749D01*
X124456041Y-94131981D01*
X124606764Y-93994579D01*
X124729673Y-93831821D01*
X124820582Y-93649250D01*
X124876397Y-93453083D01*
X124886851Y-93340259D01*
X124895215Y-93250004D01*
X124895215Y-93249995D01*
X124879524Y-93080665D01*
X124876397Y-93046917D01*
X124820582Y-92850750D01*
X124729673Y-92668179D01*
X124606764Y-92505421D01*
X124456041Y-92368019D01*
X124456036Y-92368015D01*
X124282643Y-92260655D01*
X124282632Y-92260649D01*
X124092462Y-92186978D01*
X124092458Y-92186977D01*
X124092456Y-92186976D01*
X124052360Y-92179480D01*
X123891980Y-92149500D01*
X123891976Y-92149500D01*
X123688024Y-92149500D01*
X123688019Y-92149500D01*
X123487544Y-92186976D01*
X123487537Y-92186978D01*
X123297367Y-92260649D01*
X123297356Y-92260655D01*
X123123963Y-92368015D01*
X123123958Y-92368019D01*
X122973234Y-92505423D01*
X122850328Y-92668176D01*
X122759416Y-92850754D01*
X122703602Y-93046921D01*
X122684785Y-93249995D01*
X122684785Y-93250004D01*
X122703602Y-93453078D01*
X122759416Y-93649245D01*
X122759417Y-93649247D01*
X122759418Y-93649250D01*
X122819220Y-93769350D01*
X122850328Y-93831823D01*
X122912823Y-93914579D01*
X122973236Y-93994579D01*
X123123959Y-94131981D01*
X123268940Y-94221749D01*
X123321771Y-94277939D01*
X123339500Y-94348430D01*
X123339500Y-96930500D01*
X123319538Y-97005000D01*
X123265000Y-97059538D01*
X123190500Y-97079500D01*
X122804294Y-97079500D01*
X122715836Y-97090122D01*
X122575058Y-97145638D01*
X122575058Y-97145639D01*
X122454479Y-97237076D01*
X122454476Y-97237079D01*
X122363039Y-97357658D01*
X122363038Y-97357658D01*
X122307522Y-97498436D01*
X122296900Y-97586894D01*
X122296900Y-98323105D01*
X118200500Y-98323105D01*
X118200500Y-94508321D01*
X118220462Y-94433821D01*
X118244141Y-94402962D01*
X121442962Y-91204141D01*
X121509757Y-91165577D01*
X121548321Y-91160500D01*
X122692680Y-91160500D01*
X122767180Y-91180462D01*
X122821718Y-91235000D01*
X122826059Y-91243085D01*
X122850325Y-91291819D01*
X122908569Y-91368946D01*
X122973236Y-91454579D01*
X123113935Y-91582843D01*
X123123958Y-91591980D01*
X123123963Y-91591984D01*
X123297356Y-91699344D01*
X123297367Y-91699350D01*
X123413332Y-91744274D01*
X123487544Y-91773024D01*
X123688024Y-91810500D01*
X123688027Y-91810500D01*
X123891973Y-91810500D01*
X123891976Y-91810500D01*
X124092456Y-91773024D01*
X124282637Y-91699348D01*
X124456041Y-91591981D01*
X124606764Y-91454579D01*
X124729673Y-91291821D01*
X124820582Y-91109250D01*
X124876397Y-90913083D01*
X124886851Y-90800259D01*
X124895215Y-90710004D01*
X124895215Y-90709995D01*
X124884193Y-90591049D01*
X124876397Y-90506917D01*
X124820582Y-90310750D01*
X124729673Y-90128179D01*
X124606764Y-89965421D01*
X124456041Y-89828019D01*
X124456036Y-89828015D01*
X124282643Y-89720655D01*
X124282632Y-89720649D01*
X124092462Y-89646978D01*
X124092458Y-89646977D01*
X124092456Y-89646976D01*
X124052360Y-89639480D01*
X123891980Y-89609500D01*
X123891976Y-89609500D01*
X123688024Y-89609500D01*
X123688019Y-89609500D01*
X123487544Y-89646976D01*
X123487537Y-89646978D01*
X123297367Y-89720649D01*
X123297356Y-89720655D01*
X123123963Y-89828015D01*
X123123958Y-89828019D01*
X122973234Y-89965423D01*
X122850325Y-90128180D01*
X122826059Y-90176915D01*
X122774982Y-90234707D01*
X122701852Y-90259217D01*
X122692680Y-90259500D01*
X121548321Y-90259500D01*
X121473821Y-90239538D01*
X121442962Y-90215859D01*
X119397107Y-88170004D01*
X122684785Y-88170004D01*
X122703602Y-88373078D01*
X122759416Y-88569245D01*
X122759417Y-88569247D01*
X122759418Y-88569250D01*
X122819220Y-88689350D01*
X122850328Y-88751823D01*
X122929896Y-88857187D01*
X122973236Y-88914579D01*
X123088836Y-89019962D01*
X123123958Y-89051980D01*
X123123963Y-89051984D01*
X123297356Y-89159344D01*
X123297367Y-89159350D01*
X123413332Y-89204274D01*
X123487544Y-89233024D01*
X123688024Y-89270500D01*
X123688027Y-89270500D01*
X123891973Y-89270500D01*
X123891976Y-89270500D01*
X124092456Y-89233024D01*
X124276248Y-89161823D01*
X124282632Y-89159350D01*
X124282632Y-89159349D01*
X124282637Y-89159348D01*
X124456041Y-89051981D01*
X124606764Y-88914579D01*
X124729673Y-88751821D01*
X124729674Y-88751819D01*
X124753941Y-88703085D01*
X124805018Y-88645293D01*
X124878148Y-88620783D01*
X124887320Y-88620500D01*
X128012706Y-88620500D01*
X128087206Y-88640462D01*
X128141744Y-88695000D01*
X128161070Y-88755753D01*
X128163601Y-88783077D01*
X128163602Y-88783078D01*
X128163602Y-88783080D01*
X128163603Y-88783083D01*
X128173303Y-88817173D01*
X128219416Y-88979245D01*
X128219417Y-88979247D01*
X128219418Y-88979250D01*
X128255633Y-89051980D01*
X128310328Y-89161823D01*
X128321773Y-89176978D01*
X128433236Y-89324579D01*
X128583959Y-89461981D01*
X128728940Y-89551749D01*
X128781771Y-89607939D01*
X128799500Y-89678430D01*
X128799500Y-92071569D01*
X128779538Y-92146069D01*
X128728939Y-92198251D01*
X128583959Y-92288019D01*
X128583958Y-92288019D01*
X128433234Y-92425423D01*
X128310328Y-92588176D01*
X128219416Y-92770754D01*
X128163602Y-92966921D01*
X128144785Y-93169995D01*
X128144785Y-93170004D01*
X128163602Y-93373078D01*
X128219416Y-93569245D01*
X128219417Y-93569247D01*
X128219418Y-93569250D01*
X128265594Y-93661984D01*
X128310328Y-93751823D01*
X128344152Y-93796613D01*
X128433236Y-93914579D01*
X128526139Y-93999271D01*
X128583958Y-94051980D01*
X128583963Y-94051984D01*
X128757356Y-94159344D01*
X128757367Y-94159350D01*
X128873332Y-94204274D01*
X128947544Y-94233024D01*
X129148024Y-94270500D01*
X129148027Y-94270500D01*
X129351973Y-94270500D01*
X129351976Y-94270500D01*
X129552456Y-94233024D01*
X129742637Y-94159348D01*
X129916041Y-94051981D01*
X130066764Y-93914579D01*
X130189673Y-93751821D01*
X130280582Y-93569250D01*
X130336397Y-93373083D01*
X130349403Y-93232723D01*
X130355215Y-93170004D01*
X130355215Y-93169995D01*
X130337895Y-92983083D01*
X130336397Y-92966917D01*
X130280582Y-92770750D01*
X130189673Y-92588179D01*
X130181171Y-92576921D01*
X130100428Y-92470000D01*
X130066764Y-92425421D01*
X129916041Y-92288019D01*
X129864584Y-92256158D01*
X129771061Y-92198251D01*
X129718229Y-92142060D01*
X129700500Y-92071569D01*
X129700500Y-90767039D01*
X138294730Y-90767039D01*
X138305096Y-90821821D01*
X138305788Y-90825479D01*
X138313867Y-90879082D01*
X138314653Y-90884291D01*
X138317169Y-90892448D01*
X138319977Y-90900474D01*
X138347777Y-90953072D01*
X138373572Y-91006638D01*
X138378384Y-91013696D01*
X138383435Y-91020539D01*
X138425494Y-91062599D01*
X138465945Y-91106194D01*
X138474675Y-91113156D01*
X138473907Y-91114118D01*
X138487257Y-91124361D01*
X140440596Y-93077699D01*
X140446167Y-93083933D01*
X140470120Y-93113970D01*
X140470123Y-93113972D01*
X140519270Y-93147480D01*
X140539072Y-93162094D01*
X140567118Y-93182793D01*
X140567120Y-93182794D01*
X140574678Y-93186789D01*
X140582323Y-93190470D01*
X140582324Y-93190470D01*
X140582327Y-93190472D01*
X140639177Y-93208007D01*
X140695301Y-93227646D01*
X140695305Y-93227646D01*
X140703660Y-93229227D01*
X140712095Y-93230499D01*
X140712098Y-93230500D01*
X140712101Y-93230500D01*
X140771559Y-93230500D01*
X140831010Y-93232725D01*
X140831014Y-93232724D01*
X140842108Y-93231475D01*
X140842245Y-93232693D01*
X140858930Y-93230500D01*
X144102680Y-93230500D01*
X144177180Y-93250462D01*
X144231718Y-93305000D01*
X144236059Y-93313085D01*
X144260325Y-93361819D01*
X144329241Y-93453078D01*
X144383236Y-93524579D01*
X144519988Y-93649245D01*
X144533958Y-93661980D01*
X144533963Y-93661984D01*
X144707356Y-93769344D01*
X144707367Y-93769350D01*
X144823332Y-93814274D01*
X144897544Y-93843024D01*
X145098024Y-93880500D01*
X145098027Y-93880500D01*
X145301973Y-93880500D01*
X145301976Y-93880500D01*
X145502456Y-93843024D01*
X145692637Y-93769348D01*
X145866041Y-93661981D01*
X146016764Y-93524579D01*
X146139673Y-93361821D01*
X146230582Y-93179250D01*
X146286397Y-92983083D01*
X146298775Y-92849500D01*
X146305215Y-92780004D01*
X146305215Y-92779995D01*
X146287455Y-92588336D01*
X146286397Y-92576917D01*
X146230582Y-92380750D01*
X146139673Y-92198179D01*
X146131214Y-92186978D01*
X146061393Y-92094520D01*
X146016764Y-92035421D01*
X145866041Y-91898019D01*
X145866036Y-91898015D01*
X145692643Y-91790655D01*
X145692632Y-91790649D01*
X145502462Y-91716978D01*
X145502458Y-91716977D01*
X145502456Y-91716976D01*
X145452791Y-91707692D01*
X145301980Y-91679500D01*
X145301976Y-91679500D01*
X145098024Y-91679500D01*
X145098019Y-91679500D01*
X144897544Y-91716976D01*
X144897537Y-91716978D01*
X144707367Y-91790649D01*
X144707356Y-91790655D01*
X144533963Y-91898015D01*
X144533958Y-91898019D01*
X144383234Y-92035423D01*
X144260325Y-92198180D01*
X144236059Y-92246915D01*
X144184982Y-92304707D01*
X144111852Y-92329217D01*
X144102680Y-92329500D01*
X141028321Y-92329500D01*
X140953821Y-92309538D01*
X140922962Y-92285859D01*
X139913999Y-91276896D01*
X139875435Y-91210101D01*
X139875435Y-91132973D01*
X139913999Y-91066178D01*
X139980794Y-91027614D01*
X140057922Y-91027614D01*
X140074020Y-91032926D01*
X140077657Y-91034360D01*
X140077658Y-91034361D01*
X140218436Y-91089877D01*
X140306898Y-91100500D01*
X140306899Y-91100500D01*
X141693101Y-91100500D01*
X141693102Y-91100500D01*
X141781564Y-91089877D01*
X141922342Y-91034361D01*
X142042922Y-90942922D01*
X142134361Y-90822342D01*
X142149151Y-90784836D01*
X142195053Y-90722855D01*
X142265796Y-90692128D01*
X142287762Y-90690500D01*
X142682098Y-90690500D01*
X142682452Y-90690500D01*
X142715606Y-90694235D01*
X142715954Y-90694315D01*
X142764094Y-90690707D01*
X142769644Y-90690500D01*
X144102680Y-90690500D01*
X144177180Y-90710462D01*
X144231718Y-90765000D01*
X144236059Y-90773085D01*
X144260325Y-90821819D01*
X144302687Y-90877915D01*
X144383236Y-90984579D01*
X144525576Y-91114339D01*
X144533958Y-91121980D01*
X144533963Y-91121984D01*
X144707356Y-91229344D01*
X144707367Y-91229350D01*
X144808553Y-91268549D01*
X144897544Y-91303024D01*
X145098024Y-91340500D01*
X145098027Y-91340500D01*
X145301973Y-91340500D01*
X145301976Y-91340500D01*
X145502456Y-91303024D01*
X145692637Y-91229348D01*
X145866041Y-91121981D01*
X146016764Y-90984579D01*
X146139673Y-90821821D01*
X146163941Y-90773085D01*
X146215018Y-90715293D01*
X146288148Y-90690783D01*
X146297320Y-90690500D01*
X147241678Y-90690500D01*
X147316178Y-90710462D01*
X147347037Y-90734141D01*
X149690600Y-93077704D01*
X149696171Y-93083938D01*
X149720120Y-93113970D01*
X149737538Y-93125845D01*
X149769265Y-93147476D01*
X149817117Y-93182792D01*
X149817119Y-93182793D01*
X149824679Y-93186788D01*
X149832324Y-93190470D01*
X149832327Y-93190472D01*
X149889179Y-93208008D01*
X149945300Y-93227646D01*
X149945304Y-93227646D01*
X149953655Y-93229227D01*
X149962095Y-93230499D01*
X149962098Y-93230500D01*
X150021572Y-93230500D01*
X150023388Y-93230567D01*
X150081010Y-93232724D01*
X150081013Y-93232722D01*
X150081015Y-93232723D01*
X150092109Y-93231474D01*
X150092246Y-93232697D01*
X150108927Y-93230500D01*
X151722680Y-93230500D01*
X151797180Y-93250462D01*
X151851718Y-93305000D01*
X151856059Y-93313085D01*
X151880325Y-93361819D01*
X151949241Y-93453078D01*
X152003236Y-93524579D01*
X152139988Y-93649245D01*
X152153958Y-93661980D01*
X152153963Y-93661984D01*
X152327356Y-93769344D01*
X152327367Y-93769350D01*
X152443332Y-93814274D01*
X152517544Y-93843024D01*
X152718024Y-93880500D01*
X152718027Y-93880500D01*
X152921973Y-93880500D01*
X152921976Y-93880500D01*
X153122456Y-93843024D01*
X153312637Y-93769348D01*
X153486041Y-93661981D01*
X153636764Y-93524579D01*
X153759673Y-93361821D01*
X153850582Y-93179250D01*
X153906397Y-92983083D01*
X153918775Y-92849500D01*
X153925215Y-92780004D01*
X153925215Y-92779995D01*
X153907455Y-92588336D01*
X153906397Y-92576917D01*
X153850582Y-92380750D01*
X153838558Y-92356603D01*
X153788543Y-92256158D01*
X153773205Y-92180570D01*
X153797715Y-92107440D01*
X153855507Y-92056364D01*
X153931095Y-92041026D01*
X154004225Y-92065536D01*
X154027281Y-92084384D01*
X154255859Y-92312962D01*
X154294423Y-92379757D01*
X154299500Y-92418321D01*
X154299500Y-100251678D01*
X154279538Y-100326178D01*
X154255858Y-100357037D01*
X151979461Y-102633435D01*
X151979462Y-102633435D01*
X149202298Y-105410597D01*
X149196065Y-105416167D01*
X149166030Y-105440119D01*
X149132518Y-105489272D01*
X149097204Y-105537120D01*
X149093221Y-105544657D01*
X149089526Y-105552329D01*
X149071992Y-105609177D01*
X149052354Y-105665299D01*
X149050768Y-105673680D01*
X149049500Y-105682097D01*
X149049500Y-105682098D01*
X149049500Y-105741573D01*
X149047333Y-105799501D01*
X149047276Y-105801015D01*
X149048526Y-105812109D01*
X149047302Y-105812246D01*
X149049500Y-105828927D01*
X149049500Y-111050500D01*
X149029538Y-111125000D01*
X148975000Y-111179538D01*
X148900500Y-111199500D01*
X147955133Y-111199500D01*
X147930010Y-111202414D01*
X147930007Y-111202415D01*
X147827235Y-111247793D01*
X147747793Y-111327235D01*
X147702416Y-111430005D01*
X147702415Y-111430008D01*
X147702415Y-111430009D01*
X147699500Y-111455135D01*
X147699500Y-111455136D01*
X147699500Y-111455140D01*
X147699500Y-114544866D01*
X147702414Y-114569989D01*
X147702415Y-114569992D01*
X147747793Y-114672764D01*
X147747794Y-114672764D01*
X147747794Y-114672765D01*
X147827235Y-114752206D01*
X147930009Y-114797585D01*
X147955135Y-114800500D01*
X151044864Y-114800499D01*
X151044866Y-114800499D01*
X151057427Y-114799042D01*
X151069991Y-114797585D01*
X151172765Y-114752206D01*
X151252206Y-114672765D01*
X151297585Y-114569991D01*
X151300500Y-114544865D01*
X151300500Y-113599499D01*
X151320462Y-113525000D01*
X151375000Y-113470462D01*
X151449500Y-113450500D01*
X152641017Y-113450500D01*
X152715517Y-113470462D01*
X152770055Y-113525000D01*
X152779715Y-113545061D01*
X152873257Y-113783398D01*
X153008185Y-114017102D01*
X153176439Y-114228085D01*
X153374259Y-114411635D01*
X153597226Y-114563651D01*
X153840359Y-114680738D01*
X154098228Y-114760280D01*
X154365071Y-114800500D01*
X154365074Y-114800500D01*
X154634926Y-114800500D01*
X154634929Y-114800500D01*
X154901772Y-114760280D01*
X155159641Y-114680738D01*
X155402775Y-114563651D01*
X155625741Y-114411635D01*
X155823561Y-114228085D01*
X155991815Y-114017102D01*
X156126743Y-113783398D01*
X156225334Y-113532195D01*
X156234275Y-113493022D01*
X156285381Y-113269113D01*
X156285381Y-113269110D01*
X156285383Y-113269103D01*
X156287973Y-113234538D01*
X156305549Y-113000005D01*
X157694451Y-113000005D01*
X157714615Y-113269090D01*
X157714618Y-113269113D01*
X157774663Y-113532187D01*
X157774665Y-113532194D01*
X157852534Y-113730598D01*
X157873257Y-113783398D01*
X158008185Y-114017102D01*
X158176439Y-114228085D01*
X158374259Y-114411635D01*
X158597226Y-114563651D01*
X158840359Y-114680738D01*
X159098228Y-114760280D01*
X159365071Y-114800500D01*
X159365074Y-114800500D01*
X159634926Y-114800500D01*
X159634929Y-114800500D01*
X159901772Y-114760280D01*
X160159641Y-114680738D01*
X160402775Y-114563651D01*
X160625741Y-114411635D01*
X160823561Y-114228085D01*
X160991815Y-114017102D01*
X161126743Y-113783398D01*
X161225334Y-113532195D01*
X161234275Y-113493022D01*
X161285381Y-113269113D01*
X161285381Y-113269110D01*
X161285383Y-113269103D01*
X161287973Y-113234538D01*
X161305549Y-113000005D01*
X161305549Y-112999994D01*
X161285384Y-112730909D01*
X161285383Y-112730907D01*
X161285383Y-112730897D01*
X161285381Y-112730891D01*
X161285381Y-112730886D01*
X161225336Y-112467812D01*
X161225334Y-112467805D01*
X161220283Y-112454936D01*
X161126743Y-112216602D01*
X160991815Y-111982898D01*
X160823561Y-111771915D01*
X160625741Y-111588365D01*
X160402775Y-111436349D01*
X160402772Y-111436348D01*
X160402770Y-111436346D01*
X160159650Y-111319266D01*
X160159646Y-111319264D01*
X160159641Y-111319262D01*
X160159633Y-111319259D01*
X160159629Y-111319258D01*
X160055581Y-111287163D01*
X159990275Y-111246128D01*
X159954236Y-111177938D01*
X159950500Y-111144783D01*
X159950500Y-99328321D01*
X159970462Y-99253821D01*
X159994141Y-99222962D01*
X160129315Y-99087788D01*
X160289903Y-98927199D01*
X160356696Y-98888637D01*
X160433824Y-98888637D01*
X160445322Y-98892392D01*
X160447536Y-98893022D01*
X160447541Y-98893023D01*
X160447544Y-98893024D01*
X160648024Y-98930500D01*
X160648027Y-98930500D01*
X160851973Y-98930500D01*
X160851976Y-98930500D01*
X161052456Y-98893024D01*
X161226410Y-98825634D01*
X161242632Y-98819350D01*
X161242632Y-98819349D01*
X161242637Y-98819348D01*
X161416041Y-98711981D01*
X161566764Y-98574579D01*
X161689673Y-98411821D01*
X161780582Y-98229250D01*
X161836397Y-98033083D01*
X161847872Y-97909245D01*
X161855215Y-97830004D01*
X161855215Y-97829995D01*
X161841376Y-97680652D01*
X161836397Y-97626917D01*
X161780582Y-97430750D01*
X161689673Y-97248179D01*
X161681288Y-97237076D01*
X161612238Y-97145639D01*
X161566764Y-97085421D01*
X161416041Y-96948019D01*
X161416036Y-96948015D01*
X161242643Y-96840655D01*
X161242632Y-96840649D01*
X161052462Y-96766978D01*
X161052458Y-96766977D01*
X161052456Y-96766976D01*
X161012360Y-96759480D01*
X160851980Y-96729500D01*
X160851976Y-96729500D01*
X160648024Y-96729500D01*
X160648019Y-96729500D01*
X160447544Y-96766976D01*
X160447537Y-96766978D01*
X160257367Y-96840649D01*
X160257356Y-96840655D01*
X160083963Y-96948015D01*
X160083958Y-96948019D01*
X159933234Y-97085423D01*
X159810328Y-97248176D01*
X159719416Y-97430754D01*
X159663602Y-97626921D01*
X159644785Y-97829995D01*
X159644785Y-97830004D01*
X159663602Y-98033078D01*
X159663602Y-98033081D01*
X159694176Y-98140537D01*
X159695364Y-98217655D01*
X159657833Y-98285036D01*
X159656223Y-98286671D01*
X159202297Y-98740598D01*
X159196064Y-98746168D01*
X159166029Y-98770121D01*
X159132518Y-98819272D01*
X159097204Y-98867120D01*
X159093221Y-98874657D01*
X159089526Y-98882329D01*
X159071992Y-98939177D01*
X159052354Y-98995299D01*
X159050768Y-99003680D01*
X159049500Y-99012099D01*
X159049500Y-99071572D01*
X159047276Y-99131015D01*
X159048526Y-99142109D01*
X159047302Y-99142246D01*
X159049500Y-99158927D01*
X159049500Y-111144783D01*
X159029538Y-111219283D01*
X158975000Y-111273821D01*
X158944419Y-111287163D01*
X158840370Y-111319258D01*
X158840349Y-111319266D01*
X158597227Y-111436348D01*
X158374259Y-111588364D01*
X158176438Y-111771915D01*
X158008189Y-111982892D01*
X158008184Y-111982900D01*
X157873257Y-112216601D01*
X157873255Y-112216606D01*
X157774665Y-112467805D01*
X157774663Y-112467812D01*
X157714618Y-112730886D01*
X157714615Y-112730909D01*
X157694451Y-112999994D01*
X157694451Y-113000005D01*
X156305549Y-113000005D01*
X156305549Y-112999994D01*
X156285384Y-112730909D01*
X156285383Y-112730907D01*
X156285383Y-112730897D01*
X156285381Y-112730891D01*
X156285381Y-112730886D01*
X156225336Y-112467812D01*
X156225334Y-112467805D01*
X156220283Y-112454936D01*
X156126743Y-112216602D01*
X155991815Y-111982898D01*
X155823561Y-111771915D01*
X155625741Y-111588365D01*
X155402775Y-111436349D01*
X155402772Y-111436348D01*
X155402770Y-111436346D01*
X155159650Y-111319266D01*
X155159646Y-111319264D01*
X155159641Y-111319262D01*
X155159633Y-111319259D01*
X155159629Y-111319258D01*
X154901777Y-111239721D01*
X154901773Y-111239720D01*
X154634932Y-111199500D01*
X154634929Y-111199500D01*
X154365071Y-111199500D01*
X154365067Y-111199500D01*
X154098226Y-111239720D01*
X154098222Y-111239721D01*
X153840370Y-111319258D01*
X153840349Y-111319266D01*
X153597227Y-111436348D01*
X153374259Y-111588364D01*
X153176438Y-111771915D01*
X153008189Y-111982892D01*
X153008184Y-111982900D01*
X152873257Y-112216601D01*
X152873257Y-112216602D01*
X152793523Y-112419760D01*
X152779717Y-112454936D01*
X152733917Y-112516993D01*
X152663224Y-112547836D01*
X152641017Y-112549500D01*
X151449499Y-112549500D01*
X151374999Y-112529538D01*
X151320461Y-112475000D01*
X151300499Y-112400500D01*
X151300499Y-111455133D01*
X151297585Y-111430010D01*
X151297584Y-111430008D01*
X151252206Y-111327235D01*
X151172765Y-111247794D01*
X151172764Y-111247793D01*
X151069994Y-111202416D01*
X151069991Y-111202415D01*
X151069982Y-111202414D01*
X151044865Y-111199500D01*
X151044859Y-111199500D01*
X150099500Y-111199500D01*
X150025000Y-111179538D01*
X149970462Y-111125000D01*
X149950500Y-111050500D01*
X149950500Y-105998320D01*
X149970462Y-105923820D01*
X149994137Y-105892965D01*
X152508270Y-103378831D01*
X152508275Y-103378828D01*
X152520536Y-103366566D01*
X152520538Y-103366566D01*
X155047711Y-100839390D01*
X155053926Y-100833836D01*
X155083970Y-100809879D01*
X155111590Y-100769367D01*
X155117481Y-100760727D01*
X155152795Y-100712879D01*
X155156774Y-100705350D01*
X155160468Y-100697677D01*
X155160472Y-100697673D01*
X155178007Y-100640822D01*
X155197646Y-100584699D01*
X155197646Y-100584697D01*
X155199227Y-100576339D01*
X155200500Y-100567899D01*
X155200500Y-100508427D01*
X155201582Y-100479499D01*
X155202724Y-100448990D01*
X155202722Y-100448985D01*
X155201474Y-100437897D01*
X155202682Y-100437760D01*
X155200500Y-100421076D01*
X155200500Y-92199486D01*
X155200969Y-92191138D01*
X155201948Y-92182451D01*
X155205270Y-92152965D01*
X155199222Y-92121000D01*
X155194211Y-92094519D01*
X155188105Y-92054005D01*
X155185348Y-92035713D01*
X155185346Y-92035709D01*
X155182830Y-92027552D01*
X155180021Y-92019522D01*
X155152226Y-91966936D01*
X155136847Y-91935000D01*
X155126425Y-91913358D01*
X155126422Y-91913355D01*
X155121622Y-91906314D01*
X155116567Y-91899464D01*
X155074516Y-91857413D01*
X155034057Y-91813808D01*
X155034056Y-91813807D01*
X155034055Y-91813806D01*
X155034053Y-91813804D01*
X155025327Y-91806846D01*
X155026086Y-91805894D01*
X155012742Y-91795639D01*
X153913775Y-90696672D01*
X153875211Y-90629877D01*
X153875211Y-90552749D01*
X153875799Y-90550619D01*
X153906397Y-90443083D01*
X153917314Y-90325272D01*
X153925215Y-90240004D01*
X153925215Y-90239995D01*
X153906397Y-90036921D01*
X153906397Y-90036917D01*
X153850582Y-89840750D01*
X153759673Y-89658179D01*
X153755174Y-89652222D01*
X153708752Y-89590749D01*
X153636764Y-89495421D01*
X153486041Y-89358019D01*
X153486036Y-89358015D01*
X153312643Y-89250655D01*
X153312632Y-89250649D01*
X153122462Y-89176978D01*
X153122458Y-89176977D01*
X153122456Y-89176976D01*
X153082359Y-89169480D01*
X152921980Y-89139500D01*
X152921976Y-89139500D01*
X152718024Y-89139500D01*
X152718019Y-89139500D01*
X152517544Y-89176976D01*
X152517537Y-89176978D01*
X152327367Y-89250649D01*
X152327364Y-89250651D01*
X152156204Y-89356628D01*
X152082353Y-89378874D01*
X152007274Y-89361215D01*
X151972407Y-89335304D01*
X151244141Y-88607038D01*
X151205577Y-88540243D01*
X151200500Y-88501679D01*
X151200500Y-86998320D01*
X151220462Y-86923820D01*
X151244137Y-86892965D01*
X154377711Y-83759390D01*
X154383926Y-83753836D01*
X154413970Y-83729879D01*
X154439660Y-83692197D01*
X154447481Y-83680727D01*
X154482795Y-83632879D01*
X154486774Y-83625350D01*
X154490468Y-83617677D01*
X154490472Y-83617673D01*
X154508007Y-83560822D01*
X154527646Y-83504699D01*
X154527646Y-83504697D01*
X154529227Y-83496339D01*
X154530500Y-83487899D01*
X154530500Y-83428427D01*
X154530574Y-83426427D01*
X154532724Y-83368990D01*
X154532722Y-83368985D01*
X154531474Y-83357897D01*
X154532682Y-83357760D01*
X154530500Y-83341076D01*
X154530500Y-83098430D01*
X154550462Y-83023930D01*
X154601059Y-82971749D01*
X154746041Y-82881981D01*
X154896764Y-82744579D01*
X155019673Y-82581821D01*
X155110582Y-82399250D01*
X155166397Y-82203083D01*
X155177231Y-82086167D01*
X155185215Y-82000004D01*
X155185215Y-81999995D01*
X155174760Y-81887176D01*
X155166397Y-81796917D01*
X155110582Y-81600750D01*
X155019673Y-81418179D01*
X154896764Y-81255421D01*
X154746041Y-81118019D01*
X154746036Y-81118015D01*
X154572643Y-81010655D01*
X154572632Y-81010649D01*
X154382462Y-80936978D01*
X154382458Y-80936977D01*
X154382456Y-80936976D01*
X154342360Y-80929480D01*
X154181980Y-80899500D01*
X154181976Y-80899500D01*
X153978024Y-80899500D01*
X153978019Y-80899500D01*
X153777544Y-80936976D01*
X153777537Y-80936978D01*
X153587367Y-81010649D01*
X153587356Y-81010655D01*
X153413963Y-81118015D01*
X153413958Y-81118019D01*
X153296090Y-81225471D01*
X153275133Y-81244576D01*
X153263234Y-81255423D01*
X153140328Y-81418176D01*
X153049416Y-81600754D01*
X152993602Y-81796921D01*
X152974785Y-81999995D01*
X152974785Y-82000004D01*
X152993602Y-82203078D01*
X152993602Y-82203080D01*
X152993603Y-82203083D01*
X153006818Y-82249527D01*
X153049416Y-82399245D01*
X153049417Y-82399247D01*
X153049418Y-82399250D01*
X153085150Y-82471010D01*
X153140328Y-82581823D01*
X153221174Y-82688880D01*
X153263236Y-82744579D01*
X153413959Y-82881981D01*
X153558940Y-82971749D01*
X153611771Y-83027939D01*
X153629500Y-83098430D01*
X153629500Y-83171678D01*
X153609538Y-83246178D01*
X153585859Y-83277037D01*
X150452298Y-86410597D01*
X150446065Y-86416167D01*
X150416030Y-86440119D01*
X150382518Y-86489272D01*
X150347204Y-86537120D01*
X150343221Y-86544657D01*
X150339526Y-86552329D01*
X150321992Y-86609177D01*
X150302354Y-86665299D01*
X150300768Y-86673680D01*
X150299500Y-86682097D01*
X150299500Y-86682098D01*
X150299500Y-86741573D01*
X150297415Y-86797311D01*
X150297276Y-86801015D01*
X150298526Y-86812109D01*
X150297302Y-86812246D01*
X150299500Y-86828927D01*
X150299500Y-88720513D01*
X150299031Y-88728861D01*
X150294730Y-88767031D01*
X150294730Y-88767039D01*
X150303739Y-88814651D01*
X150305788Y-88825479D01*
X150314523Y-88883434D01*
X150314653Y-88884291D01*
X150317169Y-88892448D01*
X150319977Y-88900474D01*
X150347777Y-88953072D01*
X150373572Y-89006638D01*
X150378384Y-89013696D01*
X150383435Y-89020539D01*
X150425494Y-89062599D01*
X150465945Y-89106194D01*
X150474675Y-89113156D01*
X150473907Y-89114118D01*
X150487257Y-89124361D01*
X151688169Y-90325272D01*
X151726733Y-90392067D01*
X151731174Y-90416881D01*
X151733602Y-90443079D01*
X151789416Y-90639245D01*
X151789417Y-90639247D01*
X151789418Y-90639250D01*
X151848475Y-90757853D01*
X151880328Y-90821823D01*
X151961174Y-90928880D01*
X152003236Y-90984579D01*
X152145576Y-91114339D01*
X152153958Y-91121980D01*
X152153963Y-91121984D01*
X152327356Y-91229344D01*
X152327367Y-91229350D01*
X152428553Y-91268549D01*
X152517544Y-91303024D01*
X152718024Y-91340500D01*
X152718027Y-91340500D01*
X152921973Y-91340500D01*
X152921976Y-91340500D01*
X153122456Y-91303024D01*
X153122459Y-91303022D01*
X153122463Y-91303022D01*
X153129087Y-91301138D01*
X153129528Y-91302691D01*
X153197581Y-91295321D01*
X153268140Y-91326469D01*
X153280097Y-91337201D01*
X153509754Y-91566858D01*
X153548318Y-91633653D01*
X153548318Y-91710781D01*
X153509754Y-91777576D01*
X153442959Y-91816140D01*
X153365831Y-91816140D01*
X153325956Y-91798899D01*
X153325253Y-91798464D01*
X153312637Y-91790652D01*
X153312632Y-91790649D01*
X153122462Y-91716978D01*
X153122458Y-91716977D01*
X153122456Y-91716976D01*
X153072791Y-91707692D01*
X152921980Y-91679500D01*
X152921976Y-91679500D01*
X152718024Y-91679500D01*
X152718019Y-91679500D01*
X152517544Y-91716976D01*
X152517537Y-91716978D01*
X152327367Y-91790649D01*
X152327356Y-91790655D01*
X152153963Y-91898015D01*
X152153958Y-91898019D01*
X152003234Y-92035423D01*
X151880325Y-92198180D01*
X151856059Y-92246915D01*
X151804982Y-92304707D01*
X151731852Y-92329217D01*
X151722680Y-92329500D01*
X150278321Y-92329500D01*
X150203821Y-92309538D01*
X150172962Y-92285859D01*
X147829402Y-89942299D01*
X147823830Y-89936064D01*
X147799879Y-89906030D01*
X147750727Y-89872518D01*
X147702882Y-89837207D01*
X147695324Y-89833212D01*
X147687672Y-89829527D01*
X147648356Y-89817400D01*
X147630822Y-89811992D01*
X147619597Y-89808064D01*
X147574703Y-89792354D01*
X147566330Y-89790770D01*
X147557902Y-89789500D01*
X147557901Y-89789500D01*
X147498427Y-89789500D01*
X147489935Y-89789182D01*
X147438990Y-89787276D01*
X147438989Y-89787276D01*
X147438984Y-89787276D01*
X147427891Y-89788526D01*
X147427753Y-89787302D01*
X147411073Y-89789500D01*
X146297320Y-89789500D01*
X146222820Y-89769538D01*
X146168282Y-89715000D01*
X146163941Y-89706915D01*
X146139674Y-89658180D01*
X146088752Y-89590749D01*
X146016764Y-89495421D01*
X145866041Y-89358019D01*
X145866036Y-89358015D01*
X145733063Y-89275682D01*
X145680230Y-89219491D01*
X145662572Y-89144412D01*
X145684819Y-89070562D01*
X145741010Y-89017729D01*
X145811501Y-89000000D01*
X146047823Y-89000000D01*
X146047842Y-88999998D01*
X146107377Y-88993598D01*
X146242084Y-88943354D01*
X146242094Y-88943349D01*
X146357187Y-88857190D01*
X146357190Y-88857187D01*
X146443349Y-88742094D01*
X146443354Y-88742084D01*
X146493598Y-88607377D01*
X146500000Y-88547829D01*
X146500000Y-87950000D01*
X145739847Y-87950000D01*
X145665347Y-87930038D01*
X145610809Y-87875500D01*
X145590847Y-87801000D01*
X145592681Y-87777692D01*
X145593780Y-87770754D01*
X145604986Y-87700000D01*
X145592681Y-87622307D01*
X145600744Y-87545602D01*
X145646079Y-87483205D01*
X145716539Y-87451834D01*
X145739847Y-87450000D01*
X146500000Y-87450000D01*
X146500000Y-86852177D01*
X146499998Y-86852157D01*
X146493598Y-86792622D01*
X146443354Y-86657915D01*
X146443349Y-86657905D01*
X146357190Y-86542812D01*
X146357187Y-86542809D01*
X146242094Y-86456650D01*
X146242084Y-86456645D01*
X146107376Y-86406401D01*
X146107378Y-86406401D01*
X146047842Y-86400001D01*
X146047823Y-86400000D01*
X145450000Y-86400000D01*
X145450000Y-87160153D01*
X145430038Y-87234653D01*
X145375500Y-87289191D01*
X145301000Y-87309153D01*
X145277694Y-87307319D01*
X145258496Y-87304278D01*
X145231481Y-87300000D01*
X145168519Y-87300000D01*
X145141503Y-87304278D01*
X145122306Y-87307319D01*
X145045601Y-87299256D01*
X144983204Y-87253920D01*
X144951834Y-87183459D01*
X144950000Y-87160153D01*
X144950000Y-86400000D01*
X144352177Y-86400000D01*
X144352157Y-86400001D01*
X144292622Y-86406401D01*
X144157915Y-86456645D01*
X144157905Y-86456650D01*
X144042812Y-86542809D01*
X144042809Y-86542812D01*
X143956650Y-86657905D01*
X143956645Y-86657915D01*
X143906401Y-86792622D01*
X143900001Y-86852157D01*
X143900000Y-86852177D01*
X143900000Y-87450000D01*
X144660153Y-87450000D01*
X144734653Y-87469962D01*
X144789191Y-87524500D01*
X144809153Y-87599000D01*
X144807319Y-87622306D01*
X144795014Y-87700000D01*
X144806220Y-87770754D01*
X144807319Y-87777692D01*
X144799256Y-87854398D01*
X144753921Y-87916795D01*
X144683461Y-87948166D01*
X144660153Y-87950000D01*
X143900000Y-87950000D01*
X143900000Y-88547829D01*
X143906401Y-88607377D01*
X143956645Y-88742084D01*
X143956650Y-88742094D01*
X144042809Y-88857187D01*
X144042812Y-88857190D01*
X144157905Y-88943349D01*
X144157915Y-88943354D01*
X144292623Y-88993598D01*
X144292621Y-88993598D01*
X144352157Y-88999998D01*
X144352177Y-89000000D01*
X144588499Y-89000000D01*
X144662999Y-89019962D01*
X144717537Y-89074500D01*
X144737499Y-89149000D01*
X144717537Y-89223500D01*
X144666937Y-89275682D01*
X144533963Y-89358015D01*
X144533958Y-89358019D01*
X144450869Y-89433765D01*
X144401866Y-89478438D01*
X144383234Y-89495423D01*
X144260325Y-89658180D01*
X144236059Y-89706915D01*
X144184982Y-89764707D01*
X144111852Y-89789217D01*
X144102680Y-89789500D01*
X143349500Y-89789500D01*
X143275000Y-89769538D01*
X143220462Y-89715000D01*
X143200500Y-89640500D01*
X143200500Y-83116386D01*
X143220462Y-83041886D01*
X143275000Y-82987348D01*
X143349500Y-82967386D01*
X143421055Y-82986559D01*
X143421196Y-82986277D01*
X143422585Y-82986969D01*
X143424000Y-82987348D01*
X143427244Y-82989288D01*
X143427367Y-82989350D01*
X143543332Y-83034274D01*
X143617544Y-83063024D01*
X143818024Y-83100500D01*
X143818027Y-83100500D01*
X144021973Y-83100500D01*
X144021976Y-83100500D01*
X144222456Y-83063024D01*
X144412637Y-82989348D01*
X144586041Y-82881981D01*
X144736764Y-82744579D01*
X144859673Y-82581821D01*
X144950582Y-82399250D01*
X145006397Y-82203083D01*
X145017231Y-82086167D01*
X145025215Y-82000004D01*
X145025215Y-81999995D01*
X145014760Y-81887176D01*
X145006397Y-81796917D01*
X144950582Y-81600750D01*
X144859673Y-81418179D01*
X144736764Y-81255421D01*
X144586041Y-81118019D01*
X144586036Y-81118015D01*
X144412643Y-81010655D01*
X144412632Y-81010649D01*
X144222462Y-80936978D01*
X144222458Y-80936977D01*
X144222456Y-80936976D01*
X144182360Y-80929480D01*
X144021980Y-80899500D01*
X144021976Y-80899500D01*
X143818024Y-80899500D01*
X143818019Y-80899500D01*
X143617544Y-80936976D01*
X143617537Y-80936978D01*
X143427367Y-81010649D01*
X143427356Y-81010655D01*
X143253963Y-81118015D01*
X143253958Y-81118019D01*
X143136090Y-81225471D01*
X143115133Y-81244576D01*
X143103234Y-81255423D01*
X142980325Y-81418180D01*
X142889418Y-81600746D01*
X142889417Y-81600750D01*
X142883413Y-81621851D01*
X142843823Y-81688043D01*
X142841453Y-81690291D01*
X142813807Y-81715944D01*
X142806843Y-81724676D01*
X142805907Y-81723929D01*
X142795641Y-81737254D01*
X142452298Y-82080597D01*
X142446065Y-82086167D01*
X142416030Y-82110119D01*
X142382518Y-82159272D01*
X142347204Y-82207120D01*
X142343221Y-82214657D01*
X142339526Y-82222329D01*
X142321992Y-82279177D01*
X142302354Y-82335299D01*
X142300768Y-82343680D01*
X142299500Y-82352099D01*
X142299500Y-82411572D01*
X142297276Y-82471015D01*
X142298526Y-82482109D01*
X142297302Y-82482246D01*
X142299500Y-82498927D01*
X142299500Y-86202452D01*
X142279538Y-86276952D01*
X142225000Y-86331490D01*
X142150500Y-86351452D01*
X142076000Y-86331490D01*
X142072280Y-86329269D01*
X141969125Y-86265644D01*
X141969122Y-86265642D01*
X141802697Y-86210494D01*
X141802688Y-86210492D01*
X141699989Y-86200000D01*
X141250000Y-86200000D01*
X141250000Y-88349999D01*
X141699974Y-88349999D01*
X141802696Y-88339505D01*
X141969121Y-88284357D01*
X142072279Y-88220730D01*
X142146167Y-88198610D01*
X142221216Y-88216397D01*
X142277317Y-88269326D01*
X142299437Y-88343214D01*
X142299500Y-88347547D01*
X142299500Y-89403938D01*
X142279538Y-89478438D01*
X142225000Y-89532976D01*
X142150500Y-89552938D01*
X142076000Y-89532976D01*
X142045141Y-89509297D01*
X142042920Y-89507076D01*
X141983450Y-89461979D01*
X141922342Y-89415639D01*
X141922341Y-89415638D01*
X141781563Y-89360122D01*
X141693105Y-89349500D01*
X141693102Y-89349500D01*
X140306898Y-89349500D01*
X140306894Y-89349500D01*
X140218436Y-89360122D01*
X140077658Y-89415638D01*
X140077658Y-89415639D01*
X139957079Y-89507076D01*
X139957076Y-89507079D01*
X139865639Y-89627658D01*
X139865638Y-89627658D01*
X139810122Y-89768436D01*
X139799500Y-89856894D01*
X139799500Y-90593105D01*
X139810122Y-90681563D01*
X139810123Y-90681566D01*
X139867073Y-90825980D01*
X139875834Y-90902609D01*
X139845106Y-90973351D01*
X139783123Y-91019252D01*
X139706494Y-91028013D01*
X139635752Y-90997285D01*
X139623103Y-90986000D01*
X139244141Y-90607038D01*
X139205577Y-90540243D01*
X139200500Y-90501679D01*
X139200500Y-87525000D01*
X139600001Y-87525000D01*
X139600001Y-87649973D01*
X139610494Y-87752696D01*
X139665642Y-87919121D01*
X139757680Y-88068340D01*
X139881659Y-88192319D01*
X140030878Y-88284357D01*
X140197302Y-88339505D01*
X140197311Y-88339507D01*
X140300015Y-88349999D01*
X140750000Y-88349999D01*
X140750000Y-87525000D01*
X139600001Y-87525000D01*
X139200500Y-87525000D01*
X139200500Y-87025000D01*
X139600000Y-87025000D01*
X140750000Y-87025000D01*
X140750000Y-86200000D01*
X140300026Y-86200000D01*
X140197303Y-86210494D01*
X140030878Y-86265642D01*
X139881659Y-86357680D01*
X139757680Y-86481659D01*
X139665642Y-86630878D01*
X139610494Y-86797302D01*
X139610492Y-86797311D01*
X139600000Y-86900010D01*
X139600000Y-87025000D01*
X139200500Y-87025000D01*
X139200500Y-78773321D01*
X139220462Y-78698821D01*
X139244141Y-78667962D01*
X142517962Y-75394141D01*
X142584757Y-75355577D01*
X142623321Y-75350500D01*
X143493101Y-75350500D01*
X143493102Y-75350500D01*
X143581564Y-75339877D01*
X143722342Y-75284361D01*
X143842922Y-75192922D01*
X143934361Y-75072342D01*
X143989877Y-74931564D01*
X144000500Y-74843102D01*
X144000500Y-74106898D01*
X143989877Y-74018436D01*
X143934361Y-73877658D01*
X143842922Y-73757078D01*
X143842920Y-73757076D01*
X143795982Y-73721482D01*
X143722342Y-73665639D01*
X143722341Y-73665638D01*
X143581563Y-73610122D01*
X143493105Y-73599500D01*
X143493102Y-73599500D01*
X142106898Y-73599500D01*
X142106894Y-73599500D01*
X142018436Y-73610122D01*
X141877658Y-73665638D01*
X141877658Y-73665639D01*
X141757079Y-73757076D01*
X141757076Y-73757079D01*
X141665639Y-73877658D01*
X141665638Y-73877658D01*
X141610122Y-74018436D01*
X141599500Y-74106894D01*
X141599500Y-74843105D01*
X141611262Y-74941049D01*
X141608585Y-74941370D01*
X141607698Y-75003454D01*
X141569700Y-75068194D01*
X138452298Y-78185597D01*
X138446065Y-78191167D01*
X138416030Y-78215119D01*
X138382518Y-78264272D01*
X138347204Y-78312120D01*
X138343221Y-78319657D01*
X138339526Y-78327329D01*
X138321992Y-78384177D01*
X138302354Y-78440299D01*
X138300768Y-78448680D01*
X138299500Y-78457099D01*
X138299500Y-78516572D01*
X138297276Y-78576015D01*
X138298526Y-78587109D01*
X138297302Y-78587246D01*
X138299500Y-78603927D01*
X138299500Y-90720513D01*
X138299031Y-90728861D01*
X138294730Y-90767031D01*
X138294730Y-90767039D01*
X129700500Y-90767039D01*
X129700500Y-89678430D01*
X129720462Y-89603930D01*
X129771059Y-89551749D01*
X129916041Y-89461981D01*
X130066764Y-89324579D01*
X130189673Y-89161821D01*
X130280582Y-88979250D01*
X130336397Y-88783083D01*
X130347862Y-88659350D01*
X130355215Y-88580004D01*
X130355215Y-88579995D01*
X130339887Y-88414579D01*
X130336397Y-88376917D01*
X130280582Y-88180750D01*
X130189673Y-87998179D01*
X130066764Y-87835421D01*
X129916041Y-87698019D01*
X129916036Y-87698015D01*
X129742643Y-87590655D01*
X129742632Y-87590649D01*
X129552462Y-87516978D01*
X129552458Y-87516977D01*
X129552456Y-87516976D01*
X129512359Y-87509480D01*
X129351980Y-87479500D01*
X129351976Y-87479500D01*
X129148024Y-87479500D01*
X129148019Y-87479500D01*
X128947544Y-87516976D01*
X128947537Y-87516978D01*
X128757367Y-87590649D01*
X128757356Y-87590655D01*
X128585310Y-87697182D01*
X128511460Y-87719429D01*
X128506872Y-87719500D01*
X124887320Y-87719500D01*
X124812820Y-87699538D01*
X124758282Y-87645000D01*
X124753941Y-87636915D01*
X124729674Y-87588180D01*
X124681585Y-87524500D01*
X124606764Y-87425421D01*
X124456041Y-87288019D01*
X124456036Y-87288015D01*
X124282643Y-87180655D01*
X124282632Y-87180649D01*
X124092462Y-87106978D01*
X124092458Y-87106977D01*
X124092456Y-87106976D01*
X124052360Y-87099480D01*
X123891980Y-87069500D01*
X123891976Y-87069500D01*
X123688024Y-87069500D01*
X123688019Y-87069500D01*
X123487544Y-87106976D01*
X123487537Y-87106978D01*
X123297367Y-87180649D01*
X123297356Y-87180655D01*
X123123963Y-87288015D01*
X123123958Y-87288019D01*
X122973234Y-87425423D01*
X122850328Y-87588176D01*
X122759416Y-87770754D01*
X122703602Y-87966921D01*
X122684785Y-88169995D01*
X122684785Y-88170004D01*
X119397107Y-88170004D01*
X119099402Y-87872299D01*
X119093830Y-87866064D01*
X119069879Y-87836030D01*
X119020727Y-87802518D01*
X118972882Y-87767207D01*
X118965324Y-87763212D01*
X118957672Y-87759527D01*
X118918357Y-87747400D01*
X118900822Y-87741992D01*
X118889597Y-87738064D01*
X118844703Y-87722354D01*
X118836330Y-87720770D01*
X118827902Y-87719500D01*
X118827901Y-87719500D01*
X118768427Y-87719500D01*
X118759935Y-87719182D01*
X118708990Y-87717276D01*
X118708989Y-87717276D01*
X118708984Y-87717276D01*
X118697891Y-87718526D01*
X118697753Y-87717302D01*
X118681073Y-87719500D01*
X117267320Y-87719500D01*
X117192820Y-87699538D01*
X117138282Y-87645000D01*
X117133941Y-87636915D01*
X117109674Y-87588180D01*
X117061585Y-87524500D01*
X116986764Y-87425421D01*
X116836041Y-87288019D01*
X116836036Y-87288015D01*
X116703063Y-87205682D01*
X116650230Y-87149491D01*
X116632572Y-87074412D01*
X116654819Y-87000562D01*
X116711010Y-86947729D01*
X116781501Y-86930000D01*
X117017823Y-86930000D01*
X117017842Y-86929998D01*
X117077377Y-86923598D01*
X117212084Y-86873354D01*
X117212094Y-86873349D01*
X117327187Y-86787190D01*
X117327190Y-86787187D01*
X117413349Y-86672094D01*
X117413354Y-86672084D01*
X117463598Y-86537377D01*
X117469998Y-86477842D01*
X117470000Y-86477822D01*
X117470000Y-85880000D01*
X116709847Y-85880000D01*
X116635347Y-85860038D01*
X116580809Y-85805500D01*
X116560847Y-85731000D01*
X116562681Y-85707692D01*
X116568939Y-85668179D01*
X116574986Y-85630000D01*
X116562681Y-85552307D01*
X116570744Y-85475602D01*
X116616079Y-85413205D01*
X116686539Y-85381834D01*
X116709847Y-85380000D01*
X117469999Y-85380000D01*
X117470000Y-84782177D01*
X117469998Y-84782157D01*
X117463598Y-84722622D01*
X117413354Y-84587915D01*
X117413349Y-84587905D01*
X117327190Y-84472812D01*
X117327187Y-84472809D01*
X117212094Y-84386650D01*
X117212084Y-84386645D01*
X117077376Y-84336401D01*
X117077378Y-84336401D01*
X117017842Y-84330001D01*
X117017823Y-84330000D01*
X116420000Y-84330000D01*
X116420000Y-85090153D01*
X116400038Y-85164653D01*
X116345500Y-85219191D01*
X116271000Y-85239153D01*
X116247694Y-85237319D01*
X116228496Y-85234278D01*
X116201481Y-85230000D01*
X116138519Y-85230000D01*
X116117613Y-85233310D01*
X116092305Y-85237319D01*
X116015599Y-85229255D01*
X115953202Y-85183919D01*
X115921833Y-85113459D01*
X115919999Y-85090153D01*
X115920000Y-84330000D01*
X115322177Y-84330000D01*
X115322157Y-84330001D01*
X115262622Y-84336401D01*
X115127915Y-84386645D01*
X115127905Y-84386650D01*
X115012812Y-84472809D01*
X115012809Y-84472812D01*
X114926650Y-84587905D01*
X114926645Y-84587915D01*
X114876401Y-84722622D01*
X114870001Y-84782157D01*
X114870000Y-84782177D01*
X114869999Y-85379999D01*
X114870000Y-85380000D01*
X115630153Y-85380000D01*
X115704653Y-85399962D01*
X115759191Y-85454500D01*
X115779153Y-85529000D01*
X115777319Y-85552308D01*
X115765014Y-85629999D01*
X115777319Y-85707692D01*
X115769256Y-85784398D01*
X115723921Y-85846795D01*
X115653461Y-85878166D01*
X115630153Y-85880000D01*
X114870000Y-85880000D01*
X114870000Y-86477822D01*
X114870001Y-86477842D01*
X114876401Y-86537377D01*
X114926645Y-86672084D01*
X114926650Y-86672094D01*
X115012809Y-86787187D01*
X115012812Y-86787190D01*
X115127905Y-86873349D01*
X115127915Y-86873354D01*
X115262623Y-86923598D01*
X115262621Y-86923598D01*
X115322157Y-86929998D01*
X115322177Y-86930000D01*
X115558499Y-86930000D01*
X115632999Y-86949962D01*
X115687537Y-87004500D01*
X115707499Y-87079000D01*
X115687537Y-87153500D01*
X115636937Y-87205682D01*
X115503963Y-87288015D01*
X115503958Y-87288019D01*
X115353234Y-87425423D01*
X115230328Y-87588176D01*
X115139416Y-87770754D01*
X115083602Y-87966921D01*
X115064785Y-88169995D01*
X115064785Y-88170004D01*
X115083602Y-88373078D01*
X115139416Y-88569245D01*
X115139417Y-88569247D01*
X115139418Y-88569250D01*
X115199220Y-88689350D01*
X115230328Y-88751823D01*
X115309896Y-88857187D01*
X115353236Y-88914579D01*
X115468836Y-89019962D01*
X115503958Y-89051980D01*
X115503963Y-89051984D01*
X115677356Y-89159344D01*
X115677367Y-89159350D01*
X115793332Y-89204274D01*
X115867544Y-89233024D01*
X116068024Y-89270500D01*
X116068027Y-89270500D01*
X116271973Y-89270500D01*
X116271976Y-89270500D01*
X116472456Y-89233024D01*
X116656248Y-89161823D01*
X116662632Y-89159350D01*
X116662632Y-89159349D01*
X116662637Y-89159348D01*
X116836041Y-89051981D01*
X116986764Y-88914579D01*
X117109673Y-88751821D01*
X117109674Y-88751819D01*
X117133941Y-88703085D01*
X117185018Y-88645293D01*
X117258148Y-88620783D01*
X117267320Y-88620500D01*
X118511678Y-88620500D01*
X118586178Y-88640462D01*
X118617037Y-88664141D01*
X120557538Y-90604642D01*
X120596101Y-90671435D01*
X120596101Y-90748563D01*
X120557537Y-90815358D01*
X117452298Y-93920597D01*
X117446065Y-93926167D01*
X117416030Y-93950119D01*
X117382518Y-93999272D01*
X117347204Y-94047120D01*
X117343221Y-94054657D01*
X117339526Y-94062329D01*
X117321992Y-94119177D01*
X117302354Y-94175299D01*
X117300768Y-94183680D01*
X117299500Y-94192099D01*
X117299500Y-94251572D01*
X117297276Y-94311013D01*
X117298525Y-94322103D01*
X117297291Y-94322241D01*
X117299499Y-94338917D01*
X117299499Y-98380500D01*
X117279537Y-98455000D01*
X117224999Y-98509538D01*
X117150502Y-98529500D01*
X117105133Y-98529500D01*
X117080010Y-98532414D01*
X117080007Y-98532415D01*
X116977235Y-98577793D01*
X116897794Y-98657234D01*
X116852889Y-98758935D01*
X116804536Y-98819023D01*
X116732616Y-98846885D01*
X116706255Y-98847391D01*
X116687466Y-98846085D01*
X116237688Y-99295863D01*
X116170893Y-99334427D01*
X116093765Y-99334427D01*
X116026970Y-99295863D01*
X115998951Y-99256921D01*
X115993552Y-99246078D01*
X115993549Y-99246075D01*
X115900462Y-99161213D01*
X115901716Y-99159837D01*
X115860443Y-99115941D01*
X115842785Y-99040861D01*
X115865031Y-98967011D01*
X115886355Y-98940090D01*
X116330687Y-98495758D01*
X116242414Y-98441102D01*
X116052317Y-98367458D01*
X115851934Y-98330000D01*
X115648065Y-98330000D01*
X115447682Y-98367458D01*
X115257585Y-98441102D01*
X115169310Y-98495757D01*
X115617418Y-98943865D01*
X115655982Y-99010660D01*
X115655982Y-99087788D01*
X115617418Y-99154583D01*
X115590500Y-99175905D01*
X115544389Y-99204456D01*
X115486883Y-99280607D01*
X115426056Y-99328029D01*
X115349668Y-99338685D01*
X115278186Y-99309718D01*
X115262620Y-99296173D01*
X114812533Y-98846086D01*
X114810754Y-98848443D01*
X114810753Y-98848444D01*
X114719886Y-99030930D01*
X114664096Y-99227014D01*
X114645287Y-99429995D01*
X114645287Y-99430004D01*
X112617098Y-99430004D01*
X116467716Y-95579386D01*
X116473931Y-95573832D01*
X116503970Y-95549879D01*
X116537471Y-95500741D01*
X116572793Y-95452883D01*
X116572795Y-95452874D01*
X116576781Y-95445336D01*
X116580465Y-95437682D01*
X116580472Y-95437673D01*
X116598004Y-95380831D01*
X116617646Y-95324700D01*
X116617646Y-95324697D01*
X116619226Y-95316346D01*
X116620500Y-95307900D01*
X116620500Y-95248427D01*
X116620574Y-95246427D01*
X116622724Y-95188990D01*
X116622722Y-95188985D01*
X116621474Y-95177897D01*
X116622682Y-95177760D01*
X116620500Y-95161076D01*
X116620500Y-94348430D01*
X116640462Y-94273930D01*
X116691059Y-94221749D01*
X116836041Y-94131981D01*
X116986764Y-93994579D01*
X117109673Y-93831821D01*
X117200582Y-93649250D01*
X117256397Y-93453083D01*
X117266851Y-93340259D01*
X117275215Y-93250004D01*
X117275215Y-93249995D01*
X117259524Y-93080665D01*
X117256397Y-93046917D01*
X117200582Y-92850750D01*
X117109673Y-92668179D01*
X116986764Y-92505421D01*
X116836041Y-92368019D01*
X116836036Y-92368015D01*
X116662643Y-92260655D01*
X116662632Y-92260649D01*
X116472462Y-92186978D01*
X116472458Y-92186977D01*
X116472456Y-92186976D01*
X116432360Y-92179480D01*
X116271980Y-92149500D01*
X116271976Y-92149500D01*
X116068024Y-92149500D01*
X116068019Y-92149500D01*
X115867544Y-92186976D01*
X115867537Y-92186978D01*
X115677367Y-92260649D01*
X115677356Y-92260655D01*
X115503963Y-92368015D01*
X115503958Y-92368019D01*
X115353234Y-92505423D01*
X115230328Y-92668176D01*
X115139416Y-92850754D01*
X115083602Y-93046921D01*
X115064785Y-93249995D01*
X115064785Y-93250004D01*
X115083602Y-93453078D01*
X115139416Y-93649245D01*
X115139417Y-93649247D01*
X115139418Y-93649250D01*
X115199220Y-93769350D01*
X115230328Y-93831823D01*
X115292823Y-93914579D01*
X115353236Y-93994579D01*
X115503959Y-94131981D01*
X115648940Y-94221749D01*
X115701771Y-94277939D01*
X115719500Y-94348430D01*
X115719500Y-94991679D01*
X115699538Y-95066179D01*
X115675859Y-95097038D01*
X111357038Y-99415859D01*
X111290243Y-99454423D01*
X111251679Y-99459500D01*
X106748321Y-99459500D01*
X106673821Y-99439538D01*
X106642962Y-99415859D01*
X105244141Y-98017037D01*
X105205577Y-97950242D01*
X105200500Y-97911678D01*
X105200500Y-90670004D01*
X108154357Y-90670004D01*
X108174884Y-90891531D01*
X108174884Y-90891534D01*
X108235770Y-91105528D01*
X108334939Y-91304685D01*
X108334941Y-91304688D01*
X108334942Y-91304689D01*
X108469019Y-91482236D01*
X108633438Y-91632124D01*
X108797681Y-91733819D01*
X108850513Y-91790009D01*
X108868171Y-91865088D01*
X108845925Y-91938938D01*
X108789733Y-91991771D01*
X108719242Y-92009500D01*
X108415133Y-92009500D01*
X108390010Y-92012414D01*
X108390007Y-92012415D01*
X108287235Y-92057793D01*
X108207793Y-92137235D01*
X108162416Y-92240005D01*
X108162415Y-92240008D01*
X108162415Y-92240009D01*
X108159500Y-92265135D01*
X108159500Y-92265136D01*
X108159500Y-92265140D01*
X108159500Y-94154866D01*
X108162414Y-94179989D01*
X108162415Y-94179992D01*
X108207793Y-94282764D01*
X108207794Y-94282765D01*
X108287235Y-94362206D01*
X108390009Y-94407585D01*
X108415135Y-94410500D01*
X108760501Y-94410499D01*
X108835000Y-94430461D01*
X108889538Y-94484999D01*
X108909500Y-94559499D01*
X108909500Y-96411569D01*
X108889538Y-96486069D01*
X108838939Y-96538251D01*
X108693959Y-96628019D01*
X108693958Y-96628019D01*
X108543234Y-96765423D01*
X108420328Y-96928176D01*
X108329416Y-97110754D01*
X108273602Y-97306921D01*
X108254785Y-97509995D01*
X108254785Y-97510004D01*
X108273602Y-97713078D01*
X108273602Y-97713080D01*
X108273603Y-97713083D01*
X108274740Y-97717078D01*
X108329416Y-97909245D01*
X108329417Y-97909247D01*
X108329418Y-97909250D01*
X108398999Y-98048988D01*
X108420328Y-98091823D01*
X108490464Y-98184698D01*
X108543236Y-98254579D01*
X108667059Y-98367458D01*
X108693958Y-98391980D01*
X108693963Y-98391984D01*
X108867356Y-98499344D01*
X108867367Y-98499350D01*
X108983332Y-98544274D01*
X109057544Y-98573024D01*
X109258024Y-98610500D01*
X109258027Y-98610500D01*
X109461973Y-98610500D01*
X109461976Y-98610500D01*
X109662456Y-98573024D01*
X109852637Y-98499348D01*
X110026041Y-98391981D01*
X110176764Y-98254579D01*
X110299673Y-98091821D01*
X110390582Y-97909250D01*
X110446397Y-97713083D01*
X110462478Y-97539538D01*
X110465215Y-97510004D01*
X110465215Y-97509995D01*
X110454760Y-97397176D01*
X110446397Y-97306917D01*
X110390582Y-97110750D01*
X110299673Y-96928179D01*
X110176764Y-96765421D01*
X110026041Y-96628019D01*
X109951429Y-96581821D01*
X109881061Y-96538251D01*
X109828229Y-96482060D01*
X109810500Y-96411569D01*
X109810500Y-94559499D01*
X109830462Y-94484999D01*
X109885000Y-94430461D01*
X109959500Y-94410499D01*
X110304867Y-94410499D01*
X110319940Y-94408750D01*
X110329991Y-94407585D01*
X110432765Y-94362206D01*
X110512206Y-94282765D01*
X110557585Y-94179991D01*
X110560500Y-94154865D01*
X110560499Y-92265136D01*
X110559979Y-92260655D01*
X110557762Y-92241536D01*
X110557585Y-92240009D01*
X110512206Y-92137235D01*
X110432765Y-92057794D01*
X110432764Y-92057793D01*
X110329994Y-92012416D01*
X110329991Y-92012415D01*
X110329982Y-92012414D01*
X110304865Y-92009500D01*
X110304859Y-92009500D01*
X110000758Y-92009500D01*
X109926258Y-91989538D01*
X109871720Y-91935000D01*
X109851758Y-91860500D01*
X109871720Y-91786000D01*
X109922317Y-91733819D01*
X110086562Y-91632124D01*
X110250981Y-91482236D01*
X110385058Y-91304689D01*
X110391467Y-91291819D01*
X110415734Y-91243085D01*
X110466811Y-91185293D01*
X110539941Y-91160783D01*
X110549113Y-91160500D01*
X115072680Y-91160500D01*
X115147180Y-91180462D01*
X115201718Y-91235000D01*
X115206059Y-91243085D01*
X115230325Y-91291819D01*
X115288569Y-91368946D01*
X115353236Y-91454579D01*
X115493935Y-91582843D01*
X115503958Y-91591980D01*
X115503963Y-91591984D01*
X115677356Y-91699344D01*
X115677367Y-91699350D01*
X115793332Y-91744274D01*
X115867544Y-91773024D01*
X116068024Y-91810500D01*
X116068027Y-91810500D01*
X116271973Y-91810500D01*
X116271976Y-91810500D01*
X116472456Y-91773024D01*
X116662637Y-91699348D01*
X116836041Y-91591981D01*
X116986764Y-91454579D01*
X117109673Y-91291821D01*
X117200582Y-91109250D01*
X117256397Y-90913083D01*
X117266851Y-90800259D01*
X117275215Y-90710004D01*
X117275215Y-90709995D01*
X117264193Y-90591049D01*
X117256397Y-90506917D01*
X117200582Y-90310750D01*
X117109673Y-90128179D01*
X116986764Y-89965421D01*
X116836041Y-89828019D01*
X116836036Y-89828015D01*
X116662643Y-89720655D01*
X116662632Y-89720649D01*
X116472462Y-89646978D01*
X116472458Y-89646977D01*
X116472456Y-89646976D01*
X116432360Y-89639480D01*
X116271980Y-89609500D01*
X116271976Y-89609500D01*
X116068024Y-89609500D01*
X116068019Y-89609500D01*
X115867544Y-89646976D01*
X115867537Y-89646978D01*
X115677367Y-89720649D01*
X115677356Y-89720655D01*
X115503963Y-89828015D01*
X115503958Y-89828019D01*
X115353234Y-89965423D01*
X115230325Y-90128180D01*
X115206059Y-90176915D01*
X115154982Y-90234707D01*
X115081852Y-90259217D01*
X115072680Y-90259500D01*
X110588949Y-90259500D01*
X110514449Y-90239538D01*
X110459911Y-90185000D01*
X110455570Y-90176916D01*
X110385059Y-90035312D01*
X110262123Y-89872519D01*
X110250981Y-89857764D01*
X110086562Y-89707876D01*
X109897401Y-89590753D01*
X109897400Y-89590752D01*
X109897396Y-89590750D01*
X109897394Y-89590749D01*
X109689944Y-89510383D01*
X109689941Y-89510382D01*
X109689940Y-89510382D01*
X109634775Y-89500069D01*
X109471247Y-89469500D01*
X109471243Y-89469500D01*
X109248757Y-89469500D01*
X109248752Y-89469500D01*
X109030055Y-89510383D01*
X108822605Y-89590749D01*
X108822603Y-89590750D01*
X108633436Y-89707877D01*
X108469019Y-89857763D01*
X108334939Y-90035314D01*
X108235770Y-90234471D01*
X108174884Y-90448465D01*
X108174884Y-90448468D01*
X108154357Y-90669995D01*
X108154357Y-90670004D01*
X105200500Y-90670004D01*
X105200500Y-88158320D01*
X105220462Y-88083820D01*
X105244137Y-88052965D01*
X110142962Y-83154140D01*
X110209757Y-83115577D01*
X110248321Y-83110500D01*
X118501678Y-83110500D01*
X118576178Y-83130462D01*
X118607037Y-83154141D01*
X121380596Y-85927699D01*
X121386167Y-85933933D01*
X121410120Y-85963970D01*
X121410123Y-85963972D01*
X121459270Y-85997480D01*
X121462685Y-86000000D01*
X121507118Y-86032793D01*
X121507120Y-86032794D01*
X121514664Y-86036781D01*
X121522324Y-86040470D01*
X121522327Y-86040472D01*
X121579172Y-86058006D01*
X121635300Y-86077646D01*
X121635301Y-86077646D01*
X121643661Y-86079227D01*
X121652095Y-86080499D01*
X121652098Y-86080500D01*
X121711572Y-86080500D01*
X121713388Y-86080567D01*
X121771010Y-86082724D01*
X121771013Y-86082722D01*
X121771015Y-86082723D01*
X121782109Y-86081474D01*
X121782246Y-86082697D01*
X121798927Y-86080500D01*
X122692680Y-86080500D01*
X122767180Y-86100462D01*
X122821718Y-86155000D01*
X122826059Y-86163085D01*
X122850325Y-86211819D01*
X122924817Y-86310462D01*
X122973236Y-86374579D01*
X123123958Y-86511980D01*
X123123963Y-86511984D01*
X123297356Y-86619344D01*
X123297367Y-86619350D01*
X123404384Y-86660808D01*
X123487544Y-86693024D01*
X123688024Y-86730500D01*
X123688027Y-86730500D01*
X123891973Y-86730500D01*
X123891976Y-86730500D01*
X124092456Y-86693024D01*
X124282637Y-86619348D01*
X124456041Y-86511981D01*
X124606764Y-86374579D01*
X124729673Y-86211821D01*
X124820582Y-86029250D01*
X124876397Y-85833083D01*
X124895215Y-85630000D01*
X124890327Y-85577254D01*
X124879794Y-85463575D01*
X124876397Y-85426917D01*
X124820582Y-85230750D01*
X124729673Y-85048179D01*
X124727441Y-85045224D01*
X124625776Y-84910597D01*
X124606764Y-84885421D01*
X124456041Y-84748019D01*
X124442282Y-84739500D01*
X124311061Y-84658251D01*
X124258229Y-84602060D01*
X124240500Y-84531569D01*
X124240500Y-84330000D01*
X124240500Y-84128316D01*
X124260461Y-84053820D01*
X124284133Y-84022969D01*
X128789903Y-79517198D01*
X128856696Y-79478636D01*
X128933824Y-79478636D01*
X128945308Y-79482387D01*
X128947534Y-79483020D01*
X128947544Y-79483024D01*
X129148024Y-79520500D01*
X129148027Y-79520500D01*
X129351973Y-79520500D01*
X129351976Y-79520500D01*
X129552456Y-79483024D01*
X129742637Y-79409348D01*
X129916041Y-79301981D01*
X130066764Y-79164579D01*
X130189673Y-79001821D01*
X130280582Y-78819250D01*
X130336397Y-78623083D01*
X130346851Y-78510259D01*
X130355215Y-78420004D01*
X130355215Y-78419995D01*
X130340785Y-78264271D01*
X130336397Y-78216917D01*
X130280582Y-78020750D01*
X130189673Y-77838179D01*
X130066764Y-77675421D01*
X129916041Y-77538019D01*
X129916036Y-77538015D01*
X129742643Y-77430655D01*
X129742632Y-77430649D01*
X129552462Y-77356978D01*
X129552458Y-77356977D01*
X129552456Y-77356976D01*
X129503224Y-77347773D01*
X129351980Y-77319500D01*
X129351976Y-77319500D01*
X129148024Y-77319500D01*
X129148019Y-77319500D01*
X128996776Y-77347773D01*
X128947544Y-77356976D01*
X128947541Y-77356977D01*
X128940917Y-77358862D01*
X128940476Y-77357313D01*
X128872388Y-77364674D01*
X128801835Y-77333512D01*
X128789902Y-77322799D01*
X126322461Y-74855358D01*
X126283897Y-74788563D01*
X126283897Y-74711435D01*
X126322458Y-74644644D01*
X129073997Y-71893105D01*
X141599500Y-71893105D01*
X141610122Y-71981563D01*
X141665638Y-72122341D01*
X141754843Y-72239976D01*
X141757078Y-72242922D01*
X141877658Y-72334361D01*
X142018436Y-72389877D01*
X142106898Y-72400500D01*
X142106899Y-72400500D01*
X143493101Y-72400500D01*
X143493102Y-72400500D01*
X143581564Y-72389877D01*
X143722342Y-72334361D01*
X143842922Y-72242922D01*
X143934361Y-72122342D01*
X143964924Y-72044838D01*
X144010826Y-71982856D01*
X144081569Y-71952128D01*
X144103536Y-71950500D01*
X148200500Y-71950500D01*
X148275000Y-71970462D01*
X148329538Y-72025000D01*
X148349500Y-72099500D01*
X148349500Y-72143193D01*
X148360121Y-72231636D01*
X148360122Y-72231641D01*
X148415626Y-72372391D01*
X148415626Y-72372392D01*
X148453284Y-72422052D01*
X148507049Y-72492951D01*
X148627607Y-72584373D01*
X148768360Y-72639878D01*
X148856808Y-72650500D01*
X150143192Y-72650500D01*
X150231640Y-72639878D01*
X150372393Y-72584373D01*
X150492951Y-72492951D01*
X150584373Y-72372393D01*
X150639878Y-72231640D01*
X150650500Y-72143192D01*
X150650500Y-70856808D01*
X150639878Y-70768360D01*
X150584373Y-70627607D01*
X150492951Y-70507049D01*
X150492949Y-70507047D01*
X150434676Y-70462858D01*
X150372393Y-70415627D01*
X150372391Y-70415626D01*
X150231641Y-70360122D01*
X150231636Y-70360121D01*
X150143193Y-70349500D01*
X150143192Y-70349500D01*
X148856808Y-70349500D01*
X148856806Y-70349500D01*
X148768363Y-70360121D01*
X148768358Y-70360122D01*
X148627608Y-70415626D01*
X148627607Y-70415626D01*
X148507050Y-70507047D01*
X148507047Y-70507050D01*
X148415626Y-70627607D01*
X148415626Y-70627608D01*
X148360122Y-70768358D01*
X148360121Y-70768363D01*
X148349500Y-70856806D01*
X148349500Y-70900500D01*
X148329538Y-70975000D01*
X148275000Y-71029538D01*
X148200500Y-71049500D01*
X144083818Y-71049500D01*
X144009318Y-71029538D01*
X143954780Y-70975000D01*
X143945207Y-70955161D01*
X143934362Y-70927661D01*
X143934361Y-70927658D01*
X143907124Y-70891741D01*
X143842923Y-70807079D01*
X143842920Y-70807076D01*
X143791862Y-70768358D01*
X143722342Y-70715639D01*
X143722341Y-70715638D01*
X143581563Y-70660122D01*
X143493105Y-70649500D01*
X143493102Y-70649500D01*
X142106898Y-70649500D01*
X142106894Y-70649500D01*
X142018436Y-70660122D01*
X141877658Y-70715638D01*
X141877658Y-70715639D01*
X141757079Y-70807076D01*
X141757076Y-70807079D01*
X141665639Y-70927658D01*
X141665638Y-70927658D01*
X141610122Y-71068436D01*
X141599500Y-71156894D01*
X141599500Y-71893105D01*
X129073997Y-71893105D01*
X134372962Y-66594139D01*
X134439757Y-66555576D01*
X134478321Y-66550499D01*
X136624867Y-66550499D01*
X136639940Y-66548750D01*
X136649991Y-66547585D01*
X136752765Y-66502206D01*
X136832206Y-66422765D01*
X136877585Y-66319991D01*
X136880500Y-66294865D01*
X136880500Y-65349500D01*
X136900462Y-65275000D01*
X136955000Y-65220462D01*
X137029500Y-65200500D01*
X146251678Y-65200500D01*
X146326178Y-65220462D01*
X146357037Y-65244141D01*
X159258893Y-78145997D01*
X159279482Y-78171866D01*
X159279671Y-78172167D01*
X159279678Y-78172176D01*
X159316251Y-78203650D01*
X159320336Y-78207440D01*
X159800309Y-78687413D01*
X160255859Y-79142962D01*
X160294423Y-79209757D01*
X160299500Y-79248321D01*
X160299500Y-86571569D01*
X160279538Y-86646069D01*
X160228939Y-86698251D01*
X160083959Y-86788019D01*
X160083958Y-86788019D01*
X159933234Y-86925423D01*
X159810325Y-87088180D01*
X159771121Y-87166915D01*
X159720045Y-87224707D01*
X159646915Y-87249217D01*
X159637742Y-87249500D01*
X153917320Y-87249500D01*
X153842820Y-87229538D01*
X153788282Y-87175000D01*
X153783941Y-87166915D01*
X153759674Y-87118180D01*
X153691299Y-87027637D01*
X153636764Y-86955421D01*
X153486041Y-86818019D01*
X153486036Y-86818015D01*
X153312643Y-86710655D01*
X153312632Y-86710649D01*
X153122462Y-86636978D01*
X153122458Y-86636977D01*
X153122456Y-86636976D01*
X153082359Y-86629480D01*
X152921980Y-86599500D01*
X152921976Y-86599500D01*
X152718024Y-86599500D01*
X152718019Y-86599500D01*
X152517544Y-86636976D01*
X152517537Y-86636978D01*
X152327367Y-86710649D01*
X152327356Y-86710655D01*
X152153963Y-86818015D01*
X152153958Y-86818019D01*
X152003234Y-86955423D01*
X151880328Y-87118176D01*
X151789416Y-87300754D01*
X151753945Y-87425423D01*
X151737505Y-87483205D01*
X151733602Y-87496921D01*
X151714785Y-87699995D01*
X151714785Y-87700004D01*
X151733602Y-87903078D01*
X151733602Y-87903080D01*
X151733603Y-87903083D01*
X151753243Y-87972109D01*
X151789416Y-88099245D01*
X151789417Y-88099247D01*
X151789418Y-88099250D01*
X151852034Y-88225000D01*
X151880328Y-88281823D01*
X151949241Y-88373078D01*
X152003236Y-88444579D01*
X152151786Y-88580000D01*
X152153958Y-88581980D01*
X152153963Y-88581984D01*
X152327356Y-88689344D01*
X152327367Y-88689350D01*
X152440097Y-88733021D01*
X152517544Y-88763024D01*
X152718024Y-88800500D01*
X152718027Y-88800500D01*
X152921973Y-88800500D01*
X152921976Y-88800500D01*
X153122456Y-88763024D01*
X153312637Y-88689348D01*
X153486041Y-88581981D01*
X153636764Y-88444579D01*
X153759673Y-88281821D01*
X153774612Y-88251819D01*
X153783941Y-88233085D01*
X153835018Y-88175293D01*
X153908148Y-88150783D01*
X153917320Y-88150500D01*
X159667618Y-88150500D01*
X159742118Y-88170462D01*
X159796656Y-88225000D01*
X159800998Y-88233086D01*
X159810327Y-88251821D01*
X159933236Y-88414579D01*
X160083958Y-88551980D01*
X160083963Y-88551984D01*
X160257356Y-88659344D01*
X160257367Y-88659350D01*
X160349392Y-88695000D01*
X160447544Y-88733024D01*
X160648024Y-88770500D01*
X160648027Y-88770500D01*
X160851973Y-88770500D01*
X160851976Y-88770500D01*
X161052456Y-88733024D01*
X161242637Y-88659348D01*
X161416041Y-88551981D01*
X161566764Y-88414579D01*
X161689673Y-88251821D01*
X161780582Y-88069250D01*
X161836397Y-87873083D01*
X161850832Y-87717302D01*
X161855215Y-87670004D01*
X161855215Y-87669995D01*
X161841036Y-87516978D01*
X161836397Y-87466917D01*
X161780582Y-87270750D01*
X161689673Y-87088179D01*
X161682741Y-87079000D01*
X161636360Y-87017581D01*
X161566764Y-86925421D01*
X161416041Y-86788019D01*
X161341028Y-86741573D01*
X161271061Y-86698251D01*
X161218229Y-86642060D01*
X161200500Y-86571569D01*
X161200500Y-80500000D01*
X164365034Y-80500000D01*
X164384859Y-80726606D01*
X164443732Y-80946323D01*
X164443733Y-80946325D01*
X164539862Y-81152477D01*
X164539865Y-81152482D01*
X164590973Y-81225471D01*
X165108248Y-80708197D01*
X165175043Y-80669633D01*
X165252171Y-80669633D01*
X165318966Y-80708197D01*
X165334351Y-80729370D01*
X165335468Y-80728560D01*
X165342359Y-80738045D01*
X165431954Y-80827640D01*
X165441440Y-80834532D01*
X165439363Y-80837390D01*
X165481390Y-80875218D01*
X165505236Y-80948567D01*
X165489214Y-81024012D01*
X165461801Y-81061750D01*
X164944527Y-81579025D01*
X165017517Y-81630134D01*
X165017522Y-81630137D01*
X165223674Y-81726266D01*
X165223676Y-81726267D01*
X165443394Y-81785140D01*
X165443393Y-81785140D01*
X165669999Y-81804965D01*
X165896606Y-81785140D01*
X166116323Y-81726267D01*
X166116325Y-81726266D01*
X166322483Y-81630133D01*
X166322492Y-81630127D01*
X166395472Y-81579026D01*
X165878197Y-81061751D01*
X165839633Y-80994956D01*
X165839633Y-80917828D01*
X165878197Y-80851033D01*
X165899373Y-80835651D01*
X165898560Y-80834532D01*
X165908040Y-80827643D01*
X165908045Y-80827641D01*
X165997641Y-80738045D01*
X165997643Y-80738040D01*
X166004532Y-80728560D01*
X166007390Y-80730636D01*
X166045218Y-80688609D01*
X166118567Y-80664762D01*
X166194012Y-80680784D01*
X166231751Y-80708197D01*
X166749026Y-81225471D01*
X166800127Y-81152492D01*
X166800133Y-81152483D01*
X166896266Y-80946325D01*
X166896267Y-80946323D01*
X166955140Y-80726606D01*
X166974965Y-80500000D01*
X166955140Y-80273393D01*
X166896267Y-80053676D01*
X166896266Y-80053674D01*
X166800137Y-79847522D01*
X166800134Y-79847517D01*
X166749025Y-79774527D01*
X166231750Y-80291801D01*
X166164955Y-80330365D01*
X166087827Y-80330365D01*
X166021032Y-80291801D01*
X166005651Y-80270626D01*
X166004532Y-80271440D01*
X165997640Y-80261954D01*
X165908045Y-80172359D01*
X165898560Y-80165468D01*
X165900633Y-80162614D01*
X165858584Y-80124743D01*
X165834759Y-80051387D01*
X165850804Y-79975946D01*
X165878197Y-79938248D01*
X166395471Y-79420973D01*
X166395472Y-79420973D01*
X166322482Y-79369865D01*
X166322477Y-79369862D01*
X166116325Y-79273733D01*
X166116323Y-79273732D01*
X165896605Y-79214859D01*
X165896606Y-79214859D01*
X165670000Y-79195034D01*
X165443393Y-79214859D01*
X165223676Y-79273732D01*
X165223674Y-79273733D01*
X165017518Y-79369865D01*
X165017513Y-79369867D01*
X164944527Y-79420972D01*
X164944527Y-79420973D01*
X165461802Y-79938248D01*
X165500366Y-80005043D01*
X165500366Y-80082171D01*
X165461802Y-80148966D01*
X165440629Y-80164352D01*
X165441440Y-80165468D01*
X165431954Y-80172359D01*
X165342359Y-80261954D01*
X165335468Y-80271440D01*
X165332615Y-80269367D01*
X165294723Y-80311428D01*
X165221363Y-80335241D01*
X165145925Y-80319184D01*
X165108248Y-80291802D01*
X164590973Y-79774527D01*
X164590972Y-79774527D01*
X164539867Y-79847513D01*
X164539865Y-79847518D01*
X164443733Y-80053674D01*
X164443732Y-80053676D01*
X164384859Y-80273393D01*
X164365034Y-80500000D01*
X161200500Y-80500000D01*
X161200500Y-79029486D01*
X161200969Y-79021138D01*
X161203145Y-79001821D01*
X161205270Y-78982965D01*
X161194211Y-78924520D01*
X161185348Y-78865713D01*
X161185346Y-78865709D01*
X161182830Y-78857552D01*
X161180021Y-78849522D01*
X161152226Y-78796936D01*
X161126425Y-78743359D01*
X161126425Y-78743358D01*
X161126422Y-78743355D01*
X161121622Y-78736314D01*
X161116567Y-78729464D01*
X161074516Y-78687413D01*
X161034057Y-78643808D01*
X161034056Y-78643807D01*
X161034055Y-78643806D01*
X161034053Y-78643804D01*
X161025327Y-78636846D01*
X161026086Y-78635894D01*
X161012742Y-78625639D01*
X160367462Y-77980359D01*
X160328898Y-77913564D01*
X160328898Y-77836436D01*
X160367462Y-77769641D01*
X162642962Y-75494141D01*
X162709757Y-75455577D01*
X162748321Y-75450500D01*
X164572680Y-75450500D01*
X164647180Y-75470462D01*
X164701718Y-75525000D01*
X164706059Y-75533085D01*
X164730325Y-75581819D01*
X164810023Y-75687355D01*
X164853236Y-75744579D01*
X165003958Y-75881980D01*
X165003963Y-75881984D01*
X165177356Y-75989344D01*
X165177367Y-75989350D01*
X165293332Y-76034274D01*
X165367544Y-76063024D01*
X165568024Y-76100500D01*
X165568027Y-76100500D01*
X165771973Y-76100500D01*
X165771976Y-76100500D01*
X165972456Y-76063024D01*
X166162637Y-75989348D01*
X166336041Y-75881981D01*
X166486764Y-75744579D01*
X166609673Y-75581821D01*
X166700582Y-75399250D01*
X166756397Y-75203083D01*
X166775215Y-75000004D01*
X174724785Y-75000004D01*
X174743602Y-75203078D01*
X174799416Y-75399245D01*
X174799417Y-75399247D01*
X174799418Y-75399250D01*
X174834877Y-75470462D01*
X174890328Y-75581823D01*
X174971174Y-75688880D01*
X175013236Y-75744579D01*
X175163958Y-75881980D01*
X175163963Y-75881984D01*
X175337356Y-75989344D01*
X175337367Y-75989350D01*
X175453332Y-76034274D01*
X175527544Y-76063024D01*
X175728024Y-76100500D01*
X175728027Y-76100500D01*
X175931973Y-76100500D01*
X175931976Y-76100500D01*
X176132456Y-76063024D01*
X176322637Y-75989348D01*
X176496041Y-75881981D01*
X176646764Y-75744579D01*
X176769673Y-75581821D01*
X176793941Y-75533085D01*
X176845018Y-75475293D01*
X176918148Y-75450783D01*
X176927320Y-75450500D01*
X177720514Y-75450500D01*
X177728861Y-75450968D01*
X177767035Y-75455270D01*
X177767040Y-75455269D01*
X177825479Y-75444212D01*
X177854882Y-75439779D01*
X177884287Y-75435348D01*
X177884292Y-75435345D01*
X177892461Y-75432825D01*
X177900466Y-75430025D01*
X177900468Y-75430023D01*
X177900472Y-75430023D01*
X177953072Y-75402222D01*
X178006642Y-75376425D01*
X178006645Y-75376421D01*
X178013695Y-75371616D01*
X178020536Y-75366567D01*
X178020535Y-75366567D01*
X178020538Y-75366566D01*
X178062599Y-75324504D01*
X178106194Y-75284055D01*
X178106196Y-75284050D01*
X178113157Y-75275324D01*
X178114142Y-75276109D01*
X178124361Y-75262741D01*
X180222962Y-73164141D01*
X180289757Y-73125577D01*
X180328321Y-73120500D01*
X183891017Y-73120500D01*
X183965517Y-73140462D01*
X184020055Y-73195000D01*
X184029715Y-73215061D01*
X184123257Y-73453398D01*
X184258185Y-73687102D01*
X184426439Y-73898085D01*
X184624259Y-74081635D01*
X184847226Y-74233651D01*
X185090359Y-74350738D01*
X185348228Y-74430280D01*
X185615071Y-74470500D01*
X185615074Y-74470500D01*
X185884926Y-74470500D01*
X185884929Y-74470500D01*
X186151772Y-74430280D01*
X186409641Y-74350738D01*
X186652775Y-74233651D01*
X186875741Y-74081635D01*
X187073561Y-73898085D01*
X187241815Y-73687102D01*
X187376743Y-73453398D01*
X187475334Y-73202195D01*
X187492822Y-73125577D01*
X187535381Y-72939113D01*
X187535381Y-72939110D01*
X187535383Y-72939103D01*
X187536064Y-72930010D01*
X187555549Y-72670005D01*
X187555549Y-72669994D01*
X187535384Y-72400909D01*
X187535383Y-72400907D01*
X187535383Y-72400897D01*
X187535381Y-72400891D01*
X187535381Y-72400886D01*
X187475336Y-72137812D01*
X187475334Y-72137805D01*
X187463738Y-72108259D01*
X187376743Y-71886602D01*
X187241815Y-71652898D01*
X187073561Y-71441915D01*
X186875741Y-71258365D01*
X186652775Y-71106349D01*
X186652772Y-71106348D01*
X186652770Y-71106346D01*
X186409650Y-70989266D01*
X186409646Y-70989264D01*
X186409641Y-70989262D01*
X186409633Y-70989259D01*
X186409629Y-70989258D01*
X186151777Y-70909721D01*
X186151773Y-70909720D01*
X185884932Y-70869500D01*
X185884929Y-70869500D01*
X185615071Y-70869500D01*
X185615067Y-70869500D01*
X185348226Y-70909720D01*
X185348222Y-70909721D01*
X185090370Y-70989258D01*
X185090349Y-70989266D01*
X184847227Y-71106348D01*
X184624259Y-71258364D01*
X184426438Y-71441915D01*
X184258189Y-71652892D01*
X184258184Y-71652900D01*
X184123257Y-71886601D01*
X184123255Y-71886606D01*
X184096307Y-71955269D01*
X184033002Y-72116567D01*
X184029717Y-72124936D01*
X183983917Y-72186993D01*
X183913224Y-72217836D01*
X183891017Y-72219500D01*
X180109487Y-72219500D01*
X180101139Y-72219031D01*
X180062968Y-72214730D01*
X180062961Y-72214730D01*
X180004511Y-72225789D01*
X179945713Y-72234651D01*
X179937534Y-72237173D01*
X179929529Y-72239974D01*
X179876926Y-72267777D01*
X179823357Y-72293574D01*
X179816325Y-72298368D01*
X179809462Y-72303434D01*
X179767414Y-72345482D01*
X179723806Y-72385945D01*
X179716843Y-72394676D01*
X179715907Y-72393929D01*
X179705641Y-72407254D01*
X177607038Y-74505859D01*
X177540243Y-74544423D01*
X177501679Y-74549500D01*
X176927320Y-74549500D01*
X176852820Y-74529538D01*
X176798282Y-74475000D01*
X176793941Y-74466915D01*
X176769674Y-74418180D01*
X176664976Y-74279538D01*
X176646764Y-74255421D01*
X176496041Y-74118019D01*
X176496036Y-74118015D01*
X176322643Y-74010655D01*
X176322632Y-74010649D01*
X176132462Y-73936978D01*
X176132458Y-73936977D01*
X176132456Y-73936976D01*
X176092360Y-73929480D01*
X175931980Y-73899500D01*
X175931976Y-73899500D01*
X175728024Y-73899500D01*
X175728019Y-73899500D01*
X175527544Y-73936976D01*
X175527537Y-73936978D01*
X175337367Y-74010649D01*
X175337356Y-74010655D01*
X175163963Y-74118015D01*
X175163958Y-74118019D01*
X175013234Y-74255423D01*
X174890328Y-74418176D01*
X174799416Y-74600754D01*
X174743602Y-74796921D01*
X174724785Y-74999995D01*
X174724785Y-75000004D01*
X166775215Y-75000004D01*
X166775215Y-75000000D01*
X166756397Y-74796917D01*
X166700582Y-74600750D01*
X166609673Y-74418179D01*
X166486764Y-74255421D01*
X166336041Y-74118019D01*
X166336036Y-74118015D01*
X166162643Y-74010655D01*
X166162632Y-74010649D01*
X165972462Y-73936978D01*
X165972458Y-73936977D01*
X165972456Y-73936976D01*
X165932360Y-73929480D01*
X165771980Y-73899500D01*
X165771976Y-73899500D01*
X165568024Y-73899500D01*
X165568019Y-73899500D01*
X165367544Y-73936976D01*
X165367537Y-73936978D01*
X165177367Y-74010649D01*
X165177356Y-74010655D01*
X165003963Y-74118015D01*
X165003958Y-74118019D01*
X164853234Y-74255423D01*
X164730325Y-74418180D01*
X164706059Y-74466915D01*
X164654982Y-74524707D01*
X164581852Y-74549217D01*
X164572680Y-74549500D01*
X162529487Y-74549500D01*
X162521139Y-74549031D01*
X162482968Y-74544730D01*
X162482966Y-74544730D01*
X162482965Y-74544730D01*
X162424520Y-74555788D01*
X162399547Y-74559552D01*
X162365712Y-74564651D01*
X162357573Y-74567162D01*
X162349525Y-74569978D01*
X162321880Y-74584588D01*
X162296927Y-74597777D01*
X162243358Y-74623575D01*
X162243354Y-74623577D01*
X162236311Y-74628378D01*
X162229460Y-74633434D01*
X162187400Y-74675494D01*
X162143807Y-74715943D01*
X162136847Y-74724671D01*
X162135917Y-74723929D01*
X162125643Y-74737251D01*
X159730358Y-77132536D01*
X159663563Y-77171100D01*
X159586435Y-77171100D01*
X159519640Y-77132536D01*
X153887108Y-71500004D01*
X155944571Y-71500004D01*
X155964243Y-71712305D01*
X156022593Y-71917385D01*
X156022594Y-71917387D01*
X156117636Y-72108259D01*
X156243555Y-72275000D01*
X156246128Y-72278407D01*
X156387466Y-72407254D01*
X156403697Y-72422051D01*
X156403698Y-72422052D01*
X156584977Y-72534296D01*
X156584983Y-72534299D01*
X156672189Y-72568082D01*
X156783802Y-72611321D01*
X156993390Y-72650500D01*
X156993393Y-72650500D01*
X157206607Y-72650500D01*
X157206610Y-72650500D01*
X157416198Y-72611321D01*
X157615019Y-72534298D01*
X157796302Y-72422052D01*
X157953872Y-72278407D01*
X158082366Y-72108255D01*
X158119313Y-72034055D01*
X158119797Y-72033084D01*
X158170874Y-71975293D01*
X158244004Y-71950783D01*
X158253176Y-71950500D01*
X163890514Y-71950500D01*
X163898861Y-71950968D01*
X163937035Y-71955270D01*
X163937040Y-71955269D01*
X163995479Y-71944212D01*
X164024882Y-71939779D01*
X164054287Y-71935348D01*
X164054292Y-71935345D01*
X164062461Y-71932825D01*
X164070466Y-71930025D01*
X164070468Y-71930023D01*
X164070472Y-71930023D01*
X164123072Y-71902222D01*
X164176642Y-71876425D01*
X164176645Y-71876421D01*
X164183695Y-71871616D01*
X164190536Y-71866567D01*
X164190535Y-71866567D01*
X164190538Y-71866566D01*
X164232599Y-71824504D01*
X164276194Y-71784055D01*
X164276196Y-71784050D01*
X164283157Y-71775324D01*
X164284142Y-71776109D01*
X164294361Y-71762741D01*
X165209903Y-70847199D01*
X165276696Y-70808637D01*
X165353824Y-70808637D01*
X165365322Y-70812392D01*
X165367536Y-70813022D01*
X165367541Y-70813023D01*
X165367544Y-70813024D01*
X165568024Y-70850500D01*
X165568027Y-70850500D01*
X165771973Y-70850500D01*
X165771976Y-70850500D01*
X165972456Y-70813024D01*
X166162637Y-70739348D01*
X166336041Y-70631981D01*
X166486764Y-70494579D01*
X166609673Y-70331821D01*
X166700582Y-70149250D01*
X166756397Y-69953083D01*
X166766851Y-69840259D01*
X166775215Y-69750004D01*
X166775215Y-69750000D01*
X174525034Y-69750000D01*
X174544859Y-69976606D01*
X174603732Y-70196323D01*
X174603733Y-70196325D01*
X174699862Y-70402477D01*
X174699865Y-70402482D01*
X174750973Y-70475471D01*
X175268248Y-69958197D01*
X175335043Y-69919633D01*
X175412171Y-69919633D01*
X175478966Y-69958197D01*
X175494351Y-69979370D01*
X175495468Y-69978560D01*
X175502359Y-69988045D01*
X175591954Y-70077640D01*
X175601440Y-70084532D01*
X175599363Y-70087390D01*
X175641390Y-70125218D01*
X175665236Y-70198567D01*
X175649214Y-70274012D01*
X175621801Y-70311750D01*
X175104527Y-70829025D01*
X175177517Y-70880134D01*
X175177522Y-70880137D01*
X175383674Y-70976266D01*
X175383676Y-70976267D01*
X175603394Y-71035140D01*
X175603393Y-71035140D01*
X175830000Y-71054965D01*
X176056606Y-71035140D01*
X176276323Y-70976267D01*
X176276325Y-70976266D01*
X176482483Y-70880133D01*
X176482492Y-70880127D01*
X176555472Y-70829026D01*
X176038197Y-70311751D01*
X175999633Y-70244956D01*
X175999633Y-70167828D01*
X176038197Y-70101033D01*
X176059373Y-70085651D01*
X176058560Y-70084532D01*
X176068040Y-70077643D01*
X176068045Y-70077641D01*
X176157641Y-69988045D01*
X176157643Y-69988040D01*
X176164532Y-69978560D01*
X176167390Y-69980636D01*
X176205218Y-69938609D01*
X176278567Y-69914762D01*
X176354012Y-69930784D01*
X176391751Y-69958197D01*
X176909026Y-70475471D01*
X176960127Y-70402492D01*
X176960133Y-70402483D01*
X177056266Y-70196325D01*
X177056267Y-70196323D01*
X177115140Y-69976606D01*
X177134965Y-69750000D01*
X177115140Y-69523393D01*
X177056267Y-69303676D01*
X177056266Y-69303674D01*
X176960137Y-69097522D01*
X176960134Y-69097517D01*
X176909025Y-69024527D01*
X176391750Y-69541801D01*
X176324955Y-69580365D01*
X176247827Y-69580365D01*
X176181032Y-69541801D01*
X176165651Y-69520626D01*
X176164532Y-69521440D01*
X176157640Y-69511954D01*
X176068045Y-69422359D01*
X176058560Y-69415468D01*
X176060633Y-69412614D01*
X176018584Y-69374743D01*
X175994759Y-69301387D01*
X176010804Y-69225946D01*
X176038197Y-69188248D01*
X176555471Y-68670973D01*
X176555472Y-68670973D01*
X176482482Y-68619865D01*
X176482477Y-68619862D01*
X176276325Y-68523733D01*
X176276323Y-68523732D01*
X176056605Y-68464859D01*
X176056606Y-68464859D01*
X175830000Y-68445034D01*
X175603393Y-68464859D01*
X175383676Y-68523732D01*
X175383674Y-68523733D01*
X175177518Y-68619865D01*
X175177513Y-68619867D01*
X175104527Y-68670972D01*
X175104527Y-68670973D01*
X175621802Y-69188248D01*
X175660366Y-69255043D01*
X175660366Y-69332171D01*
X175621802Y-69398966D01*
X175600629Y-69414352D01*
X175601440Y-69415468D01*
X175591954Y-69422359D01*
X175502359Y-69511954D01*
X175495468Y-69521440D01*
X175492615Y-69519367D01*
X175454723Y-69561428D01*
X175381363Y-69585241D01*
X175305925Y-69569184D01*
X175268248Y-69541802D01*
X174750973Y-69024527D01*
X174750972Y-69024527D01*
X174699867Y-69097513D01*
X174699865Y-69097518D01*
X174603733Y-69303674D01*
X174603732Y-69303676D01*
X174544859Y-69523393D01*
X174525034Y-69750000D01*
X166775215Y-69750000D01*
X166775215Y-69749995D01*
X166757997Y-69564187D01*
X166756397Y-69546917D01*
X166700582Y-69350750D01*
X166609673Y-69168179D01*
X166486764Y-69005421D01*
X166336041Y-68868019D01*
X166336036Y-68868015D01*
X166162643Y-68760655D01*
X166162632Y-68760649D01*
X165972462Y-68686978D01*
X165972458Y-68686977D01*
X165972456Y-68686976D01*
X165925032Y-68678111D01*
X165771980Y-68649500D01*
X165771976Y-68649500D01*
X165568024Y-68649500D01*
X165568019Y-68649500D01*
X165367544Y-68686976D01*
X165367537Y-68686978D01*
X165177367Y-68760649D01*
X165177356Y-68760655D01*
X165003963Y-68868015D01*
X165003958Y-68868019D01*
X164853234Y-69005423D01*
X164730328Y-69168176D01*
X164639416Y-69350754D01*
X164583602Y-69546921D01*
X164564785Y-69749995D01*
X164564785Y-69750004D01*
X164583602Y-69953078D01*
X164583602Y-69953081D01*
X164614176Y-70060538D01*
X164615364Y-70137657D01*
X164577832Y-70205037D01*
X164576223Y-70206672D01*
X163777038Y-71005859D01*
X163710243Y-71044423D01*
X163671679Y-71049500D01*
X158253176Y-71049500D01*
X158178676Y-71029538D01*
X158124138Y-70975000D01*
X158119797Y-70966916D01*
X158100246Y-70927654D01*
X158082366Y-70891745D01*
X157953872Y-70721593D01*
X157796302Y-70577948D01*
X157796301Y-70577947D01*
X157615022Y-70465703D01*
X157615016Y-70465700D01*
X157416204Y-70388681D01*
X157416200Y-70388680D01*
X157416198Y-70388679D01*
X157374280Y-70380843D01*
X157206614Y-70349500D01*
X157206610Y-70349500D01*
X156993390Y-70349500D01*
X156993385Y-70349500D01*
X156783802Y-70388679D01*
X156783795Y-70388681D01*
X156584983Y-70465700D01*
X156584977Y-70465703D01*
X156403698Y-70577947D01*
X156403697Y-70577948D01*
X156246127Y-70721593D01*
X156117636Y-70891740D01*
X156022594Y-71082612D01*
X156022593Y-71082614D01*
X155982081Y-71225000D01*
X155966564Y-71279538D01*
X155964243Y-71287694D01*
X155944571Y-71499995D01*
X155944571Y-71500004D01*
X153887108Y-71500004D01*
X147387102Y-64999999D01*
X181294922Y-64999999D01*
X181315218Y-65387280D01*
X181375888Y-65770335D01*
X181375889Y-65770338D01*
X181476259Y-66144927D01*
X181476266Y-66144947D01*
X181615237Y-66506977D01*
X181615248Y-66507001D01*
X181791300Y-66852525D01*
X181791311Y-66852545D01*
X182002528Y-67177789D01*
X182211095Y-67435349D01*
X182852709Y-66793736D01*
X182919504Y-66755172D01*
X182996632Y-66755172D01*
X183063427Y-66793736D01*
X183081956Y-66816314D01*
X183122702Y-66877294D01*
X183122704Y-66877296D01*
X183183683Y-66918041D01*
X183234537Y-66976029D01*
X183249584Y-67051675D01*
X183224792Y-67124710D01*
X183206262Y-67147289D01*
X182564648Y-67788902D01*
X182564649Y-67788903D01*
X182822213Y-67997473D01*
X182822215Y-67997475D01*
X183147454Y-68208688D01*
X183147474Y-68208699D01*
X183492998Y-68384751D01*
X183493022Y-68384762D01*
X183855052Y-68523733D01*
X183855072Y-68523740D01*
X184229661Y-68624110D01*
X184229664Y-68624111D01*
X184612719Y-68684781D01*
X185000000Y-68705077D01*
X185387280Y-68684781D01*
X185770335Y-68624111D01*
X185770338Y-68624110D01*
X186144927Y-68523740D01*
X186144947Y-68523733D01*
X186506977Y-68384762D01*
X186507001Y-68384751D01*
X186852525Y-68208699D01*
X186852545Y-68208688D01*
X187177785Y-67997474D01*
X187435350Y-67788902D01*
X186793736Y-67147289D01*
X186755172Y-67080494D01*
X186755172Y-67003366D01*
X186793736Y-66936571D01*
X186816311Y-66918044D01*
X186877296Y-66877296D01*
X186918043Y-66816314D01*
X186976027Y-66765462D01*
X187051673Y-66750414D01*
X187124708Y-66775205D01*
X187147289Y-66793736D01*
X187788902Y-67435349D01*
X187997474Y-67177785D01*
X188208688Y-66852545D01*
X188208699Y-66852525D01*
X188384751Y-66507001D01*
X188384762Y-66506977D01*
X188523733Y-66144947D01*
X188523740Y-66144927D01*
X188624110Y-65770338D01*
X188624111Y-65770335D01*
X188684781Y-65387280D01*
X188705078Y-64999999D01*
X188684781Y-64612719D01*
X188624111Y-64229664D01*
X188624110Y-64229661D01*
X188523740Y-63855072D01*
X188523733Y-63855052D01*
X188384762Y-63493022D01*
X188384751Y-63492998D01*
X188208699Y-63147474D01*
X188208688Y-63147454D01*
X187997475Y-62822215D01*
X187997473Y-62822213D01*
X187788903Y-62564649D01*
X187788902Y-62564648D01*
X187147289Y-63206262D01*
X187080494Y-63244826D01*
X187003366Y-63244826D01*
X186936571Y-63206262D01*
X186918041Y-63183683D01*
X186877296Y-63122704D01*
X186877294Y-63122702D01*
X186816314Y-63081956D01*
X186765461Y-63023968D01*
X186750414Y-62948322D01*
X186775207Y-62875287D01*
X186793736Y-62852709D01*
X187435349Y-62211095D01*
X187177789Y-62002528D01*
X186852545Y-61791311D01*
X186852525Y-61791300D01*
X186507001Y-61615248D01*
X186506977Y-61615237D01*
X186144947Y-61476266D01*
X186144927Y-61476259D01*
X185770338Y-61375889D01*
X185770335Y-61375888D01*
X185387280Y-61315218D01*
X185000000Y-61294922D01*
X184612719Y-61315218D01*
X184229664Y-61375888D01*
X184229661Y-61375889D01*
X183855072Y-61476259D01*
X183855052Y-61476266D01*
X183493022Y-61615237D01*
X183492998Y-61615248D01*
X183147474Y-61791300D01*
X183147454Y-61791311D01*
X182822210Y-62002528D01*
X182564649Y-62211095D01*
X182564648Y-62211095D01*
X183206263Y-62852710D01*
X183244827Y-62919505D01*
X183244827Y-62996633D01*
X183206263Y-63063428D01*
X183183684Y-63081958D01*
X183122704Y-63122703D01*
X183122703Y-63122704D01*
X183081958Y-63183684D01*
X183023970Y-63234538D01*
X182948323Y-63249585D01*
X182875289Y-63224793D01*
X182852710Y-63206263D01*
X182211095Y-62564648D01*
X182211095Y-62564649D01*
X182002528Y-62822210D01*
X181791311Y-63147454D01*
X181791300Y-63147474D01*
X181615248Y-63492998D01*
X181615237Y-63493022D01*
X181476266Y-63855052D01*
X181476259Y-63855072D01*
X181375889Y-64229661D01*
X181375888Y-64229664D01*
X181315218Y-64612719D01*
X181294922Y-64999999D01*
X147387102Y-64999999D01*
X146839402Y-64452299D01*
X146833830Y-64446064D01*
X146809879Y-64416030D01*
X146760727Y-64382518D01*
X146712882Y-64347207D01*
X146705324Y-64343212D01*
X146697672Y-64339527D01*
X146658357Y-64327400D01*
X146640822Y-64321992D01*
X146629597Y-64318064D01*
X146584703Y-64302354D01*
X146576330Y-64300770D01*
X146567902Y-64299500D01*
X146567901Y-64299500D01*
X146508427Y-64299500D01*
X146499935Y-64299182D01*
X146448990Y-64297276D01*
X146448989Y-64297276D01*
X146448984Y-64297276D01*
X146437891Y-64298526D01*
X146437753Y-64297302D01*
X146421073Y-64299500D01*
X137029499Y-64299500D01*
X136954999Y-64279538D01*
X136900461Y-64225000D01*
X136880499Y-64150500D01*
X136880499Y-63205133D01*
X136877585Y-63180010D01*
X136877584Y-63180008D01*
X136832206Y-63077235D01*
X136752765Y-62997794D01*
X136752764Y-62997793D01*
X136649994Y-62952416D01*
X136649991Y-62952415D01*
X136649982Y-62952414D01*
X136624865Y-62949500D01*
X136624859Y-62949500D01*
X133535133Y-62949500D01*
X133510010Y-62952414D01*
X133510007Y-62952415D01*
X133407235Y-62997793D01*
X133327793Y-63077235D01*
X133282416Y-63180005D01*
X133282415Y-63180008D01*
X133282415Y-63180009D01*
X133279500Y-63205135D01*
X133279500Y-63205136D01*
X133279500Y-63205140D01*
X133279500Y-66294870D01*
X133283517Y-66329505D01*
X133272269Y-66405808D01*
X133240868Y-66452026D01*
X125437038Y-74255859D01*
X125370243Y-74294423D01*
X125331679Y-74299500D01*
X121199499Y-74299500D01*
X121124999Y-74279538D01*
X121070461Y-74225000D01*
X121050499Y-74150500D01*
X121050499Y-72955133D01*
X121047585Y-72930010D01*
X121047584Y-72930008D01*
X121002206Y-72827235D01*
X120922765Y-72747794D01*
X120922764Y-72747793D01*
X120819994Y-72702416D01*
X120819991Y-72702415D01*
X120819982Y-72702414D01*
X120794865Y-72699500D01*
X120794859Y-72699500D01*
X117205133Y-72699500D01*
X117180010Y-72702414D01*
X117180007Y-72702415D01*
X117077235Y-72747793D01*
X116997793Y-72827235D01*
X116952416Y-72930005D01*
X116952415Y-72930008D01*
X116952415Y-72930009D01*
X116949500Y-72955135D01*
X116949500Y-72955136D01*
X116949500Y-72955140D01*
X116949500Y-76544866D01*
X116952414Y-76569989D01*
X116952415Y-76569992D01*
X116997793Y-76672764D01*
X116997794Y-76672765D01*
X117077235Y-76752206D01*
X117180009Y-76797585D01*
X117205135Y-76800500D01*
X120794864Y-76800499D01*
X120794866Y-76800499D01*
X120807427Y-76799042D01*
X120819991Y-76797585D01*
X120922765Y-76752206D01*
X121002206Y-76672765D01*
X121047585Y-76569991D01*
X121050500Y-76544865D01*
X121050499Y-75349500D01*
X121070462Y-75275000D01*
X121125000Y-75220462D01*
X121199500Y-75200500D01*
X125331678Y-75200500D01*
X125406178Y-75220462D01*
X125437037Y-75244141D01*
X128156223Y-77963326D01*
X128194787Y-78030121D01*
X128194787Y-78107249D01*
X128194176Y-78109459D01*
X128163603Y-78216914D01*
X128163602Y-78216921D01*
X128144785Y-78419995D01*
X128144785Y-78420004D01*
X128163602Y-78623078D01*
X128163602Y-78623081D01*
X128194176Y-78730537D01*
X128195364Y-78807655D01*
X128157833Y-78875036D01*
X128156223Y-78876671D01*
X123492298Y-83540597D01*
X123486065Y-83546167D01*
X123456030Y-83570119D01*
X123422518Y-83619272D01*
X123387204Y-83667120D01*
X123383221Y-83674657D01*
X123379526Y-83682329D01*
X123361992Y-83739177D01*
X123342354Y-83795299D01*
X123340769Y-83803677D01*
X123339499Y-83812100D01*
X123339499Y-83871572D01*
X123337276Y-83931013D01*
X123338526Y-83942108D01*
X123337343Y-83942241D01*
X123339499Y-83958926D01*
X123339499Y-84531569D01*
X123319537Y-84606069D01*
X123268938Y-84658251D01*
X123123959Y-84748018D01*
X123123958Y-84748019D01*
X122973234Y-84885423D01*
X122850325Y-85048180D01*
X122826059Y-85096915D01*
X122774982Y-85154707D01*
X122701852Y-85179217D01*
X122692680Y-85179500D01*
X121968321Y-85179500D01*
X121893821Y-85159538D01*
X121862962Y-85135859D01*
X119089402Y-82362299D01*
X119083830Y-82356064D01*
X119080667Y-82352098D01*
X119059879Y-82326030D01*
X119010728Y-82292519D01*
X118998609Y-82283575D01*
X118962882Y-82257207D01*
X118955324Y-82253212D01*
X118947672Y-82249527D01*
X118908357Y-82237400D01*
X118890822Y-82231992D01*
X118877027Y-82227165D01*
X118834703Y-82212354D01*
X118826330Y-82210770D01*
X118817902Y-82209500D01*
X118817901Y-82209500D01*
X118758427Y-82209500D01*
X118745892Y-82209031D01*
X118698990Y-82207276D01*
X118698989Y-82207276D01*
X118698984Y-82207276D01*
X118687891Y-82208526D01*
X118687753Y-82207302D01*
X118671073Y-82209500D01*
X110029487Y-82209500D01*
X110021139Y-82209031D01*
X109982968Y-82204730D01*
X109982966Y-82204730D01*
X109982965Y-82204730D01*
X109924520Y-82215788D01*
X109899547Y-82219552D01*
X109865712Y-82224651D01*
X109857561Y-82227165D01*
X109849526Y-82229977D01*
X109796936Y-82257773D01*
X109743361Y-82283573D01*
X109736318Y-82288374D01*
X109729463Y-82293434D01*
X109687413Y-82335482D01*
X109643806Y-82375945D01*
X109636843Y-82384676D01*
X109635907Y-82383929D01*
X109625641Y-82397254D01*
X104452298Y-87570597D01*
X104446065Y-87576167D01*
X104416030Y-87600119D01*
X104382518Y-87649272D01*
X104347204Y-87697120D01*
X104343221Y-87704657D01*
X104339526Y-87712329D01*
X104321992Y-87769177D01*
X104302354Y-87825299D01*
X104300768Y-87833680D01*
X104299500Y-87842099D01*
X104299500Y-87901572D01*
X104297276Y-87961015D01*
X104298526Y-87972109D01*
X104297302Y-87972246D01*
X104299500Y-87988927D01*
X104299500Y-98130513D01*
X104299031Y-98138861D01*
X104294730Y-98177031D01*
X104294730Y-98177039D01*
X100200500Y-98177039D01*
X100200500Y-72697552D01*
X112249500Y-72697552D01*
X112249838Y-72702415D01*
X112255784Y-72788097D01*
X112305661Y-73000162D01*
X112305663Y-73000169D01*
X112393654Y-73199448D01*
X112393658Y-73199456D01*
X112404350Y-73215064D01*
X112516774Y-73379182D01*
X112670818Y-73533226D01*
X112850546Y-73656343D01*
X112898852Y-73677672D01*
X113049830Y-73744336D01*
X113049834Y-73744337D01*
X113049836Y-73744338D01*
X113261901Y-73794215D01*
X113352448Y-73800500D01*
X113352450Y-73800500D01*
X115247550Y-73800500D01*
X115247552Y-73800500D01*
X115338099Y-73794215D01*
X115550164Y-73744338D01*
X115749454Y-73656343D01*
X115929182Y-73533226D01*
X116083226Y-73379182D01*
X116206343Y-73199454D01*
X116294338Y-73000164D01*
X116344215Y-72788099D01*
X116350500Y-72697552D01*
X116350499Y-72349499D01*
X116370462Y-72275000D01*
X116425000Y-72220462D01*
X116499500Y-72200500D01*
X122970514Y-72200500D01*
X122978861Y-72200968D01*
X123017035Y-72205270D01*
X123017040Y-72205269D01*
X123075479Y-72194212D01*
X123104882Y-72189779D01*
X123134287Y-72185348D01*
X123134292Y-72185345D01*
X123142461Y-72182825D01*
X123150466Y-72180025D01*
X123150468Y-72180023D01*
X123150472Y-72180023D01*
X123203072Y-72152222D01*
X123256642Y-72126425D01*
X123256645Y-72126421D01*
X123263695Y-72121616D01*
X123270536Y-72116567D01*
X123270535Y-72116567D01*
X123270538Y-72116566D01*
X123312600Y-72074503D01*
X123356194Y-72034055D01*
X123363157Y-72025324D01*
X123364142Y-72026109D01*
X123374361Y-72012741D01*
X129006424Y-66380677D01*
X129073217Y-66342115D01*
X129150345Y-66342115D01*
X129176430Y-66351794D01*
X129240740Y-66382764D01*
X129340359Y-66430738D01*
X129598228Y-66510280D01*
X129865071Y-66550500D01*
X129865074Y-66550500D01*
X130134926Y-66550500D01*
X130134929Y-66550500D01*
X130401772Y-66510280D01*
X130659641Y-66430738D01*
X130902775Y-66313651D01*
X131125741Y-66161635D01*
X131323561Y-65978085D01*
X131491815Y-65767102D01*
X131626743Y-65533398D01*
X131725334Y-65282195D01*
X131739424Y-65220462D01*
X131785381Y-65019113D01*
X131785381Y-65019110D01*
X131785383Y-65019103D01*
X131805549Y-64750000D01*
X131785383Y-64480897D01*
X131785381Y-64480891D01*
X131785381Y-64480886D01*
X131725336Y-64217812D01*
X131725334Y-64217805D01*
X131698918Y-64150500D01*
X131626743Y-63966602D01*
X131491815Y-63732898D01*
X131323561Y-63521915D01*
X131125741Y-63338365D01*
X130902775Y-63186349D01*
X130902772Y-63186348D01*
X130902770Y-63186346D01*
X130659650Y-63069266D01*
X130659646Y-63069264D01*
X130659641Y-63069262D01*
X130659633Y-63069259D01*
X130659629Y-63069258D01*
X130401777Y-62989721D01*
X130401773Y-62989720D01*
X130134932Y-62949500D01*
X130134929Y-62949500D01*
X129865071Y-62949500D01*
X129865067Y-62949500D01*
X129598226Y-62989720D01*
X129598222Y-62989721D01*
X129340370Y-63069258D01*
X129340349Y-63069266D01*
X129097227Y-63186348D01*
X128874259Y-63338364D01*
X128676438Y-63521915D01*
X128508189Y-63732892D01*
X128508184Y-63732900D01*
X128373257Y-63966601D01*
X128373255Y-63966606D01*
X128274665Y-64217805D01*
X128274663Y-64217812D01*
X128214618Y-64480886D01*
X128214615Y-64480909D01*
X128194451Y-64749994D01*
X128194451Y-64750005D01*
X128214615Y-65019090D01*
X128214618Y-65019113D01*
X128274663Y-65282187D01*
X128274665Y-65282194D01*
X128373255Y-65533394D01*
X128373262Y-65533407D01*
X128391580Y-65565136D01*
X128411542Y-65639636D01*
X128391579Y-65714136D01*
X128367901Y-65744994D01*
X122857038Y-71255859D01*
X122790243Y-71294423D01*
X122751679Y-71299500D01*
X116499500Y-71299500D01*
X116425000Y-71279538D01*
X116370462Y-71225000D01*
X116350500Y-71150500D01*
X116350500Y-70802450D01*
X116346859Y-70750000D01*
X116344215Y-70711901D01*
X116294338Y-70499836D01*
X116294337Y-70499834D01*
X116294336Y-70499830D01*
X116206345Y-70300551D01*
X116206341Y-70300543D01*
X116168263Y-70244956D01*
X116083226Y-70120818D01*
X115929182Y-69966774D01*
X115853254Y-69914762D01*
X115749456Y-69843658D01*
X115749448Y-69843654D01*
X115550169Y-69755663D01*
X115550162Y-69755661D01*
X115338096Y-69705784D01*
X115338098Y-69705784D01*
X115259304Y-69700315D01*
X115247552Y-69699500D01*
X113352448Y-69699500D01*
X113340695Y-69700315D01*
X113261902Y-69705784D01*
X113049837Y-69755661D01*
X113049830Y-69755663D01*
X112850551Y-69843654D01*
X112850543Y-69843658D01*
X112670817Y-69966774D01*
X112516774Y-70120817D01*
X112393658Y-70300543D01*
X112393654Y-70300551D01*
X112305663Y-70499830D01*
X112305661Y-70499837D01*
X112255784Y-70711902D01*
X112253140Y-70750000D01*
X112249500Y-70802448D01*
X112249500Y-72697552D01*
X100200500Y-72697552D01*
X100200500Y-65000000D01*
X100200500Y-64999999D01*
X101294922Y-64999999D01*
X101315218Y-65387280D01*
X101375888Y-65770335D01*
X101375889Y-65770338D01*
X101476259Y-66144927D01*
X101476266Y-66144947D01*
X101615237Y-66506977D01*
X101615248Y-66507001D01*
X101791300Y-66852525D01*
X101791311Y-66852545D01*
X102002528Y-67177789D01*
X102211095Y-67435349D01*
X102852709Y-66793736D01*
X102919504Y-66755172D01*
X102996632Y-66755172D01*
X103063427Y-66793736D01*
X103081956Y-66816314D01*
X103122702Y-66877294D01*
X103122704Y-66877296D01*
X103183683Y-66918041D01*
X103234537Y-66976029D01*
X103249584Y-67051675D01*
X103224792Y-67124710D01*
X103206262Y-67147289D01*
X102564648Y-67788902D01*
X102564649Y-67788903D01*
X102822213Y-67997473D01*
X102822215Y-67997475D01*
X103147454Y-68208688D01*
X103147474Y-68208699D01*
X103492998Y-68384751D01*
X103493022Y-68384762D01*
X103855052Y-68523733D01*
X103855072Y-68523740D01*
X104229661Y-68624110D01*
X104229664Y-68624111D01*
X104612719Y-68684781D01*
X104999999Y-68705077D01*
X105387280Y-68684781D01*
X105770335Y-68624111D01*
X105770338Y-68624110D01*
X106144927Y-68523740D01*
X106144947Y-68523733D01*
X106206773Y-68500000D01*
X116750000Y-68500000D01*
X117353653Y-68500000D01*
X117428153Y-68519962D01*
X117482691Y-68574500D01*
X117502653Y-68649000D01*
X117501137Y-68670203D01*
X117500000Y-68678111D01*
X117500000Y-68821888D01*
X117501137Y-68829797D01*
X117491979Y-68906380D01*
X117445757Y-68968123D01*
X117374856Y-68998484D01*
X117353653Y-69000000D01*
X116750001Y-69000000D01*
X116750001Y-69564187D01*
X116760399Y-69696331D01*
X116760400Y-69696335D01*
X116815375Y-69914511D01*
X116815378Y-69914519D01*
X116908427Y-70119373D01*
X117036565Y-70304331D01*
X117195668Y-70463434D01*
X117380626Y-70591572D01*
X117585480Y-70684621D01*
X117585487Y-70684624D01*
X117803670Y-70739600D01*
X117935811Y-70750000D01*
X117935812Y-70750000D01*
X118749999Y-70749999D01*
X118750000Y-70749999D01*
X118750000Y-69399000D01*
X118769962Y-69324500D01*
X118824500Y-69269962D01*
X118899000Y-69250000D01*
X119101000Y-69250000D01*
X119175500Y-69269962D01*
X119230038Y-69324500D01*
X119250000Y-69399000D01*
X119250000Y-70749999D01*
X120064187Y-70749999D01*
X120196331Y-70739600D01*
X120196335Y-70739599D01*
X120414511Y-70684624D01*
X120414519Y-70684621D01*
X120619373Y-70591572D01*
X120804331Y-70463434D01*
X120963434Y-70304331D01*
X121091572Y-70119373D01*
X121184621Y-69914519D01*
X121184624Y-69914512D01*
X121239600Y-69696330D01*
X121239600Y-69696327D01*
X121250000Y-69564189D01*
X121250000Y-69000000D01*
X120646347Y-69000000D01*
X120571847Y-68980038D01*
X120517309Y-68925500D01*
X120497347Y-68851000D01*
X120498863Y-68829797D01*
X120500000Y-68821888D01*
X120500000Y-68678111D01*
X120498863Y-68670203D01*
X120508021Y-68593620D01*
X120554243Y-68531877D01*
X120625144Y-68501516D01*
X120646347Y-68500000D01*
X121249999Y-68500000D01*
X121249999Y-67935813D01*
X121239600Y-67803668D01*
X121239599Y-67803664D01*
X121184624Y-67585488D01*
X121184621Y-67585480D01*
X121091572Y-67380626D01*
X120963434Y-67195668D01*
X120804331Y-67036565D01*
X120619373Y-66908427D01*
X120414519Y-66815378D01*
X120414512Y-66815375D01*
X120196329Y-66760399D01*
X120064189Y-66750000D01*
X119250000Y-66750000D01*
X119250000Y-68101000D01*
X119230038Y-68175500D01*
X119175500Y-68230038D01*
X119101000Y-68250000D01*
X118899000Y-68250000D01*
X118824500Y-68230038D01*
X118769962Y-68175500D01*
X118750000Y-68101000D01*
X118750000Y-66750000D01*
X117935814Y-66750001D01*
X117935813Y-66750001D01*
X117803668Y-66760399D01*
X117803664Y-66760400D01*
X117585488Y-66815375D01*
X117585480Y-66815378D01*
X117380626Y-66908427D01*
X117195668Y-67036565D01*
X117036565Y-67195668D01*
X116908427Y-67380626D01*
X116815378Y-67585480D01*
X116815375Y-67585487D01*
X116760399Y-67803669D01*
X116760399Y-67803672D01*
X116750000Y-67935811D01*
X116750000Y-68500000D01*
X106206773Y-68500000D01*
X106506977Y-68384762D01*
X106507001Y-68384751D01*
X106852525Y-68208699D01*
X106852545Y-68208688D01*
X107177785Y-67997474D01*
X107435350Y-67788902D01*
X106793736Y-67147289D01*
X106755172Y-67080494D01*
X106755172Y-67003366D01*
X106793736Y-66936571D01*
X106816311Y-66918044D01*
X106877296Y-66877296D01*
X106918043Y-66816314D01*
X106976027Y-66765462D01*
X107051673Y-66750414D01*
X107124708Y-66775205D01*
X107147289Y-66793736D01*
X107788902Y-67435349D01*
X107997474Y-67177785D01*
X108208688Y-66852545D01*
X108208699Y-66852525D01*
X108384751Y-66507001D01*
X108384762Y-66506977D01*
X108523733Y-66144947D01*
X108523740Y-66144927D01*
X108624110Y-65770338D01*
X108624111Y-65770335D01*
X108684781Y-65387280D01*
X108705078Y-64999999D01*
X108684781Y-64612719D01*
X108624111Y-64229664D01*
X108624110Y-64229661D01*
X108523740Y-63855072D01*
X108523733Y-63855052D01*
X108384762Y-63493022D01*
X108384751Y-63492998D01*
X108208699Y-63147474D01*
X108208688Y-63147454D01*
X107997475Y-62822215D01*
X107997473Y-62822213D01*
X107788903Y-62564649D01*
X107788902Y-62564648D01*
X107147289Y-63206262D01*
X107080494Y-63244826D01*
X107003366Y-63244826D01*
X106936571Y-63206262D01*
X106918041Y-63183683D01*
X106877296Y-63122704D01*
X106877294Y-63122702D01*
X106816314Y-63081956D01*
X106765461Y-63023968D01*
X106750414Y-62948322D01*
X106775207Y-62875287D01*
X106793736Y-62852709D01*
X107435349Y-62211095D01*
X107177789Y-62002528D01*
X106852545Y-61791311D01*
X106852525Y-61791300D01*
X106507001Y-61615248D01*
X106506977Y-61615237D01*
X106144947Y-61476266D01*
X106144927Y-61476259D01*
X105770338Y-61375889D01*
X105770335Y-61375888D01*
X105387280Y-61315218D01*
X105000000Y-61294922D01*
X104612719Y-61315218D01*
X104229664Y-61375888D01*
X104229661Y-61375889D01*
X103855072Y-61476259D01*
X103855052Y-61476266D01*
X103493022Y-61615237D01*
X103492998Y-61615248D01*
X103147474Y-61791300D01*
X103147454Y-61791311D01*
X102822210Y-62002528D01*
X102564649Y-62211095D01*
X102564648Y-62211095D01*
X103206263Y-62852710D01*
X103244827Y-62919505D01*
X103244827Y-62996633D01*
X103206263Y-63063428D01*
X103183684Y-63081958D01*
X103122704Y-63122703D01*
X103122703Y-63122704D01*
X103081958Y-63183684D01*
X103023970Y-63234538D01*
X102948323Y-63249585D01*
X102875289Y-63224793D01*
X102852710Y-63206263D01*
X102211095Y-62564648D01*
X102211095Y-62564649D01*
X102002528Y-62822210D01*
X101791311Y-63147454D01*
X101791300Y-63147474D01*
X101615248Y-63492998D01*
X101615237Y-63493022D01*
X101476266Y-63855052D01*
X101476259Y-63855072D01*
X101375889Y-64229661D01*
X101375888Y-64229664D01*
X101315218Y-64612719D01*
X101294922Y-64999999D01*
X100200500Y-64999999D01*
X100218622Y-64584941D01*
X100219185Y-64578491D01*
X100272992Y-64169784D01*
X100274115Y-64163416D01*
X100363337Y-63760960D01*
X100365013Y-63754708D01*
X100488967Y-63361576D01*
X100491191Y-63355466D01*
X100512946Y-63302944D01*
X100648937Y-62974633D01*
X100651670Y-62968773D01*
X100842010Y-62603132D01*
X100845250Y-62597520D01*
X101066733Y-62249861D01*
X101070460Y-62244539D01*
X101321413Y-61917491D01*
X101325546Y-61912565D01*
X101604050Y-61608631D01*
X101608631Y-61604050D01*
X101912565Y-61325546D01*
X101917491Y-61321413D01*
X102244546Y-61070455D01*
X102249865Y-61066731D01*
X102310364Y-61028189D01*
X102597520Y-60845250D01*
X102603135Y-60842009D01*
X102968773Y-60651670D01*
X102974633Y-60648937D01*
X103355465Y-60491191D01*
X103361576Y-60488967D01*
X103390290Y-60479913D01*
X103754708Y-60365013D01*
X103760960Y-60363337D01*
X104163416Y-60274115D01*
X104169784Y-60272992D01*
X104578491Y-60219185D01*
X104584941Y-60218622D01*
X105000000Y-60200500D01*
X105039882Y-60200500D01*
X184960118Y-60200500D01*
X185000000Y-60200500D01*
X185415056Y-60218622D01*
G37*
%TD.AperFunction*%
%TD*%
M02*
